<svg width="100" height="100" viewBox="0 0 100 100" fill="none" xmlns="http://www.w3.org/2000/svg">
<g clip-path="url(#clip0_154_17501)">
<rect width="100" height="100" rx="50" fill="white"/>
<path d="M98.7647 150.288C98.4993 151.279 98.1725 152.253 97.7861 153.203C97.5912 153.684 97.353 154.146 97.0746 154.584C96.7476 154.961 96.4904 155.393 96.315 155.86C96.066 156.835 95.9434 157.838 95.9502 158.844C95.9039 159.865 95.8341 160.894 95.6896 161.915C95.6222 162.426 95.5301 162.934 95.4264 163.439C95.3646 163.698 95.3335 163.928 95.2464 164.211C95.1512 164.494 94.985 164.748 94.7635 164.949C93.9251 165.616 92.9451 166.082 91.8986 166.312C89.8982 166.814 87.8602 167.152 85.8049 167.323C81.7163 167.705 77.6184 167.787 73.5261 167.797C69.4316 167.795 65.3396 167.698 61.25 167.504L61.4636 167.475C57.0167 169.036 52.5046 170.355 47.9684 171.58C43.4326 172.804 38.8742 173.937 34.2933 174.979C25.1327 177.053 15.9065 178.88 6.58443 180.134C1.92426 180.761 -2.75639 181.265 -7.45914 181.554C-12.1733 181.898 -16.9078 181.854 -21.6148 181.423C-23.9941 181.197 -26.3427 180.72 -28.6211 179.998C-29.78 179.614 -30.886 179.086 -31.9132 178.426C-32.9815 177.755 -33.8585 176.819 -34.4596 175.71C-36.7551 171.446 -37.5438 166.653 -37.8619 161.965C-38.1014 157.257 -37.9278 152.538 -37.3429 147.861C-36.7882 143.193 -35.9703 138.56 -34.8929 133.984C-32.7323 124.838 -29.8361 115.881 -26.2327 107.202C-24.5331 102.805 -22.3985 98.5887 -19.8606 94.6163C-18.5189 92.6665 -17.0241 90.8264 -15.3904 89.1137C-13.7269 87.4227 -11.9125 85.8871 -9.96977 84.5259C-6.04938 81.8188 -1.64225 79.8958 3.00865 78.8629C7.66538 77.794 12.4775 77.5798 17.2108 78.2306C17.3092 78.2449 17.4012 78.2877 17.4755 78.3539L17.4961 78.3721C22.0495 82.2857 25.993 86.8574 29.1961 91.9359C32.5739 97.0288 34.419 102.984 34.5124 109.095C34.6057 115.205 32.9432 121.214 29.7225 126.408C26.6466 131.631 22.6183 136.23 17.8465 139.967C17.6736 140.103 17.454 140.164 17.2359 140.138C17.0178 140.112 16.8191 140 16.6835 139.827L16.6596 139.795L16.64 139.767L7.90617 127.378L9.40916 127.151L2.34554 148.757L1.56145 147.674C14.8946 147.665 28.229 147.756 41.5662 147.814L46.5677 147.838C48.2297 147.837 49.9135 147.889 51.5585 147.789C54.8185 147.743 58.033 147.017 60.9964 145.657C62.4257 144.951 63.6898 143.95 64.7061 142.722C65.2115 142.147 65.6948 141.377 66.2404 140.746C66.7727 140.081 67.3415 139.447 67.9441 138.845C69.1458 137.624 70.506 136.57 71.988 135.712C73.4765 134.882 75.057 134.23 76.6972 133.768L76.6642 133.78L76.7864 133.74L76.8153 133.73C78.0575 133.337 79.2074 132.697 80.1962 131.848C80.6946 131.424 81.1532 130.955 81.5661 130.448C81.9889 129.945 82.3244 129.392 82.7478 128.82C83.5875 127.728 84.5321 126.722 85.5681 125.814C86.0748 125.33 86.6267 124.896 87.2164 124.517C87.8781 124.162 88.6459 124.059 89.3778 124.226C90.1092 124.404 90.7402 124.864 91.1327 125.507C91.4879 126.138 91.6576 126.857 91.6221 127.581C91.5728 128.974 91.1759 130.333 90.4673 131.534C90.1192 132.129 89.7073 132.684 89.2389 133.19C88.7614 133.677 88.2577 134.137 87.7302 134.568C86.6973 135.429 85.8159 136.457 85.1228 137.609C85.1181 137.619 85.1114 137.627 85.1034 137.634C85.0953 137.641 85.0859 137.647 85.0758 137.65C85.0656 137.654 85.0549 137.655 85.0443 137.654C85.0336 137.653 85.0232 137.65 85.0137 137.646C84.9947 137.635 84.9804 137.618 84.9738 137.598C84.9671 137.577 84.9686 137.555 84.9779 137.535C85.6557 136.347 86.5281 135.28 87.5589 134.38C88.0696 133.943 88.5563 133.479 89.0167 132.989C89.4577 132.49 89.8432 131.945 90.1664 131.364C90.8153 130.206 91.1653 128.906 91.1847 127.579C91.2042 126.942 91.044 126.313 90.7225 125.762C90.3889 125.242 89.863 124.876 89.2598 124.742C88.6552 124.619 88.0263 124.719 87.4893 125.023C86.9518 125.393 86.4489 125.812 85.9869 126.273C85.0042 127.172 84.1119 128.166 83.3228 129.24C82.6122 130.428 81.7314 131.507 80.7085 132.44C79.6498 133.376 78.413 134.089 77.0721 134.536L77.1006 134.526L76.9792 134.567L76.9458 134.579C75.3783 135.045 73.8708 135.694 72.4543 136.511C71.0591 137.349 69.7828 138.371 68.6595 139.549C68.0907 140.135 67.5549 140.752 67.0546 141.397C66.5193 142.039 66.1301 142.701 65.5515 143.396C64.4576 144.763 63.0879 145.884 61.5317 146.686C58.4374 148.174 55.061 148.986 51.6282 149.065C49.9426 149.183 48.2882 149.145 46.6152 149.163L41.6095 149.187C28.2609 149.246 14.9097 149.336 1.55698 149.328C1.44852 149.328 1.34113 149.306 1.24097 149.265C1.1408 149.223 1.04981 149.162 0.973175 149.085C0.896542 149.009 0.83577 148.918 0.794342 148.817C0.752914 148.717 0.731636 148.61 0.73172 148.501C0.732384 148.414 0.746265 148.328 0.772888 148.244L7.79231 126.625C7.84102 126.475 7.93057 126.341 8.05093 126.239C8.1713 126.137 8.31771 126.07 8.47377 126.047C8.62983 126.023 8.78936 126.043 8.93449 126.105C9.07962 126.168 9.20461 126.269 9.29546 126.398L18.0436 138.776L16.8373 138.577C21.4389 134.999 25.3331 130.594 28.3206 125.589C31.3616 120.626 32.9752 114.92 32.9837 109.1C32.8248 103.271 31.1029 97.5928 27.9979 92.6579C24.9196 87.6548 21.1115 83.1393 16.6998 79.2606L16.9847 79.4019C11.2475 78.4697 5.37086 78.9137 -0.161194 80.6973C-5.69324 82.4809 -10.7225 85.5531 -14.8347 89.6609C-16.459 91.3231 -17.9486 93.1116 -19.2897 95.0096C-21.8607 98.9088 -24.01 103.07 -25.7013 107.424C-29.363 116.047 -32.2624 124.975 -34.3664 134.104C-36.385 143.22 -37.7396 152.597 -37.0596 161.908C-36.6816 166.522 -35.8112 171.207 -33.5723 175.209C-32.5401 177.153 -30.3922 178.217 -28.2654 178.933C-26.0592 179.594 -23.7892 180.02 -21.4934 180.202C-16.85 180.542 -12.1879 180.537 -7.54526 180.187C-2.88848 179.88 1.75883 179.357 6.38918 178.713C15.6465 177.393 24.8499 175.714 33.9995 173.676C43.1301 171.629 52.2244 169.322 61.102 166.426L61.1123 166.423C61.178 166.401 61.2471 166.392 61.316 166.397C65.3773 166.648 69.4584 166.802 73.5323 166.862C77.6067 166.914 81.6865 166.877 85.7398 166.574C87.7606 166.455 89.7683 166.172 91.7431 165.727C92.703 165.542 93.6096 165.145 94.3965 164.565C94.5608 164.427 94.6862 164.249 94.7604 164.048C94.8308 163.845 94.882 163.569 94.9438 163.333C95.0571 162.841 95.1593 162.345 95.2375 161.846C95.4034 160.848 95.4966 159.838 95.5673 158.821C95.5857 157.784 95.739 156.753 96.0233 155.755C96.1173 155.505 96.2376 155.266 96.3821 155.041C96.5441 154.817 96.7109 154.626 96.849 154.43C97.1285 154.012 97.3697 153.569 97.5695 153.108C97.9748 152.175 98.3218 151.218 98.6083 150.243C98.6144 150.222 98.6284 150.205 98.6472 150.195C98.666 150.184 98.6881 150.182 98.7087 150.188C98.7293 150.194 98.7467 150.207 98.7572 150.226C98.7677 150.245 98.7704 150.267 98.7647 150.288Z" fill="black"/>
<path d="M236.445 346.864H236.419L236.421 346.05H236.423C236.738 346.05 257.547 345.983 263.151 339.096C263.741 338.402 264.158 337.579 264.369 336.693C264.579 335.808 264.576 334.885 264.361 334C261.726 321.413 260.949 317.729 260.949 317.729L261.745 317.561C261.745 317.561 262.521 321.246 265.156 333.834C265.393 334.837 265.392 335.882 265.154 336.885C264.915 337.888 264.445 338.821 263.781 339.61C257.968 346.754 237.634 346.864 236.445 346.864ZM69.0539 108.193C70.0473 109.06 70.9264 110.05 71.6697 111.139C72.4353 112.231 73.0679 113.41 73.5539 114.651C74.0593 115.903 74.4072 117.213 74.5897 118.551C74.779 119.901 74.8212 121.268 74.7155 122.627L73.104 122.409C73.329 121.174 73.4199 119.918 73.3752 118.663C73.3348 117.394 73.1363 116.134 72.7843 114.914C72.4415 113.673 71.9514 112.478 71.3245 111.354C70.705 110.208 69.9419 109.146 69.0539 108.193ZM58.6136 75.4161C64.5596 74.0086 70.5726 72.9013 76.6298 72.0983C79.6651 71.728 82.7113 71.4099 85.7766 71.2763C87.3064 71.1708 88.8448 71.1881 90.3819 71.1626C91.9213 71.2274 93.4635 71.2206 95.0052 71.4267C95.7812 71.4852 96.5529 71.5918 97.3157 71.7458C98.076 71.9144 98.8701 72.0087 99.6042 72.2421C101.1 72.6407 102.561 73.1474 104.015 73.6711C106.903 74.7702 109.7 76.0956 112.379 77.6348C117.813 80.6488 122.643 84.6428 126.623 89.4148C127.123 90.0139 127.589 90.6399 128.021 91.2901L128.69 92.251L129.288 93.262L129.885 94.2732L130.404 95.3303L131.399 97.4044C132.718 100.114 134.235 102.722 135.939 105.207C139.301 110.25 143.076 115.031 146.934 119.728C148.881 122.059 150.866 124.376 152.974 126.532C153.237 126.798 153.51 127.04 153.778 127.296C153.916 127.431 154.02 127.477 154.138 127.58C154.298 127.694 154.468 127.793 154.647 127.876C155.318 128.286 155.961 128.742 156.569 129.242C157.78 130.211 158.9 131.29 159.913 132.465C161.973 134.79 163.5 137.536 164.387 140.512L164.556 141.065L164.662 141.635L164.873 142.772C164.986 143.533 164.983 144.308 165.04 145.073C164.994 145.84 164.926 146.605 164.859 147.366L164.37 149.606C165.07 146.637 164.933 143.533 163.975 140.638C162.998 137.782 161.409 135.174 159.319 132.997C158.307 131.889 157.198 130.874 156.005 129.963C155.423 129.508 154.811 129.094 154.172 128.723C154.004 128.646 153.842 128.557 153.687 128.456C153.493 128.336 153.307 128.203 153.131 128.057C152.84 127.794 152.536 127.536 152.257 127.267C150.045 125.113 148.002 122.841 145.982 120.539C143.96 118.241 142.012 115.88 140.138 113.456C138.248 111.047 136.438 108.572 134.71 106.032C132.943 103.497 131.366 100.835 129.993 98.0671L128.992 96.0238L128.497 95.0309L127.922 94.0772L127.348 93.1233L126.702 92.2129C126.284 91.5958 125.835 91.0009 125.355 90.4305C121.533 85.7788 116.883 81.8744 111.64 78.9141C109.039 77.392 106.322 76.0774 103.515 74.9827C100.736 73.8562 97.8284 73.0772 94.8585 72.6632C93.3784 72.427 91.862 72.3972 90.3574 72.2964C88.8444 72.2854 87.3311 72.2307 85.8141 72.2985C82.7803 72.3533 79.7471 72.6068 76.7182 72.8859C70.6562 73.4494 64.6196 74.3406 58.6136 75.4161Z" fill="black"/>
<path d="M98.8633 101.231C98.7632 101.044 88.6702 82.4239 71.4063 73.4416L71.717 72.8428C89.1708 81.9243 99.3573 100.724 99.4584 100.913L98.8633 101.231ZM99.1605 92.6547C99.7426 94.7057 100.487 96.7071 101.388 98.6396C102.272 100.569 103.309 102.424 104.491 104.187L103.923 104.551C101.734 100.853 100.128 96.841 99.1605 92.6547ZM126.812 160.592C124.92 160.144 123.102 159.424 121.416 158.456C120.569 158.01 119.722 157.431 118.931 156.996C118.11 156.606 117.183 156.503 116.297 156.703C115.848 156.817 115.414 156.979 115 157.185C114.539 157.383 114.064 157.548 113.58 157.679C112.569 157.972 111.497 157.983 110.48 157.711C109.96 157.549 109.475 157.29 109.052 156.947C108.772 156.74 108.566 156.448 108.465 156.114C108.4 155.8 108.409 155.475 108.488 155.164C108.797 154.159 109.308 153.228 109.99 152.429L110.411 153.339C110.174 153.33 109.944 153.25 109.753 153.11C109.618 153.017 109.493 152.911 109.38 152.792C109.177 152.58 108.999 152.345 108.85 152.092C108.559 151.612 108.355 151.083 108.248 150.532L108.111 149.719C108.087 149.442 108.094 149.154 108.096 148.873C108.144 148.32 108.261 147.776 108.444 147.252C108.811 146.248 109.335 145.308 109.996 144.468C110.64 143.638 111.368 142.875 112.167 142.193L111.899 142.786C111.922 141.817 112.031 140.853 112.227 139.904C112.392 138.991 112.577 138.09 112.789 137.185L112.96 136.498C113.002 136.342 113.057 136.189 113.124 136.041C113.197 135.908 113.272 135.769 113.351 135.655C113.643 135.24 113.974 134.854 114.341 134.502C115.021 133.843 115.739 133.224 116.492 132.649L116.814 134.053C115.38 133.733 114.085 133.346 112.74 132.952L110.75 132.343C110.03 132.147 109.332 131.874 108.67 131.528C107.873 131.132 107.245 130.462 106.9 129.642C106.729 129.177 106.691 128.674 106.79 128.188C106.888 127.703 107.12 127.255 107.458 126.893C107.782 126.54 108.187 126.273 108.639 126.116C108.865 126.037 109.099 125.985 109.337 125.962L109.864 125.919C110.564 125.866 111.264 125.829 111.965 125.806C114.769 125.7 117.577 125.835 120.359 126.21C123.157 126.571 125.903 127.265 128.537 128.279L128.292 128.233C129.024 128.253 129.746 128.407 130.422 128.686C130.814 128.832 131.167 129.065 131.455 129.368C131.743 129.671 131.958 130.035 132.084 130.434C132.169 130.829 132.179 131.237 132.113 131.636C132.062 131.966 132.004 132.294 131.934 132.617C131.776 133.192 131.665 133.778 131.6 134.37C131.704 134.883 131.973 135.347 132.366 135.693C132.88 136.185 133.283 136.783 133.546 137.444C133.743 138.129 133.796 138.846 133.7 139.552C133.632 140.198 133.562 140.822 133.54 141.443C133.472 141.998 133.561 142.561 133.796 143.067C133.829 143.117 133.866 143.164 133.907 143.207L133.975 143.278L134.096 143.42C134.212 143.584 134.301 143.765 134.361 143.957C134.464 144.288 134.535 144.628 134.571 144.973C134.653 145.647 134.625 146.331 134.49 146.997C134.428 147.379 134.241 147.73 133.958 147.994C133.842 148.077 133.811 148.106 133.781 148.124C133.747 148.153 133.719 148.189 133.699 148.229C133.653 148.345 133.634 148.469 133.643 148.593C133.735 149.775 134.366 151.014 134.46 152.323C134.534 152.972 134.517 153.628 134.408 154.272C134.378 154.6 134.25 154.911 134.041 155.165C133.832 155.419 133.552 155.604 133.236 155.697C133.535 155.589 133.793 155.392 133.978 155.134C134.163 154.875 134.266 154.567 134.272 154.249C134.33 153.617 134.303 152.98 134.192 152.355C134.038 151.088 133.363 149.996 133.168 148.614C133.147 148.417 133.171 148.218 133.238 148.032C133.283 147.925 133.348 147.829 133.43 147.748C133.527 147.667 133.623 147.597 133.633 147.58C133.798 147.381 133.899 147.137 133.924 146.879C134.011 146.277 134.002 145.665 133.897 145.065C133.85 144.773 133.775 144.485 133.673 144.207C133.563 143.894 133.489 143.908 133.16 143.525C132.786 142.893 132.619 142.16 132.683 141.429C132.66 140.1 132.994 138.775 132.618 137.768C132.378 137.243 132.028 136.776 131.593 136.397C131.35 136.146 131.126 135.878 130.923 135.594C130.678 135.254 130.53 134.854 130.493 134.436C130.523 133.747 130.62 133.063 130.784 132.394C130.84 132.087 130.884 131.781 130.921 131.473C130.955 131.236 130.946 130.995 130.894 130.762C130.691 129.979 129.375 129.597 128.292 129.593L128.168 129.592L128.047 129.547C125.502 128.624 122.856 128.005 120.165 127.701C117.463 127.386 114.741 127.282 112.023 127.39C111.343 127.416 110.665 127.457 109.988 127.511L109.483 127.555C109.377 127.567 109.273 127.591 109.173 127.627C108.97 127.698 108.788 127.819 108.644 127.979C108.505 128.122 108.41 128.302 108.37 128.497C108.33 128.692 108.347 128.895 108.419 129.081C108.64 129.534 109.008 129.898 109.464 130.114C110.027 130.408 110.62 130.64 111.233 130.807L113.201 131.421C114.503 131.812 115.856 132.217 117.117 132.506L118.779 132.887L117.439 133.909C116.738 134.438 116.07 135.008 115.436 135.614C115.143 135.894 114.874 136.198 114.632 136.523C114.58 136.595 114.548 136.66 114.507 136.723C114.48 136.783 114.458 136.845 114.44 136.909L114.27 137.547C114.051 138.415 113.854 139.298 113.68 140.177C113.495 141.014 113.379 141.863 113.331 142.719L113.328 143.094L113.063 143.312C112.338 143.915 111.675 144.588 111.085 145.322C110.496 146.038 110.018 146.837 109.665 147.694C109.321 148.512 109.237 149.417 109.424 150.285C109.49 150.716 109.633 151.132 109.848 151.512C109.945 151.692 110.063 151.861 110.199 152.015C110.255 152.079 110.318 152.137 110.386 152.189C110.437 152.238 110.505 152.238 110.412 152.234L110.833 153.144C110.237 153.801 109.775 154.568 109.471 155.401C109.423 155.558 109.408 155.723 109.426 155.885C109.468 156.017 109.554 156.13 109.669 156.205C109.99 156.483 110.361 156.698 110.762 156.837C111.617 157.088 112.525 157.102 113.388 156.877C113.841 156.772 114.287 156.64 114.724 156.482C115.188 156.283 115.672 156.134 116.168 156.037C117.195 155.861 118.252 156.034 119.17 156.529C120.043 157.072 120.764 157.634 121.603 158.135C123.224 159.179 124.976 160.006 126.812 160.592Z" fill="black"/>
<path d="M124.378 115.359H101.288C100.883 115.358 100.484 115.459 100.128 115.651C99.7714 115.843 99.4687 116.122 99.2471 116.461L91.3235 128.543C90.9875 130.652 89.8983 132.569 88.2575 133.937C87.4846 134.578 86.7667 135.284 86.1113 136.045L85.0479 137.568C84.2334 139.12 84.8371 139.762 84.8371 139.762C89.4455 148.5 111.051 132.471 112.517 136.6C113.581 139.628 106.011 144.102 101.911 146.268C101.145 146.672 100.469 147.225 99.9206 147.895C99.3726 148.564 98.9644 149.337 98.7202 150.167C98.7115 150.201 98.6987 150.233 98.6818 150.263L108.867 150.608C108.783 150.278 108.732 149.941 108.713 149.602C108.464 146.067 112.613 142.752 112.613 142.752C112.793 140.671 113.169 138.611 113.734 136.6C114.05 135.47 116.963 133.276 116.963 133.276C116.963 133.276 115.343 132.96 110.495 131.417C108.464 130.785 107.736 129.884 107.573 129.06C107.53 128.786 107.545 128.507 107.616 128.239C107.687 127.971 107.813 127.721 107.986 127.505C108.159 127.288 108.375 127.11 108.621 126.982C108.867 126.854 109.136 126.779 109.413 126.76C113.758 126.373 118.135 126.554 122.434 127.297L126.573 118.875C126.755 118.503 126.839 118.09 126.818 117.676C126.796 117.262 126.67 116.86 126.451 116.509C126.231 116.157 125.926 115.867 125.563 115.666C125.201 115.465 124.793 115.359 124.378 115.359ZM110.17 123.877C109.797 123.864 109.444 123.707 109.184 123.439C108.925 123.171 108.78 122.812 108.78 122.44C108.78 122.067 108.925 121.708 109.184 121.44C109.444 121.172 109.797 121.015 110.17 121.002C110.542 121.015 110.895 121.172 111.154 121.44C111.413 121.708 111.558 122.067 111.558 122.44C111.558 122.812 111.413 123.171 111.154 123.439C110.895 123.707 110.542 123.864 110.17 123.877ZM57.1226 101.242C49.2967 101.242 38.2756 97.7891 33.0069 91.1646C25.7359 82.0232 10.0252 78.783 9.86707 78.7512L9.17188 78.6118L9.71924 78.1608C9.77444 78.1149 15.3117 73.4806 15.5446 67.8751C15.6635 65.026 17.3561 63.4195 19.3163 61.5594C21.5132 59.4738 24.004 57.1103 25.0201 52.2814C25.3962 50.4971 25.6881 48.1944 25.9969 45.757C27.3283 35.2533 29.1519 20.8675 40.3284 18.2739C54.3212 15.0262 63.8097 17.5347 69.3357 25.9435C73.0269 31.5602 75.483 39.6275 77.2767 45.5175C77.8656 47.7545 78.6241 49.9435 79.5457 52.0653C80.4785 53.7438 82.0027 56.0858 83.4764 58.3501C84.8986 60.5367 86.2432 62.6017 87.0721 64.0829C88.7975 67.164 88.6974 71.5391 88.6918 71.7244L88.6824 72.0575L88.3493 72.0519C88.2539 72.0575 79.1237 71.9489 59.7462 75.5222L59.2101 75.6214L59.706 73.9082C59.949 73.0374 60.4763 72.2729 61.204 71.7364C61.9318 71.1999 62.8181 70.9223 63.7218 70.9478C67.5178 71.0704 72.27 69.8353 73.3338 63.223C74.974 53.0318 74.7055 49.1432 73.5855 45.1582C73.3909 44.4649 73.2225 43.4693 73.0279 42.3157C72.095 36.7953 70.5418 27.5977 62.5831 25.7891C61.6624 28.0066 55.3467 42.4242 45.3669 45.7505L45.2715 45.7823L45.1732 45.7561C45.1424 45.7486 42.0893 44.9598 40.6334 46.3979C39.7904 47.2279 39.6192 48.6725 40.1244 50.6908C42.0126 58.25 44.0944 58.9957 45.7066 58.8142L45.8628 58.7954L45.977 58.904C46.5019 59.398 58.8283 71.0891 58.9508 77.2307C58.9707 79.4216 58.6358 81.6012 57.959 83.6849C57.4079 85.6077 57.0094 86.9962 57.9347 88.6009C58.9174 89.8413 60.1112 90.8985 61.4612 91.7242C63.6993 93.3428 66.0132 95.0158 66.0478 96.9115C66.0159 97.4289 65.8613 97.9312 65.597 98.3772C65.3326 98.8231 64.966 99.1998 64.5274 99.4761C63.0107 100.66 60.3356 101.242 57.1226 101.242ZM10.6512 78.2366C13.7351 78.9636 26.9681 82.4882 33.5346 90.7454C40.7756 99.8475 59.0809 102.872 64.1119 98.9446C64.467 98.7314 64.7665 98.4371 64.9859 98.0858C65.2053 97.7345 65.3384 97.3362 65.3741 96.9236C65.3451 95.3648 63.1697 93.792 61.0664 92.2706C59.6343 91.3965 58.3749 90.2668 57.3509 88.9378C56.2823 87.0861 56.7361 85.503 57.3106 83.4988C57.967 81.4793 58.2933 79.3673 58.2772 77.2439C58.1658 71.6795 46.8715 60.6949 45.6252 59.5C42.8659 59.7152 41.0339 57.1132 39.4695 50.8536C38.9034 48.5865 39.1355 46.9257 40.1609 45.9161C41.7459 44.3545 44.6558 44.9393 45.2462 45.0797C55.4861 41.5831 61.9992 25.4383 62.0638 25.2755L62.1676 25.0135L62.4446 25.0696C71.0939 26.8202 72.7846 36.8271 73.6931 42.2034C73.884 43.3374 74.0496 44.3171 74.2349 44.9749C75.382 49.0553 75.6599 53.015 74 63.3297C72.7977 70.8019 67.0144 71.745 63.6993 71.6215C62.9479 71.6116 62.214 71.8481 61.6097 72.2949C61.0055 72.7417 60.5642 73.3741 60.3534 74.0954L60.1607 74.7607C77.1888 71.6487 86.2067 71.396 88.0181 71.3782C88.0312 68.9711 87.5073 66.5913 86.4845 64.4122C85.6658 62.9507 84.3278 60.8951 82.9103 58.7178C81.431 56.4432 79.9012 54.0919 78.9562 52.3928C78.0079 50.2307 77.2308 47.9976 76.632 45.7139C74.8496 39.8633 72.4094 31.8493 68.7725 26.3139C63.4186 18.1671 54.1584 15.7541 40.4809 18.9307C29.762 21.4186 27.9721 35.5349 26.6659 45.8412C26.3553 48.2926 26.0615 50.6083 25.6807 52.4198C24.6206 57.4546 22.0494 59.8948 19.7804 62.0487C17.8501 63.8807 16.3259 65.3272 16.2183 67.9031C16.0134 72.8416 12.0771 76.9164 10.6512 78.2366Z" fill="black"/>
<path d="M50 63.3462C49.6229 64.1235 49.0858 64.8201 48.4209 65.3942C47.756 65.9683 46.977 66.4082 46.1304 66.6875C45.2007 66.9895 44.209 67.0743 43.2381 66.9346C42.2672 66.7949 41.3453 66.4349 40.5495 65.8846C39.7536 65.3344 39.1069 64.6099 38.6635 63.7716C38.22 62.9334 37.9926 62.0057 38.0002 61.0662C38.0177 60.0759 38.275 59.103 38.7518 58.224C39.2286 57.3449 40.6638 56.5836 41.5 56C43.1764 59.0036 44 59 45.9665 59.45C45.9665 59.45 47.6681 60.9941 50 63.3462Z" fill="#4087D5"/>
<path d="M88.3533 71.7167C88.3533 71.7167 79.3279 71.5634 59.6865 75.1947L60.0793 73.8343C60.3067 73.0706 60.7829 72.405 61.4322 71.9432C62.0815 71.4813 62.8666 71.2498 63.6626 71.2855C67.0544 71.4006 72.5156 70.4425 73.6654 63.2758C75.3708 52.7174 75.0068 48.9518 73.9145 45.0618C72.8127 41.1816 72.5731 27.4614 62.3788 25.4015C62.3788 25.4015 55.8253 41.9098 45.2572 45.426C45.2572 45.426 37.9756 43.4906 39.796 50.7724C40.2277 52.7233 40.8936 54.6149 41.7793 56.406C40.9928 56.7552 40.3146 57.3094 39.8157 58.0106C39.3167 58.7118 39.0154 59.5341 38.9433 60.3917C38.8653 61.2839 39.0203 62.181 39.3929 62.9954C39.7655 63.8098 40.3431 64.5135 41.0692 65.0378C41.7953 65.5622 42.645 65.8891 43.5352 65.9866C44.4255 66.0842 45.3258 65.949 46.1482 65.5944C46.8275 65.302 47.431 64.8583 47.9126 64.297C48.3941 63.7358 48.7411 63.0719 48.9269 62.3561C52.7114 66.3514 58.5272 73.1442 58.6133 77.2354C58.738 83.31 55.8253 85.6093 57.6456 88.7712C59.4662 91.9234 69.2965 95.3248 64.3238 99.2145C59.3415 103.095 40.7062 100.307 33.2712 90.9557C25.8362 81.6045 9.93152 78.4235 9.93152 78.4235C9.93152 78.4235 15.642 73.7192 15.8815 67.8938C16.121 62.059 23.4122 61.58 25.3476 52.3532C27.2926 43.1267 26.8039 21.7606 40.3996 18.5988C54.0049 15.4466 63.4711 17.6311 69.057 26.1297C74.6426 34.6281 77.4309 48.9518 79.2512 52.2288C81.0717 55.5054 85.0766 61.2157 86.7821 64.2433C88.4778 67.2807 88.3533 71.7167 88.3533 71.7167Z" fill="#4087D5"/>
<path d="M53.0294 44.2172C53.9491 43.7325 54.9244 43.3618 55.9338 43.1131C56.9391 42.8487 57.9649 42.6694 59.0002 42.5772C61.0726 42.366 63.1663 42.5517 65.1691 43.1245C64.1291 43.1634 63.1148 43.1456 62.0999 43.1947C61.0871 43.2294 60.0785 43.2899 59.0735 43.3865C57.0586 43.5594 55.0654 43.859 53.0294 44.2172ZM73.3174 42.009C72.5849 42.0159 71.8727 42.2511 71.28 42.6817C70.7381 43.1144 70.3867 43.7415 70.3005 44.4296C70.2048 45.1314 70.2225 45.844 70.3529 46.5402C70.4502 47.2359 70.6698 47.9089 71.0014 48.5282C71.3616 49.1431 71.815 49.6985 72.3454 50.1745C72.6644 50.4701 72.9076 50.8381 73.0543 51.2475C73.1641 51.6856 73.1148 52.1484 72.9153 52.5537C72.6221 53.2994 72.1266 53.9486 71.4845 54.428C70.8617 54.906 70.0756 55.1192 69.2967 55.0215C70.0301 54.9651 70.7181 54.6444 71.2329 54.119C71.7534 53.64 72.1315 53.0265 72.3253 52.3462C72.4357 52.0629 72.4527 51.7516 72.3737 51.458C72.2417 51.1708 72.0456 50.9177 71.8003 50.7184C71.2038 50.2039 70.6939 49.5969 70.29 48.9207C69.9202 48.2133 69.6839 47.4437 69.5931 46.6506C69.4757 45.8662 69.5095 45.0667 69.6927 44.295C69.8766 43.4933 70.3676 42.7956 71.0603 42.3519C71.7504 41.9801 72.548 41.8589 73.3174 42.009ZM65.1691 51.5008C65.1486 52.1093 65.2293 52.7169 65.4078 53.2989C65.5031 53.5403 65.6555 53.755 65.8519 53.9246C66.058 54.1293 66.3305 54.2966 66.6259 54.5358C66.2599 54.6383 65.87 54.6135 65.5199 54.4654C65.3263 54.3884 65.1502 54.2732 65.0021 54.1267C64.854 53.9801 64.7369 53.8052 64.6579 53.6124C64.5097 53.2376 64.4881 52.8246 64.5965 52.4365C64.6863 52.073 64.8863 51.7462 65.1691 51.5008ZM61.4058 48.1422C61.668 48.1331 61.9165 48.0226 62.0988 47.8338C62.2811 47.6451 62.383 47.393 62.383 47.1306C62.383 46.8682 62.2811 46.6161 62.0988 46.4273C61.9165 46.2386 61.668 46.1281 61.4058 46.1189C61.1436 46.1281 60.8951 46.2386 60.7129 46.4273C60.5306 46.6161 60.4287 46.8682 60.4287 47.1306C60.4287 47.393 60.5306 47.6451 60.7129 47.8338C60.8951 48.0226 61.1436 48.1331 61.4058 48.1422Z" fill="black"/>
<path d="M72.453 47.535C72.7152 47.5259 72.9637 47.4154 73.146 47.2267C73.3284 47.0379 73.4303 46.7858 73.4303 46.5234C73.4303 46.261 73.3284 46.0088 73.146 45.8201C72.9637 45.6313 72.7152 45.5208 72.453 45.5117C72.1907 45.5208 71.9423 45.6313 71.7599 45.8201C71.5776 46.0088 71.4757 46.261 71.4757 46.5234C71.4757 46.7858 71.5776 47.0379 71.7599 47.2267C71.9423 47.4154 72.1907 47.5259 72.453 47.535ZM64.3194 59.0677C65.0354 59.3503 65.7318 59.6127 66.4298 59.8389C67.1108 60.0706 67.8144 60.2293 68.529 60.3121C69.2182 60.3968 69.9174 60.3469 70.5876 60.1652C71.2725 59.919 71.9052 59.5468 72.453 59.0677C72.1123 59.7946 71.5397 60.3877 70.8252 60.7538C70.0783 61.0902 69.2539 61.2168 68.4405 61.1198C67.6541 61.026 66.8912 60.79 66.1891 60.4232C65.4925 60.0823 64.86 59.6238 64.3194 59.0677ZM-20.3925 180.874C-13.6463 196.492 -4.889 211.259 6.51635 223.806C12.1039 230.201 18.4779 235.864 25.4867 240.66C32.522 245.435 40.188 249.207 48.264 251.867C64.3955 257.183 81.5817 258.567 98.434 257.096C106.887 256.404 115.282 255.12 123.556 253.254C127.723 252.429 131.816 251.287 135.932 250.221C138 249.719 140.018 249.046 142.061 248.452L148.179 246.617C148.199 246.61 148.221 246.611 148.241 246.62C148.26 246.63 148.275 246.646 148.282 246.667C148.288 246.687 148.287 246.709 148.277 246.728C148.268 246.747 148.252 246.762 148.233 246.77L142.219 248.939C140.208 249.644 138.224 250.443 136.166 251.01C132.077 252.22 128.018 253.569 123.844 254.492C115.551 256.602 107.102 258.051 98.5794 258.824C90.0395 259.612 81.4413 259.519 72.9204 258.548C64.3951 257.632 56.015 255.67 47.969 252.707C39.9551 249.726 32.3072 245.841 25.1734 241.128C23.3549 240.004 21.6636 238.698 19.93 237.45C19.048 236.845 18.21 236.183 17.3792 235.51L14.8701 233.512C13.2544 232.114 11.6272 230.721 10.0682 229.256C8.54123 227.758 6.95329 226.315 5.52465 224.718C4.80279 223.927 4.06012 223.155 3.35534 222.349L1.27433 219.901C-0.120621 218.276 -1.41113 216.564 -2.69415 214.851C-5.21494 211.389 -7.5583 207.804 -9.75838 204.136C-11.9413 200.456 -13.8809 196.64 -15.708 192.782C-16.6276 190.855 -17.4824 188.898 -18.2365 186.9L-20.5441 180.933C-20.5518 180.913 -20.5513 180.891 -20.5426 180.871C-20.5339 180.851 -20.5176 180.836 -20.4975 180.828C-20.4774 180.821 -20.4554 180.822 -20.4359 180.83C-20.4164 180.839 -20.4009 180.855 -20.3925 180.874ZM82.9985 58.1639C86.0255 57.294 89.13 56.721 92.268 56.453C93.8445 56.3255 95.4289 56.3316 97.0044 56.4713C98.5845 56.5929 100.15 56.7976 101.714 56.9601L101.721 56.9608C101.772 56.9662 101.821 56.9898 101.857 57.0273C103.516 58.7496 105.111 60.4934 106.639 62.3275C108.106 64.199 109.471 66.1479 110.729 68.1658C113.204 72.2236 115.17 76.5703 116.584 81.1081C116.591 81.1289 116.589 81.1514 116.578 81.1706C116.568 81.1899 116.551 81.2043 116.53 81.2108C116.513 81.2157 116.494 81.215 116.477 81.2086C116.46 81.2023 116.446 81.1906 116.436 81.1755C115.791 80.1755 115.177 79.1648 114.595 78.1435C113.973 77.1405 113.388 76.122 112.793 75.1112L109.248 69.0528C108.111 67.0098 106.873 65.0293 105.637 63.0422C104.475 61.0095 103.094 59.1107 101.517 57.3798L101.659 57.4469C100.112 57.2973 98.5543 57.3077 97.0096 57.478C95.4627 57.6153 93.9271 57.8167 92.3806 57.9112C89.2863 58.1063 86.1815 58.3739 83.0206 58.3248C83.001 58.3245 82.9821 58.3172 82.9673 58.3042C82.9526 58.2912 82.943 58.2733 82.9403 58.2538C82.9377 58.2344 82.9421 58.2146 82.9528 58.1981C82.9634 58.1815 82.9796 58.1694 82.9985 58.1639ZM-33.4619 129.002L-33.4624 128.994L-33.4544 129.029C-35.871 124.488 -38.0113 119.805 -39.8637 115.006C-41.7567 110.212 -43.316 105.294 -44.5304 100.285C-45.6959 95.2568 -46.3929 90.1317 -46.6125 84.9752C-46.742 82.3941 -46.6224 79.8066 -46.2552 77.2485C-45.9066 74.6442 -45.0192 72.1411 -43.6496 69.8987C-43.6015 69.825 -43.5314 69.7684 -43.4492 69.737C-41.0301 68.8535 -38.5464 68.1583 -36.0201 67.6575C-33.5221 67.1115 -31.0054 66.6849 -28.4822 66.3137C-23.4363 65.5729 -18.3694 65.0028 -13.2899 64.6398C-10.7491 64.4775 -8.20856 64.3229 -5.66567 64.222C-3.12173 64.1544 -0.579544 64.0571 1.96333 64.014C4.50657 63.9836 7.05033 63.9824 9.59258 63.9967C12.1355 64.0337 14.6776 64.0948 17.2189 64.1801C17.2296 64.1804 17.2401 64.1829 17.2498 64.1873C17.2596 64.1917 17.2683 64.198 17.2756 64.2058C17.2829 64.2136 17.2886 64.2228 17.2924 64.2328C17.2961 64.2428 17.2979 64.2534 17.2975 64.2641C17.2965 64.2843 17.2882 64.3034 17.2741 64.3179C17.26 64.3323 17.2411 64.3412 17.2209 64.3427C14.6839 64.5258 12.1478 64.6839 9.61282 64.8168L2.01281 65.2818C-3.05203 65.5827 -8.10844 65.9632 -13.1582 66.3667C-18.207 66.7767 -23.2524 67.2112 -28.2726 67.8338C-29.5259 67.9983 -30.7819 68.1524 -32.0294 68.3473C-33.282 68.519 -34.5296 68.7144 -35.7723 68.9335C-38.2483 69.325 -40.6969 69.8736 -43.1033 70.5758L-42.9032 70.4144C-44.3331 72.4909 -45.2892 74.8563 -45.7037 77.3432C-46.1357 79.8546 -46.2649 82.4087 -46.0886 84.9508C-45.9328 87.4982 -45.5849 90.0302 -45.0479 92.5252C-44.5307 95.0232 -43.9278 97.5013 -43.2233 99.9527C-41.8704 104.868 -40.3553 109.741 -38.6781 114.571C-37.0194 119.406 -35.2029 124.192 -33.3069 128.958L-33.3029 128.968C-33.2997 128.977 -33.2983 128.985 -33.2988 128.994L-33.2993 129.002C-33.3005 129.023 -33.3096 129.042 -33.3247 129.057C-33.3398 129.071 -33.3598 129.079 -33.3806 129.079C-33.4013 129.079 -33.4213 129.071 -33.4364 129.057C-33.4515 129.042 -33.4607 129.023 -33.4619 129.002Z" fill="black"/>
<path d="M46.4717 56.04C45.7816 55.6814 44.987 55.5786 44.2284 55.7497C44.9014 55.9434 45.5331 56.2589 46.0922 56.6807C47.1606 57.4994 48.0049 58.5749 48.5465 59.8072C48.8237 60.4522 48.9922 61.1387 49.0451 61.8387C49.3691 61.1338 49.4451 60.3401 49.2609 59.5866C49.0908 58.8245 48.7519 58.1102 48.2692 57.4964C47.7865 56.8826 47.1723 56.3849 46.4717 56.04Z" fill="white"/>
<path d="M-35.6481 110.81C-43.6124 95.1616 -41.7739 73.3308 -41.7542 73.1118L-41.0824 73.1717C-41.1021 73.3888 -42.9219 95.0306 -35.0474 110.505L-35.6481 110.81ZM-8.56705 189.252C-6.74276 192.614 -4.72905 195.869 -2.65252 199.072C-0.584518 202.283 1.64122 205.387 3.92072 208.442C8.48203 214.546 13.5307 220.27 19.0171 225.558C21.7594 228.2 24.6398 230.695 27.6462 233.032C30.6771 235.347 33.882 237.425 37.2324 239.248C40.6002 241.042 44.1293 242.515 47.7732 243.647C48.6708 243.969 49.6107 244.149 50.527 244.406C51.4448 244.659 52.3748 244.865 53.3135 245.024L56.1242 245.513C57.0665 245.635 58.0157 245.707 58.9596 245.806L60.3768 245.942L61.8005 245.975L64.6444 246.03L70.3816 245.902C72.2941 245.874 74.2057 245.819 76.1168 245.747L81.8501 245.567C89.4924 245.281 97.1234 244.807 104.741 244.22C112.358 243.627 119.967 242.896 127.525 241.796C131.307 241.262 135.075 240.636 138.818 239.881C142.573 239.165 146.279 238.219 149.917 237.046C149.937 237.039 149.959 237.04 149.979 237.049C149.998 237.059 150.013 237.075 150.021 237.096C150.027 237.115 150.026 237.137 150.017 237.156C150.009 237.175 149.993 237.19 149.974 237.198C142.774 239.894 135.32 241.855 127.726 243.051C120.158 244.36 112.53 245.306 104.882 245.949C97.2319 246.583 89.5633 246.922 81.8958 247.097C78.0619 247.163 74.2275 247.233 70.3938 247.192L64.6436 247.14L61.748 246.974L60.3028 246.885L58.867 246.692C55.0405 246.22 51.268 245.384 47.6013 244.192L44.876 243.246C43.966 242.935 43.0973 242.517 42.2063 242.158C40.4163 241.454 38.7082 240.568 36.9706 239.746C35.2894 238.816 33.5791 237.932 31.9607 236.892C30.2898 235.935 28.7151 234.829 27.1115 233.762C23.9703 231.53 20.9601 229.119 18.0961 226.541C15.2719 223.92 12.5868 221.152 10.0519 218.25C7.54255 215.329 5.17053 212.295 2.91512 209.18C-1.58788 202.948 -5.48214 196.298 -8.71407 189.322C-8.72296 189.302 -8.72368 189.28 -8.71607 189.259C-8.70846 189.239 -8.69313 189.223 -8.67348 189.214C-8.6542 189.206 -8.63264 189.206 -8.61297 189.213C-8.5933 189.22 -8.57693 189.234 -8.56705 189.252Z" fill="black"/>
</g>
<rect x="0.5" y="0.5" width="99" height="99" rx="49.5" stroke="black"/>
<defs>
<clipPath id="clip0_154_17501">
<rect width="100" height="100" rx="50" fill="white"/>
</clipPath>
</defs>
</svg>
