<svg width="366" height="210" viewBox="0 0 366 210" fill="none" xmlns="http://www.w3.org/2000/svg">
<g clip-path="url(#clip0_154_18091)">
<path d="M334.516 121.141C334.064 120.552 333.667 119.928 333.27 119.297C325.623 107.321 292.21 112.998 292.21 112.998C288.432 141.871 281.856 138.468 280.639 136.652C279.421 134.836 277.222 117.003 275.768 114.578C271.565 114.21 262.979 114.273 262.979 114.273C254.692 114.467 246.899 121.73 239.231 133.561C231.563 145.385 218.043 155.393 218.043 155.393C218.043 155.393 222.058 155.76 223.519 164.493C224.417 164.77 227.109 163.585 229.072 162.628C230.822 161.775 232.774 161.418 234.715 161.596C237.874 161.887 242.418 162.892 246.05 166.315C246.496 166.73 246.97 167.115 247.469 167.466C247.928 167.209 248.186 167.036 248.186 167.036C255.673 163.945 260.056 153.209 260.056 153.209C259.449 151.86 259.095 150.41 259.013 148.933C258.894 147.463 258.915 145.985 259.075 144.518C259.235 143.084 259.347 141.663 259.389 140.235C259.461 138.795 259.398 137.352 259.201 135.924C259.797 137.281 260.137 138.735 260.203 140.214C260.305 141.683 260.275 143.159 260.112 144.622C259.952 146.05 259.862 147.471 259.827 148.905C259.775 150.344 259.852 151.784 260.056 153.209C260.476 157.04 261.386 160.801 262.763 164.402C264.741 165.055 266.781 165.504 268.852 165.74C269.87 165.856 270.896 165.888 271.92 165.837C272.969 165.779 274.014 165.668 275.051 165.504C274.115 166.063 273.085 166.448 272.011 166.641C271.473 166.744 270.929 166.809 270.382 166.835C269.834 166.842 269.286 166.821 268.74 166.773C267.654 166.655 266.588 166.399 265.567 166.01C264.55 165.633 263.602 165.09 262.763 164.402C263.349 166.005 264.127 167.532 265.08 168.949C270.241 169.245 275.3 170.508 279.992 172.671C281.181 173.218 282.274 173.953 283.373 174.494C284.493 175.05 285.665 175.493 286.873 175.817C289.306 176.477 291.812 176.831 294.333 176.871C295.613 176.912 296.831 176.843 298.153 176.801C299.452 176.787 300.75 176.85 302.042 176.989C304.603 177.252 307.156 177.543 309.689 177.987C310.656 178.153 311.617 178.333 312.577 178.52C312.132 177.918 311.749 177.273 311.436 176.594C310.947 175.57 310.58 174.493 310.343 173.385C310.1 172.277 309.953 171.15 309.905 170.016C309.842 168.873 309.886 167.727 310.037 166.593L310.044 166.558L310.058 166.509C310.439 165.28 310.675 164.01 310.761 162.725C310.869 161.423 310.883 160.114 310.802 158.809C310.712 157.503 310.552 156.203 310.322 154.914C310.072 153.646 309.738 152.322 309.557 150.985C309.192 148.318 309.108 145.622 309.307 142.938C309.376 141.6 309.515 140.263 309.717 138.946C309.903 137.624 310.156 136.313 310.475 135.016C310.146 137.652 309.964 140.303 309.933 142.959C309.894 145.595 310.087 148.23 310.51 150.832C310.601 151.484 310.761 152.121 310.893 152.759L311.324 154.727C311.581 156.057 311.751 157.402 311.832 158.754C312.038 161.463 311.724 164.187 310.907 166.78C310.734 167.845 310.646 168.923 310.642 170.002C310.634 171.101 310.721 172.197 310.9 173.281C311.075 174.368 311.354 175.435 311.735 176.469C312.003 177.195 312.341 177.894 312.744 178.555C314.254 178.86 315.75 179.206 317.232 179.615C319.724 180.264 322.119 181.236 324.357 182.505C322.045 181.422 319.611 180.617 317.107 180.107C315.819 179.809 314.523 179.551 313.217 179.331C313.213 179.327 313.208 179.325 313.203 179.324C311.999 179.116 310.789 178.936 309.571 178.777C307.038 178.451 304.498 178.167 301.959 177.966C300.701 177.849 299.437 177.8 298.174 177.82C296.942 177.862 295.592 177.952 294.312 177.91C291.703 177.857 289.112 177.47 286.602 176.76C285.342 176.393 284.121 175.906 282.956 175.304C282.371 175.02 281.801 174.639 281.265 174.327C280.729 174.001 280.194 173.662 279.63 173.385C277.38 172.208 275.01 171.274 272.56 170.598C270.111 169.867 267.611 169.316 265.08 168.949L259.326 169.497C259.504 169.74 259.634 170.016 259.709 170.307C261.191 175.083 259.055 193.789 259.055 193.789C267.272 199.791 312.758 209.071 312.758 209.071C342.079 213.985 342.351 188.05 342.351 188.05C347.597 141.51 337.285 124.717 334.516 121.141ZM297.825 168.582C297.288 168.685 296.744 168.75 296.197 168.776C295.649 168.783 295.101 168.762 294.555 168.713C293.469 168.596 292.403 168.34 291.382 167.951C290.364 167.574 289.417 167.03 288.578 166.343C290.556 166.996 292.596 167.444 294.666 167.681C295.685 167.796 296.711 167.829 297.735 167.778C298.784 167.72 299.829 167.608 300.866 167.445C299.93 168.004 298.9 168.389 297.825 168.582Z" fill="#FAD82B"/>
<path d="M275.707 114.611C275.506 114.31 275.284 114.024 275.04 113.757C274.797 113.494 274.531 113.254 274.244 113.039C273.959 112.83 273.652 112.652 273.328 112.51C273.015 112.371 272.683 112.281 272.343 112.245L272.451 112.224C271.753 112.559 271.015 112.804 270.255 112.955C269.483 113.121 268.687 113.147 267.906 113.032C267.095 112.912 266.33 112.579 265.691 112.068C265.103 111.543 264.587 110.944 264.157 110.286C263.317 109.018 262.57 107.691 261.922 106.316C261.269 104.95 260.682 103.57 260.134 102.151L260.696 102.521C260.048 102.587 259.394 102.488 258.794 102.233C258.445 102.07 258.151 101.81 257.946 101.484C257.757 101.17 257.645 100.816 257.618 100.45C257.585 99.8235 257.674 99.1966 257.881 98.6039C258.062 98.0385 258.301 97.4931 258.595 96.9763C259.145 96.1748 259.403 95.21 259.326 94.2421C259.282 93.7709 259.152 93.3117 258.942 92.8873L258.563 92.18C258.431 91.9292 258.304 91.6742 258.186 91.4134C257.94 90.8916 257.743 90.3478 257.6 89.7892C257.443 89.2454 257.316 88.6935 257.219 88.1359C257.098 87.5826 257.061 87.0156 256.991 86.455C256.969 85.8892 256.934 85.3247 256.964 84.7596C257.012 82.4868 257.57 80.2535 258.599 78.2242C258.635 78.1559 258.689 78.0991 258.756 78.0604C258.823 78.0217 258.899 78.0027 258.976 78.0057C259.054 78.0086 259.128 78.0334 259.192 78.077C259.256 78.1207 259.306 78.1814 259.336 78.2522L259.343 78.2676C260.192 80.2209 261.276 82.0643 262.57 83.7575C263.86 85.4673 265.408 86.9668 267.161 88.2021C268.908 89.4403 270.904 90.2868 273.012 90.6833C275.116 91.0696 277.278 91.0119 279.358 90.5139L279.372 90.5106C279.421 90.4995 279.472 90.5026 279.52 90.5194C279.567 90.5362 279.609 90.5661 279.639 90.6055C280.479 91.7564 281.064 93.0716 281.355 94.4643C281.665 95.8247 281.823 97.215 281.827 98.61C281.835 99.9984 281.735 101.385 281.53 102.759C281.285 104.062 281.193 105.39 281.255 106.715C281.318 107.995 281.666 109.246 282.273 110.376C282.879 111.465 283.806 112.343 284.928 112.892C286.071 113.423 287.335 113.647 288.592 113.541C289.88 113.437 291.141 113.114 292.32 112.585C292.434 112.536 292.558 112.517 292.681 112.532C292.804 112.546 292.921 112.592 293.02 112.666C293.119 112.739 293.197 112.838 293.246 112.951C293.295 113.064 293.313 113.188 293.298 113.311L293.297 113.32C292.786 117.737 291.992 122.117 290.919 126.434C290.363 128.612 289.632 130.743 288.734 132.805C288.272 133.858 287.705 134.862 287.042 135.803C286.695 136.287 286.301 136.737 285.866 137.145C285.415 137.586 284.885 137.938 284.303 138.183C283.679 138.45 282.99 138.526 282.324 138.401C281.663 138.266 281.057 137.943 280.576 137.472C280.32 137.23 280.115 136.939 279.975 136.616C279.863 136.337 279.767 136.052 279.69 135.761C279.534 135.207 279.416 134.662 279.299 134.115C278.839 131.933 278.523 129.747 278.173 127.565L277.142 121.026C276.966 119.937 276.781 118.851 276.567 117.771C276.394 116.69 276.105 115.631 275.707 114.611L275.702 114.601C275.695 114.585 275.694 114.566 275.7 114.549C275.706 114.532 275.718 114.519 275.734 114.511C275.75 114.503 275.769 114.501 275.786 114.507C275.803 114.512 275.818 114.524 275.826 114.539C276.311 115.545 276.675 116.603 276.913 117.693C277.189 118.766 277.435 119.845 277.674 120.925C278.157 123.084 278.563 125.256 278.999 127.42C279.427 129.584 279.871 131.749 280.358 133.88C280.486 134.409 280.616 134.941 280.772 135.446C280.843 135.687 280.928 135.924 281.027 136.156C281.112 136.338 281.235 136.5 281.387 136.633C281.703 136.938 282.105 137.14 282.539 137.211C282.972 137.283 283.418 137.221 283.815 137.033C284.692 136.567 285.429 135.877 285.95 135.035C286.534 134.149 287.036 133.212 287.45 132.236C288.293 130.236 288.973 128.172 289.485 126.064C290.52 121.801 291.326 117.486 291.9 113.139L292.878 113.873C291.544 114.448 290.122 114.791 288.672 114.885C287.183 114.986 285.694 114.697 284.353 114.047C283.004 113.371 281.901 112.293 281.196 110.963C280.533 109.664 280.169 108.235 280.129 106.778C280.093 105.374 280.224 103.97 280.521 102.597C280.769 101.279 280.915 99.9437 280.959 98.6032C281.008 97.2677 280.905 95.9309 280.651 94.6185C280.423 93.3239 279.929 92.0899 279.201 90.9936L279.482 91.085C277.32 91.5311 275.092 91.5498 272.922 91.14C271.842 90.93 270.79 90.5974 269.786 90.1486C268.779 89.7125 267.817 89.1808 266.913 88.5608C265.112 87.312 263.5 85.8121 262.127 84.1071C260.723 82.4174 259.531 80.5631 258.578 78.5855L259.321 78.6289C258.448 80.5587 258.015 82.6569 258.051 84.7732C258.055 85.829 258.166 86.8818 258.382 87.9155C258.483 88.4333 258.612 88.9452 258.77 89.4488C258.909 89.9471 259.09 90.4329 259.311 90.901C259.419 91.1374 259.537 91.3717 259.661 91.6049C259.785 91.8443 259.912 92.0487 260.06 92.3424C260.338 92.9001 260.511 93.5037 260.572 94.1235C260.666 95.3559 260.338 96.5838 259.64 97.6059C259.126 98.4323 258.838 99.3776 258.802 100.349C258.799 100.524 258.846 100.696 258.937 100.846C259.028 100.996 259.16 101.117 259.317 101.196C259.733 101.368 260.185 101.438 260.634 101.398L260.641 101.397C260.761 101.392 260.88 101.425 260.98 101.492C261.08 101.559 261.156 101.655 261.196 101.768C261.694 103.152 262.256 104.536 262.856 105.888C263.433 107.244 264.107 108.556 264.874 109.816C265.24 110.427 265.684 110.988 266.195 111.484C266.718 111.932 267.35 112.233 268.028 112.357C269.461 112.584 270.928 112.402 272.261 111.832L272.29 111.82C272.315 111.81 272.343 111.807 272.37 111.81C272.759 111.87 273.136 111.993 273.485 112.174C273.824 112.346 274.143 112.556 274.435 112.799C274.72 113.044 274.98 113.317 275.211 113.612C275.44 113.905 275.645 114.215 275.826 114.539C275.831 114.547 275.834 114.556 275.835 114.565C275.836 114.574 275.835 114.583 275.833 114.592C275.831 114.601 275.827 114.609 275.821 114.616C275.815 114.623 275.808 114.63 275.801 114.634C275.785 114.642 275.766 114.645 275.749 114.64C275.732 114.636 275.717 114.625 275.707 114.611Z" fill="black"/>
<path d="M259.238 101.795C259.096 102.898 258.948 103.991 258.832 105.086C258.723 106.182 258.618 107.275 258.584 108.367C258.53 109.454 258.575 110.543 258.719 111.621C258.79 112.155 258.934 112.677 259.147 113.172C259.347 113.68 259.679 114.126 260.11 114.464C259.6 114.202 259.18 113.796 258.901 113.297C258.626 112.797 258.421 112.261 258.294 111.705C258.056 110.602 257.964 109.474 258.021 108.347C258.067 107.232 258.195 106.121 258.405 105.024C258.601 103.929 258.88 102.849 259.238 101.795ZM258.903 78.4661C258.76 78.2171 258.669 77.9417 258.636 77.6566C258.603 77.3716 258.629 77.0828 258.712 76.808L258.827 76.3955L259.007 76.0131C259.069 75.8867 259.126 75.755 259.194 75.6319L259.43 75.285C259.744 74.8222 260.1 74.389 260.493 73.9909C260.892 73.6056 261.316 73.2505 261.732 72.8814C263.486 71.5597 265.366 70.4106 267.344 69.4504C268.33 68.9839 269.328 68.5377 270.325 68.0941C271.334 67.6817 272.348 67.2836 273.365 66.8922C274.385 66.5205 275.42 66.1995 276.449 65.8591C276.97 65.703 277.472 65.5259 278.029 65.3726C278.568 65.2282 279.115 65.1123 279.667 65.0254C281.859 64.6662 284.101 64.7572 286.256 65.2927C288.403 65.8315 290.387 66.8786 292.041 68.345C293.672 69.8339 295.016 71.6074 296.006 73.578C297.001 75.5405 297.761 77.6124 298.271 79.7512L298.281 79.8087C298.819 82.744 299.764 85.5904 301.091 88.2657C301.745 89.6005 302.503 90.8825 303.358 92.1C304.199 93.32 305.148 94.4623 306.193 95.5133L307.848 97.0399C308.443 97.5586 309.003 98.1167 309.523 98.7104C310.587 99.8816 311.465 101.208 312.126 102.644C313.496 105.481 313.839 108.702 313.096 111.762C313.092 111.779 313.081 111.794 313.066 111.803C313.051 111.813 313.033 111.816 313.015 111.812C312.998 111.809 312.983 111.799 312.973 111.785C312.962 111.77 312.958 111.753 312.96 111.735L312.961 111.727C313.157 110.233 313.097 108.717 312.783 107.243C312.498 105.783 311.982 104.378 311.255 103.079C310.897 102.434 310.499 101.811 310.063 101.216C309.616 100.628 309.132 100.07 308.612 99.5456C308.104 99.0086 307.56 98.5066 306.984 98.0432L305.216 96.5186C302.946 94.3341 301.102 91.7483 299.78 88.8929C299.121 87.4791 298.564 86.0206 298.113 84.5284C297.644 83.0352 297.303 81.5053 297.094 79.9549L297.104 80.0121C296.688 77.9312 296.067 75.8963 295.25 73.9369C294.432 71.9744 293.231 70.1931 291.717 68.6959C290.939 67.972 290.072 67.3481 289.137 66.839C288.196 66.3413 287.189 65.9767 286.147 65.7556C284.06 65.3412 281.906 65.3923 279.841 65.9052C279.329 66.023 278.824 66.1676 278.328 66.3383C277.851 66.5057 277.344 66.7236 276.839 66.9147L273.8 68.0473C272.803 68.4477 271.803 68.8412 270.796 69.2206L267.839 70.4871C265.89 71.3575 264.012 72.3756 262.22 73.5325C261.802 73.8499 261.368 74.1575 260.962 74.4918C260.564 74.8301 260.192 75.199 259.852 75.5949L259.597 75.8929C259.523 75.9981 259.461 76.11 259.392 76.2188L259.189 76.5497L259.049 76.9052C258.848 77.3765 258.837 77.9066 259.017 78.386L259.023 78.4005C259.031 78.4163 259.032 78.4342 259.026 78.4506C259.021 78.467 259.009 78.4808 258.994 78.4891C258.979 78.4974 258.961 78.4996 258.944 78.4954C258.927 78.4911 258.913 78.4806 258.903 78.4661ZM260.624 91.857C261.587 91.1678 262.637 90.6089 263.748 90.1951C264.303 89.9826 264.873 89.8121 265.453 89.6851C266.038 89.5376 266.646 89.5097 267.241 89.6031C266.673 89.7255 266.115 89.8938 265.573 90.1061L263.948 90.7188C262.86 91.1257 261.775 91.5452 260.624 91.857ZM263.669 95.7309C263.888 95.7234 264.096 95.6315 264.248 95.4745C264.4 95.3175 264.485 95.1078 264.485 94.8896C264.485 94.6713 264.4 94.4616 264.248 94.3047C264.096 94.1477 263.888 94.0558 263.669 94.0482C263.45 94.0558 263.243 94.1477 263.09 94.3047C262.938 94.4616 262.853 94.6713 262.853 94.8896C262.853 95.1078 262.938 95.3175 263.09 95.4745C263.243 95.6315 263.45 95.7234 263.669 95.7309ZM262.307 105.924C262.73 105.937 263.154 105.925 263.576 105.889C263.988 105.851 264.394 105.802 264.797 105.725C265.199 105.647 265.6 105.558 266.003 105.448C266.406 105.34 266.811 105.22 267.241 105.113C266.921 105.416 266.556 105.667 266.158 105.858C265.758 106.051 265.335 106.192 264.899 106.277C264.02 106.465 263.103 106.341 262.307 105.924ZM259.173 191.303C257.081 190.536 254.93 189.939 252.74 189.517C250.586 189.08 248.372 189.009 246.194 189.309L245.392 189.443L244.609 189.655C244.089 189.8 243.578 189.975 243.08 190.18C242.082 190.608 241.126 191.125 240.223 191.725C239.303 192.326 238.431 193.014 237.403 193.608C236.374 194.183 235.267 194.607 234.116 194.865C232.973 195.135 231.8 195.253 230.626 195.216C229.396 195.217 228.184 194.924 227.091 194.362C226.79 194.179 226.521 193.947 226.296 193.676C226.094 193.429 225.97 193.249 225.793 193.047C225.462 192.667 225.078 192.336 224.654 192.063C223.721 191.522 222.735 191.077 221.713 190.733C220.609 190.384 219.551 189.906 218.56 189.309C218.059 188.971 217.618 188.552 217.256 188.068C217.078 187.84 216.919 187.621 216.748 187.42C216.664 187.315 216.576 187.226 216.486 187.124C216.388 187.009 216.275 186.893 216.191 186.776C215.527 185.858 214.916 184.902 214.364 183.913C213.805 182.941 213.249 181.972 212.715 180.985L212.878 181.105L211.445 180.794C210.95 180.709 210.464 180.577 209.995 180.398C209.054 180.007 208.228 179.384 207.594 178.589C207.247 178.191 207.009 177.71 206.902 177.194C206.861 176.922 206.879 176.644 206.953 176.379C207.028 176.114 207.157 175.868 207.334 175.656C207.672 175.259 208.086 174.932 208.552 174.695C209.018 174.458 209.526 174.316 210.047 174.276C210.551 174.247 211.057 174.268 211.557 174.337L213.015 174.442C213.988 174.503 214.961 174.549 215.935 174.578C217.882 174.638 219.83 174.624 221.764 174.504C223.686 174.405 225.595 174.138 227.47 173.708C228.376 173.493 229.254 173.173 230.085 172.754C230.475 172.551 230.837 172.301 231.164 172.008C231.493 171.708 231.791 171.377 232.055 171.02C232.275 170.771 232.413 170.46 232.449 170.131C232.437 170.059 232.425 170.032 232.334 169.953C232.197 169.866 232.048 169.8 231.891 169.757C231.021 169.582 230.126 169.57 229.251 169.721C228.804 169.783 228.362 169.88 227.93 170.011C227.754 170.063 227.584 170.134 227.424 170.223L227.274 170.32C227.208 170.366 227.142 170.402 227.076 170.439C226.946 170.511 226.813 170.576 226.676 170.632C226.165 170.835 225.632 170.973 225.087 171.043C224.825 171.08 224.565 171.106 224.305 171.124C224.005 171.151 223.702 171.14 223.405 171.091C222.775 170.985 222.192 170.691 221.733 170.249C221.295 169.812 220.978 169.271 220.811 168.677C220.52 167.537 220.674 166.33 221.242 165.299C221.524 164.724 221.969 164.245 222.522 163.921C222.707 163.824 222.907 163.759 223.114 163.73C223.235 163.714 223.357 163.713 223.478 163.727C223.541 163.734 223.604 163.746 223.665 163.761L223.744 163.782L223.753 163.781C223.895 163.795 224.038 163.785 224.178 163.754C225.073 163.549 225.945 163.256 226.783 162.881C227.223 162.695 227.662 162.5 228.099 162.296L228.752 161.988C228.987 161.876 229.226 161.771 229.468 161.672C230.438 161.285 231.457 161.035 232.496 160.93C233.524 160.838 234.559 160.873 235.577 161.036C236.573 161.172 237.559 161.371 238.53 161.632C240.484 162.145 242.342 162.969 244.032 164.072C244.871 164.632 245.655 165.268 246.377 165.971C247.073 166.609 247.818 167.193 248.604 167.717C251.959 169.665 255.831 170.545 259.702 170.238L259.708 170.237C259.726 170.236 259.744 170.242 259.757 170.254C259.771 170.265 259.78 170.282 259.782 170.3C259.783 170.318 259.778 170.335 259.767 170.349C259.756 170.363 259.74 170.373 259.722 170.375C255.764 170.98 251.717 170.292 248.184 168.414C247.32 167.894 246.499 167.307 245.727 166.657C243.591 164.768 241.01 163.446 238.224 162.814C237.3 162.593 236.362 162.43 235.416 162.327C234.498 162.203 233.568 162.195 232.648 162.303C231.74 162.409 230.851 162.639 230.006 162.988C229.797 163.076 229.59 163.17 229.385 163.271L228.717 163.596C228.27 163.81 227.818 164.018 227.362 164.219C226.422 164.659 225.436 164.994 224.423 165.218C224.083 165.289 223.732 165.289 223.391 165.219L223.31 165.2C223.284 165.194 223.305 165.2 223.3 165.199L223.307 165.2C223.311 165.2 223.312 165.199 223.306 165.2C223.27 165.207 223.236 165.22 223.205 165.237C222.922 165.428 222.696 165.691 222.549 165.998C222.164 166.693 222.052 167.506 222.235 168.278C222.331 168.627 222.51 168.948 222.758 169.213C223.004 169.456 223.317 169.619 223.658 169.681C223.843 169.714 224.031 169.723 224.218 169.706C224.447 169.693 224.674 169.674 224.896 169.646C225.323 169.599 225.743 169.499 226.145 169.349C226.235 169.314 226.322 169.274 226.407 169.228C226.447 169.208 226.486 169.185 226.524 169.161L226.683 169.061C226.947 168.909 227.23 168.79 227.523 168.707C228.029 168.561 228.546 168.456 229.069 168.391C230.129 168.225 231.211 168.266 232.256 168.511C232.57 168.602 232.866 168.747 233.13 168.94C233.295 169.067 233.432 169.225 233.534 169.406C233.636 169.587 233.7 169.787 233.722 169.993C233.75 170.349 233.68 170.705 233.52 171.024C233.399 171.287 233.248 171.534 233.069 171.762C232.747 172.185 232.381 172.573 231.977 172.919C231.567 173.268 231.115 173.564 230.631 173.801C229.705 174.24 228.729 174.568 227.726 174.779C225.776 175.179 223.792 175.387 221.802 175.4C219.829 175.442 217.863 175.375 215.903 175.25C214.923 175.186 213.945 175.106 212.969 175.009L211.506 174.853C211.038 174.781 210.564 174.754 210.091 174.773C209.635 174.802 209.188 174.92 208.777 175.121C208.366 175.321 207.999 175.601 207.697 175.943C207.556 176.104 207.451 176.293 207.39 176.497C207.329 176.701 207.312 176.916 207.341 177.128C207.431 177.57 207.632 177.982 207.926 178.325C208.51 179.066 209.28 179.641 210.158 179.992C210.604 180.157 211.066 180.278 211.536 180.352L212.976 180.632C213.009 180.638 213.04 180.651 213.068 180.67C213.095 180.689 213.118 180.714 213.135 180.743L213.139 180.751C214.217 182.686 215.427 184.545 216.761 186.314C216.845 186.421 216.935 186.5 217.02 186.595C217.12 186.698 217.233 186.804 217.328 186.913C217.529 187.129 217.709 187.355 217.884 187.56C218.209 187.961 218.6 188.303 219.041 188.573C219.994 189.088 221.004 189.49 222.051 189.771C223.168 190.091 224.247 190.532 225.268 191.086C225.793 191.407 226.271 191.8 226.686 192.254C226.884 192.467 227.088 192.74 227.245 192.92C227.385 193.073 227.547 193.204 227.726 193.309C228.641 193.755 229.649 193.982 230.668 193.973C231.735 194.006 232.803 193.906 233.846 193.677C234.886 193.455 235.888 193.085 236.821 192.577C237.736 192.059 238.653 191.394 239.617 190.789C240.593 190.173 241.623 189.647 242.695 189.218C243.24 189.019 243.797 188.853 244.362 188.72L245.209 188.529L246.069 188.419C248.347 188.188 250.647 188.359 252.866 188.925C255.052 189.476 257.181 190.229 259.226 191.175C259.242 191.182 259.255 191.196 259.262 191.212C259.269 191.228 259.269 191.247 259.263 191.263C259.257 191.28 259.244 191.293 259.228 191.301C259.212 191.309 259.194 191.31 259.177 191.305L259.173 191.303Z" fill="black"/>
<path d="M212.925 180.868C214.28 180.752 215.635 180.698 216.99 180.653C218.345 180.602 219.7 180.594 221.055 180.587L223.088 180.602C223.786 180.602 224.481 180.697 225.153 180.886C226.44 181.341 227.695 181.882 228.909 182.505C228.255 182.319 227.614 182.098 226.966 181.896C226.342 181.656 225.701 181.459 225.05 181.305C224.405 181.172 223.746 181.115 223.088 181.133L221.055 181.148C219.7 181.141 218.345 181.134 216.99 181.082C215.635 181.038 214.28 180.983 212.925 180.868ZM213.614 182.074C214.525 182.774 215.396 183.52 216.26 184.274C216.707 184.636 217.105 185.063 217.54 185.365C217.979 185.679 218.472 185.914 218.994 186.056C219.497 186.206 220.079 186.229 220.653 186.335C221.225 186.429 221.792 186.552 222.351 186.705C223.495 186.944 224.558 187.471 225.439 188.237C224.965 187.923 224.446 187.685 223.899 187.531C223.36 187.359 222.81 187.224 222.253 187.125C221.695 187.029 221.137 186.929 220.573 186.86C219.992 186.805 219.414 186.717 218.842 186.596C218.258 186.429 217.709 186.157 217.225 185.791C216.779 185.415 216.356 185.011 215.961 184.583C215.161 183.767 214.367 182.944 213.614 182.074ZM200.809 164.131C200.36 163.225 199.811 162.371 199.173 161.586L199.281 161.655C198.213 161.488 197.219 161.013 196.42 160.288C196.003 159.869 195.747 159.318 195.694 158.73C195.668 158.438 195.681 158.145 195.733 157.856C195.804 157.582 195.891 157.311 195.992 157.046C196.479 156.012 197.337 155.198 198.397 154.763C198.927 154.512 199.504 154.374 200.091 154.358C200.723 154.355 201.341 154.548 201.857 154.911L200.942 155.202C201.082 154.825 201.273 154.468 201.511 154.143C201.736 153.824 202 153.534 202.297 153.279C202.895 152.77 203.606 152.408 204.371 152.222C205.11 152.046 205.876 152.006 206.629 152.106L207.167 152.175C207.377 152.205 207.583 152.256 207.783 152.326C208.155 152.453 208.511 152.62 208.845 152.826C210.106 153.637 211.114 154.784 211.757 156.135C212.387 157.415 212.846 158.772 213.122 160.171L211.809 160.251C211.922 159.361 212.191 158.497 212.604 157.7C213.014 156.878 213.626 156.172 214.383 155.648C215.156 155.144 216.056 154.866 216.98 154.846C217.201 154.837 217.422 154.844 217.642 154.866L217.97 154.886C218.099 154.892 218.227 154.913 218.35 154.948C218.795 155.08 219.214 155.283 219.592 155.551C220.947 156.612 221.949 158.055 222.466 159.693C223.012 161.243 223.366 162.854 223.52 164.49C223.158 162.913 222.64 161.375 221.973 159.9C221.366 158.462 220.365 157.223 219.086 156.323C218.783 156.138 218.455 155.999 218.112 155.91C218.038 155.892 217.963 155.885 217.887 155.889L217.604 155.887C216.697 155.841 215.801 156.097 215.055 156.612C214.497 157.075 214.039 157.646 213.708 158.29C213.378 158.934 213.182 159.639 213.133 160.36L213.133 160.365C213.116 160.521 213.044 160.667 212.93 160.775C212.815 160.883 212.666 160.948 212.509 160.957C212.351 160.966 212.196 160.919 212.07 160.824C211.944 160.73 211.855 160.594 211.82 160.44C211.554 159.166 211.123 157.931 210.539 156.766C209.993 155.647 209.162 154.689 208.13 153.989C207.884 153.833 207.621 153.705 207.346 153.608C207.224 153.562 207.098 153.529 206.969 153.508L206.491 153.442C205.886 153.355 205.271 153.374 204.673 153.5C204.101 153.619 203.564 153.871 203.107 154.234C202.66 154.596 202.306 155.058 202.072 155.582L202.044 155.648C201.984 155.788 201.871 155.898 201.729 155.955C201.588 156.012 201.429 156.011 201.289 155.951C201.242 155.931 201.197 155.904 201.157 155.873C200.814 155.641 200.416 155.505 200.003 155.48C199.59 155.454 199.178 155.539 198.809 155.726C197.95 156.028 197.23 156.63 196.783 157.421C196.551 157.791 196.438 158.223 196.46 158.659C196.482 159.095 196.638 159.514 196.906 159.86C197.565 160.567 198.414 161.071 199.352 161.312L199.375 161.319C199.41 161.329 199.44 161.351 199.46 161.381C200.033 162.232 200.487 163.157 200.809 164.131ZM196.114 163.66C195.741 162.895 195.079 162.308 194.272 162.028C193.489 161.805 192.651 161.867 191.911 162.205C191.554 162.315 191.234 162.518 190.983 162.794C190.733 163.069 190.562 163.407 190.488 163.771C190.454 164.534 190.663 165.288 191.084 165.926C191.508 166.631 192.013 167.284 192.588 167.873C192.727 168.026 192.874 168.165 193.019 168.307L193.491 168.718C193.828 169.008 194.153 169.303 194.475 169.601C195.766 170.791 196.972 172.04 198.175 173.308C198.266 173.403 198.325 173.523 198.346 173.652L198.353 173.696C198.432 174.099 198.564 174.49 198.746 174.859C199.127 175.651 199.669 176.355 200.337 176.928C200.676 177.234 201.015 177.439 201.469 177.786C202.301 178.436 203.003 179.236 203.538 180.144C204.077 181.036 204.476 182.005 204.721 183.017L204.69 182.918C205.007 183.793 205.602 184.54 206.385 185.047C207.222 185.533 208.171 185.792 209.139 185.8C210.155 185.822 211.169 185.718 212.159 185.489C213.171 185.269 214.164 184.969 215.128 184.59C214.222 185.12 213.266 185.557 212.273 185.895C211.264 186.247 210.211 186.462 209.145 186.532C208.023 186.613 206.901 186.39 205.896 185.888C205.388 185.607 204.932 185.242 204.547 184.809C204.174 184.372 203.864 183.887 203.624 183.366L203.611 183.334L203.592 183.267C203.335 182.399 202.955 181.572 202.463 180.811C201.977 180.059 201.364 179.395 200.652 178.849C200.333 178.605 199.837 178.299 199.449 177.956C199.041 177.613 198.669 177.23 198.34 176.811C198.005 176.391 197.72 175.933 197.49 175.448C197.246 174.941 197.078 174.402 196.99 173.847L197.168 174.235C196.003 172.973 194.8 171.728 193.594 170.513C193.291 170.212 192.984 169.914 192.674 169.627L192.181 169.166C192.022 169 191.86 168.835 191.714 168.662C191.112 167.977 190.595 167.222 190.174 166.413C189.682 165.565 189.496 164.575 189.647 163.607C189.701 163.353 189.797 163.109 189.931 162.886C190.075 162.675 190.238 162.478 190.418 162.297L191.023 161.882L191.672 161.617C192.559 161.304 193.532 161.332 194.4 161.695C194.806 161.887 195.168 162.161 195.463 162.499C195.758 162.838 195.979 163.233 196.114 163.66Z" fill="black"/>
<path d="M197.672 173.772C197.459 173.005 197.474 172.193 197.714 171.434C197.829 171.038 198.034 170.673 198.312 170.367C198.448 170.211 198.616 170.084 198.805 169.997C198.994 169.909 199.199 169.863 199.407 169.86C199.098 170.052 198.841 170.318 198.66 170.634C198.484 170.939 198.347 171.265 198.251 171.603C198.028 172.289 197.892 173.015 197.672 173.772ZM199.316 161.485C199.794 161.368 200.185 161.287 200.599 161.205C201.033 161.108 201.475 161.051 201.919 161.035C201.617 161.415 201.186 161.672 200.707 161.756C200.469 161.811 200.222 161.816 199.982 161.769C199.742 161.723 199.515 161.626 199.316 161.485ZM201.856 155.391C201.848 155.993 201.927 156.593 202.092 157.172C202.237 157.751 202.547 158.275 202.984 158.683C203.215 158.877 203.483 159.022 203.772 159.109C204.061 159.196 204.365 159.223 204.665 159.189C204.977 159.164 205.287 159.113 205.591 159.037L206.486 158.715L205.618 159.119C205.314 159.225 205.001 159.306 204.683 159.361C204.353 159.426 204.014 159.424 203.685 159.354C203.356 159.285 203.045 159.149 202.77 158.957C202.232 158.542 201.825 157.981 201.598 157.342C201.357 156.718 201.209 156.063 201.16 155.397C201.156 155.351 201.161 155.305 201.175 155.261C201.189 155.217 201.211 155.176 201.241 155.141C201.271 155.106 201.307 155.077 201.348 155.056C201.389 155.035 201.434 155.023 201.48 155.019C201.526 155.016 201.572 155.021 201.616 155.036C201.66 155.05 201.701 155.073 201.736 155.103C201.77 155.133 201.799 155.17 201.819 155.211C201.84 155.252 201.852 155.297 201.855 155.343C201.856 155.354 201.856 155.364 201.856 155.374L201.856 155.391Z" fill="black"/>
<path d="M204.659 159.307C205.142 160.039 205.568 160.807 205.935 161.604C206.345 162.406 206.626 163.267 206.767 164.156C206.806 164.322 206.886 164.475 206.998 164.604C207.11 164.732 207.251 164.831 207.41 164.893C207.774 165.075 208.164 165.2 208.567 165.262C208.978 165.337 209.4 165.341 209.812 165.273C210.238 165.237 210.633 165.038 210.916 164.719C210.809 164.92 210.662 165.097 210.484 165.238C210.305 165.38 210.099 165.482 209.878 165.54C209.438 165.669 208.979 165.721 208.521 165.691C208.054 165.67 207.595 165.56 207.169 165.367C206.921 165.27 206.702 165.111 206.533 164.906C206.365 164.7 206.252 164.455 206.205 164.193C206.065 163.364 205.841 162.55 205.536 161.765L204.659 159.307ZM213.155 160.194C213.309 161.277 213.654 162.323 214.174 163.286C214.304 163.516 214.452 163.736 214.617 163.943C214.826 164.192 215.011 164.461 215.169 164.745C215.329 165.032 215.456 165.336 215.55 165.651C215.646 165.983 215.69 166.259 215.757 166.533C215.79 166.778 215.857 167.017 215.956 167.243C216.093 167.447 216.264 167.625 216.463 167.769C216.659 167.922 216.884 168.035 217.125 168.101C217.365 168.166 217.617 168.184 217.864 168.153C218.385 168.045 218.854 167.763 219.193 167.354C219.574 166.933 219.898 166.464 220.158 165.96L220.143 166.005C220.317 165.189 220.433 164.362 220.489 163.53C220.565 162.694 220.509 161.853 220.324 161.035C220.57 161.845 220.688 162.688 220.673 163.535C220.677 164.383 220.62 165.231 220.504 166.072C220.502 166.085 220.499 166.097 220.493 166.109L220.49 166.117C220.251 166.676 219.94 167.201 219.565 167.68C219.178 168.208 218.622 168.589 217.989 168.761C217.656 168.83 217.312 168.833 216.977 168.769C216.643 168.705 216.324 168.575 216.04 168.388C215.748 168.206 215.491 167.974 215.283 167.701C215.169 167.55 215.086 167.378 215.038 167.195L214.908 166.762C214.79 166.231 214.586 165.722 214.303 165.257C214.158 165.038 213.993 164.833 213.81 164.645C213.591 164.408 213.391 164.153 213.211 163.885C212.529 162.825 212.045 161.651 211.782 160.419C211.761 160.33 211.759 160.238 211.774 160.149C211.789 160.059 211.822 159.973 211.87 159.895C211.919 159.818 211.982 159.751 212.057 159.698C212.131 159.645 212.216 159.608 212.305 159.587C212.394 159.567 212.486 159.564 212.577 159.579C212.667 159.594 212.753 159.627 212.831 159.676C212.908 159.724 212.975 159.787 213.029 159.861C213.082 159.935 213.119 160.019 213.14 160.108C213.144 160.125 213.147 160.141 213.15 160.158L213.155 160.194ZM211.871 172.339C211.899 172.339 211.92 172.345 211.948 172.345L212.01 172.387L211.871 172.339Z" fill="black"/>
<path d="M225.989 171.402C214.035 169.593 202.77 164.978 199.973 163.779C199.488 163.567 198.97 163.443 198.442 163.411C195.895 163.28 195.018 164.104 194.782 164.957C194.676 165.369 194.706 165.803 194.867 166.197C195.029 166.59 195.314 166.921 195.679 167.14L208.114 174.93L208.121 174.923C208.747 174.173 209.473 173.511 210.278 172.955C209.984 173.571 209.622 174.152 209.199 174.688C210.357 174.371 211.579 174.376 212.734 174.702C227.13 176.06 230.749 173.066 230.749 173.066C229.204 171.631 225.989 171.402 225.989 171.402ZM215.489 170.217L218.412 172.338L211.711 171.34L205.678 167.313L215.489 170.217ZM219.247 173.814C216.756 173.586 214.272 173.301 211.787 173.024C211.739 173.015 211.692 172.999 211.648 172.976C209.352 171.597 207.063 170.203 204.795 168.776L201.392 166.62C200.279 165.879 199.144 165.165 198.038 164.402C199.228 165.026 200.397 165.685 201.573 166.322L205.073 168.311C207.383 169.621 209.665 170.98 211.947 172.345C214.397 172.643 216.86 172.948 219.309 173.295C221.779 173.641 224.257 174.001 226.72 174.431C224.222 174.279 221.731 174.05 219.247 173.814Z" fill="#F79155"/>
<path d="M212.01 172.387L211.871 172.338C211.899 172.338 211.92 172.345 211.948 172.345L212.01 172.387Z" fill="white"/>
<path d="M127.245 72.9659C127.245 72.9659 125.458 71.8981 123.791 73.7964C123.791 73.7964 120.813 69.5819 108.187 73.2315C108.187 73.2315 109.855 76.4065 111.046 76.4065C112.237 76.4065 108.783 81.8641 105.567 81.6268C105.567 81.6268 100.087 89.5758 104.256 97.2875C108.365 104.888 111.317 107.303 115.393 102.373C115.518 102.22 115.657 102.079 115.809 101.953C116.981 100.99 122.17 96.9868 124.01 99.9717C124.401 100.635 124.513 101.425 124.321 102.171C123.482 105.672 119.556 118.57 108.187 113.423C108.187 113.423 94.9374 108.474 98.0626 96.7498C98.3967 95.5573 98.8813 94.4118 99.5048 93.3408C100.106 92.2467 100.476 91.0419 100.594 89.8001C100.711 88.5584 100.572 87.3059 100.186 86.1195C99.7069 84.428 98.6264 82.968 97.146 82.0117C95.7108 81.12 93.8189 80.7214 92.3857 83.2148C91.7925 84.2521 91.4798 85.425 91.4782 86.6187C91.4755 87.7114 91.6795 89.0514 92.5833 89.6944L91.4781 91.83C90.8771 90.6119 90.1086 89.4832 89.1946 88.4765C87.6641 86.9325 86.6809 84.9334 86.3941 82.7826C85.9895 79.3705 86.4767 74.2759 90.5584 68.3388C90.5584 68.3388 96.0376 57.4238 106.281 57.661C116.525 57.8983 125.339 60.6271 127.245 72.9659Z" fill="#4087D5"/>
<path d="M110.093 87.2025C111.872 86.7972 113.7 86.6472 115.522 86.757C116.44 86.8025 117.351 86.94 118.241 87.1677C119.149 87.3618 119.993 87.7819 120.694 88.389C119.885 88.0146 119.02 87.7722 118.134 87.6709C117.258 87.5455 116.375 87.4543 115.483 87.4145C113.702 87.3046 111.912 87.2961 110.093 87.2025ZM127.245 87.0331C126.594 87.2304 125.991 87.5613 125.475 88.0046C125.231 88.2054 125.032 88.4553 124.891 88.7379C124.75 89.0205 124.671 89.3296 124.658 89.6448C124.706 90.2916 124.876 90.9236 125.16 91.5075L125.938 93.4148C126.52 94.7053 126.857 96.0914 126.935 97.5036C126.933 97.8757 126.865 98.2445 126.732 98.5923C126.59 98.9444 126.357 99.253 126.056 99.4869C125.447 99.8694 124.727 100.04 124.01 99.9714C124.682 99.9142 125.322 99.6591 125.849 99.2385C126.065 99.009 126.228 98.7351 126.326 98.436C126.425 98.137 126.456 97.8201 126.418 97.5077C126.367 96.8471 126.232 96.1955 126.017 95.5684C125.817 94.9261 125.578 94.2897 125.323 93.6556C125.078 93.0168 124.813 92.3816 124.575 91.7274C124.461 91.3971 124.345 91.0679 124.256 90.7196C124.144 90.3596 124.107 89.9811 124.145 89.6063C124.185 89.2336 124.307 88.8742 124.502 88.5538C124.697 88.2334 124.961 87.9599 125.275 87.7528C125.865 87.36 126.54 87.1132 127.245 87.0331Z" fill="black"/>
<path d="M127.245 72.9658C127.468 74.2956 127.634 75.6326 127.743 76.9769C127.867 78.3188 127.944 79.6648 127.973 81.0148C127.994 82.3646 127.974 83.7169 127.868 85.0702C127.806 86.4496 127.496 87.8069 126.954 89.0778C126.947 89.0936 126.937 89.1082 126.925 89.1211C126.506 89.5695 126.114 90.0409 125.749 90.5332C125.568 90.7797 125.407 91.0402 125.267 91.3122C125.112 91.577 125.05 91.8859 125.091 92.1898C124.995 91.884 125.013 91.5543 125.14 91.2601C125.249 90.9632 125.382 90.6756 125.538 90.4C125.849 89.8506 126.209 89.3298 126.613 88.8439L126.583 88.8871C126.814 88.2801 126.967 87.6468 127.04 87.0018C127.144 86.3512 127.185 85.6867 127.235 85.0246C127.313 83.6955 127.327 82.3584 127.335 81.0207C127.335 78.343 127.276 75.6604 127.245 72.9658ZM120.098 96.2197C119.973 96.4773 119.871 96.7458 119.795 97.0219C119.717 97.277 119.7 97.5465 119.745 97.8092C119.782 98.0695 119.897 98.3129 120.073 98.5082C120.26 98.7237 120.468 98.9205 120.694 99.0957C120.55 99.0531 120.408 99.0025 120.269 98.9441C120.134 98.8701 120.007 98.7829 119.89 98.6837C119.644 98.4716 119.478 98.1826 119.419 97.864C119.378 97.5485 119.425 97.2277 119.556 96.9375C119.679 96.6596 119.864 96.4138 120.098 96.2197ZM92.5833 89.6944C92.9956 90.2098 93.3245 90.7862 93.5582 91.4027C93.6835 91.7174 93.774 92.0447 93.8284 92.3788C93.8577 92.554 93.8693 92.7317 93.8631 92.9091L93.8597 93.0457L93.8678 93.1198C93.8647 93.168 93.8753 93.2162 93.8984 93.2587C94.0006 93.4757 94.181 93.6465 94.4038 93.737C94.6684 93.8717 94.9471 93.9768 95.2348 94.0506C95.8467 94.2149 96.476 94.3058 97.1096 94.3215C96.4838 94.5657 95.8057 94.6465 95.1397 94.5562C94.7922 94.5209 94.4519 94.434 94.1302 94.2985C93.9409 94.2253 93.768 94.1156 93.6215 93.9756C93.475 93.8356 93.3577 93.6681 93.2764 93.4827C93.2337 93.3783 93.2128 93.2663 93.215 93.1536L93.2127 92.9871L93.2178 92.8832C93.2251 92.7397 93.2219 92.5958 93.2081 92.4528C93.1817 92.1488 93.134 91.8471 93.0654 91.5497C92.9304 90.9401 92.7525 90.3272 92.5833 89.6944ZM91.4781 91.83C91.2123 92.7896 90.8375 93.7159 90.361 94.5909C89.8946 95.4788 89.3315 96.313 88.6819 97.0782C88.032 97.8579 87.2612 98.5292 86.3986 99.0666C85.5338 99.6006 84.544 99.9005 83.5271 99.9365C84.4578 99.658 85.3322 99.2191 86.1106 98.6397C86.8724 98.056 87.5659 97.389 88.1783 96.6512C88.8072 95.9143 89.3887 95.1385 89.9192 94.3285C90.4532 93.5148 90.9834 92.6895 91.4781 91.83ZM100.207 119.592C100.959 119.263 101.671 118.849 102.327 118.356C102.979 117.872 103.596 117.344 104.177 116.777C104.775 116.227 105.311 115.612 105.868 115.009L106.679 114.077C106.943 113.758 107.207 113.438 107.497 113.131C107.331 113.515 107.139 113.887 106.946 114.261C106.729 114.618 106.514 114.981 106.275 115.326C105.792 116.019 105.243 116.664 104.635 117.252C104.025 117.844 103.343 118.359 102.606 118.786C101.876 119.228 101.056 119.503 100.207 119.592Z" fill="black"/>
<path d="M88.29 96.8644C87.6973 95.9895 86.9642 95.2177 86.1199 94.5798C85.9442 94.4251 85.7313 94.3184 85.5019 94.2699C85.2725 94.2214 85.0344 94.2329 84.8108 94.3031C84.4157 94.5705 84.1322 94.9723 84.0133 95.4331C83.8506 95.9244 83.7333 96.4295 83.663 96.9421C83.6276 97.1971 83.5962 97.4624 83.5731 97.7076C83.5745 97.9411 83.595 98.2154 83.6185 98.4705C83.721 99.5168 83.9157 100.552 84.2004 101.564C84.7247 103.624 85.5391 105.599 86.6194 107.432C87.7139 109.263 89.0233 110.958 90.5199 112.482C91.2704 113.238 92.0504 113.966 92.8419 114.675C93.664 115.351 94.4495 116.076 95.3053 116.697C95.7182 117.029 96.1733 117.298 96.6044 117.602C97.0608 117.864 97.499 118.16 97.9744 118.382C98.893 118.88 99.8701 119.261 100.883 119.518C102.907 120.053 105.057 119.828 106.925 118.886C108.802 117.888 110.378 116.411 111.493 114.606C111.497 114.598 111.504 114.592 111.512 114.589C111.52 114.587 111.53 114.587 111.537 114.591C111.545 114.596 111.55 114.603 111.553 114.611C111.555 114.619 111.555 114.628 111.552 114.635C110.582 116.596 109.059 118.231 107.169 119.341C106.201 119.888 105.136 120.243 104.033 120.388C102.926 120.518 101.804 120.447 100.723 120.179C99.6492 119.924 98.6158 119.524 97.6517 118.989C97.1595 118.746 96.7126 118.431 96.2456 118.149C95.8074 117.827 95.3436 117.538 94.9278 117.189C94.0561 116.537 93.2929 115.775 92.4864 115.06C92.075 114.711 91.7263 114.295 91.3487 113.912C90.9848 113.514 90.591 113.146 90.253 112.726C88.8428 111.102 87.5622 109.371 86.4229 107.549C85.2627 105.727 84.3387 103.766 83.6728 101.713C83.3478 100.674 83.1355 99.6032 83.0397 98.5193C83.0215 98.2416 83.005 97.9825 83.0111 97.6813C83.0427 97.3959 83.0815 97.1304 83.1255 96.8571C83.2131 96.3121 83.351 95.7764 83.5375 95.2566C83.6215 94.9698 83.7619 94.7025 83.9506 94.4703C84.1394 94.2381 84.3727 94.0456 84.6369 93.9041C84.9339 93.7881 85.2627 93.7815 85.5642 93.8854C85.8384 93.9789 86.0944 94.1185 86.3211 94.2982C87.1535 95.0047 87.8412 95.8644 88.3467 96.8302C88.3489 96.834 88.3502 96.8381 88.3508 96.8424C88.3513 96.8467 88.351 96.851 88.3499 96.8552C88.3487 96.8594 88.3467 96.8633 88.3441 96.8667C88.3414 96.8701 88.3381 96.8729 88.3343 96.8751C88.3269 96.8789 88.3183 96.8799 88.3102 96.8779C88.3021 96.876 88.2949 96.8712 88.29 96.8644Z" fill="black"/>
<path d="M90.3024 94.0702C89.2389 93.418 88.0527 92.9894 86.8167 92.811C85.599 92.5894 84.342 92.8137 83.2773 93.4425C82.7752 93.7899 82.3531 94.2397 82.0388 94.7621L80.9581 96.3081C80.2429 97.3588 79.442 98.3491 78.5635 99.2689C78.5431 99.289 78.5186 99.3047 78.4917 99.3148C78.4647 99.325 78.436 99.3294 78.4072 99.3278L78.3912 99.3268C73.9399 99.0642 69.4733 98.9589 65.0185 98.9889C62.7906 99.0073 60.565 99.0963 58.3523 99.2694C56.1566 99.3904 53.9826 99.7663 51.8745 100.389L51.8372 100.4L51.7862 100.41C50.6194 100.708 49.508 101.19 48.4943 101.838C47.967 102.156 47.4596 102.506 46.9749 102.885L46.2405 103.448C46.0036 103.646 45.7802 103.861 45.5493 104.067C43.71 105.741 42.076 107.626 40.6812 109.683C37.8817 113.83 35.5935 118.298 33.8661 122.99C33.4391 124.167 32.9715 125.33 32.5776 126.519L31.4501 130.106C31.0685 131.287 30.7273 132.538 30.2829 133.734C29.8508 134.942 29.3452 136.11 28.8612 137.27L27.3711 140.754L26.5951 142.491C26.3306 143.091 26.0359 143.678 25.7119 144.249C25.6461 144.356 25.5714 144.457 25.4887 144.551C25.5359 144.553 25.54 144.445 25.5426 144.488C25.535 144.556 25.5379 144.624 25.5511 144.691C25.6007 144.936 25.6856 145.173 25.8032 145.394C26.0632 145.889 26.4104 146.333 26.8281 146.705C27.6813 147.469 28.7483 147.954 29.8863 148.097L29.439 149.179C28.7371 148.633 28.0728 148.041 27.4505 147.406C27.1094 147.064 26.8121 146.681 26.5651 146.267C26.4906 146.132 26.4315 145.989 26.3889 145.841C26.3665 145.744 26.3513 145.645 26.3435 145.545C26.3434 145.414 26.3658 145.284 26.4096 145.161C26.4595 145.029 26.5397 144.91 26.6438 144.814C26.6921 144.769 26.743 144.727 26.7961 144.687C26.8422 144.661 26.8871 144.64 26.9339 144.618C27.0905 144.546 27.2577 144.5 27.429 144.48C27.9186 144.446 28.4106 144.48 28.8904 144.583C29.3387 144.664 29.7678 144.773 30.1953 144.884L31.4696 145.288L32.7023 145.78C35.9219 147.227 38.7775 149.148 41.7501 150.839C44.7033 152.557 47.7577 154.096 50.8966 155.448C54.0459 156.784 57.2647 157.951 60.5392 158.945L60.5431 158.946C60.6328 158.974 60.7104 159.031 60.763 159.108C60.8156 159.186 60.84 159.279 60.8323 159.372C60.5487 162.559 60.4338 165.759 60.4881 168.958C60.5104 170.548 60.6468 172.135 60.8965 173.707C61.0152 174.473 61.2364 175.221 61.5541 175.929C61.7019 176.248 61.9232 176.528 62.1999 176.745C62.2707 176.776 62.3394 176.809 62.408 176.845C62.4804 176.867 62.5575 176.866 62.6315 176.883C62.7979 176.903 63.025 176.891 63.2188 176.896L82.5761 176.949C89.0285 176.98 95.4805 176.946 101.933 176.938L121.29 176.873L121.066 176.971C122.384 175.588 123.827 174.329 125.376 173.209C126.922 172.072 128.6 171.127 130.376 170.395C132.17 169.643 134.097 169.258 136.043 169.262C137.031 169.28 138.013 169.421 138.965 169.684L141.646 170.579C142.543 170.869 143.441 171.151 144.342 171.413C145.208 171.703 146.104 171.896 147.013 171.987C148.023 172.101 148.999 172.416 149.884 172.915C150.349 173.162 150.769 173.486 151.127 173.871C151.327 174.085 151.482 174.336 151.583 174.61C151.683 174.885 151.727 175.176 151.712 175.468C151.737 175.965 151.72 176.463 151.662 176.957C151.6 177.531 151.357 178.07 150.967 178.497C150.547 178.909 149.994 179.161 149.406 179.206C148.889 179.261 148.366 179.245 147.853 179.158C147.364 179.081 146.881 178.971 146.407 178.829L145.054 178.422C144.621 178.298 144.181 178.203 143.736 178.135C143.368 178.06 142.987 178.064 142.621 178.146L142.754 177.229C144.545 178.478 146.648 179.209 148.83 179.34C149.932 179.399 151.038 179.335 152.127 179.152C153.252 178.999 154.367 178.811 155.5 178.623C156.071 178.533 156.638 178.434 157.265 178.394C157.609 178.365 157.955 178.386 158.293 178.454C158.701 178.541 159.069 178.758 159.343 179.071C159.579 179.35 159.76 179.671 159.876 180.017C160.208 180.946 160.258 181.952 160.018 182.909C159.85 183.544 159.55 184.138 159.138 184.651C158.726 185.164 158.21 185.585 157.625 185.888C156.528 186.449 155.334 186.798 154.107 186.916L154.643 186.514C154.356 187.166 154 187.785 153.582 188.361C153.166 188.943 152.682 189.473 152.14 189.94C151.57 190.415 150.922 190.789 150.224 191.044C149.506 191.285 148.747 191.381 147.991 191.326L148.563 191.092C147.4 192.441 146.26 193.766 144.95 195.041C144.783 195.2 144.606 195.36 144.409 195.518C144.207 195.671 143.995 195.812 143.775 195.939C143.361 196.171 142.932 196.373 142.489 196.544C141.627 196.878 140.735 197.132 139.826 197.304C138.025 197.639 136.186 197.723 134.362 197.555C133.908 197.523 133.458 197.45 133.006 197.398L131.666 197.165L130.41 196.96L129.131 196.827C125.651 196.649 122.162 196.761 118.701 197.163C115.216 197.515 111.74 198.038 108.282 198.648C106.566 198.952 104.866 199.354 103.135 199.734C101.411 200.115 99.6816 200.486 97.9472 200.835C94.4768 201.526 90.9911 202.155 87.485 202.655C80.474 203.691 73.4 204.249 66.3126 204.323C65.4268 204.326 64.5413 204.359 63.6556 204.338L60.9985 204.279C59.2265 204.266 57.4583 204.141 55.6898 204.036C53.9191 203.961 52.1578 203.757 50.3945 203.585C49.509 203.488 48.6416 203.434 47.7384 203.294C46.8441 203.156 45.9587 202.966 45.0869 202.724C41.5655 201.778 38.3712 199.89 35.8504 197.265C33.3262 194.625 31.73 191.24 31.3015 187.62C30.5257 180.602 30.2141 173.575 30.0374 166.544C29.8834 159.514 29.8641 152.484 29.9795 145.455C29.9797 145.437 29.9872 145.419 30.0004 145.407C30.0136 145.394 30.0313 145.387 30.0498 145.387C30.0682 145.387 30.0859 145.394 30.0988 145.407C30.1117 145.421 30.1189 145.438 30.1187 145.457C30.1483 152.483 30.3107 159.506 30.6061 166.526C30.9181 173.538 31.3032 180.563 32.1784 187.506C32.6277 190.92 34.1785 194.095 36.5971 196.554C39.0072 199.015 42.0458 200.774 45.3855 201.642C46.2152 201.864 47.0573 202.037 47.9076 202.161C48.7491 202.285 49.6446 202.336 50.5128 202.423C52.2618 202.578 54.0077 202.766 55.7638 202.825C57.5174 202.913 59.2699 203.023 61.0268 203.02L63.6604 203.057C64.5381 203.07 65.4162 203.03 66.294 203.019L68.9272 202.965L71.558 202.83C73.3129 202.761 75.0626 202.607 76.8132 202.467C78.5659 202.354 80.3084 202.121 82.0563 201.952C83.7991 201.736 85.5429 201.521 87.2801 201.262C90.7576 200.76 94.2156 200.13 97.6617 199.437C99.3844 199.087 101.102 198.715 102.821 198.332C104.534 197.952 106.268 197.539 108.025 197.225C111.512 196.603 115.017 196.068 118.55 195.705C122.1 195.286 125.68 195.181 129.248 195.392L130.6 195.538L131.954 195.766L133.218 195.993C133.642 196.042 134.064 196.114 134.489 196.145C136.182 196.31 137.89 196.241 139.563 195.939C140.388 195.787 141.198 195.561 141.982 195.263C142.363 195.118 142.733 194.947 143.089 194.75C143.251 194.657 143.408 194.556 143.558 194.445C143.705 194.328 143.855 194.194 144.009 194.05C145.228 192.875 146.398 191.537 147.537 190.226C147.603 190.149 147.686 190.088 147.779 190.048C147.873 190.007 147.974 189.987 148.075 189.991L148.109 189.992C148.676 190.033 149.246 189.964 149.786 189.787C150.332 189.588 150.841 189.297 151.289 188.928C151.749 188.533 152.16 188.085 152.514 187.595C152.874 187.104 153.181 186.577 153.432 186.024L153.434 186.02C153.481 185.914 153.555 185.821 153.649 185.751C153.742 185.681 153.852 185.637 153.968 185.622C155.022 185.527 156.048 185.237 156.994 184.767C157.43 184.552 157.814 184.247 158.123 183.872C158.431 183.498 158.657 183.063 158.784 182.596C158.91 182.124 158.936 181.632 158.862 181.149C158.815 180.703 158.658 180.276 158.405 179.905C158.306 179.781 158.164 179.697 158.007 179.669C157.784 179.627 157.556 179.614 157.329 179.632C156.814 179.659 156.251 179.747 155.692 179.83C154.568 180.005 153.427 180.185 152.285 180.328C151.115 180.51 149.928 180.564 148.747 180.489C146.337 180.321 144.024 179.481 142.07 178.067L142.059 178.059C141.983 178.002 141.923 177.926 141.887 177.838C141.851 177.75 141.84 177.654 141.854 177.56C141.869 177.467 141.91 177.379 141.971 177.306C142.033 177.234 142.113 177.179 142.204 177.149C142.752 176.986 143.334 176.963 143.894 177.082C144.383 177.161 144.867 177.271 145.342 177.411L146.699 177.835C147.129 177.969 147.567 178.074 148.011 178.149C148.867 178.294 149.798 178.278 150.256 177.803C150.738 177.334 150.768 176.407 150.746 175.481C150.75 175.375 150.746 175.27 150.733 175.165C150.732 175.088 150.716 175.013 150.684 174.943C150.622 174.776 150.528 174.623 150.408 174.492C150.123 174.185 149.79 173.926 149.422 173.727C148.659 173.288 147.818 173.003 146.945 172.889C145.973 172.784 145.016 172.57 144.092 172.251C143.18 171.976 142.279 171.682 141.38 171.381L138.693 170.454C137.824 170.21 136.927 170.074 136.024 170.048C134.181 170.027 132.352 170.375 130.646 171.069C127.198 172.522 124.089 174.669 121.512 177.375L121.503 177.384C121.475 177.413 121.442 177.435 121.405 177.45C121.368 177.466 121.329 177.473 121.289 177.473L101.934 177.408C95.4824 177.401 89.0305 177.366 82.579 177.397L63.2245 177.45C63.0156 177.447 62.8376 177.462 62.6033 177.444C62.4783 177.433 62.3543 177.413 62.2324 177.383L61.8932 177.227C61.5244 176.959 61.2276 176.604 61.0292 176.195C60.6748 175.44 60.4244 174.641 60.2848 173.82C60.0071 172.22 59.8449 170.602 59.7997 168.979C59.7 165.752 59.7713 162.522 60.0133 159.302L60.3063 159.73C56.9861 158.772 53.7201 157.636 50.5223 156.329C47.3284 155.003 44.2174 153.486 41.2063 151.788C38.1819 150.133 35.3031 148.21 32.2356 146.853L31.0726 146.394L29.8873 146.024C29.4829 145.92 29.0774 145.82 28.6791 145.75C28.3172 145.673 27.9466 145.643 27.577 145.662C27.5276 145.675 27.4413 145.685 27.4532 145.692L27.4452 145.69C27.4575 145.687 27.4686 145.68 27.477 145.67C27.4829 145.652 27.5234 145.624 27.5305 145.583C27.5515 145.418 27.5298 145.572 27.6217 145.698C27.8205 146.017 28.0558 146.311 28.3228 146.576C28.9057 147.164 29.527 147.713 30.1827 148.219L30.1884 148.223C30.293 148.305 30.3677 148.419 30.4011 148.547C30.4345 148.676 30.4248 148.811 30.3734 148.934C30.3219 149.056 30.2317 149.158 30.1164 149.224C30.0012 149.291 29.8673 149.317 29.7353 149.301C28.3452 149.131 27.0404 148.542 25.9964 147.612C25.4681 147.143 25.0288 146.584 24.6995 145.96C24.52 145.624 24.3926 145.263 24.3216 144.889C24.2754 144.646 24.2818 144.396 24.3405 144.156C24.3886 143.978 24.4783 143.813 24.6022 143.675C24.616 143.637 24.6068 143.672 24.6515 143.591C24.9248 143.121 25.2018 142.526 25.4632 141.971L26.2389 140.259L27.7402 136.799C28.2329 135.636 28.735 134.492 29.1578 133.328C29.5975 132.162 29.9247 130.982 30.3233 129.767L31.4818 126.148C31.8865 124.948 32.3661 123.772 32.8048 122.583C34.5889 117.816 36.9431 113.281 39.8164 109.075C40.5486 108.027 41.3337 107.017 42.1687 106.048C43.0195 105.087 43.9301 104.179 44.8953 103.331C45.1383 103.12 45.373 102.9 45.6229 102.697L46.3989 102.117C46.9139 101.725 47.4521 101.365 48.0107 101.037C49.137 100.335 50.3736 99.8266 51.6689 99.5324L51.5809 99.5534C53.767 98.9315 56.019 98.5685 58.2904 98.4717C60.5332 98.3248 62.7756 98.2644 65.0153 98.2742C69.4957 98.2837 73.9643 98.5097 78.4263 98.8642L78.2543 98.9219C79.1275 98.0412 79.928 97.0916 80.6477 96.0825L81.7569 94.5667C82.106 94.0188 82.5671 93.5502 83.11 93.1914C83.659 92.8388 84.2842 92.621 84.9341 92.5557C85.5709 92.4804 86.215 92.493 86.8483 92.5933C88.1069 92.802 89.309 93.2656 90.3804 93.9556C90.3959 93.9654 90.4068 93.9808 90.4109 93.9986C90.4149 94.0164 90.4117 94.0351 90.4021 94.0506C90.3924 94.066 90.3769 94.0771 90.3591 94.0813C90.3413 94.0855 90.3225 94.0825 90.3069 94.073L90.3024 94.0702Z" fill="black"/>
<path d="M57.6259 105.83C58.4934 106.075 59.2806 106.544 59.908 107.189C60.5544 107.824 61.0715 108.577 61.4307 109.408C61.7905 110.234 61.9928 111.119 62.0273 112.019C62.0445 112.461 62.0218 112.905 61.9592 113.343C61.8835 113.779 61.7679 114.206 61.614 114.621C61.4596 114.192 61.39 113.778 61.2766 113.374C61.1548 112.972 61.0819 112.572 60.9466 112.189C60.7307 111.43 60.4662 110.685 60.1544 109.959C59.8417 109.238 59.4761 108.54 59.0605 107.872C58.6252 107.163 58.1461 106.48 57.6259 105.83ZM60.6611 122.44C60.9292 125.516 61.06 128.592 61.1425 131.668C61.2336 134.743 61.2434 137.818 61.2374 140.893C61.2054 143.968 61.1559 147.042 61.0254 150.117C60.9036 153.191 60.7324 156.264 60.4228 159.337C60.1531 156.261 60.0215 153.185 59.9394 150.11C59.8486 147.034 59.8389 143.959 59.8466 140.884C59.8803 137.809 59.9298 134.735 60.0607 131.661C60.1828 128.587 60.3533 125.513 60.6611 122.44ZM124.362 102.115C126.911 103.703 129.412 105.357 131.867 107.077C133.096 107.936 134.314 108.81 135.523 109.7L137.321 111.069C137.637 111.304 137.934 111.563 138.21 111.843L138.637 112.288L138.997 112.742C139.93 113.94 140.78 115.198 141.543 116.509C142.311 117.801 143.059 119.101 143.787 120.41C145.224 123.039 146.705 125.639 148.228 128.209C148.99 129.496 149.766 130.774 150.557 132.043L151.741 133.946C152.091 134.568 152.508 135.151 152.984 135.685C153.488 136.177 154.088 136.666 154.611 137.279C155.229 137.921 155.602 138.759 155.663 139.646C155.616 140.557 155.218 141.414 154.552 142.038C154.267 142.325 153.968 142.597 153.655 142.853C153.375 143.077 153.103 143.313 152.837 143.557C152.301 144.047 151.808 144.561 151.307 145.115C150.797 145.676 150.269 146.221 149.733 146.759C148.651 147.836 147.502 148.843 146.293 149.775C145.061 150.726 143.719 151.527 142.296 152.162C141.55 152.476 140.766 152.692 139.964 152.805C139.121 152.929 138.261 152.855 137.453 152.587C137.324 152.549 137.214 152.464 137.144 152.349L137.14 152.341C136.618 151.48 136.046 150.62 135.467 149.779C134.89 148.934 134.284 148.11 133.652 147.305C133.017 146.507 132.338 145.744 131.619 145.021C130.927 144.276 130.079 143.692 129.135 143.309L129.13 143.307C129.113 143.301 129.1 143.29 129.092 143.274C129.083 143.259 129.082 143.241 129.086 143.224C129.091 143.207 129.102 143.192 129.117 143.183C129.132 143.174 129.149 143.171 129.167 143.174C130.198 143.439 131.151 143.944 131.949 144.647C132.767 145.306 133.533 146.026 134.242 146.8C135.665 148.336 136.973 149.974 138.155 151.701L137.843 151.455C139.168 151.724 140.545 151.525 141.739 150.891C143.041 150.272 144.266 149.502 145.386 148.597C146.547 147.699 147.658 146.737 148.712 145.717C149.245 145.209 149.773 144.693 150.284 144.161C150.801 143.619 151.358 143.066 151.942 142.561C152.235 142.307 152.535 142.061 152.845 141.825C153.126 141.592 153.392 141.392 153.628 141.154C154.083 140.763 154.381 140.221 154.465 139.627C154.429 139.012 154.183 138.427 153.767 137.97C153.341 137.424 152.803 136.929 152.28 136.335C152.142 136.18 152.013 136.017 151.894 135.847L151.592 135.339L151.05 134.347L149.989 132.368C149.289 131.046 148.573 129.733 147.844 128.43C146.38 125.825 144.836 123.263 143.165 120.786C141.507 118.312 139.826 115.807 138.031 113.521L137.692 113.099L137.338 112.738C137.095 112.48 136.832 112.241 136.55 112.024L134.801 110.64L131.269 107.878C128.909 106.038 126.58 104.155 124.28 102.227C124.267 102.215 124.258 102.199 124.256 102.182C124.254 102.165 124.258 102.147 124.269 102.133C124.279 102.118 124.295 102.109 124.312 102.105C124.329 102.102 124.347 102.105 124.362 102.115Z" fill="black"/>
<path d="M133.677 124.496C132.459 129.056 131.309 133.626 130.348 138.215C129.854 140.489 129.509 142.793 129.315 145.112C129.249 146.227 129.243 147.459 129.144 148.652C129.049 149.869 128.844 151.075 128.533 152.255C127.802 154.589 126.63 156.763 125.081 158.66C124.365 159.61 123.607 160.53 122.897 161.454C122.555 161.913 122.209 162.368 121.902 162.859C121.573 163.332 121.275 163.83 120.979 164.33C119.814 166.358 118.772 168.455 117.859 170.608C116.896 172.752 116.066 174.956 115.254 177.173C116.288 172.538 117.892 168.048 120.03 163.805C120.582 162.732 121.215 161.702 121.922 160.724C122.624 159.758 123.342 158.836 124.02 157.882C125.445 156.098 126.521 154.063 127.194 151.884C127.492 150.787 127.692 149.665 127.791 148.533C127.902 147.378 127.898 146.25 128.005 145.015C128.253 142.64 128.684 140.287 129.293 137.978C130.461 133.394 131.925 128.891 133.677 124.496ZM154.038 141.66C155.569 142.844 157.02 144.106 158.493 145.281C158.865 145.567 159.237 145.848 159.601 146.095L160.208 146.455C160.43 146.595 160.643 146.743 160.845 146.898C161.627 147.525 162.345 148.225 162.992 148.99C164.275 150.503 165.285 152.228 165.975 154.086C166.697 155.927 166.901 157.929 166.565 159.877C166.362 158.006 165.826 156.186 164.981 154.503C164.158 152.844 163.133 151.292 161.929 149.882C161.35 149.174 160.708 148.519 160.012 147.924C159.843 147.775 159.67 147.638 159.496 147.511L158.892 147.094C158.496 146.788 158.12 146.456 157.767 146.101C156.389 144.738 155.141 143.251 154.038 141.66ZM138.675 152.228C140.044 154.056 140.979 156.169 141.41 158.408C141.459 158.694 141.5 158.982 141.538 159.271C141.565 159.551 141.568 159.882 141.604 160.122C141.657 160.612 141.775 161.093 141.952 161.553C142.34 162.535 142.838 163.471 143.435 164.343C144.027 165.246 144.678 166.109 145.384 166.926C145.725 167.348 146.102 167.739 146.465 168.143C146.858 168.516 147.216 168.93 147.621 169.291C149.164 170.853 151.013 172.082 153.053 172.902C151.917 172.787 150.812 172.466 149.791 171.956C148.772 171.438 147.808 170.82 146.912 170.111C145.11 168.696 143.543 167.005 142.272 165.102C141.626 164.128 141.101 163.079 140.71 161.979C140.521 161.389 140.413 160.777 140.388 160.159C140.37 159.846 140.378 159.621 140.378 159.346L140.338 158.552C140.089 156.376 139.529 154.246 138.675 152.228ZM154.038 170.015C154.177 169.122 154.487 168.264 154.953 167.489C155.41 166.705 155.964 165.981 156.604 165.336C157.251 164.703 157.968 164.145 158.743 163.675C159.128 163.441 159.525 163.229 159.934 163.04C160.351 162.869 160.767 162.703 161.192 162.565C160.454 163.075 159.726 163.565 159.035 164.099C158.346 164.626 157.69 165.194 157.072 165.802C156.461 166.414 155.898 167.07 155.386 167.766C154.863 168.469 154.411 169.223 154.038 170.015Z" fill="black"/>
<path d="M156.549 171.597C158.095 169.135 159.789 166.768 161.621 164.51C162.537 163.378 163.489 162.272 164.477 161.192C165.482 160.119 166.546 159.102 167.665 158.146C168.805 157.148 170.088 156.326 171.473 155.706C172.221 155.392 173.027 155.238 173.838 155.255C174.67 155.276 175.483 155.508 176.201 155.928C177.537 156.785 178.559 158.049 179.116 159.532C179.406 160.237 179.615 160.973 179.741 161.725C179.895 162.503 179.88 163.306 179.694 164.077L179.472 163.591C181.037 164.387 182.544 165.248 184.039 166.145C185.531 167.042 187.004 167.973 188.422 168.985C189.872 169.969 191.215 171.1 192.43 172.36C193.045 173.01 193.566 173.742 193.98 174.534C194.434 175.379 194.542 176.365 194.28 177.287L194.288 177.261C194.091 178.024 193.667 178.71 193.072 179.23C192.749 179.488 192.373 179.672 191.97 179.77C191.568 179.867 191.149 179.876 190.743 179.795C189.989 179.642 189.273 179.345 188.633 178.919C188.019 178.519 187.439 178.069 186.899 177.575L187.831 177.173C187.805 178.124 187.601 179.061 187.229 179.936C186.865 180.821 186.319 181.619 185.627 182.282C184.934 182.934 184.123 183.449 183.236 183.798C182.861 183.96 182.495 184.143 182.141 184.346C181.978 184.439 181.821 184.542 181.672 184.655C181.616 184.698 181.564 184.745 181.515 184.797C181.478 184.829 181.488 184.867 181.521 184.743L181.285 184.08C181.719 184.454 182.077 184.908 182.342 185.415C182.624 185.936 182.772 186.519 182.772 187.111C182.772 187.703 182.624 188.286 182.342 188.808C182.085 189.303 181.747 189.752 181.342 190.136C180.528 190.899 179.495 191.389 178.387 191.537C177.872 191.599 177.354 191.623 176.836 191.609C176.278 191.608 175.725 191.52 175.194 191.349L175.687 191.351C174.066 191.85 172.401 192.192 170.714 192.371C169.031 192.542 167.334 192.533 165.653 192.344C164.779 192.261 163.919 192.059 163.1 191.744C162.644 191.568 162.232 191.297 161.891 190.948C161.55 190.6 161.289 190.182 161.125 189.724C160.884 188.806 160.995 187.831 161.436 186.991C161.633 186.584 161.887 186.207 162.193 185.873C162.518 185.468 162.984 185.201 163.499 185.126L163.441 185.132C163.684 185.096 163.929 185.076 164.174 185.071C164.415 185.066 164.657 185.075 164.897 185.097C165.388 185.137 165.867 185.265 166.313 185.474L165.954 185.892C165.733 185.501 165.56 185.084 165.439 184.652C165.315 184.222 165.259 183.774 165.274 183.327C165.29 182.875 165.419 182.434 165.647 182.043C165.88 181.667 166.196 181.348 166.571 181.111C166.586 181.101 166.605 181.097 166.623 181.101C166.642 181.105 166.657 181.115 166.668 181.131C166.677 181.145 166.68 181.163 166.678 181.18C166.675 181.197 166.666 181.213 166.652 181.224C166.326 181.476 166.063 181.799 165.881 182.168C165.71 182.531 165.629 182.93 165.645 183.331C165.664 183.734 165.747 184.131 165.89 184.509C166.028 184.886 166.212 185.245 166.435 185.579C166.469 185.629 166.487 185.688 166.484 185.748C166.482 185.809 166.461 185.867 166.424 185.914C166.386 185.962 166.335 185.996 166.276 186.012C166.218 186.029 166.156 186.026 166.099 186.005L166.077 185.996C165.683 185.853 165.269 185.774 164.85 185.762C164.637 185.754 164.423 185.759 164.21 185.776C164.001 185.793 163.793 185.822 163.588 185.864L163.56 185.868L163.53 185.871C163.239 185.971 162.986 186.161 162.808 186.412C162.577 186.699 162.389 187.017 162.249 187.357C161.951 187.997 161.901 188.724 162.107 189.399C162.237 189.706 162.432 189.983 162.679 190.209C162.925 190.435 163.218 190.606 163.537 190.709C164.262 190.953 165.017 191.098 165.781 191.141C167.372 191.262 168.972 191.213 170.552 190.995C172.131 190.801 173.687 190.457 175.199 189.967C175.353 189.916 175.519 189.915 175.674 189.964L175.692 189.969C176.509 190.148 177.352 190.182 178.182 190.07C178.982 189.967 179.731 189.617 180.321 189.069C180.901 188.566 181.264 187.861 181.336 187.099C181.339 186.734 181.254 186.374 181.087 186.049C180.916 185.708 180.685 185.399 180.406 185.137L180.357 185.091C180.273 185.015 180.211 184.917 180.178 184.808C180.145 184.699 180.143 184.584 180.17 184.473C180.225 184.244 180.342 184.034 180.51 183.867C180.612 183.761 180.723 183.664 180.842 183.577C181.042 183.429 181.252 183.296 181.47 183.177C181.877 182.953 182.296 182.754 182.726 182.579C183.475 182.306 184.163 181.892 184.754 181.359C185.335 180.822 185.803 180.176 186.132 179.458C186.466 178.738 186.667 177.964 186.725 177.173L186.727 177.132C186.734 177.028 186.77 176.928 186.832 176.843C186.894 176.759 186.978 176.694 187.076 176.656C187.174 176.618 187.281 176.609 187.384 176.629C187.486 176.65 187.581 176.7 187.657 176.772C188.138 177.242 188.654 177.674 189.202 178.065C189.714 178.45 190.296 178.733 190.916 178.899C191.198 178.974 191.493 178.987 191.78 178.935C192.067 178.883 192.339 178.768 192.575 178.599C193.063 178.208 193.422 177.681 193.608 177.085L193.616 177.06C193.86 176.305 193.801 175.486 193.45 174.774C193.102 174.01 192.632 173.307 192.059 172.693C190.891 171.434 189.59 170.306 188.178 169.327C185.33 167.374 182.297 165.702 179.123 164.337C179.038 164.299 178.968 164.233 178.926 164.15C178.884 164.066 178.873 163.971 178.893 163.88L178.9 163.851C179.005 163.202 178.974 162.537 178.809 161.9C178.659 161.23 178.434 160.58 178.138 159.961C177.607 158.737 176.718 157.703 175.586 156.993C175.027 156.69 174.406 156.521 173.771 156.496C173.135 156.472 172.503 156.593 171.923 156.851C170.65 157.411 169.466 158.15 168.405 159.047C167.292 159.943 166.229 160.899 165.221 161.912C164.195 162.915 163.202 163.96 162.237 165.031C160.32 167.186 158.453 169.398 156.664 171.676C156.658 171.683 156.651 171.689 156.643 171.694C156.635 171.699 156.627 171.702 156.618 171.703C156.609 171.704 156.599 171.704 156.591 171.701C156.582 171.699 156.573 171.695 156.566 171.69C156.552 171.679 156.543 171.664 156.54 171.647C156.537 171.63 156.54 171.612 156.549 171.597Z" fill="black"/>
<path d="M170.523 161.038C170.53 162.321 170.694 163.598 171.011 164.842C171.175 165.43 171.437 165.986 171.785 166.489C172.113 166.961 172.608 167.294 173.171 167.42C173.752 167.559 174.358 167.552 174.935 167.401C175.535 167.262 176.103 167.013 176.61 166.667C177.664 165.937 178.575 165.021 179.297 163.964C178.786 165.194 177.97 166.275 176.926 167.107C176.388 167.553 175.756 167.873 175.077 168.044C174.398 168.215 173.689 168.231 173.003 168.092C172.286 167.919 171.661 167.483 171.251 166.871C170.878 166.291 170.618 165.646 170.485 164.969C170.248 163.668 170.26 162.334 170.523 161.038ZM180.766 173.297C182.089 173.345 183.376 173.74 184.496 174.443C185.06 174.783 185.584 175.187 186.055 175.647C186.527 176.101 186.938 176.614 187.278 177.173C186.783 176.746 186.307 176.322 185.801 175.938C185.303 175.549 184.781 175.191 184.239 174.865C183.699 174.536 183.139 174.242 182.562 173.984C181.979 173.717 181.379 173.488 180.766 173.297ZM166.195 185.735C166.502 186.044 166.856 186.303 167.243 186.503C167.62 186.721 168.002 186.925 168.389 187.124C169.163 187.521 169.948 187.9 170.737 188.273C172.311 189.034 173.904 189.761 175.443 190.659C173.714 190.258 172.034 189.667 170.436 188.897C169.631 188.516 168.855 188.078 168.112 187.587C167.332 187.133 166.675 186.498 166.195 185.735ZM178.464 176.303C178.736 176.451 178.974 176.655 179.162 176.901C179.27 177.032 179.348 177.185 179.391 177.349C179.433 177.513 179.439 177.685 179.407 177.852C179.308 178.182 179.101 178.471 178.819 178.671C178.565 178.866 178.286 179.028 177.991 179.152C177.855 179.209 177.724 179.275 177.598 179.351C177.478 179.409 177.363 179.475 177.253 179.549L176.952 179.812C176.862 179.91 176.779 180.014 176.704 180.124C176.386 180.564 176.196 181.082 176.154 181.622C176.075 182.155 176.155 182.7 176.385 183.187C176.616 183.675 176.985 184.084 177.448 184.363C177.562 184.44 177.688 184.497 177.821 184.533C177.952 184.575 178.08 184.634 178.216 184.669C178.498 184.724 178.783 184.758 179.069 184.772C179.364 184.78 179.659 184.77 179.953 184.741C180.245 184.69 180.542 184.647 180.846 184.608C180.566 184.718 180.28 184.824 179.989 184.922C179.691 185.004 179.388 185.067 179.082 185.112C178.767 185.138 178.45 185.14 178.135 185.116C177.976 185.089 177.818 185.053 177.663 185.008C177.502 184.977 177.346 184.923 177.202 184.845C176.587 184.568 176.089 184.085 175.795 183.48C175.51 182.88 175.395 182.214 175.462 181.553C175.53 180.893 175.777 180.263 176.177 179.732C176.279 179.6 176.391 179.476 176.511 179.36L176.908 179.05C177.188 178.89 177.482 178.757 177.787 178.653C178.319 178.532 178.783 178.21 179.082 177.756C179.126 177.632 179.143 177.5 179.13 177.369C179.117 177.237 179.075 177.111 179.007 176.998C178.864 176.738 178.681 176.504 178.464 176.303Z" fill="black"/>
<path d="M172.825 163.015C172.907 163.379 173.018 163.736 173.159 164.082C173.276 164.41 173.485 164.699 173.76 164.914C173.897 165.011 174.054 165.078 174.22 165.109C174.386 165.14 174.556 165.135 174.72 165.095C174.899 165.062 175.076 165.017 175.249 164.959C175.423 164.893 175.594 164.816 175.78 164.755C175.635 164.879 175.475 164.987 175.319 165.105C175.145 165.198 174.963 165.277 174.777 165.342C174.576 165.41 174.363 165.431 174.153 165.403C173.943 165.375 173.743 165.299 173.567 165.181C173.247 164.921 173.02 164.565 172.92 164.165C172.815 163.792 172.782 163.401 172.825 163.015ZM173.461 162.565C173.834 162.459 174.221 162.408 174.609 162.411C175.004 162.413 175.397 162.476 175.773 162.596C176.165 162.724 176.507 162.971 176.752 163.302C176.963 163.646 177.035 164.057 176.955 164.452C176.91 164.089 176.77 163.745 176.548 163.454C176.309 163.194 176.003 163.004 175.663 162.906C174.948 162.691 174.207 162.576 173.461 162.565ZM178.781 183.421C178.919 183.14 179.129 182.9 179.39 182.725C179.528 182.629 179.685 182.562 179.851 182.528C180.017 182.494 180.187 182.493 180.353 182.527C180.67 182.628 180.947 182.823 181.149 183.087C181.231 183.221 181.318 183.35 181.389 183.486C181.442 183.632 181.504 183.771 181.545 183.917C181.341 183.686 181.161 183.456 180.958 183.255C180.769 183.063 180.535 182.923 180.276 182.847C180.018 182.786 179.747 182.821 179.513 182.946C179.25 183.073 179.004 183.233 178.781 183.421ZM166.565 184.957C166.584 184.415 166.723 183.883 166.972 183.4C167.038 183.264 167.132 183.144 167.246 183.046C167.361 182.947 167.494 182.874 167.639 182.829C167.791 182.8 167.948 182.805 168.098 182.845C168.248 182.884 168.387 182.957 168.504 183.058C168.733 183.23 168.928 183.444 169.078 183.688C169.231 183.946 169.283 184.252 169.223 184.546C169.141 184.811 169.002 185.055 168.814 185.26C168.627 185.466 168.397 185.628 168.14 185.735C168.556 185.435 168.851 184.998 168.972 184.502C168.994 184.271 168.94 184.039 168.819 183.84C168.682 183.639 168.509 183.464 168.31 183.324C168.231 183.247 168.136 183.188 168.032 183.153C167.927 183.118 167.816 183.106 167.707 183.12C167.49 183.192 167.305 183.339 167.187 183.534C166.913 183.977 166.704 184.456 166.565 184.957ZM158.077 180.942C158.045 181.484 157.892 182.012 157.63 182.488C157.56 182.622 157.464 182.74 157.347 182.835C157.229 182.93 157.094 183.001 156.949 183.042C156.796 183.067 156.639 183.057 156.49 183.014C156.341 182.97 156.204 182.894 156.089 182.79C155.865 182.612 155.676 182.393 155.532 182.146C155.386 181.884 155.342 181.577 155.41 181.284C155.499 181.021 155.644 180.781 155.837 180.58C156.029 180.38 156.264 180.224 156.523 180.123C156.1 180.412 155.794 180.841 155.659 181.334C155.632 181.565 155.679 181.798 155.795 182C155.927 182.205 156.095 182.384 156.291 182.529C156.367 182.609 156.461 182.67 156.564 182.707C156.668 182.745 156.778 182.76 156.888 182.749C157.107 182.682 157.295 182.54 157.419 182.348C157.704 181.913 157.925 181.439 158.077 180.942ZM163.058 189.907C163.2 189.533 163.4 189.183 163.651 188.87C163.778 188.704 163.931 188.559 164.104 188.441C164.204 188.367 164.32 188.319 164.442 188.3C164.564 188.281 164.69 188.292 164.807 188.332C165.014 188.449 165.17 188.64 165.244 188.866C165.318 189.059 165.366 189.261 165.384 189.467C165.433 189.864 165.415 190.267 165.331 190.659C165.288 190.273 165.222 189.89 165.134 189.512C165.091 189.332 165.036 189.155 164.967 188.983C164.888 188.832 164.793 188.669 164.673 188.633C164.447 188.51 164.095 188.788 163.838 189.04C163.564 189.316 163.303 189.605 163.058 189.907Z" fill="black"/>
<path d="M154.035 171.638L151.224 174.723C151.224 174.723 151.244 178.666 149.241 178.833C149.241 178.833 148.225 179.747 148.948 179.935C149.595 180.094 151.926 179.519 152.935 179.636C152.935 179.636 157.716 178.694 158.53 179.207C158.775 179.372 158.981 179.589 159.133 179.841C159.286 180.094 159.381 180.376 159.413 180.669L159.803 180.628L174.881 181.522L181.422 171.638L154.035 171.638ZM173.462 178.555L152.302 178.202L155.065 173.773H176.266L173.462 178.555ZM342.682 185.677C342.497 185.677 342.32 185.604 342.19 185.474C342.059 185.344 341.986 185.168 341.986 184.984C341.986 184.8 342.059 184.624 342.189 184.494C342.32 184.364 342.497 184.291 342.681 184.291L365.014 184.263C365.198 184.263 365.376 184.336 365.507 184.466C365.637 184.596 365.711 184.772 365.711 184.956C365.711 185.14 365.637 185.316 365.507 185.446C365.377 185.576 365.2 185.649 365.015 185.65L342.683 185.677H342.682ZM215.489 185.319H213.838C213.793 185.319 213.751 185.302 213.72 185.271C213.688 185.241 213.67 185.199 213.669 185.155C213.669 185.133 213.673 185.112 213.681 185.092C213.689 185.072 213.701 185.054 213.716 185.039C213.731 185.023 213.749 185.011 213.769 185.003C213.789 184.995 213.811 184.99 213.832 184.99H215.489C215.511 184.99 215.533 184.994 215.553 185.003C215.573 185.011 215.591 185.023 215.607 185.038C215.622 185.053 215.635 185.072 215.643 185.092C215.651 185.112 215.656 185.133 215.656 185.155C215.656 185.177 215.651 185.198 215.643 185.218C215.635 185.238 215.622 185.256 215.607 185.272C215.591 185.287 215.573 185.299 215.553 185.307C215.533 185.315 215.511 185.319 215.489 185.319ZM0.985674 187.566C0.801131 187.567 0.623808 187.494 0.492711 187.365C0.361614 187.236 0.287485 187.06 0.286629 186.876C0.285772 186.692 0.35826 186.515 0.488146 186.385C0.618031 186.254 0.794676 186.18 0.979218 186.18L31.6142 185.896C31.7972 185.899 31.972 185.972 32.1027 186.1C32.2333 186.227 32.3098 186.4 32.3165 186.582C32.3174 186.673 32.3002 186.764 32.2661 186.848C32.2319 186.932 32.1814 187.009 32.1173 187.074C32.0533 187.139 31.9771 187.191 31.893 187.227C31.8089 187.262 31.7185 187.281 31.6271 187.282L0.992129 187.566H0.985674ZM116.525 91.6323C116.782 91.6235 117.026 91.5154 117.205 91.331C117.384 91.1465 117.484 90.9001 117.484 90.6436C117.484 90.3872 117.384 90.1407 117.205 89.9563C117.026 89.7718 116.782 89.6638 116.525 89.6549C116.268 89.6638 116.024 89.7718 115.845 89.9563C115.666 90.1407 115.566 90.3872 115.566 90.6436C115.566 90.9001 115.666 91.1465 115.845 91.331C116.024 91.5154 116.268 91.6235 116.525 91.6323ZM166.702 72.4553L158.576 72.7567C155.91 72.8373 153.274 72.9016 150.653 72.9503C148.036 72.9865 145.427 73.0278 142.829 72.9987C140.23 72.9793 137.632 72.8635 135.007 72.7913L135.393 72.4063C135.351 73.8999 135.283 75.3937 135.263 76.8873C135.226 78.3808 135.225 79.8744 135.216 81.3682C135.214 84.3553 135.277 87.3427 135.362 90.3298L135.007 89.9762L141.492 89.7969C141.558 89.7949 141.623 89.8061 141.685 89.8298C141.747 89.8535 141.803 89.8892 141.851 89.9348L141.87 89.953L144.347 92.3255H143.495L145.89 89.8717C145.948 89.8124 146.017 89.765 146.093 89.7325C146.169 89.6999 146.251 89.6828 146.334 89.682L146.35 89.6818C149.75 89.6539 153.151 89.5844 156.551 89.5906C158.251 89.5822 159.951 89.5891 161.651 89.6114L166.751 89.6757L166.095 90.3298C166.141 87.4186 166.226 84.507 166.346 81.5352L166.702 72.4553ZM166.801 72.3573L167.156 81.201C167.277 84.2038 167.361 87.2666 167.408 90.3299C167.411 90.5008 167.345 90.6657 167.226 90.7884C167.106 90.911 166.943 90.9814 166.771 90.984H166.77L166.751 90.9842L161.651 91.0485C159.951 91.0688 158.251 91.0757 156.551 91.0693C153.151 91.0755 149.75 91.006 146.35 90.9781L146.81 90.7884L144.347 93.1737L144.332 93.1878C144.277 93.2416 144.211 93.284 144.139 93.3126C144.067 93.3411 143.99 93.3552 143.912 93.3541C143.835 93.353 143.758 93.3367 143.687 93.3061C143.616 93.2756 143.551 93.2313 143.497 93.1759L143.495 93.1737L141.113 90.707L141.492 90.863L135.007 90.6837L134.987 90.6832C134.895 90.6806 134.809 90.642 134.746 90.5758C134.683 90.5095 134.649 90.4212 134.652 90.33C134.736 87.3429 134.799 84.3554 134.797 81.3682C134.788 79.8744 134.787 78.3808 134.75 76.8873C134.73 75.3937 134.662 73.8999 134.62 72.4063C134.619 72.3572 134.627 72.3083 134.645 72.2624C134.662 72.2165 134.689 72.1745 134.723 72.1388C134.757 72.1031 134.797 72.0744 134.842 72.0543C134.887 72.0343 134.936 72.0233 134.985 72.0219L135.007 72.0214C137.673 71.9491 140.365 71.8332 143.056 71.8139C145.749 71.7848 148.432 71.8261 151.105 71.8623C153.775 71.9109 156.429 71.9754 159.054 72.0559L166.801 72.3573ZM260.06 39.3003L248.1 39.5064L236.242 39.6553L212.689 39.8201L200.971 39.779L189.26 39.6314C181.446 39.512 173.591 39.4549 165.741 39.4746L165.965 39.2514L166.007 48.2131L166.111 57.1749L165.741 56.8071C172.66 56.7132 179.579 56.6243 186.497 56.5766L207.254 56.4626C214.172 56.4093 221.091 56.4705 228.01 56.469C234.928 56.4605 241.847 56.5511 248.766 56.6062L248.775 56.6064C248.924 56.6077 249.066 56.6676 249.17 56.7729L251.577 59.214H250.813L253.269 56.8214L253.279 56.8125C253.324 56.768 253.378 56.733 253.438 56.7094C253.497 56.6858 253.561 56.6741 253.625 56.6749L260.109 56.7688L259.702 57.1749C259.749 54.2336 259.788 51.2925 259.87 48.3119L260.06 39.3003ZM260.158 39.2023L260.349 48.1141C260.431 51.1082 260.47 54.1415 260.517 57.1749C260.519 57.2809 260.478 57.3832 260.404 57.4593C260.33 57.5354 260.228 57.5792 260.122 57.5808L260.109 57.581L253.624 57.6749L253.979 57.5286L251.577 59.9751C251.478 60.076 251.343 60.1335 251.201 60.1351C251.06 60.1367 250.923 60.0821 250.822 59.9834L250.821 59.9826L250.813 59.9751L248.362 57.5771L248.766 57.7436C241.847 57.7988 234.928 57.8893 228.01 57.8808C221.091 57.8793 214.172 57.9406 207.253 57.8872L186.497 57.7732C179.579 57.7255 172.66 57.6367 165.741 57.5427H165.732C165.684 57.5422 165.637 57.5322 165.593 57.5134C165.549 57.4946 165.509 57.4673 165.475 57.4332C165.442 57.399 165.415 57.3586 165.398 57.3143C165.38 57.27 165.371 57.2226 165.372 57.1749L165.475 48.2131L165.517 39.2514C165.517 39.1921 165.541 39.1353 165.583 39.0935C165.625 39.0516 165.682 39.028 165.741 39.0279C173.619 39.0477 181.492 38.9906 189.406 38.8712L201.287 38.7236L213.162 38.6823L236.793 38.8473L248.526 38.996L260.158 39.2023ZM194.535 1.05186C189.432 1.19653 184.417 1.29721 179.43 1.38384C174.433 1.48723 169.495 1.53342 164.559 1.57132C159.625 1.6099 154.723 1.57911 149.812 1.46963C144.897 1.38587 139.961 1.24933 135.007 1.22479L135.23 1.00296C135.228 2.49653 135.206 3.99013 135.223 5.48371L135.25 9.96463C135.254 12.952 135.327 15.9391 135.371 18.9265L135.007 18.5637L141.492 18.4427C141.552 18.4415 141.613 18.4523 141.67 18.4745C141.726 18.4966 141.778 18.5297 141.822 18.5718L141.835 18.5845L144.303 20.9652H143.539L145.937 18.5153C145.989 18.4621 146.051 18.4197 146.12 18.3905C146.188 18.3613 146.262 18.3458 146.336 18.3451L146.35 18.3449L158.409 18.2405C162.428 18.2087 166.448 18.1794 170.467 18.1857C178.506 18.182 186.545 18.2991 194.584 18.4057L194.061 18.9265L194.275 10.0922L194.535 1.05186ZM194.633 0.953897L194.893 9.83706L195.107 18.9265C195.11 19.0614 195.059 19.192 194.966 19.2896C194.872 19.3872 194.744 19.4438 194.608 19.447L194.603 19.4471L194.584 19.4473C186.545 19.5539 178.506 19.671 170.467 19.6673C166.448 19.6737 162.428 19.6443 158.409 19.6126L146.35 19.5081L146.763 19.3378L144.303 21.7269L144.292 21.7375C144.191 21.8357 144.055 21.8898 143.914 21.8881C143.773 21.8863 143.638 21.8288 143.54 21.7282L143.539 21.7269L141.148 19.2686L141.492 19.4102L135.007 19.2893L134.995 19.2891C134.948 19.2884 134.901 19.2784 134.858 19.2598C134.815 19.2412 134.776 19.2143 134.743 19.1806C134.71 19.1469 134.685 19.1071 134.667 19.0635C134.65 19.0199 134.642 18.9734 134.642 18.9265C134.686 15.9392 134.759 12.952 134.763 9.96464L134.791 5.48372C134.807 3.99016 134.786 2.49655 134.784 1.00297C134.784 0.944072 134.807 0.887601 134.849 0.845948C134.891 0.804295 134.948 0.780866 135.007 0.780798C139.983 0.756264 144.975 0.619712 149.99 0.536142C155.008 0.426498 160.037 0.395875 165.032 0.434264C170.026 0.472334 175.017 0.518528 179.95 0.621914C184.892 0.708381 189.806 0.809232 194.633 0.953897Z" fill="#23AC52"/>
<path d="M180.891 185.688C181.021 185.818 181.198 185.891 181.383 185.891L205.68 185.859C205.865 185.859 206.042 185.786 206.172 185.655C206.303 185.525 206.376 185.349 206.376 185.165C206.376 184.981 206.302 184.805 206.172 184.675C206.041 184.545 205.864 184.473 205.679 184.473H205.678L181.382 184.504C181.197 184.505 181.02 184.578 180.89 184.708C180.76 184.838 180.686 185.014 180.686 185.198C180.687 185.382 180.76 185.558 180.891 185.688Z" fill="black"/>
<path d="M156.669 185.914C156.801 186.044 156.978 186.116 157.162 186.115H157.169L165.983 186.032C166.074 186.032 166.165 186.013 166.249 185.977C166.333 185.942 166.409 185.89 166.473 185.825C166.537 185.76 166.588 185.683 166.622 185.598C166.656 185.514 166.673 185.424 166.672 185.333C166.673 185.241 166.656 185.15 166.621 185.066C166.586 184.981 166.534 184.905 166.468 184.84C166.402 184.776 166.325 184.726 166.239 184.693C166.153 184.659 166.062 184.644 165.97 184.646L157.156 184.729C156.971 184.73 156.795 184.804 156.665 184.934C156.535 185.065 156.462 185.241 156.463 185.425C156.464 185.609 156.538 185.785 156.669 185.914Z" fill="black"/>
<path d="M145.933 190.706C145.255 190.912 144.585 191.134 143.921 191.372C144.614 191.245 145.31 191.135 146.006 191.045C146.691 190.948 147.382 190.895 148.075 190.887H148.081C148.1 190.887 148.119 190.886 148.137 190.883C148.228 190.868 148.31 190.818 148.365 190.743C148.419 190.668 148.441 190.575 148.426 190.484C148.411 190.393 148.361 190.311 148.286 190.257C148.211 190.203 148.117 190.181 148.026 190.196C147.318 190.32 146.619 190.491 145.933 190.706Z" fill="black"/>
<path d="M148.286 186.283C146.327 186.097 144.37 186.03 142.412 185.994C144.363 186.145 146.315 186.329 148.241 186.627C148.728 186.7 149.184 186.799 149.684 186.888C150.181 186.972 150.684 187.011 151.188 187.007C152.209 186.998 153.221 186.816 154.18 186.468L154.199 186.46C154.284 186.423 154.35 186.354 154.383 186.268C154.417 186.182 154.415 186.087 154.377 186.003C154.34 185.919 154.271 185.853 154.185 185.819C154.099 185.786 154.003 185.788 153.918 185.825L153.895 185.836C153.029 186.203 152.107 186.424 151.168 186.487C150.694 186.52 150.217 186.51 149.745 186.459C149.277 186.405 148.77 186.326 148.286 186.283Z" fill="black"/>
<path d="M139.411 177.567C138.432 177.812 137.51 178.242 136.695 178.834C137.555 178.35 138.5 178.035 139.48 177.907C140.44 177.776 141.414 177.804 142.365 177.991C142.379 177.994 142.393 177.996 142.407 177.997C142.499 178.003 142.59 177.973 142.66 177.913C142.729 177.853 142.772 177.768 142.779 177.677C142.786 177.585 142.756 177.495 142.697 177.425C142.637 177.355 142.551 177.312 142.46 177.304C141.436 177.223 140.406 177.312 139.411 177.567Z" fill="black"/>
<path d="M147.778 174.753C147.316 174.53 146.898 174.227 146.541 173.859C146.624 174.122 146.769 174.361 146.964 174.557C147.159 174.755 147.385 174.921 147.632 175.048C147.884 175.164 148.152 175.241 148.428 175.277C148.699 175.312 148.975 175.297 149.241 175.236C148.737 175.13 148.246 174.968 147.778 174.753Z" fill="black"/>
</g>
<defs>
<clipPath id="clip0_154_18091">
<rect width="366" height="210" fill="white"/>
</clipPath>
</defs>
</svg>
