<svg width="72" height="23" viewBox="0 0 72 23" fill="none" xmlns="http://www.w3.org/2000/svg">
<path d="M4.73 0.789999C7.97 0.789999 9.47 2.89 9.47 6.07V7.96H7.25V5.95C7.25 4.06 6.5 2.92 4.79 2.92C3.11 2.92 2.33 4.06 2.33 5.95V17.05C2.33 18.94 3.11 20.08 4.79 20.08C6.5 20.08 7.25 18.94 7.25 17.05V14.32H9.47V16.93C9.47 20.11 7.97 22.21 4.73 22.21C1.52 22.21 0.0200001 20.11 0.0200001 16.93V6.07C0.0200001 2.89 1.52 0.789999 4.73 0.789999ZM13.9665 17.77L13.1565 22H10.9965L15.0165 0.999999H18.4065L22.4265 22H20.0865L19.2765 17.77H13.9665ZM14.2665 15.76H18.9465L16.5765 3.64L14.2665 15.76ZM24.2527 22V0.999999H26.5927V19.87H32.5927V22H24.2527ZM42.1002 21.97H39.8502L36.3702 5.26V22H34.3302V0.999999H37.6002L41.0502 17.77L44.3802 0.999999H47.6502V22H45.4302V5.11L42.1002 21.97ZM59.2733 22H49.7333V19.9L56.9333 3.13H50.0633V0.999999H59.3333V3.1L52.1033 19.87H59.2733V22ZM65.1505 14.47L60.7105 0.999999H63.1405L66.4105 11.32L69.7105 0.999999H71.9305L67.4605 14.47V22H65.1505V14.47Z" fill="#4370E2"/>
</svg>
