<svg width="70" height="29" viewBox="0 0 70 29" fill="none" xmlns="http://www.w3.org/2000/svg">
<path d="M0.731044 51.9624C0.992774 56.9982 1.10799 62.034 1.21386 67.0699C1.24938 72.1057 1.36399 77.1415 1.29139 82.1774L0.657577 81.472C5.26303 81.5577 9.8685 81.7745 14.474 81.8802C16.7767 81.9293 19.0794 81.9392 21.3822 81.9098C23.6849 81.8935 25.9876 81.8671 28.2904 81.7904L35.1986 81.5857L42.1068 81.4393C46.7122 81.3973 51.3177 81.3059 55.9232 81.3043L55.1387 82.1774C55.1208 76.2999 55.2115 70.4225 55.3186 64.5451C55.3547 61.6064 55.4477 58.6677 55.5271 55.729C55.5997 52.7902 55.719 49.8515 55.8497 46.9128C55.8507 46.8918 55.8588 46.872 55.8725 46.8575C55.8862 46.843 55.9044 46.835 55.9232 46.835C55.9421 46.835 55.9603 46.843 55.974 46.8575C55.9877 46.872 55.9959 46.8918 55.9968 46.9128C56.1275 49.8515 56.2468 52.7902 56.3194 55.729C56.3989 58.6677 56.4918 61.6064 56.5279 64.5451C56.635 70.4225 56.7257 76.2999 56.7078 82.1774C56.7078 82.4089 56.6251 82.631 56.478 82.7948C56.3308 82.9585 56.1313 83.0505 55.9232 83.0506C51.3177 83.049 46.7122 82.9577 42.1068 82.9156L35.1986 82.7692L28.2904 82.5646C25.9876 82.4878 23.6849 82.4615 21.3822 82.4451C19.0795 82.4134 16.7767 82.4233 14.474 82.4748C9.86852 82.5804 5.26305 82.7973 0.657577 82.8829C0.492294 82.886 0.332683 82.8159 0.213857 82.688C0.0950314 82.5601 0.0267154 82.3849 0.0239532 82.201L0.0236286 82.1774C-0.0489717 77.1416 0.0656201 72.1058 0.10113 67.0699C0.207006 62.0341 0.322272 56.9982 0.583972 51.9624C0.585068 51.9415 0.593282 51.9219 0.606953 51.9075C0.620624 51.8932 0.638714 51.8852 0.657508 51.8852C0.676301 51.8852 0.694391 51.8932 0.708062 51.9075C0.721733 51.9219 0.729948 51.9415 0.731044 51.9624ZM55.8495 28.8427C55.7227 27.4828 55.6649 26.1229 55.5711 24.763C55.5032 23.4032 55.4437 22.0433 55.4016 20.6834L55.923 21.2637C51.3176 21.4448 46.7121 21.5178 42.1066 21.1897C37.5062 20.8739 32.8933 20.8489 28.2902 21.1148C23.6848 21.3934 19.0793 21.4543 14.4739 21.5396C9.8684 21.6085 5.26294 21.4897 0.657461 21.2986L1.21027 20.6834L1.01113 25.1886C0.98102 25.9395 0.924326 26.6903 0.88222 27.4412C0.838906 28.1921 0.791195 28.9429 0.730928 29.6938C0.729287 29.7143 0.720837 29.7333 0.707227 29.7471C0.693618 29.761 0.675836 29.7687 0.657392 29.7687C0.638947 29.7687 0.621166 29.761 0.607556 29.7471C0.593946 29.7333 0.585496 29.7143 0.583856 29.6938C0.523589 28.9429 0.475855 28.1921 0.432563 27.4412C0.390458 26.6903 0.333764 25.9395 0.303626 25.1886L0.104493 20.6834C0.0976493 20.5284 0.146413 20.3768 0.240039 20.2618C0.333665 20.1468 0.464494 20.0779 0.603753 20.0703L0.607092 20.0701L0.657438 20.068C5.26289 19.8769 9.86836 19.7581 14.4738 19.827C19.0793 19.9123 23.6847 19.9732 28.2902 20.2518C32.8932 20.5177 37.5061 20.4927 42.1066 20.1769C46.7121 19.8488 51.3175 19.9218 55.923 20.1029L55.9594 20.1043C56.0254 20.1069 56.0903 20.1239 56.1505 20.1543C56.2106 20.1848 56.2647 20.2282 56.3098 20.282C56.3549 20.3357 56.39 20.3989 56.4131 20.4678C56.4362 20.5366 56.4469 20.6099 56.4446 20.6834C56.4025 22.0433 56.343 23.4032 56.2751 24.763C56.1813 26.1229 56.1235 27.4828 55.9966 28.8427C55.9947 28.8629 55.9862 28.8817 55.9726 28.8953C55.959 28.9089 55.9414 28.9165 55.9231 28.9165C55.9048 28.9165 55.8872 28.9089 55.8736 28.8953C55.86 28.8817 55.8514 28.8629 55.8495 28.8427Z" fill="#020202"/>
<path d="M28.2939 20.6829V82.1784" stroke="#F79155" stroke-width="2.903" stroke-miterlimit="10"/>
<path d="M28.9804 20.9107C28.9427 20.9405 28.8987 20.9587 28.8527 20.9636L28.7887 20.972L28.684 20.9882L28.4746 21.019L28.0555 21.0725C27.7763 21.0985 27.4962 21.1294 27.2166 21.1452C26.6574 21.1761 26.0964 21.2022 25.5369 21.1924C24.4147 21.1895 23.2936 21.1147 22.1792 20.9683C21.0563 20.8296 19.9426 20.6109 18.8449 20.3135C17.7271 20.0316 16.6403 19.6147 15.6039 19.0702C14.546 18.5152 13.5634 17.7976 12.685 16.9383C11.7794 16.0821 11.0677 15.0006 10.6076 13.7814C10.1859 12.548 10.1178 11.1994 10.4129 9.92114C10.6498 8.65492 11.0593 7.43646 11.6272 6.30803C12.2322 5.10011 13.1251 4.10149 14.2075 3.42217C15.3575 2.74538 16.6701 2.48958 17.9583 2.69119C19.2061 2.8865 20.4004 3.3829 21.4578 4.14565C22.469 4.87672 23.3798 5.76679 24.162 6.7882C25.6312 8.78436 26.7726 11.0532 27.5338 13.4905C27.9182 14.6732 28.2353 15.8818 28.4832 17.1089C28.6001 17.7259 28.6982 18.3273 28.801 18.9592C28.9074 19.682 28.9265 20.3685 28.9804 20.9107ZM28.8131 20.7617C28.5755 20.1199 28.3029 19.6225 28.1176 19.1613L27.4445 17.4979L26.739 15.857C26.4849 15.323 26.2496 14.781 25.9928 14.2558C25.0206 12.176 23.8285 10.233 22.4419 8.4681C21.2155 6.75586 19.5378 5.51432 17.6446 4.91797C16.7072 4.7222 15.7396 4.81791 14.8479 5.19457C13.9563 5.57123 13.1753 6.21424 12.5908 7.05289C11.915 7.9545 11.4131 9.00125 11.1164 10.128C10.7715 11.2228 10.8173 12.4233 11.2443 13.4817C11.7252 14.5019 12.4714 15.3371 13.3854 15.8783C14.3057 16.4362 15.2741 16.8896 16.276 17.2317C17.2757 17.6043 18.2966 17.9276 19.3226 18.2697C20.3535 18.5926 21.4042 18.8701 22.4602 19.1468L25.6577 19.9303L27.2735 20.3128L28.0853 20.5113L28.4923 20.6146L28.6962 20.6668L28.7981 20.6922C28.8099 20.6964 28.8438 20.7005 28.8376 20.705C28.8286 20.7103 28.8213 20.7186 28.8169 20.7288C28.8125 20.739 28.8112 20.7506 28.8131 20.7617Z" fill="#F79155"/>
<path d="M27.785 20.7617C27.787 20.7505 27.7856 20.739 27.7812 20.7288C27.7768 20.7186 27.7696 20.7102 27.7606 20.7049C27.7543 20.7004 27.7882 20.6964 27.8 20.6921L27.9019 20.6668L28.1058 20.6145L28.5128 20.5113L29.3246 20.3127L30.9404 19.9302L34.1379 19.1467C35.1939 18.8701 36.2446 18.5925 37.2755 18.2697C38.3016 17.9275 39.3224 17.6042 40.3221 17.2316C41.324 16.8895 42.2924 16.4361 43.2127 15.8782C44.1267 15.3371 44.8729 14.5019 45.3538 13.4816C45.7809 12.4232 45.8266 11.2228 45.4817 10.1279C45.185 9.00118 44.6831 7.95443 44.0073 7.05283C43.4228 6.21418 42.6418 5.57116 41.7502 5.1945C40.8586 4.81785 39.8909 4.72214 38.9535 4.9179C37.0603 5.51425 35.3826 6.75579 34.1563 8.46804C32.7696 10.2329 31.5775 12.1759 30.6054 14.2557C30.3485 14.781 30.1132 15.3229 29.8591 15.8569L29.1536 17.4979L28.4805 19.1613C28.2952 19.6225 28.0227 20.1199 27.785 20.7617ZM27.6177 20.9107C27.6717 20.3685 27.6908 19.682 27.7971 18.9592C27.8998 18.3273 27.998 17.7258 28.1149 17.1089C28.3628 15.8818 28.6798 14.6732 29.0643 13.4905C29.8255 11.0532 30.9669 8.78435 32.4361 6.7882C33.2183 5.76679 34.1291 4.87672 35.1403 4.14565C36.1976 3.3829 37.392 2.88649 38.6398 2.69119C39.928 2.48958 41.2406 2.74538 42.3906 3.42217C43.473 4.10148 44.3659 5.10011 44.9709 6.30803C45.5388 7.43646 45.9483 8.65491 46.1852 9.92114C46.4803 11.1994 46.4122 12.548 45.9904 13.7814C45.5303 15.0006 44.8187 16.0821 43.9131 16.9383C43.0347 17.7976 42.0521 18.5152 40.9942 19.0702C39.9577 19.6147 38.871 20.0316 37.7532 20.3135C36.6555 20.6109 35.5418 20.8296 34.4189 20.9683C33.3045 21.1147 32.1833 21.1895 31.0612 21.1924C30.5017 21.2022 29.9407 21.1761 29.3815 21.1452C29.1019 21.1294 28.8218 21.0985 28.5426 21.0725L28.1235 21.019L27.9141 20.9882L27.8094 20.972L27.7455 20.9636C27.6994 20.9587 27.6554 20.9405 27.6177 20.9107Z" fill="#F79155"/>
<path d="M35.2446 19.8026L39.8068 18.3551C41.3166 17.8758 42.8029 17.3504 44.3087 16.8802C45.8411 16.4804 47.3419 15.9435 48.7965 15.2745C50.227 14.5367 51.5638 13.5919 52.7722 12.4648C55.3768 10.1075 58.6817 8.92442 62.0327 9.14971C63.7089 9.27544 65.3421 9.7954 66.8244 10.6753C67.5677 11.115 68.2449 11.6808 68.832 12.3522C69.4205 13.0281 69.8158 13.883 69.9677 14.8089L69.825 14.8486C69.0411 13.3949 67.795 12.3221 66.3337 11.8428C64.9242 11.2681 63.4414 10.9473 61.9411 10.8925C61.1933 10.8492 60.4438 10.8624 59.6976 10.9321L58.577 11.0704L57.4716 11.3334C57.0979 11.406 56.7516 11.5824 56.3856 11.6929L55.8412 11.8802L55.3151 12.1242C54.9676 12.2952 54.596 12.4208 54.2549 12.6158L53.2252 13.2056C51.8235 14.0612 50.427 14.9481 49.0066 15.7509C47.6114 16.6399 46.1754 17.4472 44.7044 18.1694C43.205 18.8199 41.6492 19.2964 40.0618 19.5914C38.4787 19.9192 36.8672 20.0447 35.2585 19.9655L35.2446 19.8026Z" fill="#F79155"/>
<path d="M36.4258 20.5866L40.2928 17.5284C41.5724 16.5162 42.8162 15.4691 44.0948 14.4669C45.4195 13.5212 46.6735 12.4579 47.8442 11.2873C48.9717 10.0606 49.9488 8.67377 50.7501 7.16261C52.4989 3.97355 55.26 1.63141 58.4866 0.599852C60.1045 0.0961871 61.8 -0.0198658 63.4611 0.259352C64.2936 0.398044 65.1017 0.679975 65.8563 1.09504C66.6138 1.51377 67.2426 2.17303 67.6634 2.98946L67.5408 3.07987C66.366 2.00045 64.8697 1.45164 63.3484 1.54223C61.8474 1.52363 60.3534 1.77161 58.9226 2.27683C58.2047 2.51365 57.502 2.80438 56.8195 3.147L55.8045 3.69339L54.8413 4.35166C54.5107 4.55876 54.2371 4.85363 53.9252 5.09371L53.4681 5.47231L53.0453 5.89767C52.7689 6.18792 52.4563 6.44421 52.1931 6.75465L51.3992 7.69293C50.3342 9.01984 49.2835 10.3743 48.1852 11.6584C47.1363 13.0144 46.0245 14.3085 44.8543 15.5354C43.6357 16.7052 42.3118 17.732 40.9038 18.5994C39.5096 19.496 38.028 20.2125 36.4877 20.735L36.4258 20.5866Z" fill="#F79155"/>
</svg>
