<svg width="249" height="169" viewBox="0 0 249 169" fill="none" xmlns="http://www.w3.org/2000/svg">
<g clip-path="url(#clip0_482_155)">
<path d="M108.692 167.553C107.792 164.601 106.885 161.654 106.023 158.695C105.161 155.736 104.318 152.771 103.507 149.799C102.69 146.821 101.918 143.836 101.171 140.845L100.813 139.423C100.539 139.682 100.247 139.921 99.9385 140.137L100.239 141.107C101.158 144.053 102.058 146.999 102.914 149.965C103.776 152.924 104.608 155.891 105.41 158.868C106.17 161.629 106.879 164.409 107.594 167.184C103.648 167.101 99.7022 166.973 95.7566 166.922L89.5188 166.82L83.2874 166.763L70.8183 166.667L64.5869 166.661L59.1791 166.699C58.7769 164.078 58.3236 161.463 57.8894 158.829L56.389 150.073L53.1776 132.14L58.796 132.504L61.5542 132.657L64.3762 132.778C68.1303 132.931 71.8887 133.046 75.6514 133.122C79.412 133.211 83.1725 133.224 86.933 133.231C87.6226 133.224 88.3121 133.218 88.9953 133.212C89.0178 132.619 89.1498 132.035 89.3847 131.49L86.9203 131.509L75.6578 131.592L64.389 131.713L61.567 131.757L58.6939 131.828L53.0371 132.012L55.0674 149.684L56.1911 158.727C56.5806 161.757 56.9509 164.792 57.385 167.821L57.5063 168.65L58.3491 168.657L64.5869 168.708L70.8183 168.702L83.2874 168.599L89.5188 168.542L95.7566 168.44C99.9129 168.389 104.069 168.249 108.226 168.166L108.877 168.153L108.692 167.553Z" fill="black"/>
<path d="M142.281 72.703C133.598 85.8468 125.528 99.9472 124.047 102.549C122.839 99.2334 121.97 95.804 121.455 92.3134C121.455 92.3134 121.404 92.4028 121.308 92.5686C121.22 92.075 121.16 91.5767 121.129 91.0763C121.059 90.3238 121.033 89.5649 121.033 88.8124C121.042 87.3019 121.127 85.7927 121.289 84.2908C121.46 82.7623 121.507 81.2225 121.429 79.6864C121.391 78.1479 121.098 76.6264 120.561 75.1839C120.732 75.9235 120.837 76.6769 120.874 77.4351C120.935 78.1881 120.959 78.9437 120.944 79.6991C120.918 81.2104 120.823 82.7176 120.657 84.2205C120.488 85.7494 120.449 87.2898 120.542 88.8251C120.605 90.139 120.835 91.4397 121.225 92.6961C119.027 96.1909 116.479 99.4537 113.621 102.434C111.085 105.083 108.151 107.321 104.925 109.067C99.1787 112.204 89.1932 117.657 87.0096 118.856C87.1933 118.092 87.2834 117.308 87.2778 116.522C87.2778 113.665 88.9505 110.259 89.7103 107.543V107.536L93.7262 108.289C96.2864 108.301 94.9207 108.499 97.5001 108.289C95.0995 107.345 96.6376 106.305 94.2497 105.425L90.0167 104.634C89.9647 104.34 89.85 104.06 89.6804 103.814C89.5108 103.567 89.2902 103.36 89.0335 103.206C87.0543 101.988 85.6114 101.988 84.6281 103.62L83.0703 103.321C82.0296 98.1743 79.8333 96.4524 78.3138 95.8847C77.8039 95.6776 77.2544 95.5861 76.7048 95.6169C76.7048 95.6169 76.724 95.6042 76.7559 95.5786C77.6881 94.8515 91.9066 83.6849 99.6639 71.689C107.689 59.2723 115.843 51.6449 124.513 51.4473C124.513 51.4473 133.502 51.3835 137.901 51.7662C139.172 53.8836 140.972 67.1867 142.281 72.703ZM143.814 122.274C143.994 122.327 144.177 122.369 144.363 122.402H132.723L143.814 122.274ZM154.195 56.2304C154.514 54.3619 154.821 52.3274 155.108 50.1081C155.108 50.1081 157.579 49.6872 161.358 49.3045C159.392 50.478 156.921 52.9525 154.195 56.2304ZM205.68 122.402H146.687C154.967 120.839 164.979 103.856 173.1 86.7907C173.144 88.1852 173.272 89.5758 173.483 90.9551C173.674 92.3517 174.026 93.7229 174.287 95.0748C174.526 96.4365 174.694 97.8095 174.792 99.1884C174.879 100.567 174.864 101.951 174.747 103.327C174.648 104.697 174.387 106.05 173.968 107.358L173.962 107.377L173.955 107.409C173.793 108.585 173.735 109.774 173.783 110.961C173.827 112.142 173.968 113.317 174.204 114.475C174.439 115.633 174.806 116.76 175.296 117.836C175.781 118.906 176.404 119.91 177.148 120.82C176.471 119.87 175.909 118.842 175.475 117.759C175.051 116.678 174.739 115.556 174.543 114.411C174.151 112.133 174.134 109.807 174.492 107.523C174.485 107.536 174.485 107.543 174.479 107.555L174.492 107.504C174.932 106.168 175.214 104.786 175.334 103.385C175.464 101.977 175.492 100.562 175.417 99.15C175.328 97.7434 175.149 96.3438 174.881 94.96C174.6 93.5698 174.249 92.2305 174.045 90.8657C173.785 89.195 173.62 87.5107 173.553 85.8212C181.942 68.0285 188.193 50.446 188.193 50.446C192.579 51.677 196.225 53.6922 198.172 56.8745C198.544 57.4875 198.947 58.0814 199.379 58.6537C202.271 62.3973 211.171 73.5385 205.68 122.402Z" fill="#F79155"/>
<path d="M142.165 72.828C141.581 70.7476 141.148 68.6321 140.686 66.5266L139.398 60.1962L138.719 57.0477C138.489 56.0034 138.252 54.9563 137.958 53.9492C137.885 53.697 137.815 53.4421 137.726 53.2085C137.655 52.9793 137.566 52.7564 137.458 52.5421C137.235 52.1134 136.954 51.7177 136.622 51.3667C136.299 51.0147 135.928 50.7112 135.518 50.4658C135.318 50.349 135.108 50.2498 134.891 50.1693C134.697 50.0963 134.497 50.0451 134.292 50.0166L134.612 49.9537C133.841 50.3057 133.028 50.556 132.192 50.6984C131.342 50.8479 130.474 50.8509 129.623 50.7073C128.733 50.5604 127.901 50.171 127.219 49.5821C126.601 49.0068 126.066 48.3485 125.629 47.626C124.799 46.2598 124.072 44.8331 123.456 43.3579C122.827 41.9023 122.259 40.4339 121.742 38.9343L122.114 39.1793C121.478 39.2238 120.841 39.1091 120.261 38.8455C119.949 38.6891 119.689 38.4465 119.511 38.1466C119.347 37.8544 119.254 37.5282 119.238 37.1938C119.219 36.5818 119.319 35.9721 119.532 35.3981C119.724 34.837 119.973 34.2968 120.274 33.7857C120.904 32.873 121.204 31.7733 121.126 30.6674C121.076 30.1214 120.921 29.5901 120.671 29.1025C120.408 28.6193 120.11 28.0963 119.871 27.5706C119.619 27.0419 119.415 26.4921 119.26 25.9276C119.088 25.3715 118.948 24.8065 118.839 24.235C118.705 23.6675 118.658 23.0855 118.566 22.5096C118.524 21.9285 118.463 21.3466 118.473 20.7618C118.462 19.5897 118.573 18.4196 118.805 17.2705C119.029 16.101 119.399 14.9644 119.908 13.8874C119.945 13.8117 120.003 13.7479 120.074 13.7033C120.146 13.6587 120.228 13.6352 120.313 13.6354C120.397 13.6357 120.48 13.6596 120.551 13.7045C120.623 13.7494 120.68 13.8135 120.717 13.8894L120.739 13.9361C121.716 15.9298 122.918 17.8052 124.323 19.5253C125.706 21.2434 127.332 22.7521 129.149 24.0042C130.047 24.6205 131.007 25.1429 132.012 25.5631C133.007 25.9915 134.047 26.3044 135.113 26.4956C137.251 26.8689 139.443 26.8164 141.561 26.3411L141.603 26.3326C141.732 26.3067 141.865 26.3163 141.989 26.3606C142.113 26.4049 142.223 26.4822 142.306 26.584C142.57 26.9089 142.799 27.2602 142.99 27.6322C143.175 27.9724 143.338 28.3237 143.478 28.6841C143.758 29.3894 143.98 30.1162 144.141 30.8573C144.439 32.3172 144.572 33.8058 144.537 35.2952C144.512 36.7637 144.367 38.2277 144.103 39.6726C143.969 40.4118 143.887 41.0611 143.78 41.7495C143.74 42.0889 143.718 42.4302 143.714 42.7719C143.685 43.1114 143.683 43.4525 143.706 43.7924C143.729 45.1382 144.059 46.461 144.67 47.6603C145.282 48.8416 146.236 49.8105 147.409 50.4399C148.622 51.0635 149.98 51.3544 151.342 51.283C152.736 51.1956 154.109 50.8985 155.415 50.4017L155.441 50.3923C155.482 50.3774 155.526 50.3735 155.569 50.3812C155.613 50.3889 155.653 50.4078 155.687 50.436C155.72 50.4643 155.746 50.5008 155.76 50.542C155.775 50.5832 155.779 50.6276 155.771 50.6707C155.474 52.3073 155.182 53.9431 154.867 55.5726C154.863 55.5915 154.852 55.6083 154.836 55.6191C154.82 55.6299 154.8 55.6339 154.781 55.6303C154.763 55.6261 154.748 55.6155 154.737 55.6005C154.726 55.5855 154.721 55.5671 154.723 55.5487C154.889 53.8961 155.078 52.2497 155.262 50.6041L155.618 50.873C154.283 51.4972 152.853 51.8941 151.387 52.0474C149.877 52.1979 148.354 51.9459 146.973 51.317C145.567 50.6595 144.407 49.5735 143.658 48.2152C142.921 46.8779 142.499 45.3907 142.423 43.8661C142.386 43.493 142.377 43.1177 142.396 42.7433C142.39 42.3696 142.403 41.9959 142.435 41.6236C142.522 40.8942 142.604 40.1214 142.704 39.4484C142.914 38.0699 143.026 36.6781 143.039 35.2836C143.052 33.9084 142.912 32.5359 142.619 31.1919C142.475 30.5346 142.279 29.8897 142.033 29.2628C141.915 28.9559 141.777 28.6568 141.621 28.3672C141.485 28.1023 141.326 27.85 141.145 27.6132L141.89 27.856C139.568 28.3712 137.164 28.3988 134.831 27.9373C133.667 27.7073 132.533 27.3451 131.451 26.8578C130.371 26.3843 129.342 25.8015 128.381 25.1186C126.478 23.7645 124.796 22.1256 123.394 20.2597C121.974 18.4285 120.794 16.4232 119.884 14.2925L120.715 14.3412C119.706 16.3374 119.158 18.5341 119.111 20.7698C119.063 21.8976 119.146 23.0272 119.359 24.1359C119.457 24.6927 119.585 25.2436 119.744 25.7862C119.884 26.3305 120.073 26.8612 120.308 27.3723C120.537 27.8942 120.802 28.3727 121.078 28.9014C121.341 29.4428 121.506 30.0264 121.565 30.6252C121.665 31.8277 121.353 33.0284 120.682 34.0317C120.121 34.9739 119.821 36.0486 119.815 37.145C119.823 37.3807 119.897 37.6094 120.028 37.8054C120.159 38.0015 120.343 38.1572 120.557 38.255C121.04 38.4371 121.56 38.4991 122.072 38.4355C122.149 38.4294 122.225 38.448 122.291 38.4884C122.356 38.5289 122.407 38.5891 122.435 38.6604L122.443 38.6807C123.021 40.1228 123.658 41.5547 124.34 42.9511C125 44.3448 125.765 45.687 126.626 46.9664C127.018 47.5791 127.49 48.1362 128.031 48.6227C128.558 49.0467 129.186 49.3262 129.855 49.4338C131.286 49.6147 132.739 49.3937 134.052 48.7957L134.108 48.7721C134.191 48.7369 134.282 48.7234 134.373 48.7328C134.703 48.77 135.028 48.851 135.338 48.9735C135.625 49.0834 135.901 49.2182 136.165 49.3764C136.678 49.6906 137.143 50.0778 137.544 50.5259C137.949 50.9623 138.288 51.4557 138.55 51.9904C138.678 52.26 138.784 52.5399 138.866 52.8272C138.961 53.1 139.027 53.3663 139.097 53.6335C139.648 55.7666 139.993 57.8894 140.34 60.0229L141.322 66.4132C141.621 68.5464 141.945 70.6729 142.307 72.7951C142.309 72.8045 142.309 72.8141 142.307 72.8235C142.305 72.8328 142.301 72.8417 142.296 72.8496C142.29 72.8574 142.283 72.8642 142.275 72.8693C142.267 72.8745 142.258 72.8781 142.249 72.8798C142.231 72.8828 142.213 72.8791 142.197 72.8696C142.182 72.8601 142.171 72.8453 142.165 72.828Z" fill="black"/>
<path d="M120.602 39.3655C120.446 40.521 120.31 41.6719 120.18 42.8197C120.06 43.9683 119.954 45.116 119.917 46.2626C119.859 47.4026 119.908 48.5454 120.062 49.6764C120.142 50.2357 120.291 50.7827 120.507 51.3049C120.716 51.8384 121.064 52.3064 121.515 52.6604C120.981 52.3862 120.541 51.9602 120.249 51.436C119.954 50.9143 119.739 50.3513 119.611 49.7657C119.365 48.6081 119.27 47.4236 119.329 46.2417C119.428 43.9013 119.857 41.5865 120.602 39.3655ZM120.251 14.8817C120.102 14.6202 120.007 14.3311 119.972 14.032C119.937 13.7328 119.963 13.4297 120.049 13.1408L120.167 12.7065L120.353 12.3038C120.417 12.1702 120.478 12.0324 120.55 11.9033L120.799 11.54C121.13 11.0559 121.503 10.6024 121.916 10.1851C122.332 9.78077 122.776 9.40794 123.211 9.02064C125.048 7.6335 127.015 6.42761 129.085 5.41991C130.117 4.93032 131.161 4.46198 132.205 3.99637C133.26 3.56361 134.322 3.14579 135.386 2.73498C136.453 2.34488 137.537 2.00811 138.614 1.65071C139.159 1.48692 139.684 1.30102 140.267 1.14018C140.831 0.988736 141.404 0.867114 141.981 0.775841C144.275 0.398891 146.622 0.494351 148.877 1.05634C151.124 1.6218 153.201 2.72077 154.931 4.25981C156.638 5.8223 158.044 7.68358 159.081 9.75172C160.124 11.8106 160.921 13.9847 161.457 16.2293L161.467 16.2901C162.024 19.3717 163.012 22.3597 164.402 25.1663C165.087 26.5671 165.88 27.9126 166.774 29.1904C167.202 29.8419 167.695 30.4409 168.176 31.0513C168.665 31.6537 169.213 32.2052 169.742 32.7725L171.474 34.3746L172.381 35.219C172.691 35.4921 172.944 35.827 173.226 36.1278C174.34 37.3569 175.259 38.749 175.951 40.2558C177.385 43.233 177.743 46.6142 176.966 49.8255C176.961 49.8434 176.95 49.8588 176.934 49.8686C176.918 49.8784 176.9 49.8818 176.882 49.8782C176.863 49.8746 176.847 49.8642 176.837 49.8491C176.826 49.834 176.821 49.8155 176.824 49.7972L176.825 49.789C177.03 48.2211 176.966 46.6298 176.638 45.083C176.34 43.5508 175.8 42.0757 175.039 40.7129C174.862 40.3682 174.663 40.0355 174.443 39.7168C174.224 39.3973 174.026 39.0647 173.792 38.757C173.324 38.1405 172.817 37.5551 172.273 37.0043C171.997 36.7333 171.754 36.4308 171.451 36.1857L170.57 35.4276L168.719 33.8275C166.343 31.5349 164.414 28.8211 163.03 25.8244C162.341 24.3406 161.758 22.81 161.285 21.2439C160.797 19.6763 160.439 18.0712 160.214 16.4448L160.224 16.5053C159.79 14.3214 159.142 12.1854 158.289 10.1283C157.433 8.0688 156.177 6.19932 154.592 4.62808C153.777 3.86832 152.87 3.21363 151.892 2.6793C150.907 2.15702 149.854 1.7743 148.763 1.54216C146.578 1.1073 144.324 1.1609 142.163 1.69911C141.628 1.82279 141.099 1.97457 140.58 2.15381C140.08 2.32951 139.55 2.55808 139.022 2.75862L135.842 3.9473C134.798 4.36744 133.751 4.7805 132.698 5.17862L129.602 6.50781C127.563 7.42133 125.598 8.48984 123.722 9.70389C123.285 10.0371 122.831 10.3599 122.406 10.7108C121.99 11.0663 121.603 11.4545 121.248 11.8717L120.983 12.185C120.907 12.2955 120.843 12.4134 120.769 12.5268L120.555 12.8726L120.407 13.2444C120.193 13.7379 120.181 14.2948 120.37 14.7977L120.377 14.8129C120.385 14.8294 120.386 14.8481 120.38 14.8654C120.374 14.8826 120.362 14.8971 120.346 14.9058C120.33 14.9145 120.312 14.9169 120.294 14.9124C120.277 14.9079 120.261 14.897 120.251 14.8817ZM122.053 28.9352C123.06 28.2118 124.159 27.6253 125.321 27.1911C125.902 26.968 126.499 26.7891 127.106 26.6558C127.718 26.4994 128.355 26.4701 128.978 26.5698C128.383 26.6999 127.799 26.8764 127.232 27.0977L125.531 27.7408C124.392 28.1675 123.257 28.6087 122.053 28.9352ZM125.239 33.0009C125.468 32.993 125.685 32.8965 125.845 32.7317C126.004 32.567 126.093 32.3469 126.093 32.1179C126.093 31.8889 126.004 31.6688 125.845 31.5041C125.685 31.3393 125.468 31.2428 125.239 31.2349C125.01 31.2428 124.793 31.3393 124.633 31.5041C124.474 31.6688 124.385 31.8889 124.385 32.1179C124.385 32.3469 124.474 32.567 124.633 32.7317C124.793 32.8965 125.01 32.993 125.239 33.0009ZM123.813 43.6982C124.687 43.7202 125.56 43.6505 126.419 43.49C126.84 43.408 127.26 43.3141 127.681 43.1988C128.105 43.0893 128.524 42.9526 128.978 42.8472C128.293 43.479 127.443 43.9026 126.526 44.0685C126.067 44.1506 125.597 44.1676 125.133 44.1188C124.667 44.0795 124.216 43.9358 123.813 43.6982Z" fill="black"/>
<path d="M174.492 107.504V107.523C174.485 107.536 174.485 107.543 174.479 107.555L174.492 107.504Z" fill="white"/>
<path d="M140.767 75.0141C141.604 73.0741 142.58 71.1965 143.686 69.3956C144.758 67.5861 145.925 65.8406 147.149 64.1352C148.377 62.433 149.664 60.7723 151.048 59.1842C152.409 57.5629 153.903 56.0582 155.515 54.6858C154.488 56.5515 153.387 58.3285 152.243 60.0809C151.11 61.8401 149.923 63.5576 148.703 65.2522C147.48 66.9445 146.226 68.6154 144.909 70.2439C143.601 71.8799 142.252 73.4864 140.767 75.0141Z" fill="black"/>
<path d="M188.193 50.4461C179.644 48.0355 168.298 48.6031 161.358 49.3045C161.775 49.0492 162.221 48.8458 162.686 48.6987C162.686 48.6987 182.504 45.2039 188.193 50.4461Z" fill="white"/>
<path d="M124.288 105.071C125.4 105.343 126.459 105.593 127.517 105.812C128.577 106.017 129.627 106.184 130.679 106.291C131.205 106.362 131.732 106.372 132.261 106.416C132.788 106.414 133.322 106.458 133.854 106.433C134.931 106.441 135.993 106.292 137.148 106.226C136.196 106.88 135.121 107.334 133.988 107.56C132.853 107.812 131.683 107.871 130.528 107.737C129.378 107.621 128.251 107.336 127.184 106.893C126.113 106.472 125.13 105.854 124.288 105.071ZM151.304 107.108C152.416 107.379 153.474 107.63 154.533 107.849C155.593 108.053 156.643 108.221 157.695 108.327C158.221 108.399 158.748 108.409 159.277 108.453C159.804 108.451 160.338 108.495 160.87 108.469C161.947 108.478 163.009 108.329 164.164 108.262C163.212 108.917 162.137 109.371 161.004 109.596C159.869 109.848 158.699 109.908 157.544 109.774C156.394 109.657 155.267 109.373 154.2 108.929C153.129 108.509 152.146 107.891 151.304 107.108ZM61.1837 121.139C61.8231 121.963 62.3294 122.882 62.6841 123.862H62.3712C52.0154 123.856 41.6617 123.756 31.3101 123.562C20.9542 123.352 10.5984 123.097 0.24254 122.657C0.225617 122.657 0.208944 122.653 0.193547 122.646C0.17815 122.639 0.164347 122.629 0.15299 122.616C0.141634 122.604 0.132967 122.589 0.127505 122.573C0.122043 122.557 0.119906 122.54 0.121231 122.523C0.123351 122.492 0.136811 122.462 0.159118 122.44C0.181425 122.417 0.211068 122.404 0.24254 122.402C10.5984 121.949 20.9478 121.688 31.3037 121.471C41.2637 121.273 51.2237 121.163 61.1837 121.139ZM93.9815 121.299C93.5146 122.035 93.1252 122.817 92.8195 123.633C89.4803 123.671 86.1433 123.705 82.8084 123.735C84.1013 123.261 85.2072 122.385 85.9624 121.235C88.6375 121.254 91.3106 121.275 93.9815 121.299ZM248.879 122.281C248.879 122.297 248.876 122.313 248.87 122.328C248.865 122.343 248.856 122.356 248.844 122.368C248.833 122.379 248.819 122.388 248.804 122.394C248.789 122.4 248.773 122.402 248.757 122.402C238.408 122.861 228.052 123.135 217.696 123.295L209.932 123.397L205.776 123.429L202.162 123.454C199.577 123.473 196.984 123.492 194.399 123.48C191.807 123.486 189.217 123.471 186.629 123.435C181.591 123.365 176.554 123.25 171.516 123.135C166.204 123.014 160.886 122.899 155.567 122.829C145.212 122.721 134.856 122.816 124.5 123.059C119.858 123.18 115.217 123.282 110.575 123.365C109.215 122.772 107.676 122.108 106.144 121.445C112.261 121.528 118.379 121.643 124.5 121.79C134.856 122.013 145.212 122.066 155.567 121.949C165.917 121.79 176.273 121.439 186.629 121.267C189.214 121.228 191.802 121.207 194.392 121.203C196.984 121.184 199.57 121.196 202.162 121.209L209.926 121.247L217.696 121.337C228.046 121.471 238.401 121.713 248.757 122.147C248.774 122.148 248.791 122.152 248.806 122.159C248.821 122.166 248.835 122.176 248.846 122.189C248.857 122.201 248.866 122.216 248.871 122.231C248.877 122.247 248.879 122.264 248.879 122.281Z" fill="black"/>
<path d="M187.466 50.4422C187.737 50.4435 188.008 50.4604 188.276 50.4928C188.195 50.4033 188.125 50.2839 188.022 50.1416C187.921 50.0034 187.805 49.878 187.674 49.7683C187.454 49.5963 187.241 49.4027 187.007 49.2443C186.542 48.9183 186.05 48.632 185.537 48.3885C184.51 47.9163 183.437 47.5535 182.334 47.3061C180.155 46.8203 177.93 46.5678 175.697 46.5526C174.588 46.5185 173.481 46.5791 172.379 46.6315C171.278 46.716 170.18 46.8154 169.086 46.9497C166.895 47.191 164.722 47.5742 162.58 48.0968L162.512 48.1127C162.012 48.3073 161.539 48.5629 161.102 48.8735L159.161 50.2036L161.409 49.8034C163.618 49.3937 165.857 49.1673 168.104 49.1266C170.35 49.0974 172.595 49.3702 174.819 49.5278C175.932 49.6058 177.042 49.6726 178.153 49.7152L181.482 49.9114C182.034 49.9674 182.591 49.9893 183.146 50.0347C183.698 50.0953 184.255 50.1364 184.812 50.1808C185.364 50.2508 185.923 50.2977 186.483 50.3523C186.809 50.4005 187.137 50.4305 187.466 50.4422Z" fill="#F79155"/>
<path d="M177.157 122.602C172.953 123.199 168.73 123.678 164.508 124.111C160.284 124.523 156.057 124.914 151.829 125.284C147.601 125.662 143.368 125.967 139.137 126.298C134.905 126.612 130.676 126.957 126.439 127.223L126.434 127.223C126.397 127.226 126.36 127.225 126.324 127.221L114.946 125.886L114.937 125.885C114.881 125.878 114.826 125.863 114.774 125.84C110.276 123.811 105.781 121.772 101.266 119.79C100.138 119.3 99.0004 118.794 97.8756 118.353C97.5227 118.126 96.9786 118.504 96.5169 118.834C96.0466 119.2 95.6155 119.615 95.2304 120.07C93.6519 121.917 92.6571 124.191 92.3717 126.603C92.3674 126.643 92.354 126.681 92.3326 126.715C91.8086 127.513 91.295 128.318 90.815 129.139C90.3245 129.948 89.9012 130.795 89.5492 131.673C89.3537 132.079 89.2453 132.522 89.231 132.972C89.2168 133.423 89.2968 133.872 89.4662 134.289C89.9733 135.106 90.4368 135.948 90.8549 136.814C90.8735 136.863 90.8766 136.917 90.8637 136.967L90.8629 136.971C90.7219 137.545 90.6623 138.137 90.686 138.728C90.7002 139.309 90.8391 139.88 91.0935 140.403C91.347 140.913 91.7603 141.327 92.2707 141.581C92.5236 141.717 92.7922 141.823 93.0705 141.895C93.3504 141.969 93.6482 141.995 93.936 142.045L93.8817 142.046C94.6898 141.928 95.4874 141.747 96.2673 141.506C97.047 141.27 97.8037 140.964 98.528 140.592C98.887 140.409 99.233 140.202 99.5635 139.972C99.8968 139.749 100.181 139.469 100.493 139.223C101.072 138.698 101.526 138.049 101.822 137.325C101.851 137.251 101.902 137.189 101.969 137.146C102.035 137.102 102.113 137.081 102.192 137.083C102.271 137.086 102.347 137.113 102.41 137.16C102.474 137.208 102.521 137.274 102.545 137.349L102.554 137.378C103.226 139.471 104.698 141.215 106.65 142.229C108.662 143.127 110.906 143.368 113.063 142.917C115.221 142.47 117.472 141.799 119.662 141.19C121.845 140.553 124.094 139.923 126.136 139.124L126.15 139.118C126.252 139.079 126.363 139.064 126.472 139.075C134.376 139.923 142.303 140.635 150.228 141.283C158.152 141.958 166.085 142.522 174.022 142.872C177.99 143.063 181.96 143.197 185.925 143.191C187.907 143.187 189.888 143.147 191.861 143.04C193.824 142.954 195.779 142.738 197.714 142.395C198.647 142.241 199.551 141.946 200.395 141.52C200.579 141.417 200.752 141.294 200.909 141.153L201.387 140.618C201.713 140.264 202.009 139.885 202.273 139.483C203.353 137.858 204.15 136.062 204.631 134.171C205.608 130.332 205.938 126.358 205.608 122.41C205.606 122.391 205.611 122.372 205.623 122.357C205.635 122.342 205.653 122.332 205.672 122.33C205.691 122.329 205.71 122.334 205.725 122.346C205.74 122.358 205.75 122.375 205.753 122.393C205.992 124.376 206.073 126.374 205.995 128.369C205.934 130.374 205.684 132.37 205.247 134.328C204.808 136.314 204.03 138.21 202.949 139.933C202.678 140.37 202.373 140.785 202.036 141.173L201.536 141.764C201.33 141.964 201.103 142.14 200.858 142.287C199.94 142.792 198.949 143.152 197.921 143.353C195.948 143.77 193.947 144.041 191.934 144.164C189.934 144.307 187.935 144.382 185.938 144.421C181.942 144.496 177.951 144.43 173.965 144.308C165.994 144.015 158.042 143.458 150.1 142.818C142.16 142.133 134.234 141.325 126.32 140.396L126.656 140.347C125.527 140.796 124.433 141.12 123.32 141.448C122.211 141.771 121.101 142.076 119.989 142.374L116.651 143.242C115.549 143.534 114.402 143.785 113.24 144.013C110.857 144.457 108.395 144.126 106.215 143.069C105.153 142.486 104.217 141.7 103.46 140.756C102.704 139.812 102.141 138.727 101.804 137.565L102.537 137.619C102.183 138.435 101.652 139.162 100.981 139.748C100.636 140.012 100.313 140.311 99.9486 140.543C99.5896 140.781 99.2148 140.994 98.8268 141.181C98.0599 141.554 97.2606 141.857 96.4388 142.085C95.6207 142.319 94.7855 142.488 93.9409 142.591L93.9243 142.593C93.9116 142.595 93.8988 142.594 93.8863 142.592C93.568 142.53 93.245 142.502 92.9309 142.415C92.6124 142.329 92.3053 142.205 92.0163 142.046C91.4163 141.738 90.9318 141.244 90.6345 140.639C90.3506 140.048 90.1975 139.403 90.1857 138.747C90.1646 138.104 90.2354 137.461 90.3961 136.838L90.4041 136.994C90.2292 136.562 90.0189 136.145 89.7754 135.748C89.5091 135.339 89.2655 134.916 89.0457 134.48C88.8278 134.009 88.7361 133.488 88.7796 132.971C88.8314 132.473 88.9522 131.985 89.1386 131.52C89.4924 130.617 89.9177 129.743 90.4104 128.906C90.8876 128.069 91.3961 127.252 91.9144 126.444L91.8754 126.555C92.1448 124.031 93.1577 121.645 94.7858 119.697C95.1863 119.2 95.6361 118.745 96.1283 118.338C96.3856 118.126 96.6655 117.943 96.9629 117.792C97.1327 117.707 97.315 117.649 97.5029 117.621C97.6199 117.605 97.7388 117.609 97.8543 117.633C97.9439 117.659 98.0328 117.686 98.1039 117.712C99.2896 118.139 100.42 118.606 101.57 119.068C106.149 120.925 110.696 122.848 115.25 124.755L115.079 124.709L126.468 125.938L126.353 125.935L151.751 124.259C155.985 123.994 160.218 123.713 164.45 123.416L170.798 122.979L177.138 122.457C177.157 122.455 177.176 122.46 177.192 122.472C177.207 122.484 177.217 122.502 177.219 122.521C177.221 122.54 177.215 122.558 177.204 122.573C177.192 122.588 177.176 122.598 177.157 122.602Z" fill="black"/>
<path d="M97.1886 135.907C97.6 135.478 98.0752 135.116 98.5974 134.832C99.1322 134.514 99.7657 134.403 100.377 134.521C100.99 134.712 101.504 135.137 101.806 135.704C101.95 135.975 102.08 136.257 102.198 136.54L102.47 137.412C102.482 137.45 102.486 137.489 102.483 137.528C102.479 137.567 102.468 137.604 102.45 137.639C102.432 137.674 102.407 137.704 102.377 137.729C102.347 137.754 102.312 137.773 102.275 137.785C102.238 137.796 102.198 137.801 102.159 137.797C102.121 137.794 102.083 137.782 102.048 137.764C102.013 137.746 101.983 137.721 101.958 137.691C101.933 137.661 101.914 137.627 101.902 137.59C101.9 137.582 101.898 137.574 101.896 137.566L101.889 137.535L101.704 136.703C101.618 136.437 101.522 136.172 101.414 135.915C101.2 135.413 100.799 135.015 100.294 134.806C99.7487 134.658 99.1678 134.715 98.6613 134.966C98.1249 135.202 97.6281 135.52 97.1886 135.907ZM90.3912 136.726C91.3195 135.552 92.1831 134.329 92.9781 133.061C93.377 132.428 93.741 131.773 94.0684 131.1C94.4179 130.435 94.6532 129.716 94.7643 128.973C94.7014 129.728 94.5122 130.467 94.2046 131.159C93.9192 131.859 93.5958 132.544 93.2356 133.209C92.5171 134.542 91.7262 135.835 90.8666 137.082C90.822 137.147 90.7534 137.191 90.6759 137.206C90.5984 137.22 90.5183 137.203 90.4532 137.159C90.3882 137.114 90.3435 137.046 90.329 136.968C90.3145 136.891 90.3315 136.811 90.3761 136.746L90.3871 136.731L90.3912 136.726ZM89.097 134.437L94.7643 124.934L89.6155 134.727C89.5973 134.761 89.5726 134.792 89.5426 134.817C89.5126 134.842 89.478 134.861 89.4407 134.872C89.4034 134.884 89.3643 134.888 89.3254 134.884C89.2865 134.881 89.2487 134.87 89.2142 134.852C89.1796 134.834 89.149 134.809 89.124 134.779C89.099 134.749 89.0802 134.714 89.0686 134.677C89.057 134.64 89.0529 134.601 89.0564 134.562C89.0599 134.523 89.0711 134.485 89.0893 134.451L89.097 134.437ZM91.8724 126.414L95.6199 121.235L92.3695 126.739C92.3295 126.807 92.264 126.856 92.1876 126.876C92.1113 126.896 92.0302 126.884 91.9623 126.844C91.8943 126.804 91.8451 126.739 91.8254 126.663C91.8057 126.586 91.8171 126.505 91.8572 126.437C91.8619 126.43 91.8671 126.422 91.8724 126.414ZM78.2824 95.9506C77.9266 95.79 77.5372 95.7179 77.1474 95.7404C76.7568 95.7416 76.3668 95.7715 75.9806 95.8301C75.2315 95.9729 74.5329 96.3095 73.9546 96.8061C73.3985 97.3139 72.9588 97.9357 72.6654 98.6289C72.3646 99.3204 72.1769 100.056 72.1095 100.807C72.1003 100.913 72.0536 101.012 71.9779 101.087C71.9021 101.162 71.8022 101.208 71.6958 101.216C71.5894 101.225 71.4836 101.195 71.3971 101.133C71.3106 101.07 71.249 100.979 71.2234 100.876L71.22 100.861C70.9034 99.5138 70.42 98.2109 69.7808 96.9827C69.1869 95.7931 68.2841 94.7845 67.1668 94.0623C66.9013 93.8991 66.6181 93.7665 66.3227 93.667C66.1899 93.6196 66.0526 93.5857 65.913 93.5659L65.408 93.5019C64.7686 93.416 64.1189 93.4475 63.4908 93.5947C62.8967 93.726 62.3421 93.9959 61.8726 94.3825C61.403 94.7691 61.0318 95.2612 60.7894 95.8187L60.7642 95.8768C60.6979 96.0292 60.5737 96.1491 60.4189 96.2101C60.2641 96.271 60.0914 96.2681 59.9388 96.2019C59.8951 96.1826 59.8535 96.1586 59.815 96.1303C59.4852 95.8817 59.0863 95.7415 58.6733 95.729C58.2181 95.7286 57.7673 95.8181 57.3469 95.9925C56.4437 96.3087 55.6927 96.9528 55.2432 97.7967L55.2169 97.847L55.1696 97.9535L55.1016 98.1176C55.0617 98.2245 55.0276 98.3335 54.9993 98.4441C54.9439 98.6571 54.9198 98.8769 54.9276 99.0968C54.9521 99.5377 55.1249 99.9574 55.4181 100.288C56.1086 100.995 56.9861 101.492 57.9484 101.72L57.9738 101.727C58.0362 101.744 58.0906 101.783 58.1273 101.836C58.5319 102.441 58.886 103.079 59.1859 103.743C59.3409 104.064 59.4888 104.382 59.6642 104.679C59.8446 104.992 60.025 105.305 60.1816 105.637C60.3552 105.975 60.4818 106.334 60.5579 106.706C60.5993 106.825 60.6065 106.953 60.5786 107.076C60.5507 107.198 60.4888 107.311 60.4 107.4C60.3112 107.49 60.1991 107.552 60.0764 107.581C59.9537 107.61 59.8253 107.604 59.706 107.564C58.983 107.388 58.2936 107.096 57.665 106.699C57.0368 106.337 56.4375 105.953 55.837 105.542C55.2459 105.107 54.7015 104.613 54.2128 104.066C53.9663 103.803 53.7278 103.506 53.5056 103.293C53.2723 103.075 53.0019 102.9 52.7069 102.777C52.1042 102.54 51.4445 102.488 50.8119 102.626C50.1881 102.748 49.6111 103.042 49.147 103.476C48.9465 103.681 48.7987 103.931 48.7162 104.205C48.6338 104.479 48.6192 104.77 48.6737 105.051C48.793 105.683 49.0326 106.286 49.3796 106.828C49.7304 107.408 50.1347 107.953 50.5874 108.457C50.813 108.712 51.0496 108.959 51.2911 109.186L52.0839 109.878C52.6279 110.359 53.1562 110.851 53.6689 111.354C54.6989 112.359 55.6994 113.379 56.6915 114.422C56.7833 114.519 56.8442 114.64 56.8662 114.771L56.8752 114.824C56.9607 115.247 57.1013 115.658 57.2936 116.044C57.4945 116.454 57.7401 116.841 58.0258 117.197C58.3116 117.558 58.6345 117.888 58.9894 118.182C59.3462 118.497 59.706 118.698 60.191 119.059C61.0706 119.744 61.8205 120.58 62.405 121.528C62.9951 122.468 63.4371 123.494 63.7156 124.568L63.6732 124.435C64.0079 125.304 64.6174 126.039 65.4089 126.53C66.2563 126.986 67.2069 127.217 68.1694 127.2C69.1986 127.196 70.2227 127.057 71.2161 126.788C72.2294 126.526 73.2171 126.174 74.1674 125.736L74.2043 125.719C74.2196 125.712 74.2352 125.706 74.2511 125.701C75.4859 125.316 76.7186 124.938 77.9651 124.595C79.212 124.249 80.4532 123.903 81.7339 123.621C82.9601 123.437 84.1005 122.882 85.0012 122.03C85.9142 121.153 86.5821 120.053 86.9387 118.839C86.9443 118.82 86.957 118.805 86.974 118.796C86.991 118.786 87.011 118.784 87.0295 118.79C87.0467 118.795 87.0613 118.807 87.0706 118.822C87.08 118.837 87.0834 118.856 87.0802 118.873C86.8376 120.177 86.2403 121.388 85.3538 122.375C84.9025 122.876 84.3779 123.305 83.7979 123.649C83.5043 123.823 83.1953 123.969 82.8749 124.085C82.5414 124.194 82.203 124.3 81.916 124.369C80.6984 124.715 79.4783 125.135 78.2651 125.552L74.6252 126.819L74.7086 126.784C73.7011 127.297 72.6489 127.718 71.565 128.041C70.4665 128.38 69.3283 128.575 68.1792 128.621C66.9552 128.678 65.7387 128.402 64.6592 127.823C64.111 127.505 63.6208 127.097 63.2096 126.615C62.8168 126.136 62.4919 125.605 62.244 125.037L62.2294 124.999L62.2015 124.904C61.9508 124.006 61.576 123.147 61.0878 122.352C60.6011 121.56 59.9792 120.858 59.2503 120.28C58.9259 120.021 58.4053 119.696 58.004 119.325C57.5804 118.958 57.1962 118.549 56.8576 118.103C56.5143 117.655 56.2215 117.172 55.9844 116.66C55.7319 116.128 55.5581 115.562 55.4682 114.981L55.6517 115.382C54.6996 114.338 53.7236 113.301 52.7325 112.293C52.2345 111.792 51.7378 111.29 51.2308 110.807C50.9751 110.557 50.7314 110.354 50.4378 110.062C50.1697 109.791 49.9229 109.513 49.6856 109.225C49.2055 108.649 48.7806 108.03 48.4165 107.374C48.0212 106.694 47.7702 105.939 47.6793 105.158C47.6373 104.733 47.6867 104.305 47.8242 103.901C47.97 103.493 48.2149 103.128 48.537 102.839C49.1461 102.319 49.8901 101.983 50.6828 101.868C51.4617 101.739 52.2617 101.843 52.9809 102.169C53.3381 102.339 53.662 102.571 53.9376 102.854C54.2157 103.151 54.4071 103.424 54.637 103.692C55.0793 104.227 55.5833 104.708 56.1386 105.125C56.7079 105.53 57.3036 105.927 57.9059 106.287C58.4785 106.663 59.1066 106.947 59.7673 107.128C60.4276 107.329 60.04 106.408 59.7668 105.838C59.6154 105.527 59.4359 105.224 59.2571 104.922C59.0667 104.606 58.8959 104.286 58.7316 103.97C58.4225 103.343 58.0611 102.744 57.6511 102.178L57.8298 102.294C57.285 102.184 56.7551 102.011 56.2512 101.776C55.7267 101.542 55.2498 101.214 54.8442 100.807C54.4078 100.363 54.1326 99.7865 54.0623 99.1683C54.0314 98.862 54.046 98.5529 54.1055 98.2509C54.1339 98.1041 54.1702 97.9589 54.2144 97.816L54.2855 97.6104L54.3241 97.5046L54.3938 97.3538L54.3677 97.4039C54.6079 96.8445 54.9622 96.3412 55.4081 95.9262C55.847 95.5208 56.3485 95.1889 56.8933 94.9433C57.4533 94.67 58.0665 94.5225 58.6898 94.5114C59.3594 94.5117 60.0127 94.7185 60.5602 95.1036L59.5859 95.415C59.7307 95.0172 59.9327 94.6425 60.1857 94.3029C60.425 93.9707 60.7041 93.6692 61.0169 93.405C61.6451 92.8767 62.391 92.5066 63.1921 92.326C63.9626 92.1557 64.7576 92.1255 65.5389 92.2368L66.0976 92.3155C66.3119 92.3489 66.5225 92.4031 66.7262 92.4773C67.1076 92.6114 67.4727 92.788 67.8144 93.0039C69.0991 93.866 70.1219 95.0642 70.771 96.4677C71.4043 97.8042 71.8519 99.2207 72.1015 100.678L71.2122 100.733C71.3305 99.8868 71.5868 99.0658 71.9709 98.3026C72.3416 97.5284 72.8928 96.8544 73.5783 96.3371C74.2685 95.8383 75.0777 95.5291 75.9251 95.4406C76.3373 95.4096 76.7515 95.4157 77.1626 95.4586C77.5796 95.4843 77.9846 95.6078 78.3448 95.8191C78.361 95.8281 78.3732 95.8429 78.3789 95.8605C78.3846 95.8782 78.3833 95.8973 78.3754 95.9141C78.3674 95.9308 78.3534 95.9439 78.3361 95.9507C78.3189 95.9575 78.2996 95.9574 78.2824 95.9506Z" fill="black"/>
<path d="M80.1739 102.727C80.4605 103.383 80.6221 104.087 80.6502 104.802C80.67 105.153 80.6692 105.506 80.6477 105.857C80.6174 106.209 80.5793 106.562 80.5181 106.91L80.5124 106.943C80.5044 106.988 80.4888 107.031 80.4661 107.07C80.3071 107.353 80.1243 107.623 79.9198 107.876C79.7027 108.127 79.4628 108.357 79.203 108.564C78.7054 109 78.1231 109.33 77.4926 109.531C76.8198 109.7 76.1101 109.639 75.4757 109.359C75.141 109.217 74.8358 109.013 74.5756 108.759C74.5046 108.685 74.4379 108.607 74.3758 108.525C74.3067 108.42 74.2479 108.308 74.2004 108.192L74.0463 107.748L73.7601 106.896C73.6736 106.663 73.5656 106.439 73.4375 106.226C73.3114 106.011 73.1725 105.804 73.0215 105.606C72.9575 105.528 72.8431 105.37 72.7499 105.229C72.6544 105.086 72.5557 104.945 72.4662 104.8C72.1368 104.232 71.9027 103.615 71.7732 102.972C71.6343 102.351 71.5898 101.713 71.641 101.079C71.6428 101.059 71.6526 101.04 71.6681 101.027C71.6837 101.014 71.7038 101.008 71.724 101.01C71.7361 101.011 71.7478 101.015 71.758 101.022C71.7683 101.028 71.7769 101.037 71.7831 101.047C72.3257 102.079 72.9523 103.064 73.6566 103.993C73.7493 104.087 73.8326 104.188 73.9193 104.284C74.0088 104.383 74.0706 104.47 74.2094 104.616C74.4453 104.881 74.6459 105.175 74.8063 105.492C74.9646 105.81 75.0852 106.146 75.1655 106.493C75.209 106.678 75.2303 106.827 75.2566 106.963L75.3342 107.391L75.4066 107.823C75.4218 107.871 75.4059 107.853 75.4216 107.898C75.4451 107.94 75.4547 107.986 75.4826 108.034C75.6065 108.249 75.7602 108.446 75.9392 108.618C76.1237 108.809 76.352 108.952 76.6042 109.034C76.8564 109.117 77.125 109.137 77.3866 109.092C77.6571 109.025 77.9088 108.897 78.1227 108.719C78.3367 108.54 78.5073 108.316 78.6218 108.062C78.7531 107.813 78.8702 107.556 78.9726 107.293C79.0618 107.026 79.1677 106.765 79.2898 106.51L79.2378 106.67C79.3133 106.025 79.4759 105.392 79.5859 104.735C79.7179 104.082 79.8484 103.433 80.029 102.741C80.0314 102.731 80.0357 102.722 80.0417 102.714C80.0477 102.706 80.0553 102.699 80.0639 102.694C80.0726 102.688 80.0823 102.685 80.0923 102.683C80.1023 102.682 80.1126 102.682 80.1224 102.685C80.1335 102.688 80.1439 102.693 80.1527 102.7C80.1616 102.707 80.1688 102.717 80.1739 102.727ZM56.1709 114.903C56.0533 114.506 56.0015 114.092 56.0175 113.679C56.0264 113.262 56.093 112.848 56.2153 112.45C56.3359 112.034 56.5498 111.651 56.8407 111.33C56.9829 111.165 57.1587 111.032 57.3564 110.94C57.554 110.848 57.7691 110.8 57.9871 110.797C57.6646 111.001 57.3964 111.28 57.2056 111.61C57.0213 111.93 56.8773 112.272 56.7768 112.627C56.5432 113.347 56.4023 114.109 56.1709 114.903ZM57.8915 102.008C58.3921 101.885 58.8008 101.8 59.2349 101.715C59.4504 101.675 59.6662 101.632 59.8921 101.599C60.1311 101.557 60.3732 101.536 60.6158 101.536C60.3002 101.935 59.8486 102.204 59.347 102.292C59.0986 102.339 58.8442 102.343 58.5943 102.306C58.3367 102.275 58.0931 102.172 57.8915 102.008ZM60.5497 95.613C60.5411 96.2448 60.6243 96.8745 60.7967 97.4825C60.9491 98.0893 61.2731 98.6396 61.7301 99.0675C61.9717 99.271 62.2525 99.4231 62.5551 99.5145C62.8577 99.6058 63.1758 99.6344 63.4899 99.5986C63.8166 99.5721 64.1406 99.5187 64.4585 99.439L65.3952 99.101L64.4872 99.5253C64.1684 99.6369 63.8409 99.722 63.508 99.7795C63.1631 99.8478 62.8078 99.8453 62.4638 99.7723C62.1198 99.6993 61.7942 99.5573 61.5068 99.3548C60.9434 98.9194 60.5175 98.331 60.2803 97.66C60.0276 97.0059 59.873 96.3181 59.8215 95.6188C59.814 95.5225 59.8451 95.4271 59.9081 95.3537C59.971 95.2803 60.0605 95.2348 60.157 95.2274C60.2534 95.2199 60.3489 95.251 60.4224 95.3138C60.4959 95.3767 60.5414 95.4661 60.5489 95.5625C60.5497 95.5735 60.5501 95.5846 60.5499 95.5955L60.5497 95.613Z" fill="black"/>
<path d="M63.4834 99.7224C63.9901 100.49 64.4376 101.296 64.8221 102.132C65.2479 102.975 65.5405 103.879 65.6894 104.812C65.7308 104.986 65.8136 105.147 65.9309 105.281C66.0481 105.416 66.1962 105.52 66.3626 105.585C66.7429 105.778 67.1519 105.907 67.5736 105.969C68.0044 106.043 68.4442 106.047 68.8765 105.983C69.322 105.946 69.7356 105.738 70.0312 105.403C69.92 105.614 69.7659 105.799 69.579 105.947C69.392 106.096 69.1761 106.203 68.9451 106.264C68.4864 106.407 68.0045 106.462 67.5252 106.426C67.0363 106.401 66.5565 106.284 66.1105 106.083C65.8507 105.981 65.6216 105.814 65.4449 105.598C65.2683 105.383 65.1501 105.125 65.1017 104.851C65.0539 104.421 64.9599 103.997 64.8212 103.587C64.6958 103.158 64.5439 102.733 64.3976 102.304L63.4834 99.7224Z" fill="black"/>
<path d="M72.9761 104.284C72.4717 104.188 71.9737 104.086 71.4693 103.984L56.6698 100.961L55.246 100.668L49.27 99.437C46.8949 98.4931 44.5199 97.5556 42.1831 96.4458C44.7753 96.3694 47.3227 96.4652 49.8766 96.5608C51.511 96.9242 53.1583 97.2623 54.8055 97.6002C55.6227 97.7724 56.4399 97.9382 57.2572 98.1104L71.712 101.063C71.9523 102.199 72.3794 103.287 72.9761 104.284Z" fill="black"/>
<path d="M232.185 68.4549C233.178 70.0836 234.365 71.5862 235.72 72.93C234.347 72.9773 232.985 72.6823 231.755 72.0716C230.867 71.6145 230.117 70.9289 229.583 70.0856C229.062 69.2305 228.774 68.2541 228.748 67.2534C228.723 65.8842 229.044 64.5307 229.681 63.318C230.3 65.1269 231.141 66.8523 232.185 68.4549Z" fill="#23AC52"/>
<path d="M236.665 68.9946C236.689 70.3653 236.364 71.7196 235.72 72.9301C235.1 71.1211 234.259 69.3957 233.216 67.7931C232.219 66.1665 231.033 64.6642 229.681 63.318C231.051 63.2691 232.411 63.5686 233.633 64.1884C234.522 64.6445 235.275 65.3251 235.818 66.1624C236.35 67.0132 236.643 67.9916 236.665 68.9946ZM228.908 80.1511C229.901 81.7829 231.093 83.286 232.455 84.6263C231.082 84.6751 229.719 84.3799 228.49 83.7678C227.599 83.3108 226.845 82.6254 226.305 81.7818C225.785 80.9267 225.497 79.9503 225.471 78.9497C225.446 77.5804 225.767 76.2269 226.404 75.0142C227.028 76.821 227.869 78.5458 228.908 80.1511Z" fill="#23AC52"/>
<path d="M233.387 80.6905C233.411 82.0597 233.091 83.413 232.455 84.6263C231.825 82.8216 230.985 81.0973 229.951 79.489C228.95 77.8623 227.759 76.3602 226.404 75.0142C227.774 74.9638 229.134 75.2634 230.356 75.8846C231.253 76.3322 232.01 77.0169 232.544 77.8643C233.079 78.7116 233.37 79.6891 233.387 80.6905ZM225.213 93.0243C226.21 94.6538 227.401 96.1565 228.76 97.4994C227.386 97.551 226.021 97.2513 224.796 96.6287C223.902 96.18 223.147 95.4979 222.611 94.655C222.09 93.7999 221.802 92.8235 221.776 91.8228C221.75 90.4534 222.071 89.0996 222.709 87.8873C223.334 89.6941 224.174 91.4189 225.213 93.0243Z" fill="#23AC52"/>
<path d="M229.693 93.5514C229.718 94.9247 229.397 96.2823 228.76 97.4994C228.131 95.6921 227.287 93.9672 226.244 92.3622C225.248 90.7358 224.061 89.2336 222.709 87.8874C224.079 87.837 225.439 88.1366 226.661 88.7578C227.55 89.2137 228.303 89.8944 228.846 90.7318C229.376 91.5788 229.669 92.5526 229.693 93.5514ZM223.409 106.731C224.406 108.364 225.597 109.871 226.956 111.218C225.582 111.27 224.217 110.971 222.991 110.348C222.101 109.894 221.35 109.207 220.818 108.361C220.286 107.515 219.994 106.541 219.972 105.542C219.952 104.173 220.272 102.821 220.905 101.606C221.534 103.407 222.375 105.127 223.409 106.731Z" fill="#23AC52"/>
<path d="M227.889 107.27C227.92 108.644 227.599 110.004 226.956 111.218C225.66 107.614 223.596 104.334 220.905 101.606C222.275 101.556 223.635 101.856 224.857 102.477C225.75 102.926 226.505 103.608 227.042 104.451C227.579 105.295 227.872 106.27 227.889 107.27ZM222.87 115.108C224.24 115.062 225.6 115.361 226.825 115.977C227.716 116.432 228.47 117.115 229.011 117.957C229.541 118.804 229.834 119.778 229.857 120.777C229.883 122.149 229.559 123.506 228.917 124.719C227.544 124.771 226.18 124.474 224.954 123.855C224.062 123.401 223.31 122.715 222.776 121.87C222.252 121.019 221.963 120.044 221.939 119.044C221.914 117.675 222.234 116.322 222.87 115.108ZM240.396 72.0596C238.754 72.8339 237.17 73.7271 235.658 74.7322C235.869 73.4294 236.349 72.185 237.07 71.0787C237.566 70.3305 238.246 69.7224 239.046 69.313C239.823 68.9332 240.688 68.7722 241.55 68.8473C242.817 68.9738 244.063 69.2622 245.257 69.7055L240.396 72.0596ZM244.569 73.7759C244.054 74.685 243.278 75.42 242.343 75.8873C241.407 76.3545 240.353 76.5328 239.316 76.3994C237.96 76.2104 236.689 75.6311 235.658 74.7322C236.584 74.6491 237.498 74.464 238.383 74.1806C239.261 73.9008 240.118 73.5607 240.948 73.1629C241.78 72.7533 242.573 72.269 243.317 71.716C244.08 71.1684 244.737 70.4872 245.257 69.7055C245.55 71.1003 245.305 72.5544 244.569 73.7759ZM238.481 83.0937C236.456 83.8292 234.394 84.479 232.32 85.3494C232.915 84.0334 233.756 82.8432 234.799 81.8432C235.562 81.125 236.465 80.5701 237.45 80.2125C238.385 79.8746 239.381 79.7408 240.371 79.8201C241.738 79.9571 243.092 80.199 244.422 80.5435C242.523 81.57 240.534 82.4235 238.481 83.0937Z" fill="#23AC52"/>
<path d="M243.035 84.9573C242.232 85.9352 241.18 86.6796 239.991 87.1131C238.801 87.5465 237.517 87.6529 236.272 87.4213C234.777 87.1405 233.4 86.4189 232.32 85.3494C233.439 85.3933 234.559 85.3069 235.658 85.092C236.756 84.9011 237.836 84.6181 238.886 84.2461C239.951 83.8814 240.971 83.4003 241.93 82.8118C242.91 82.2369 243.758 81.4644 244.422 80.5435C244.508 81.335 244.429 82.1357 244.19 82.8953C243.952 83.6549 243.558 84.3569 243.035 84.9573ZM236.174 92.6319C234.148 93.3676 232.086 94.0174 230.012 94.8879C230.607 93.5684 231.453 92.3774 232.504 91.3813C233.261 90.6612 234.16 90.106 235.143 89.7509C236.077 89.4131 237.073 89.2793 238.064 89.3585C239.431 89.4956 240.785 89.7374 242.114 90.082C240.215 91.1085 238.227 91.9619 236.174 92.6319Z" fill="#23AC52"/>
<path d="M240.727 94.4954C239.924 95.4733 238.873 96.2179 237.683 96.6514C236.494 97.0849 235.209 97.1914 233.965 96.9597C232.469 96.679 231.093 95.9573 230.012 94.8878C231.131 94.9317 232.252 94.8453 233.351 94.6304C234.449 94.4395 235.529 94.1564 236.579 93.7843C237.643 93.4195 238.664 92.9385 239.623 92.3499C240.602 91.7752 241.451 91.0028 242.114 90.082C242.2 90.8734 242.122 91.6741 241.883 92.4336C241.644 93.1931 241.251 93.8951 240.727 94.4954ZM234.234 104.316C232.185 105.248 230.037 106.008 227.889 106.964C228.489 105.612 229.334 104.382 230.38 103.335C231.135 102.574 232.02 101.955 232.995 101.508C233.89 101.113 234.852 100.889 235.83 100.846C236.886 100.748 237.966 100.957 239.868 100.699C239.112 101.543 238.22 102.256 237.229 102.808C236.266 103.376 235.265 103.88 234.234 104.316Z" fill="#23AC52"/>
<path d="M240.224 102.036C240.239 102.471 240.21 102.906 240.138 103.335C239.966 104.127 239.645 104.88 239.193 105.554C238.401 106.739 237.285 107.671 235.977 108.239C234.764 108.775 233.43 108.983 232.111 108.84C230.545 108.659 229.072 108.005 227.889 106.964C229.068 106.963 230.243 106.819 231.387 106.535C232.537 106.275 233.659 105.905 234.738 105.431C235.839 104.962 236.868 104.339 237.794 103.58C238.76 102.85 239.483 101.846 239.868 100.699C239.961 100.914 240.039 101.136 240.102 101.361C240.155 101.584 240.196 101.809 240.224 102.036ZM227.84 120.929C227.906 119.579 228.202 118.251 228.714 117.001C229.05 116.176 229.554 115.431 230.194 114.811C230.77 114.287 231.463 113.908 232.216 113.706C233.031 113.426 234.03 113.44 235.625 112.53C235.803 112.663 235.973 112.806 236.133 112.96C236.277 113.122 236.411 113.293 236.535 113.471C236.743 113.828 236.905 114.209 237.018 114.606C237.199 115.349 237.214 116.123 237.061 116.873C236.815 118.164 236.155 119.34 235.181 120.223C234.303 121.034 233.198 121.559 232.014 121.729C230.573 121.927 229.106 121.646 227.84 120.929ZM239.709 60.915C238.995 62.8758 238.509 64.9121 238.261 66.9837C237.37 65.8578 236.779 64.5251 236.542 63.1096C236.369 62.0378 236.458 60.9401 236.8 59.9096C237.156 58.8815 237.763 57.9585 238.567 57.2247C239.63 56.2614 240.917 55.5786 242.311 55.2384C241.231 57.0261 240.358 58.9305 239.709 60.915ZM243.771 62.3126C243.409 63.3369 242.797 64.2553 241.992 64.9855C240.936 65.9549 239.653 66.6423 238.261 66.9837C239.331 65.1911 240.203 63.2879 240.863 61.3075C241.575 59.3462 242.061 57.31 242.311 55.2384C243.204 56.3641 243.8 57.6966 244.042 59.1128C244.216 60.1854 244.124 61.2844 243.771 62.3126Z" fill="#23AC52"/>
<path d="M230.451 126.882C229.352 126.046 228.762 124.729 228.255 123.471C228.062 122.816 227.811 122.168 227.664 121.499L227.249 119.482C226.91 116.765 226.807 114.025 226.94 111.29C226.988 108.551 227.398 105.853 227.715 103.143C228.213 100.467 228.596 97.7616 229.246 95.1207C229.856 92.469 230.466 89.8179 231.237 87.2121C231.98 84.5978 232.693 81.9767 233.609 79.4181C234.494 76.8511 235.288 74.256 236.273 71.7264C237.269 69.2005 238.214 66.6596 239.252 64.1543C237.808 69.3882 236.137 74.5338 234.731 79.7566L233.637 83.6594L232.631 87.5829C232.306 88.8925 231.913 90.1861 231.621 91.5025L230.733 95.4481C230.058 98.063 229.678 100.729 229.136 103.368C228.738 106.026 228.319 108.686 228.104 111.361C227.839 114.031 227.8 116.718 227.986 119.394L228.225 121.385C228.313 122.049 228.502 122.689 228.637 123.347C229.041 124.602 229.47 125.929 230.451 126.882Z" fill="#23AC52"/>
<path d="M27.781 90.1836L28.4355 84.4632C28.4002 82.5255 28.3537 80.5994 28.2132 78.6497C27.6289 80.5059 27.1615 82.3855 26.6824 84.2649L26.0396 89.9849L25.2096 97.2463H26.9746L27.781 90.1836Z" fill="#FAD82B"/>
<path d="M22.3113 97.2463H21.2011H20.5466L19.4597 89.6816L18.887 85.7358L18.6649 84.2299V83.2143C18.6532 81.6967 18.6766 80.1791 18.7584 78.6498C19.3779 80.4126 19.8921 82.1987 20.418 83.9731L21.1894 89.4364L21.6919 92.9153L22.3113 97.2463Z" fill="#FAD82B"/>
<path d="M15.7315 97.2463H17.4962L17.1222 94.643L16.3743 89.4365L15.6031 83.973C15.0769 82.1985 14.5628 80.4127 13.9433 78.6496C13.838 80.5176 13.838 82.3738 13.85 84.2298L14.633 89.6816L15.7315 97.2463Z" fill="#F79155"/>
<path d="M39.2811 83.7276C39.9707 82.0468 40.6603 80.3659 41.268 78.6496C40.0525 80.0157 38.9186 81.4281 37.7733 82.8289L35.027 87.4634L29.5458 96.7207L29.2302 97.2463H31.2638L36.5347 88.3507L39.2811 83.7276Z" fill="#4087D5"/>
<path d="M221.346 130.025C221.543 130.405 221.727 130.798 221.911 131.178C222.12 131.619 222.329 132.048 222.537 132.49C222.905 133.262 223.274 134.022 223.63 134.795C223.949 133.949 224.28 133.115 224.599 132.281C224.796 131.803 224.992 131.313 225.188 130.835C225.262 130.626 225.348 130.43 225.434 130.222C224.072 130.185 222.709 130.123 221.346 130.025ZM226.637 132.073L226.318 131.3C226.207 131.582 226.097 131.864 225.986 132.146C225.508 133.36 225.029 134.574 224.526 135.775C225.728 135.726 226.932 135.69 228.134 135.677L226.637 132.073ZM230.528 130.258C229.938 130.258 229.349 130.271 228.748 130.283C228.232 130.271 227.717 130.271 227.189 130.258L227.324 130.602L227.828 131.963L228.92 134.868L230.098 131.742L230.65 130.258H230.528ZM231.571 131.595L231.313 130.871L231.043 131.644L229.656 135.69C230.798 135.702 231.939 135.726 233.093 135.775L231.571 131.595ZM231.927 130.234L232.357 131.521L233.645 135.408L235.45 131.227L235.953 130.05C234.615 130.136 233.265 130.197 231.927 130.234ZM236.702 131.104L236.321 130.173L235.928 131.178L234.124 135.824C235.671 135.91 237.229 136.045 238.788 136.266L236.702 131.104ZM221.346 130.025C221.543 130.405 221.727 130.798 221.911 131.178C222.12 131.619 222.329 132.048 222.537 132.49C222.905 133.262 223.274 134.022 223.63 134.795C223.949 133.949 224.28 133.115 224.599 132.281C224.796 131.803 224.992 131.313 225.188 130.835C225.262 130.626 225.348 130.43 225.434 130.222C224.072 130.185 222.709 130.123 221.346 130.025ZM226.637 132.073L226.318 131.3C226.207 131.582 226.097 131.864 225.986 132.146C225.508 133.36 225.029 134.574 224.526 135.775C225.728 135.726 226.932 135.69 228.134 135.677L226.637 132.073ZM230.528 130.258C229.938 130.258 229.349 130.271 228.748 130.283C228.232 130.271 227.717 130.271 227.189 130.258L227.324 130.602L227.828 131.963L228.92 134.868L230.098 131.742L230.65 130.258H230.528ZM231.571 131.595L231.313 130.871L231.043 131.644L229.656 135.69C230.798 135.702 231.939 135.726 233.093 135.775L231.571 131.595ZM231.927 130.234L232.357 131.521L233.645 135.408L235.45 131.227L235.953 130.05C234.615 130.136 233.265 130.197 231.927 130.234ZM236.702 131.104L236.321 130.173L235.928 131.178L234.124 135.824C235.671 135.91 237.229 136.045 238.788 136.266L236.702 131.104ZM220.696 130.565C220.561 130.822 220.414 131.092 220.279 131.349L220.979 131.276C220.88 131.043 220.795 130.798 220.696 130.565ZM221.346 130.025C221.543 130.405 221.727 130.798 221.911 131.178C222.12 131.619 222.329 132.048 222.537 132.49C223.225 132.416 223.912 132.343 224.599 132.281C224.796 131.803 224.992 131.313 225.188 130.835C225.262 130.626 225.348 130.43 225.434 130.222C224.072 130.185 222.709 130.123 221.346 130.025ZM226.318 131.3C226.207 131.582 226.097 131.864 225.986 132.146C226.195 132.122 226.416 132.097 226.637 132.073L226.318 131.3ZM228.748 130.283C228.232 130.271 227.717 130.271 227.189 130.258L227.324 130.602C228.392 130.491 229.46 130.369 230.528 130.258C229.938 130.258 229.349 130.271 228.748 130.283ZM214.743 112.212L217.468 129.67C218.499 129.535 219.53 129.437 220.549 129.351C220.596 129.317 220.651 129.295 220.708 129.286C220.766 129.278 220.825 129.283 220.88 129.302L220.905 129.327C222.648 129.204 224.378 129.118 226.109 129.081C226.237 129.045 226.373 129.045 226.502 129.081C227.25 129.069 227.999 129.057 228.748 129.057C231.841 129.069 234.922 129.143 238.003 129.437C238.678 129.51 239.365 129.584 240.04 129.67L240.114 129.204L242.753 112.212L214.743 112.212ZM219.076 128.652C216.707 128.652 216.707 124.974 219.076 124.974C221.457 124.974 221.445 128.652 219.076 128.652ZM225.704 128.652C223.335 128.652 223.335 124.974 225.704 124.974C228.085 124.974 228.073 128.652 225.704 128.652ZM232.111 128.432C229.742 128.432 229.742 124.754 232.111 124.754C234.492 124.754 234.48 128.432 232.111 128.432ZM238.408 128.652C236.039 128.652 236.039 124.974 238.408 124.974C240.789 124.974 240.776 128.652 238.408 128.652ZM236.702 131.104L236.321 130.173L235.928 131.178L234.124 135.824C235.671 135.91 237.229 136.045 238.788 136.266L236.702 131.104ZM231.927 130.234L232.357 131.521L233.645 135.408L235.45 131.227L235.953 130.05C234.615 130.136 233.265 130.197 231.927 130.234ZM231.571 131.595L231.313 130.871L231.043 131.644L229.656 135.69C230.798 135.702 231.939 135.726 233.093 135.775L231.571 131.595ZM230.528 130.258C229.938 130.258 229.349 130.271 228.748 130.283C228.232 130.271 227.717 130.271 227.189 130.258L227.324 130.602L227.828 131.963L228.92 134.868L230.098 131.742L230.65 130.258H230.528ZM226.637 132.073L226.318 131.3C226.207 131.582 226.097 131.864 225.986 132.146C225.508 133.36 225.029 134.574 224.526 135.775C225.728 135.726 226.932 135.69 228.134 135.677L226.637 132.073ZM221.346 130.025C221.543 130.405 221.727 130.798 221.911 131.178C222.12 131.619 222.329 132.048 222.537 132.49C222.905 133.262 223.274 134.022 223.63 134.795C223.949 133.949 224.28 133.115 224.599 132.281C224.796 131.803 224.992 131.313 225.188 130.835C225.262 130.626 225.348 130.43 225.434 130.222C224.072 130.185 222.709 130.123 221.346 130.025ZM236.702 131.104L236.321 130.173L235.928 131.178L234.124 135.824C235.671 135.91 237.229 136.045 238.788 136.266L236.702 131.104ZM231.927 130.234L232.357 131.521L233.645 135.408L235.45 131.227L235.953 130.05C234.615 130.136 233.265 130.197 231.927 130.234ZM231.571 131.595L231.313 130.871L231.043 131.644L229.656 135.69C230.798 135.702 231.939 135.726 233.093 135.775L231.571 131.595ZM230.528 130.258C229.938 130.258 229.349 130.271 228.748 130.283C228.232 130.271 227.717 130.271 227.189 130.258L227.324 130.602L227.828 131.963L228.92 134.868L230.098 131.742L230.65 130.258H230.528ZM226.637 132.073L226.318 131.3C226.207 131.582 226.097 131.864 225.986 132.146C225.508 133.36 225.029 134.574 224.526 135.775C225.728 135.726 226.932 135.69 228.134 135.677L226.637 132.073ZM221.346 130.025C221.543 130.405 221.727 130.798 221.911 131.178C222.12 131.619 222.329 132.048 222.537 132.49C222.905 133.262 223.274 134.022 223.63 134.795C223.949 133.949 224.28 133.115 224.599 132.281C224.796 131.803 224.992 131.313 225.188 130.835C225.262 130.626 225.348 130.43 225.434 130.222C224.072 130.185 222.709 130.123 221.346 130.025ZM230.528 130.258C229.46 130.369 228.392 130.491 227.324 130.602L227.828 131.963C228.576 131.889 229.337 131.815 230.098 131.742L230.65 130.258H230.528ZM231.313 130.871L231.043 131.644C231.215 131.631 231.399 131.619 231.571 131.595L231.313 130.871ZM231.927 130.234L232.357 131.521C233.387 131.423 234.418 131.325 235.45 131.227L235.953 130.05C234.615 130.136 233.265 130.197 231.927 130.234ZM236.321 130.173L235.928 131.178C236.186 131.153 236.444 131.129 236.702 131.104L236.321 130.173ZM236.64 130.001L237.033 131.08L238.911 136.266V136.278C238.944 136.276 238.977 136.28 239.009 136.29L239.868 130.81L240.04 129.67C238.899 129.817 237.769 129.915 236.64 130.001ZM238.899 136.303C238.899 136.315 238.899 136.339 238.874 136.339C238.861 136.345 238.846 136.346 238.833 136.341C238.819 136.336 238.808 136.327 238.801 136.315C235.466 136.725 232.108 136.921 228.748 136.903C227.165 136.891 225.581 136.854 223.998 136.781C223.919 136.839 223.827 136.875 223.73 136.886C223.633 136.896 223.535 136.881 223.446 136.842C223.394 136.814 223.344 136.781 223.298 136.744C221.702 136.646 220.095 136.511 218.499 136.29L219.321 141.562H238.187L239.009 136.29C238.972 136.288 238.935 136.293 238.899 136.303ZM223.261 141.096C220.88 141.096 220.893 137.418 223.261 137.418C225.63 137.418 225.63 141.096 223.261 141.096ZM229.448 141.096C227.066 141.096 227.079 137.418 229.448 137.418C231.817 137.418 231.817 141.096 229.448 141.096ZM235.634 140.876C233.253 140.876 233.265 137.198 235.634 137.198C238.003 137.198 238.003 140.876 235.634 140.876ZM236.702 131.104L236.321 130.173L235.928 131.178L234.124 135.824C235.671 135.91 237.229 136.045 238.788 136.266L236.702 131.104ZM231.927 130.234L232.357 131.521L233.645 135.408L235.45 131.227L235.953 130.05C234.615 130.136 233.265 130.197 231.927 130.234ZM231.571 131.595L231.313 130.871L231.043 131.644L229.656 135.69C230.798 135.702 231.939 135.726 233.093 135.775L231.571 131.595ZM230.528 130.258C229.938 130.258 229.349 130.271 228.748 130.283C228.232 130.271 227.717 130.271 227.189 130.258L227.324 130.602L227.828 131.963L228.92 134.868L230.098 131.742L230.65 130.258H230.528ZM226.637 132.073L226.318 131.3C226.207 131.582 226.097 131.864 225.986 132.146C225.508 133.36 225.029 134.574 224.526 135.775C225.728 135.726 226.932 135.69 228.134 135.677L226.637 132.073ZM221.346 130.025C221.543 130.405 221.727 130.798 221.911 131.178C222.12 131.619 222.329 132.048 222.537 132.49C222.905 133.262 223.274 134.022 223.63 134.795C223.949 133.949 224.28 133.115 224.599 132.281C224.796 131.803 224.992 131.313 225.188 130.835C225.262 130.626 225.348 130.43 225.434 130.222C224.072 130.185 222.709 130.123 221.346 130.025ZM221.506 132.588C221.335 132.159 221.15 131.717 220.979 131.276C220.88 131.043 220.795 130.798 220.696 130.565C220.561 130.822 220.414 131.092 220.279 131.349C220.033 131.828 219.776 132.306 219.518 132.784C219.137 133.507 218.745 134.231 218.34 134.954C218.335 134.959 218.329 134.962 218.323 134.964C218.316 134.966 218.309 134.967 218.303 134.966L218.499 136.29C219.947 136.082 221.408 135.959 222.856 135.861C222.414 134.77 221.96 133.679 221.506 132.588ZM222.537 132.49C222.905 133.262 223.274 134.022 223.63 134.795C223.949 133.949 224.28 133.115 224.599 132.281C223.912 132.343 223.225 132.416 222.537 132.49ZM226.637 132.073C226.416 132.097 226.195 132.122 225.986 132.146C225.508 133.36 225.029 134.574 224.526 135.775C225.728 135.726 226.932 135.69 228.134 135.677L226.637 132.073ZM227.828 131.963L228.92 134.868L230.098 131.742C229.337 131.815 228.576 131.889 227.828 131.963ZM231.571 131.595C231.399 131.619 231.215 131.631 231.043 131.644L229.656 135.69C230.798 135.702 231.939 135.726 233.093 135.775L231.571 131.595ZM232.357 131.521L233.645 135.408L235.45 131.227C234.418 131.325 233.387 131.423 232.357 131.521ZM236.702 131.104C236.444 131.129 236.186 131.153 235.928 131.178L234.124 135.824C235.671 135.91 237.229 136.045 238.788 136.266L236.702 131.104ZM217.468 129.67L217.775 131.619L217.971 132.943L218.266 134.795C218.524 134.133 218.781 133.483 219.039 132.833C219.223 132.355 219.42 131.889 219.616 131.423C219.812 130.933 220.009 130.442 220.217 129.952C219.297 129.878 218.389 129.78 217.468 129.67Z" fill="#4087D5"/>
<path d="M18.887 84.7085V85.7357L18.8753 90.0783V97.2463H17.1222V84.7085C17.3793 82.9224 17.6364 81.1363 17.9987 79.3385C18.2558 80.6344 18.4781 81.93 18.665 83.2143C18.7469 83.7162 18.817 84.2066 18.887 84.7085ZM24.2865 85.6072L23.6788 90.9422L22.9658 97.2462H21.201L21.692 92.9153L21.9374 90.7438L22.5335 85.4088C22.9891 83.6577 23.4451 81.9066 24.0061 80.1789C24.1696 81.9885 24.2281 83.798 24.2865 85.6072ZM12.085 104.391V110.695C12.3891 110.659 12.6927 110.636 12.9966 110.601L15.6262 104.706C14.4458 104.624 13.2657 104.531 12.085 104.391ZM15.9535 104.811L13.137 110.589C14.8316 110.414 16.5378 110.298 18.2327 110.227L15.9535 104.811ZM16.3275 104.752L18.7352 109.936L20.6517 104.928C19.2142 104.904 17.765 104.834 16.3275 104.752ZM21.2595 105.43L19.2844 110.192C20.5347 110.146 21.7736 110.122 23.0242 110.111L21.2595 105.43ZM23.7487 104.974C23.1409 104.963 22.5218 104.951 21.914 104.951L23.7022 109.352L25.2216 104.951C24.7305 104.963 24.2398 104.963 23.7487 104.974ZM26.0045 106.083L24.4734 110.111C25.4553 110.122 26.4368 110.134 27.4186 110.169C26.9278 108.803 26.4602 107.449 26.0045 106.083ZM26.8226 104.928C27.325 106.317 27.8044 107.706 28.2718 109.095C28.9029 107.659 29.5224 106.235 30.1652 104.811C29.0547 104.869 27.9445 104.904 26.8226 104.928ZM30.8195 105.465C30.2351 107.052 29.6276 108.628 29.0199 110.216C30.3638 110.263 31.7077 110.344 33.0402 110.461C32.2687 108.803 31.5442 107.146 30.8195 105.465ZM12.085 97.2463V104.391C15.9581 103.969 19.8527 103.774 23.7487 103.807C24.4617 103.807 25.1748 103.819 25.8875 103.83C25.9907 103.801 26.1 103.801 26.2031 103.83C27.6991 103.854 29.1834 103.912 30.6677 103.993C30.7053 103.98 30.7446 103.973 30.7844 103.97C30.8446 103.971 30.9042 103.983 30.9599 104.006C32.4441 104.099 33.9284 104.216 35.4124 104.391V97.2463H12.085ZM14.8082 102.464C12.5409 102.464 12.5526 98.9623 14.8082 98.9623C17.064 98.9623 17.064 102.464 14.8082 102.464ZM21.1191 102.464C18.8519 102.464 18.8636 98.9623 21.1191 98.9623C23.3749 98.9623 23.3749 102.464 21.1191 102.464ZM27.22 102.254C24.9528 102.254 24.9642 98.7522 27.22 98.7522C29.4756 98.7522 29.4756 102.254 27.22 102.254ZM33.2154 102.464C30.9482 102.464 30.9599 98.9623 33.2154 98.9623C35.4712 98.9623 35.4712 102.464 33.2154 102.464ZM31.3339 104.741C31.9882 106.643 32.6193 108.546 33.2037 110.473C33.9401 110.543 34.6763 110.601 35.4124 110.695L35.4124 104.391C34.0568 104.542 32.7012 104.659 31.3339 104.741ZM15.9535 104.811L13.137 110.589C14.8316 110.414 16.5378 110.298 18.2327 110.227L15.9535 104.811ZM16.3275 104.752L18.7352 109.936L20.6517 104.928C19.2142 104.904 17.765 104.834 16.3275 104.752ZM21.2595 105.43L19.2844 110.192C20.5347 110.146 21.7736 110.122 23.0242 110.111L21.2595 105.43ZM23.7487 104.974C23.1409 104.963 22.5218 104.951 21.914 104.951L23.7022 109.352L25.2216 104.951C24.7305 104.963 24.2398 104.963 23.7487 104.974ZM26.0045 106.083L24.4734 110.111C25.4553 110.122 26.4368 110.134 27.4186 110.169C26.9278 108.803 26.4602 107.449 26.0045 106.083ZM26.8226 104.928C27.325 106.317 27.8044 107.706 28.2718 109.095C28.9029 107.659 29.5224 106.235 30.1652 104.811C29.0547 104.869 27.9445 104.904 26.8226 104.928ZM30.8195 105.465C30.2351 107.052 29.6276 108.628 29.0199 110.216C30.3638 110.263 31.7077 110.344 33.0402 110.461C32.2687 108.803 31.5442 107.146 30.8195 105.465ZM15.9535 104.811L13.137 110.589C14.8316 110.414 16.5378 110.298 18.2327 110.227L15.9535 104.811ZM16.3275 104.752L18.7352 109.936L20.6517 104.928C19.2142 104.904 17.765 104.834 16.3275 104.752ZM21.2595 105.43L19.2844 110.192C20.5347 110.146 21.7736 110.122 23.0242 110.111L21.2595 105.43ZM23.7487 104.974C23.1409 104.963 22.5218 104.951 21.914 104.951L23.7022 109.352L25.2216 104.951C24.7305 104.963 24.2398 104.963 23.7487 104.974ZM26.0045 106.083L24.4734 110.111C25.4553 110.122 26.4368 110.134 27.4186 110.169C26.9278 108.803 26.4602 107.449 26.0045 106.083ZM26.8226 104.928C27.325 106.317 27.8044 107.706 28.2718 109.095C28.9029 107.659 29.5224 106.235 30.1652 104.811C29.0547 104.869 27.9445 104.904 26.8226 104.928ZM30.8195 105.465C30.2351 107.052 29.6276 108.628 29.0199 110.216C30.3638 110.263 31.7077 110.344 33.0402 110.461C32.2687 108.803 31.5442 107.146 30.8195 105.465ZM12.085 117.524V118.971C12.085 122.061 13.3138 125.024 15.5012 127.209C17.6886 129.394 20.6553 130.622 23.7487 130.622C26.8421 130.622 29.8088 129.394 31.9962 127.209C34.1836 125.024 35.4124 122.061 35.4124 118.971V117.524C27.6561 118.302 19.8413 118.302 12.085 117.524ZM28.5171 111.185C28.4424 111.235 28.3566 111.266 28.2672 111.277C28.1777 111.287 28.0871 111.275 28.003 111.243C27.9787 111.229 27.9552 111.213 27.9328 111.196C26.5421 111.243 25.1397 111.267 23.7487 111.278C19.853 111.3 15.9591 111.105 12.085 110.695V117.524C15.9581 117.102 19.8527 116.907 23.7487 116.94C27.6447 116.908 31.5392 117.103 35.4124 117.524V110.695C33.1104 110.963 30.8195 111.103 28.5171 111.185ZM15.334 115.913C13.0668 115.913 13.0785 112.411 15.334 112.411C17.5896 112.411 17.5896 115.913 15.334 115.913ZM20.6985 115.808C18.4313 115.808 18.443 112.305 20.6985 112.305C22.9541 112.305 22.954 115.808 20.6985 115.808ZM26.5889 115.808C24.3216 115.808 24.3331 112.305 26.5889 112.305C28.8444 112.305 28.8444 115.808 26.5889 115.808ZM32.4792 115.598C30.212 115.598 30.2234 112.095 32.4792 112.095C34.7348 112.095 34.7348 115.598 32.4792 115.598ZM33.0402 110.461C32.2687 108.803 31.5442 107.146 30.8195 105.465C30.2351 107.052 29.6276 108.628 29.0199 110.216C30.3638 110.263 31.7077 110.344 33.0402 110.461ZM30.1652 104.811C29.0547 104.869 27.9445 104.904 26.8226 104.928C27.325 106.317 27.8044 107.706 28.2718 109.095C28.9029 107.659 29.5224 106.235 30.1652 104.811ZM27.4186 110.169C26.9278 108.803 26.4602 107.449 26.0045 106.083L24.4734 110.111C25.4553 110.122 26.4368 110.134 27.4186 110.169ZM25.2216 104.951C24.7305 104.963 24.2398 104.963 23.7487 104.974C23.1409 104.963 22.5218 104.951 21.914 104.951L23.7022 109.352L25.2216 104.951ZM23.0242 110.111L21.2595 105.43L19.2844 110.192C20.5347 110.146 21.7736 110.122 23.0242 110.111ZM20.6517 104.928C19.2142 104.904 17.765 104.834 16.3275 104.752L18.7352 109.936L20.6517 104.928ZM15.9535 104.811L13.137 110.589C14.8316 110.414 16.5378 110.298 18.2327 110.227L15.9535 104.811ZM30.8195 105.465C30.2351 107.052 29.6276 108.628 29.0199 110.216C30.3638 110.263 31.7077 110.344 33.0402 110.461C32.2687 108.803 31.5442 107.146 30.8195 105.465ZM26.8226 104.928C27.325 106.317 27.8044 107.706 28.2718 109.095C28.9029 107.659 29.5224 106.235 30.1652 104.811C29.0547 104.869 27.9445 104.904 26.8226 104.928ZM26.0045 106.083L24.4734 110.111C25.4553 110.122 26.4368 110.134 27.4186 110.169C26.9278 108.803 26.4602 107.449 26.0045 106.083ZM23.7487 104.974C23.1409 104.963 22.5218 104.951 21.914 104.951L23.7022 109.352L25.2216 104.951C24.7305 104.963 24.2398 104.963 23.7487 104.974ZM21.2595 105.43L19.2844 110.192C20.5347 110.146 21.7736 110.122 23.0242 110.111L21.2595 105.43ZM16.3275 104.752L18.7352 109.936L20.6517 104.928C19.2142 104.904 17.765 104.834 16.3275 104.752ZM15.9535 104.811L13.137 110.589C14.8316 110.414 16.5378 110.298 18.2327 110.227L15.9535 104.811ZM30.8195 105.465C30.2351 107.052 29.6276 108.628 29.0199 110.216C30.3638 110.263 31.7077 110.344 33.0402 110.461C32.2687 108.803 31.5442 107.146 30.8195 105.465ZM26.8226 104.928C27.325 106.317 27.8044 107.706 28.2718 109.095C28.9029 107.659 29.5224 106.235 30.1652 104.811C29.0547 104.869 27.9445 104.904 26.8226 104.928ZM26.0045 106.083L24.4734 110.111C25.4553 110.122 26.4368 110.134 27.4186 110.169C26.9278 108.803 26.4602 107.449 26.0045 106.083ZM23.7487 104.974C23.1409 104.963 22.5218 104.951 21.914 104.951L23.7022 109.352L25.2216 104.951C24.7305 104.963 24.2398 104.963 23.7487 104.974ZM21.2595 105.43L19.2844 110.192C20.5347 110.146 21.7736 110.122 23.0242 110.111L21.2595 105.43ZM16.3275 104.752L18.7352 109.936L20.6517 104.928C19.2142 104.904 17.765 104.834 16.3275 104.752ZM15.9535 104.811L13.137 110.589C14.8316 110.414 16.5378 110.298 18.2327 110.227L15.9535 104.811Z" fill="#23AC52"/>
<path d="M125.492 107.513C124.999 105.87 124.497 104.231 124.047 102.549C124.011 104.295 124.173 106.04 124.529 107.751C124.863 109.459 125.298 111.145 125.834 112.802C126.371 114.454 126.994 116.078 127.703 117.664C128.051 118.459 128.446 119.235 128.832 120.012C129.248 120.776 129.665 121.539 130.131 122.277C129.925 121.426 129.664 120.601 129.412 119.774C129.164 118.946 128.899 118.126 128.633 117.308C128.391 116.482 128.086 115.68 127.843 114.856C127.57 114.043 127.3 113.229 127.049 112.411C126.512 110.784 126.002 109.15 125.492 107.513Z" fill="black"/>
<path d="M90.0805 105.343C90.0805 105.105 90.057 104.868 90.0103 104.634H90.0166V104.641C90.0615 104.872 90.0829 105.108 90.0805 105.343Z" fill="white"/>
<path d="M84.6281 103.621C85.3688 103.767 86.103 103.908 86.8436 104.048L90.0168 104.641C90.0415 105.615 89.9385 106.589 89.7103 107.536V107.543L86.2945 106.905C85.4135 106.739 84.5388 106.567 83.6577 106.388C83.5108 106.369 83.3704 106.337 83.2235 106.305C82.1637 106.101 81.0974 105.897 80.0376 105.687C80.1574 104.707 80.1787 103.718 80.1014 102.734C81.0144 102.919 81.9338 103.098 82.8468 103.276L83.0703 103.321" fill="black"/>
</g>
<defs>
<clipPath id="clip0_482_155">
<rect width="249" height="169" fill="white"/>
</clipPath>
</defs>
</svg>
