<svg width="249" height="207" viewBox="0 0 249 207" fill="none" xmlns="http://www.w3.org/2000/svg">
<g clip-path="url(#clip0_482_36)">
<path d="M77.1291 164.113C77.1021 164.114 77.0753 164.108 77.0504 164.098C77.0254 164.088 77.0027 164.073 76.9836 164.053C76.9645 164.034 76.9493 164.012 76.939 163.987C76.9287 163.962 76.9233 163.935 76.9233 163.908V144.442C76.9241 144.388 76.9462 144.336 76.9847 144.298C77.0232 144.26 77.075 144.239 77.1291 144.239C77.1831 144.239 77.235 144.26 77.2735 144.298C77.312 144.336 77.334 144.388 77.3348 144.442V163.908C77.3348 163.935 77.3295 163.962 77.3192 163.987C77.3088 164.012 77.2937 164.034 77.2746 164.053C77.2555 164.073 77.2328 164.088 77.2078 164.098C77.1829 164.108 77.1561 164.114 77.1291 164.113Z" fill="black"/>
<path d="M97.633 129.005C97.1902 129.757 96.6689 130.46 96.0777 131.103C95.5102 131.765 94.8881 132.373 94.2768 132.993C93.0162 134.192 91.7217 135.359 90.3602 136.444C87.6443 138.628 84.7663 140.603 81.7512 142.351C78.739 144.123 75.5554 145.587 72.2489 146.719C70.5895 147.283 68.891 147.726 67.1669 148.042C66.2938 148.147 65.4237 148.318 64.547 148.366C63.6695 148.391 62.7909 148.431 61.9133 148.443C58.414 148.325 54.9374 147.832 51.543 146.974C48.1546 146.155 44.8192 145.13 41.555 143.906C38.288 142.705 35.08 141.356 31.888 139.993C31.0897 139.657 30.2893 139.313 29.4853 139.02C29.0918 138.882 28.6677 138.738 28.2464 138.564C28.0514 138.45 27.847 138.35 27.6611 138.223C27.4782 138.091 27.3035 137.949 27.1378 137.796C26.504 137.161 26.0281 136.387 25.7484 135.536C25.464 134.696 25.3068 133.819 25.2819 132.934L25.2842 132.959C23.1926 121.498 20.5073 110.153 17.2389 98.9697C15.6483 93.3678 13.8716 87.8212 12.0461 82.2939C10.2173 76.7672 8.26769 71.2829 6.19738 65.841C5.15273 63.125 4.10617 60.4096 3.00905 57.7153C2.47809 56.3638 1.85546 55.0504 1.39601 53.62C0.940643 52.2023 0.643099 50.7387 0.508782 49.2557C0.433572 48.5044 0.412295 47.7486 0.445112 46.9941C0.52843 46.1774 0.86571 45.4074 1.40952 44.7922C1.95333 44.1771 2.67631 43.7479 3.47682 43.5648C4.20365 43.3827 4.94422 43.2607 5.69106 43.1999C7.20026 43.0989 8.71425 43.3063 10.1406 43.8094L14.2941 45.1719L30.9084 50.6223C31.6195 50.8261 32.3134 51.0859 32.9835 51.3992C33.6538 51.7368 34.2684 52.1753 34.8056 52.6993C35.8916 53.7461 36.6004 55.1228 36.8213 56.6147L38.0541 65.2695C38.0555 65.2802 38.0527 65.291 38.0463 65.2996C38.0398 65.3082 38.0303 65.314 38.0196 65.3156C38.009 65.3172 37.9982 65.3147 37.9894 65.3084C37.9807 65.3021 37.9747 65.2927 37.9729 65.2821L36.5216 56.664C36.272 55.2551 35.5741 53.9644 34.5318 52.9839C34.0176 52.4956 33.4314 52.0892 32.7938 51.7789C32.1392 51.4847 31.4624 51.2425 30.7698 51.0547L14.0831 45.8301L9.91139 44.5241C8.57478 44.0699 7.15932 43.8941 5.75217 44.0075C5.04704 44.0765 4.34797 44.1975 3.66065 44.3694C3.03019 44.5152 2.46124 44.8547 2.03367 45.3402C1.6061 45.8258 1.34137 46.4331 1.27667 47.0767C1.2522 47.7781 1.27535 48.4803 1.34594 49.1786C1.47792 50.5997 1.76634 52.0019 2.20597 53.3598C2.63919 54.7053 3.26805 56.0324 3.80605 57.3901C4.91069 60.0907 5.97481 62.8069 6.99839 65.5385C11.0919 76.464 14.6779 87.5593 17.7565 98.8242C19.2944 104.448 20.729 110.101 22.001 115.79C23.3438 121.463 24.4464 127.188 25.567 132.908L25.5688 132.923L25.5693 132.934C25.5638 134.646 26.2028 136.298 27.3594 137.561C27.5136 137.701 27.676 137.832 27.8457 137.953C28.0174 138.07 28.209 138.155 28.389 138.259C28.7718 138.408 29.1731 138.539 29.6012 138.68C30.4327 138.968 31.235 139.296 32.0419 139.62C35.26 140.929 38.479 142.218 41.751 143.36C45.0156 144.509 48.3377 145.488 51.7038 146.292C55.0556 147.107 58.4803 147.586 61.9271 147.722C62.7848 147.716 63.6421 147.682 64.5 147.664C65.3557 147.622 66.1982 147.46 67.0486 147.365C68.7423 147.066 70.4118 146.643 72.0437 146.099C75.3151 144.99 78.4754 143.578 81.4834 141.88C84.5034 140.187 87.395 138.275 90.1348 136.158C91.5182 135.116 92.8363 133.991 94.1233 132.832C94.7471 132.232 95.3834 131.643 95.9642 131.001C96.5663 130.381 97.1011 129.699 97.5598 128.967L97.5624 128.963C97.568 128.953 97.577 128.947 97.5876 128.944C97.5981 128.941 97.6093 128.943 97.6187 128.949C97.628 128.954 97.6348 128.963 97.6375 128.974C97.6401 128.984 97.6386 128.995 97.633 129.005Z" fill="black"/>
<path d="M77.8383 15.8956C77.2106 16.0506 76.5472 15.9556 75.9883 15.6306C75.9651 15.6165 75.9448 15.5979 75.9287 15.5759C75.9126 15.5539 75.901 15.529 75.8946 15.5026C75.8881 15.4761 75.8869 15.4487 75.8911 15.4217C75.8953 15.3948 75.9047 15.369 75.9188 15.3457C75.933 15.3225 75.9516 15.3022 75.9736 15.2861C75.9956 15.2701 76.0205 15.2585 76.047 15.252C76.0734 15.2456 76.1009 15.2444 76.1278 15.2486C76.1547 15.2527 76.1806 15.2622 76.2038 15.2763C76.2187 15.2858 76.2326 15.2969 76.2451 15.3093C76.6813 15.7018 77.2517 15.9117 77.8383 15.8956ZM88.2919 4.47079C88.9624 5.54337 89.4869 6.70051 89.8516 7.91164C90.2421 9.13882 90.3895 10.4304 90.2853 11.714L90.2064 11.4808C90.5819 11.8753 90.948 12.2786 91.3095 12.6863L92.393 13.9321C92.4879 14.058 92.5561 14.2019 92.5935 14.355C92.6308 14.5081 92.6366 14.6672 92.6103 14.8226C92.5841 14.978 92.5264 15.1264 92.4408 15.2587C92.3552 15.3911 92.2435 15.5046 92.1125 15.5923C91.8899 15.7626 91.652 15.912 91.4018 16.0384C91.2728 16.119 91.1274 16.1698 90.9762 16.187C90.825 16.2041 90.6718 16.1873 90.528 16.1376L90.6712 16.0513C90.6549 17.8274 90.4683 19.5977 90.1139 21.3381C89.9285 22.2464 89.543 23.102 88.9856 23.8428C88.6592 24.2479 88.1987 24.5232 87.6872 24.6189C87.4299 24.6486 87.1696 24.6381 86.9155 24.5878L86.2819 24.4788C85.457 24.3309 84.6123 24.3311 83.7875 24.4796C82.9765 24.6478 82.2262 25.0321 81.6158 25.5917C80.4261 26.8535 79.5081 28.3459 78.9184 29.9765C78.9153 29.9847 78.909 29.9912 78.901 29.9947C78.8931 29.9982 78.884 29.9985 78.8759 29.9953C78.8685 29.9922 78.8624 29.9865 78.8588 29.9793C78.8552 29.9721 78.8543 29.9639 78.8562 29.9561C79.069 29.0933 79.3621 28.2523 79.7319 27.4442C80.0944 26.6101 80.6007 25.8463 81.2279 25.1876C81.8831 24.5084 82.7206 24.0331 83.6397 23.8187C84.5465 23.6269 85.4825 23.6179 86.3928 23.7921L87.0567 23.9271C87.2338 23.9678 87.416 23.982 87.5973 23.9694C87.9601 23.9069 88.2888 23.7174 88.5245 23.4347C89.0428 22.7749 89.4212 22.0164 89.6365 21.2055C90.1424 19.531 90.4241 17.7968 90.4741 16.0483C90.4751 16.0218 90.4866 15.9968 90.506 15.9788C90.5254 15.9607 90.5512 15.9511 90.5777 15.9521C90.5915 15.9528 90.605 15.9562 90.6175 15.9619C90.7338 15.9935 90.8556 15.9997 90.9745 15.9802C91.0935 15.9607 91.2069 15.9159 91.3071 15.8489C91.5395 15.7218 91.7576 15.5701 91.9576 15.3964C92.0509 15.328 92.1291 15.241 92.187 15.1408C92.245 15.0406 92.2815 14.9296 92.2943 14.8146C92.3072 14.6996 92.296 14.5831 92.2615 14.4727C92.2271 14.3622 92.17 14.2601 92.0941 14.1728L90.9316 13.0456C90.5424 12.6642 90.1576 12.2786 89.7823 11.8839C89.7543 11.8545 89.7327 11.8196 89.719 11.7813C89.7052 11.7431 89.6996 11.7024 89.7025 11.6619L89.7034 11.6506C89.7556 11.0487 89.7541 10.4434 89.6988 9.84181C89.6357 9.23291 89.5352 8.62844 89.398 8.03183C89.1106 6.82463 88.7214 5.64394 88.2346 4.50239C88.2327 4.4985 88.2317 4.49427 88.2314 4.48996C88.2312 4.48565 88.2318 4.48134 88.2333 4.47727C88.2347 4.4732 88.237 4.46946 88.2398 4.46625C88.2427 4.46304 88.2462 4.46043 88.2501 4.45858C88.2574 4.4555 88.2656 4.45503 88.2732 4.45726C88.2808 4.45948 88.2874 4.46426 88.2919 4.47079Z" fill="black"/>
<path d="M86.514 9.31364C86.8854 8.9392 87.3826 8.71579 87.9093 8.68664C88.4293 8.63636 88.9518 8.75221 89.4018 9.01753C88.8824 9.05728 88.4153 9.05383 87.9448 9.09614C87.4638 9.13844 86.9859 9.21108 86.514 9.31364ZM87.7728 11.8551C87.9328 11.8496 88.0844 11.7822 88.1956 11.6671C88.3068 11.552 88.3689 11.3983 88.3689 11.2383C88.3689 11.0783 88.3068 10.9245 88.1956 10.8094C88.0844 10.6943 87.9328 10.6269 87.7728 10.6214C87.6129 10.6269 87.4613 10.6943 87.3501 10.8094C87.239 10.9245 87.1768 11.0783 87.1768 11.2383C87.1768 11.3983 87.239 11.552 87.3501 11.6671C87.4613 11.7822 87.6129 11.8496 87.7728 11.8551ZM79.7757 18.9368C80.3512 19.6359 80.8749 20.343 81.4347 21.0212C81.9843 21.7112 82.5938 22.3512 83.256 22.934C82.4104 22.5803 81.6727 22.0106 81.1168 21.282C80.5377 20.5835 80.0839 19.7901 79.7757 18.9368ZM37.5364 62.5998C37.945 60.7025 38.4414 58.8603 38.9773 57.0103C39.5198 55.1671 40.0864 53.328 40.7423 51.5191C42.0173 47.8794 43.5413 44.3318 45.3036 40.9013C46.202 39.1855 47.1949 37.5209 48.2778 35.9151C49.3529 34.2882 50.5699 32.7598 51.9147 31.3477C53.2603 29.9001 54.8133 28.6601 56.5229 27.6681C58.267 26.6615 60.2202 26.0718 62.23 25.9448L62.2355 25.9445C62.2696 25.943 62.3038 25.9445 62.3377 25.9492C64.282 26.2326 66.2083 26.5672 68.1317 26.9464C70.0546 27.3213 71.9726 27.727 73.8789 28.1979C75.8107 28.6273 77.6978 29.2373 79.5155 30.0198C80.416 30.4664 81.2328 30.9387 82.12 31.3615L84.7643 32.6262C85.6566 33.0483 86.5203 33.5282 87.3499 34.0629C88.2026 34.5978 88.9402 35.2971 89.5196 36.12C90.6575 37.6752 91.9939 39.1206 93.2727 40.5876C95.8598 43.5095 98.497 46.3878 101.184 49.2223C101.23 49.2702 101.258 49.3313 101.266 49.3967C101.274 49.4621 101.261 49.5283 101.228 49.5857L101.226 49.5901C100.229 51.3449 99.154 53.0355 98.0244 54.7001C96.8929 56.3613 95.6918 57.9787 94.403 59.5324C93.111 61.097 91.6938 62.554 90.1654 63.8889C88.6184 65.2902 86.8012 66.3604 84.8253 67.0338L85.0888 66.8775C83.6606 68.3288 82.1999 69.7224 80.6598 71.0588C79.8881 71.7242 79.0985 72.3731 78.2538 72.9777C77.8257 73.2892 77.379 73.5745 76.9164 73.8319C76.3824 74.1655 75.7702 74.3531 75.141 74.3759L75.8326 73.5722C76.1599 75.0079 76.5001 76.4464 76.8567 77.8746L77.4075 80.0074C77.5005 80.3609 77.5987 80.7122 77.7011 81.0554C77.7905 81.3738 77.8982 81.6867 78.0236 81.9928L78.0385 82.026C78.0752 82.1082 78.0954 82.1968 78.0978 82.2868C78.1003 82.3767 78.0849 82.4663 78.0527 82.5504C78.0205 82.6345 77.9721 82.7114 77.9102 82.7767C77.8483 82.8421 77.774 82.8946 77.6918 82.9313C77.6235 82.9614 77.5508 82.9804 77.4765 82.9877C72.8898 83.4182 68.3105 83.7122 63.7123 83.8725C59.1058 84.0603 54.4921 83.9545 49.8991 83.5557C48.7479 83.4357 47.5969 83.2907 46.4508 83.0702C45.286 82.8711 44.1461 82.5471 43.0507 82.104C42.4761 81.8694 41.9396 81.5508 41.4586 81.1588C41.204 80.9407 40.9867 80.6826 40.8152 80.3947C40.6509 80.1047 40.5603 79.8513 40.4298 79.578C39.9673 78.5072 39.5892 77.402 39.2987 76.2724C38.7274 74.0382 38.3131 71.7667 38.0591 69.4747C37.7914 67.1877 37.6144 64.9121 37.5364 62.5998ZM37.6668 62.6122C38.0071 67.1644 38.7848 71.6733 39.9892 76.0766C40.3041 77.1574 40.7028 78.2119 41.1818 79.2306C41.3051 79.47 41.4243 79.7535 41.5504 79.9563C41.6803 80.1564 41.8416 80.3343 42.0281 80.4833C42.4493 80.8 42.9145 81.0537 43.409 81.2362C45.5415 81.936 47.7573 82.3505 49.9987 82.4688C54.5489 82.7543 59.1117 82.7821 63.665 82.5518C68.2271 82.3737 72.7984 82.0604 77.3361 81.6151L76.789 82.6099C76.6249 82.2351 76.4867 81.8495 76.3753 81.4559C76.2646 81.0908 76.1623 80.7299 76.0656 80.3685C75.8662 79.6468 75.6949 78.9232 75.5208 78.2006C75.1767 76.7542 74.8518 75.3097 74.5375 73.8571C74.519 73.7718 74.5175 73.6837 74.5331 73.5978C74.5486 73.5119 74.581 73.43 74.6283 73.3566C74.6755 73.2832 74.7368 73.2199 74.8086 73.1702C74.8803 73.1205 74.9612 73.0855 75.0465 73.067C75.1065 73.0545 75.1679 73.0498 75.229 73.0533C75.6072 73.0064 75.9709 72.8789 76.2956 72.6794C76.7149 72.4514 77.12 72.1984 77.5089 71.9216C78.3076 71.3633 79.0824 70.7422 79.8416 70.1017C81.3568 68.8167 82.8265 67.4453 84.2369 66.0431L84.2415 66.0384C84.3139 65.9671 84.4029 65.9149 84.5005 65.8866C86.3277 65.2816 88.0162 64.3194 89.4678 63.056C90.9761 61.7855 92.381 60.3971 93.6691 58.904C94.978 57.4172 96.2107 55.8559 97.378 54.2455C98.5443 52.6367 99.6592 50.9771 100.68 49.2794L100.722 49.647C98.1274 46.7239 95.5232 43.8129 92.9488 40.872C91.6711 39.3886 90.3853 37.9311 89.1802 36.3603C88.0855 34.7909 86.2827 33.9077 84.5514 33.0669C82.7978 32.2466 80.9802 31.4412 79.2473 30.5827C77.4505 29.8794 75.5921 29.3448 73.6961 28.9859C69.897 28.1649 66.0289 27.6125 62.1839 27.0451L62.2913 27.0496C60.456 27.1853 58.677 27.7436 57.0935 28.6809C55.4898 29.6314 54.0212 30.793 52.7269 32.1344C51.4085 33.4862 50.2126 34.9522 49.1534 36.5152C48.0724 38.0774 47.079 39.6984 46.1778 41.3708C44.352 44.7238 42.7464 48.1921 41.3713 51.7537C39.9731 55.3085 38.7257 58.9485 37.6668 62.6122Z" fill="black"/>
<path d="M84.6629 66.4602C84.1952 65.3956 83.7558 64.3224 83.3112 63.2519C82.8651 62.1822 82.445 61.1026 81.9823 60.0415C81.5526 58.9667 81.0914 57.9053 80.6124 56.8546C80.3806 56.3252 80.1281 55.8067 79.8548 55.2989C79.7274 55.0407 79.5841 54.7906 79.4257 54.5502C79.3505 54.4276 79.2689 54.309 79.1811 54.1951L78.8873 53.8761C79.7369 54.6817 80.4198 55.6466 80.8969 56.7157C81.4395 57.7479 81.9004 58.8168 82.3616 59.8836C82.7945 60.9626 83.2217 62.043 83.6056 63.1395C83.9896 64.2357 84.355 65.3386 84.6629 66.4602ZM78.1469 86.9491C78.1078 86.949 78.0696 86.9378 78.0366 86.9169C78.0037 86.8959 77.9774 86.8661 77.9607 86.8308L75.9251 82.5115C75.9135 82.487 75.9068 82.4605 75.9054 82.4334C75.904 82.4063 75.908 82.3793 75.9171 82.3537C75.9262 82.3282 75.9403 82.3047 75.9585 82.2847C75.9768 82.2646 75.9988 82.2483 76.0233 82.2368C76.0478 82.2252 76.0744 82.2187 76.1015 82.2174C76.1285 82.2162 76.1556 82.2203 76.1811 82.2295C76.2066 82.2388 76.23 82.2529 76.25 82.2712C76.2699 82.2895 76.2861 82.3116 76.2976 82.3362L78.3331 86.6555C78.3478 86.6869 78.3543 86.7215 78.3521 86.756C78.3499 86.7906 78.339 86.8241 78.3205 86.8533C78.3019 86.8826 78.2763 86.9067 78.246 86.9235C78.2156 86.9402 78.1815 86.949 78.1469 86.9491ZM41.2017 80.3767L43.6864 89.5187C42.3864 84.9334 41.4649 81.3925 41.2017 80.3767Z" fill="black"/>
<path d="M128.942 137.822C127.553 140.266 128.195 145.29 127.907 147C127.516 149.417 126.596 151.718 125.214 153.74C124.84 150.864 124.401 147.995 123.949 145.126C123.497 142.263 122.986 139.407 122.514 136.545C121.983 133.695 121.485 130.833 120.929 127.99L120.083 123.719C119.775 122.297 119.493 120.876 119.166 119.461C119.349 120.902 119.566 122.336 119.769 123.778L120.431 128.075C120.883 130.944 121.387 133.8 121.866 136.656C122.396 139.512 122.894 142.368 123.451 145.218C124.008 148.061 124.572 150.91 125.214 153.74C122.108 158.293 116.879 161.168 111.047 163.363C106.677 164.997 102.177 166.26 97.5947 167.136C94.2397 137.671 99.4753 116.945 99.4753 116.945C99.4753 116.945 98.879 116.205 96.8083 116.205C94.7312 116.205 88.9583 119.611 88.9583 119.611C67.0396 132.935 60.2249 125.533 55.0419 119.906C51.6409 116.212 46.6938 100.163 43.7058 89.6029C63.8486 97.0051 75.034 86.7403 77.1308 86.7403C77.7926 86.7403 81.0362 86.3997 85.5575 85.9672C86.09 86.511 86.5045 87.1588 86.7751 87.87C87.0457 88.5812 87.1665 89.3407 87.1301 90.1007C89.0042 92.7603 91.2779 88.319 90.2885 86.7403C90.0667 86.3786 89.8948 85.9886 89.7774 85.5809C90.6751 85.5022 91.6056 85.4171 92.5557 85.3384C94.1349 87.5001 95.9631 90.697 97.5947 92.269C100.458 95.0334 100.956 90.592 100.956 90.592C104.508 93.1598 104.508 88.6203 104.508 88.6203C107.666 90.4939 106.578 85.9673 106.578 85.9673C106.795 85.7788 106.955 85.5339 107.041 85.2597C107.126 84.9856 107.134 84.6931 107.063 84.4149C111.097 84.2144 115.139 84.2713 119.166 84.5852C131.459 85.8297 143.162 121.681 143.162 121.681C143.607 128.049 133.975 128.939 128.942 137.822Z" fill="#FAD82B"/>
<path d="M59.6647 156.467C59.3667 153.597 59.0842 150.725 58.6259 147.868C58.6243 147.857 58.6189 147.848 58.6107 147.842C58.6026 147.835 58.5923 147.832 58.5819 147.833C58.5715 147.834 58.5618 147.838 58.5548 147.846C58.5477 147.854 58.5438 147.864 58.5438 147.874C58.532 150.768 58.6961 153.649 58.8446 156.53C59.0142 159.411 59.3288 162.279 59.5963 165.152L60.3893 173.77L61.2231 182.385C61.2241 182.396 61.2293 182.406 61.2376 182.413C61.2459 182.42 61.2565 182.423 61.2673 182.422C61.278 182.421 61.288 182.416 61.2951 182.408C61.3022 182.4 61.3058 182.389 61.3052 182.379L60.7993 173.738L60.2525 165.101C60.0736 162.222 59.9418 159.339 59.6647 156.467Z" fill="black"/>
<path d="M68.1545 156.318C68.0259 153.424 67.9131 150.53 67.6239 147.639C67.6228 147.629 67.6179 147.619 67.6102 147.613C67.6024 147.606 67.5924 147.602 67.5821 147.602C67.5718 147.602 67.5619 147.607 67.5544 147.614C67.5469 147.621 67.5424 147.63 67.5417 147.641C67.3593 150.54 67.3534 153.436 67.3319 156.333C67.3314 159.229 67.4767 162.123 67.5746 165.017L67.8584 173.7L68.1833 182.383C68.1837 182.393 68.1882 182.404 68.196 182.411C68.2039 182.419 68.2143 182.423 68.2251 182.423C68.236 182.422 68.2463 182.418 68.2538 182.41C68.2614 182.402 68.2656 182.392 68.2656 182.381L68.2697 173.693L68.2326 165.005C68.2236 162.109 68.2619 159.212 68.1545 156.318Z" fill="black"/>
<path d="M3.81833 47.3236L10.1203 49.5348L16.4066 51.7876L22.6853 54.0611L28.9528 56.3641C29.006 56.3836 29.0536 56.416 29.0913 56.4582C29.1289 56.5005 29.1556 56.5515 29.1688 56.6066L29.1701 56.6126C30.4235 61.9727 31.628 67.344 32.7835 72.7264C33.9495 78.1063 35.0676 83.4973 36.2793 88.8669C38.6652 99.6147 41.2714 110.312 43.7894 121.03C44.3903 123.676 45.4877 126.183 47.0233 128.419C48.5562 130.644 50.5614 132.504 52.8959 133.865C55.2375 135.196 57.8778 135.915 60.5716 135.953C61.9315 135.944 63.2901 135.865 64.6418 135.715C66.0029 135.569 67.3634 135.416 68.7112 135.192C71.4104 134.78 74.0655 134.118 76.642 133.215C79.2123 132.273 81.7087 131.142 84.1105 129.829C86.5329 128.541 88.8983 127.136 91.2417 125.695C93.5967 124.272 95.9297 122.81 98.265 121.352C98.2741 121.346 98.2852 121.344 98.2958 121.346C98.3063 121.349 98.3156 121.355 98.3215 121.364C98.3274 121.373 98.3295 121.384 98.3273 121.395C98.3252 121.405 98.3189 121.415 98.3099 121.421C93.7441 124.498 89.2006 127.617 84.3882 130.336C81.9853 131.715 79.4772 132.903 76.8873 133.889C74.2813 134.854 71.5876 135.564 68.8442 136.008C67.4761 136.24 66.1004 136.399 64.7248 136.551C63.3405 136.709 61.949 136.794 60.5558 136.806C57.7152 136.784 54.9289 136.026 52.4677 134.608C50.0652 133.138 47.9935 131.186 46.3832 128.876C44.773 126.565 43.6592 123.946 43.1122 121.184C40.7571 110.429 38.4903 99.6544 36.0031 88.9295C34.7784 83.5629 33.46 78.2174 32.1895 72.8611C30.9141 67.5059 29.682 62.1409 28.4932 56.7661L28.7105 57.0143L22.4642 54.6539L16.2289 52.2639L10.0015 49.8531L3.78949 47.4007C3.77946 47.3968 3.77138 47.3891 3.76699 47.3792C3.7626 47.3693 3.76225 47.3582 3.76603 47.3481C3.7698 47.338 3.77739 47.3297 3.78716 47.3252C3.79694 47.3206 3.80816 47.32 3.81833 47.3236Z" fill="black"/>
<path d="M75.7774 9.26445C74.4464 11.3777 74.8818 14.5349 76.6079 15.5827C75.3331 18.5668 70.9396 20.2971 70.9396 20.2971C71.5653 37.8136 61.0667 40.2559 61.0667 40.2559C57.1176 25.5497 68.8663 20.0226 68.8663 20.0226C68.8663 20.0226 61.1654 5.90869 72.4205 1.76334C83.6757 -2.38201 88.6121 3.83602 88.6121 3.83602C88.6121 3.83602 82.3922 15.976 79.3316 11.4358C79.3316 11.4358 77.4558 6.59959 75.7774 9.26445Z" fill="#4087D5"/>
<path d="M64.641 189.311C75.8462 189.311 84.9299 185.633 84.9299 181.095C84.9299 176.557 75.8462 172.878 64.641 172.878C53.4357 172.878 44.3521 176.557 44.3521 181.095C44.3521 185.633 53.4357 189.311 64.641 189.311Z" fill="black"/>
<path d="M75.1849 73.7145C74.7551 74.0198 74.2563 74.2139 73.7331 74.2792C73.4641 74.3168 73.1906 74.3066 72.9252 74.2492C72.7831 74.2294 72.65 74.1681 72.5427 74.073C72.4353 73.9778 72.3585 73.8531 72.3218 73.7145C72.409 73.7932 72.5116 73.8531 72.623 73.8904C72.7345 73.9277 72.8524 73.9417 72.9695 73.9313C73.2076 73.9255 73.4452 73.9055 73.6809 73.8714C74.1791 73.7928 74.6812 73.7404 75.1849 73.7145ZM84.2178 66.8955C86.3836 68.2988 88.5428 69.7131 90.7272 71.0726C91.2749 71.4086 91.8246 71.7438 92.382 72.0529C92.6584 72.215 92.9421 72.3521 93.2182 72.498C93.3499 72.5527 93.5049 72.6335 93.6163 72.6683C93.6659 72.6798 93.7148 72.6943 93.7625 72.7119C93.872 72.7323 93.9834 72.758 94.0919 72.7884C94.7073 73.0475 95.3026 73.3517 95.873 73.6986C96.4355 74.027 96.9895 74.3665 97.5351 74.717C99.7368 76.0979 101.821 77.658 103.766 79.3813C104.765 80.2436 105.645 81.2333 106.386 82.325L106.636 82.7702L106.837 83.2067C106.987 83.5064 107.115 83.8162 107.221 84.1341C107.326 84.4785 107.341 84.8442 107.264 85.196C107.177 85.5499 106.98 85.8672 106.701 86.1026L106.755 85.9277C106.838 86.3461 106.891 86.7701 106.911 87.1962C106.944 87.6329 106.892 88.0716 106.757 88.4884C106.722 88.5998 106.668 88.704 106.596 88.7961L106.489 88.9394L106.338 89.0483C106.239 89.1208 106.124 89.1672 106.002 89.1829C105.888 89.2108 105.769 89.2144 105.654 89.1934C105.433 89.168 105.217 89.1112 105.012 89.0249L104.442 88.7288L104.636 88.6181C104.622 89.1003 104.547 89.5787 104.414 90.0424C104.294 90.5312 104.012 90.9647 103.613 91.2715C103.394 91.4035 103.147 91.4834 102.892 91.5052C102.637 91.527 102.381 91.4901 102.142 91.3974C101.913 91.312 101.69 91.2135 101.473 91.1024L100.863 90.7174L101.107 90.6091C101.044 91.385 100.785 92.1324 100.355 92.7816C100.23 92.9565 100.067 93.1009 99.8779 93.2043C99.6891 93.3076 99.4795 93.3672 99.2646 93.3786L98.9398 93.3534C98.8384 93.3285 98.7429 93.2889 98.6442 93.2561C98.4546 93.187 98.2745 93.094 98.1084 92.9794C97.4844 92.5326 96.9252 92.0016 96.4468 91.4016C95.9643 90.8233 95.5128 90.2255 95.0823 89.6163C94.2196 88.3997 93.4106 87.1535 92.55 85.962C92.1361 85.368 91.6837 84.8016 91.1959 84.2666C90.9739 84.0201 90.7175 83.8068 90.4347 83.6333C90.3341 83.5675 90.2179 83.5294 90.0978 83.5228C90.0131 83.5241 89.9322 83.558 89.8721 83.6175L89.9972 83.3846C89.9121 84.1738 90.0037 84.972 90.2652 85.7214C90.332 85.9049 90.4115 86.0836 90.5031 86.2562C90.5487 86.3418 90.5974 86.4259 90.649 86.5073C90.7088 86.6231 90.7701 86.7572 90.8253 86.8838C90.9708 87.367 90.9995 87.8778 90.9091 88.3743C90.7557 89.3314 90.2915 90.2115 89.5879 90.8786C89.3796 91.0731 89.127 91.214 88.852 91.2891C88.5769 91.3641 88.2878 91.3711 88.0094 91.3094C87.5018 91.1371 87.0676 90.7979 86.7775 90.3473C86.7225 90.2816 86.6941 90.1977 86.6979 90.112L86.7001 90.0621C86.7419 89.0814 86.513 88.1081 86.0384 87.2489C85.917 87.0384 85.78 86.8373 85.6286 86.6472C85.4713 86.4484 85.3217 86.3075 85.114 86.0788C84.726 85.66 84.4042 85.1845 84.1597 84.6686C83.7089 83.6573 83.4411 82.574 83.3688 81.4692C83.2849 80.3929 83.2942 79.3114 83.3963 78.2367L83.4147 78.3559C83.0865 77.7305 82.5983 77.2033 81.9999 76.8281C81.3836 76.4218 80.7084 76.1129 79.9981 75.9121C79.282 75.694 78.5474 75.5422 77.8035 75.4584C77.429 75.4299 77.0539 75.3911 76.6775 75.3707L75.5445 75.343C75.5336 75.3433 75.523 75.3394 75.515 75.332C75.507 75.3245 75.5022 75.3142 75.5018 75.3033C75.5021 75.2927 75.5062 75.2825 75.5134 75.2747C75.5206 75.2668 75.5304 75.2619 75.541 75.2608L76.6802 75.2066C77.0605 75.2035 77.4414 75.2215 77.8232 75.2282C78.5896 75.2696 79.3506 75.3814 80.0965 75.5621C80.8557 75.7405 81.5825 76.0363 82.2504 76.4389C82.5898 76.6445 82.9054 76.8872 83.1912 77.1624C83.498 77.4445 83.7506 77.7803 83.9364 78.1533C83.9502 78.1817 83.9569 78.213 83.9559 78.2446L83.955 78.2727C83.9032 79.3168 83.9285 80.3632 84.0306 81.4036C84.1225 82.421 84.3934 83.4142 84.8307 84.3375C85.0531 84.7773 85.3412 85.1805 85.6853 85.5334C85.8363 85.6957 86.0782 85.917 86.254 86.1314C86.4404 86.3511 86.6076 86.5863 86.7538 86.8346C87.3279 87.8369 87.608 88.9807 87.562 90.1348L87.4848 89.8498C87.7171 90.1234 87.9692 90.4194 88.232 90.458C88.3738 90.4835 88.5197 90.474 88.657 90.4304C88.7943 90.3867 88.9188 90.3102 89.0198 90.2075C89.5639 89.6732 89.9236 88.9794 90.0467 88.2269C90.1111 87.8758 90.0992 87.515 90.0117 87.169L89.9204 86.9593C89.8585 86.8582 89.8007 86.7553 89.747 86.6506C89.6401 86.4419 89.5478 86.226 89.4707 86.0045C89.1732 85.1213 89.0811 84.1819 89.2014 83.2578C89.212 83.1722 89.2525 83.0931 89.3159 83.0346L89.3266 83.0247C89.5403 82.8293 89.8204 82.7223 90.11 82.7256C90.3623 82.7358 90.6075 82.8116 90.8215 82.9454C91.1713 83.1615 91.4871 83.4282 91.7587 83.7367C92.2633 84.3049 92.7299 84.9057 93.1553 85.5352C94.0011 86.7712 94.7757 88.0353 95.5986 89.2604C96.0109 89.8715 96.4241 90.4805 96.8723 91.0576C97.2972 91.6359 97.7991 92.1535 98.364 92.596C98.4986 92.6983 98.6463 92.7821 98.8031 92.8451C98.8792 92.8727 98.955 92.9094 99.0314 92.932L99.2608 92.9567C99.416 92.9519 99.5681 92.912 99.7056 92.8401C99.8432 92.7681 99.9627 92.6659 100.055 92.5411C100.462 91.9571 100.717 91.2817 100.799 90.575C100.806 90.5332 100.829 90.4958 100.863 90.471C100.898 90.4463 100.94 90.4361 100.982 90.4428C101.004 90.4466 101.025 90.4547 101.044 90.4666L101.619 90.841C101.818 90.9453 102.023 91.0388 102.232 91.121C102.43 91.2031 102.643 91.2388 102.856 91.2254C103.069 91.212 103.277 91.1499 103.462 91.0438C103.812 90.7747 104.062 90.3951 104.169 89.9666C104.305 89.5298 104.375 89.0754 104.378 88.6181C104.379 88.5962 104.385 88.5747 104.395 88.5557C104.406 88.5366 104.422 88.5206 104.44 88.5092C104.459 88.4977 104.48 88.4912 104.502 88.4901C104.524 88.4891 104.546 88.4936 104.565 88.5033L104.573 88.5073L105.115 88.7775C105.295 88.8493 105.483 88.8958 105.676 88.9158C105.852 88.9424 106.031 88.9026 106.18 88.8041C106.328 88.7056 106.434 88.5554 106.477 88.3829C106.589 88.0036 106.628 87.6064 106.592 87.2125C106.567 86.8074 106.505 86.4054 106.406 86.0116C106.398 85.9803 106.399 85.9474 106.409 85.9166C106.418 85.8858 106.436 85.8581 106.46 85.8365C106.669 85.6388 106.813 85.3828 106.873 85.1019C106.934 84.8209 106.908 84.5283 106.8 84.2622C106.688 83.9729 106.557 83.6917 106.406 83.4206L106.184 82.9875L105.943 82.5995C105.189 81.5862 104.307 80.6751 103.318 79.8889C101.353 78.2436 99.2955 76.7115 97.1562 75.3C96.1174 74.5821 95.0259 73.9434 93.8911 73.3894C93.8436 73.3781 93.7973 73.3621 93.753 73.3417C93.6619 73.3215 93.5355 73.2964 93.4304 73.2661C93.2367 73.2 93.1067 73.1231 92.9424 73.0514C92.6495 72.8942 92.3614 72.7317 92.0866 72.5585C91.5284 72.2198 90.9897 71.8616 90.4514 71.5018C88.3022 70.0603 86.2188 68.5353 84.1702 66.9625C84.1617 66.956 84.156 66.9465 84.1544 66.936C84.1529 66.9254 84.1554 66.9147 84.1616 66.906C84.1678 66.8973 84.1771 66.8913 84.1876 66.8894C84.1981 66.8874 84.2089 66.8896 84.2178 66.8955Z" fill="black"/>
<path d="M93.4498 81.6105C94.8835 82.9426 96.2431 84.3523 97.5225 85.8333C98.8125 87.3109 100.015 88.8623 101.125 90.4795C101.155 90.5245 101.166 90.5794 101.156 90.6324C101.146 90.6854 101.115 90.7323 101.07 90.7628C101.026 90.7934 100.971 90.8052 100.918 90.7958C100.865 90.7863 100.817 90.7563 100.786 90.7123L100.781 90.7046C99.7352 89.06 98.5945 87.4776 97.3648 85.9654C96.1404 84.4433 94.8335 82.9895 93.4498 81.6105ZM97.5964 80.7222C100.083 83.1917 102.444 85.785 104.67 88.4922C104.704 88.5346 104.719 88.5886 104.714 88.6425C104.708 88.6964 104.681 88.7459 104.639 88.7801C104.597 88.8143 104.543 88.8305 104.489 88.8252C104.435 88.8199 104.385 88.7935 104.351 88.7517L104.345 88.7441C102.232 85.9585 99.9792 83.2811 97.5964 80.7222ZM100.558 80.0806C101.615 81.0061 102.664 81.9418 103.704 82.8878L105.25 84.324C105.758 84.8136 106.265 85.2951 106.742 85.8417C106.778 85.8829 106.796 85.9365 106.792 85.991C106.788 86.0454 106.763 86.0961 106.722 86.132C106.681 86.1678 106.627 86.1858 106.572 86.1821C106.518 86.1783 106.467 86.1531 106.431 86.112L106.425 86.1048L106.42 86.0977C105.998 85.5633 105.511 85.05 105.032 84.5421L103.561 83.0362C102.571 82.0414 101.57 81.0562 100.558 80.0806ZM88.3489 64.6116C88.8791 65.2705 89.4688 65.8791 90.1105 66.4299C90.7413 67.0018 91.3808 67.5646 92.0289 68.1183L95.9506 71.4041C98.5706 73.5882 101.249 75.7076 103.896 77.8555L103.933 77.8888L103.941 77.8972C105.096 79.1022 106.407 80.1472 107.839 81.0041C109.271 81.8399 110.827 82.4449 112.448 82.7972C115.71 83.5086 119.111 83.2224 122.208 81.9757C123.725 81.3561 125.257 80.4706 126.82 79.7633C128.372 79.013 129.962 78.3413 131.559 77.6922C133.166 77.0651 134.793 76.4899 136.444 75.9892C138.098 75.4624 139.798 75.0958 141.522 74.8946C141.543 74.8927 141.564 74.895 141.584 74.9013L141.591 74.9037C143.099 75.4047 144.675 75.671 146.264 75.6935C147.841 75.7257 149.403 75.3823 150.821 74.6917C151.522 74.3149 152.197 73.8895 152.839 73.4186C153.624 73.0388 154.507 72.9097 155.368 73.0491C156.187 73.136 156.997 73.2966 157.788 73.5288C157.96 73.5877 158.136 73.6315 158.316 73.6597C158.47 73.6785 158.627 73.6687 158.778 73.6307C159.066 73.5494 159.318 73.3713 159.49 73.1265L159.654 72.9727C159.623 72.9879 159.595 73.0077 159.57 73.0314C159.507 73.0883 159.465 73.1644 159.451 73.2478C159.44 73.3098 159.444 73.3736 159.462 73.4339C159.481 73.4942 159.513 73.5492 159.557 73.5946L159.499 73.1126C159.601 72.9101 159.641 72.682 159.614 72.4568C159.601 72.3307 159.577 72.2059 159.542 72.0841C159.508 71.9645 159.464 71.848 159.41 71.736C159.384 71.685 159.369 71.6293 159.365 71.5722C159.361 71.5151 159.369 71.4579 159.388 71.404L159.398 71.3775C159.509 70.8653 159.475 70.332 159.299 69.8381C159.136 69.2777 158.923 68.7333 158.662 68.2114C158.632 68.1514 158.615 68.0861 158.612 68.0193C158.608 67.9526 158.617 67.8858 158.64 67.8229L158.651 67.7917C158.729 67.5866 158.765 67.3677 158.756 67.1484C158.732 66.9131 158.671 66.6832 158.575 66.4672C158.468 66.2333 158.336 66.0122 158.18 65.8081C158.025 65.6009 157.852 65.4084 157.662 65.2329C157.58 65.1591 157.522 65.0618 157.497 64.9543C157.472 64.8467 157.48 64.734 157.521 64.6314L157.534 64.6001C157.703 64.1968 157.712 63.7443 157.559 63.3346C157.348 62.9407 156.995 62.6421 156.572 62.4997C155.543 62.177 154.452 62.1068 153.39 62.2952C151.107 62.6133 148.858 63.1419 146.672 63.8743L146.666 63.876C146.593 63.8992 146.517 63.9095 146.44 63.9065C144.4 63.8211 142.338 64.7225 140.21 65.3869C139.134 65.7217 138.119 66.0978 136.934 66.3469C135.798 66.5841 134.683 66.7043 133.562 66.8338C129.089 67.2502 124.633 67.3942 120.173 67.4468L118.5 67.4628L117.664 67.4676L117.246 67.4693C117.101 67.4699 116.931 67.4647 116.775 67.4505C115.814 67.3607 114.912 66.9496 114.215 66.2838C113.98 66.0519 113.821 65.8713 113.62 65.6624L109.06 60.7859C106.022 57.5325 103.006 54.2574 100.013 50.9607C100.002 50.9481 99.9958 50.9316 99.9963 50.9145C99.9968 50.8975 100.004 50.8814 100.016 50.8695C100.028 50.8577 100.045 50.851 100.062 50.8511C100.079 50.8511 100.095 50.8578 100.107 50.8697C103.309 53.9642 106.485 57.0839 109.635 60.2289L114.362 64.9446C114.551 65.1325 114.769 65.3609 114.935 65.5156C115.468 65.9998 116.148 66.2906 116.866 66.3411C117.088 66.3579 117.361 66.3402 117.645 66.3343L118.478 66.3095L120.144 66.2532C124.58 66.0697 129.028 65.896 133.416 65.4376C134.506 65.3141 135.607 65.195 136.651 64.9776C137.648 64.7756 138.731 64.3889 139.779 64.0622C140.836 63.7236 141.889 63.3705 142.993 63.064C144.127 62.7193 145.31 62.5621 146.494 62.5986L146.263 62.6307C147.413 62.2725 148.552 61.9674 149.717 61.7007C150.885 61.4253 152.069 61.2207 153.262 61.0882C153.875 61.0225 154.492 61 155.109 61.0208C155.768 61.0427 156.417 61.1833 157.026 61.4359C157.716 61.7046 158.275 62.2295 158.586 62.9008C158.727 63.2511 158.787 63.6288 158.761 64.0055C158.741 64.3709 158.653 64.7294 158.503 65.0631L158.375 64.4307C158.617 64.6612 158.836 64.9146 159.03 65.1874C159.227 65.4593 159.393 65.7527 159.524 66.0619C159.661 66.3913 159.743 66.7412 159.765 67.0974C159.775 67.4717 159.704 67.8438 159.558 68.1883L159.547 67.769C159.824 68.3583 160.042 68.9736 160.198 69.6059C160.282 69.9326 160.333 70.2667 160.352 70.6034C160.383 70.9791 160.329 71.357 160.193 71.7089L160.181 71.3506C160.33 71.6822 160.418 72.0379 160.441 72.4007C160.469 72.7908 160.379 73.1802 160.183 73.5188L160.125 73.037C160.17 73.0833 160.203 73.1395 160.222 73.2012C160.241 73.2628 160.245 73.3281 160.234 73.3916C160.218 73.4778 160.175 73.5565 160.11 73.6152C160.081 73.6428 160.047 73.6657 160.011 73.6834L160.175 73.5297C160.04 73.7525 159.851 73.9379 159.626 74.0688C159.417 74.2003 159.19 74.2993 158.952 74.3623C158.71 74.4142 158.462 74.4214 158.218 74.3833C158.001 74.3431 157.789 74.2846 157.583 74.2084C156.839 73.9641 156.074 73.7873 155.298 73.6799C154.569 73.5346 153.812 73.6109 153.126 73.8989C152.457 74.3555 151.759 74.7667 151.035 75.1299C149.545 75.8358 147.908 76.1773 146.259 76.1263C144.632 76.0747 143.019 75.7929 141.47 75.2891L141.539 75.2982C139.852 75.5037 138.192 75.888 136.586 76.4445C134.961 76.9679 133.374 77.606 131.809 78.2886C130.252 78.9924 128.705 79.7192 127.195 80.5198C125.658 81.2851 124.244 82.1862 122.611 82.9313C119.336 84.3746 115.684 84.7287 112.193 83.9413C110.458 83.5469 108.796 82.882 107.268 81.9709C105.76 81.0472 104.39 79.9167 103.198 78.6123L103.243 78.6539C100.614 76.4644 98.0504 74.2055 95.4929 71.9358C94.2118 70.804 92.9549 69.6442 91.7221 68.4564C91.1027 67.8664 90.493 67.2655 89.8929 66.6537C89.5993 66.3399 89.2967 66.0384 89.0189 65.7083L88.6021 65.2155C88.4718 65.0411 88.3552 64.8525 88.2333 64.6735C88.2239 64.6593 88.2204 64.6419 88.2236 64.6252C88.2268 64.6084 88.2364 64.5936 88.2505 64.5839C88.2645 64.5742 88.2818 64.5704 88.2986 64.5733C88.3154 64.5762 88.3304 64.5856 88.3404 64.5994L88.3489 64.6116Z" fill="black"/>
<path d="M130.935 4.10962V43.7865L186.026 48.6721V4.10962H130.935ZM179.954 42.7502L136.563 39.197V9.43934L179.954 8.99516V42.7502Z" fill="#23AC52"/>
<path d="M153.846 64.0173C152.414 64.1854 151 64.4911 149.626 64.9303C151.013 64.5588 152.432 64.3217 153.863 64.2222C154.572 64.1697 155.284 64.1903 155.988 64.2836C156.675 64.3466 157.332 64.5917 157.892 64.9935L157.902 65.0016C157.946 65.0338 158.001 65.0473 158.055 65.039C158.109 65.0306 158.157 65.0012 158.19 64.9572C158.222 64.9132 158.235 64.8582 158.227 64.8042C158.219 64.7503 158.189 64.7019 158.145 64.6697C157.514 64.2525 156.781 64.0133 156.025 63.9774C155.299 63.9158 154.569 63.9292 153.846 64.0173Z" fill="black"/>
<path d="M155.418 66.8462C154.101 66.8982 152.791 67.0649 151.502 67.3445C152.797 67.1334 154.107 67.0355 155.419 67.0519C156.067 67.0639 156.712 67.1369 157.347 67.27C157.959 67.3651 158.521 67.6637 158.943 68.1174L158.95 68.1264L158.958 68.1356C158.994 68.1764 159.045 68.2012 159.099 68.2045C159.126 68.2061 159.153 68.2024 159.179 68.1936C159.204 68.1848 159.228 68.171 159.248 68.1531C159.289 68.1169 159.314 68.066 159.317 68.0115C159.321 67.957 159.302 67.9034 159.266 67.8626C158.768 67.3604 158.113 67.0446 157.409 66.9679C156.751 66.8647 156.084 66.824 155.418 66.8462Z" fill="black"/>
<path d="M156.245 69.7666C154.892 69.6558 153.53 69.7221 152.193 69.9639C153.53 69.7911 154.884 69.7934 156.221 69.9707C156.88 70.0519 157.525 70.227 158.135 70.4909C158.731 70.7342 159.248 71.1391 159.626 71.6602L159.63 71.665L159.635 71.6728C159.651 71.6946 159.672 71.713 159.695 71.7269C159.718 71.7409 159.744 71.7501 159.771 71.754C159.798 71.7579 159.825 71.7565 159.851 71.7498C159.878 71.7431 159.902 71.7313 159.924 71.715C159.946 71.6988 159.964 71.6784 159.978 71.655C159.992 71.6317 160.001 71.6058 160.004 71.579C160.008 71.5521 160.007 71.5248 160 71.4986C159.993 71.4723 159.981 71.4477 159.965 71.4261C159.52 70.867 158.927 70.4442 158.253 70.206C157.608 69.9645 156.932 69.8165 156.245 69.7666Z" fill="black"/>
<path d="M139.835 12.6481C139.893 13.8624 139.944 15.028 139.97 16.1745C139.999 17.3226 140.017 18.4516 139.974 19.5918L139.821 19.4386C140.8 19.4715 141.779 19.5202 142.758 19.5247C143.737 19.5344 144.716 19.5118 145.695 19.4793L145.582 19.5918C145.54 18.4321 145.509 17.2723 145.498 16.1127C145.476 14.953 145.474 13.7933 145.486 12.6337L145.695 12.843C144.742 12.8471 143.785 12.7998 142.817 12.7763L139.835 12.6481ZM139.806 12.619L142.699 12.4908C143.688 12.4674 144.69 12.4201 145.695 12.4242C145.75 12.4248 145.803 12.447 145.842 12.4862C145.882 12.5253 145.904 12.5783 145.904 12.6336C145.916 13.7933 145.914 14.953 145.892 16.1127C145.881 17.2723 145.85 18.432 145.808 19.5917L145.807 19.5996C145.807 19.6138 145.804 19.6279 145.798 19.6409C145.792 19.6539 145.783 19.6656 145.773 19.6753C145.762 19.685 145.75 19.6926 145.737 19.6976C145.723 19.7026 145.709 19.7049 145.695 19.7043C144.716 19.6718 143.737 19.6492 142.758 19.659C141.779 19.6634 140.8 19.7121 139.821 19.745C139.801 19.7456 139.782 19.7424 139.764 19.7356C139.745 19.7287 139.729 19.7184 139.715 19.7051C139.7 19.6918 139.689 19.6759 139.681 19.6582C139.673 19.6405 139.668 19.6214 139.668 19.602L139.667 19.5917C139.624 18.4124 139.642 17.222 139.671 16.0508C139.698 14.8779 139.748 13.7242 139.806 12.619ZM168.01 12.0344C168.112 14.3971 168.181 16.6976 168.241 18.9799C168.311 21.2678 168.343 23.5157 168.369 25.7621C168.395 28.0069 168.36 30.2267 168.286 32.4583C168.224 34.6904 168.132 36.9397 168.126 39.1989L167.977 39.05C169.315 39.0686 170.652 39.0337 171.99 39.0282C173.328 39.0185 174.666 38.9673 176.004 38.9388L175.743 39.1989C175.67 36.9324 175.615 34.6659 175.581 32.3994L175.504 25.5999C175.487 23.3333 175.493 21.0668 175.522 18.8004L175.647 12.0008L176.004 12.357L172.077 12.2113L168.01 12.0344ZM167.943 11.9671L171.903 11.7903L176.004 11.6445C176.049 11.6429 176.094 11.6502 176.136 11.666C176.178 11.6818 176.217 11.7058 176.25 11.7365C176.283 11.7673 176.31 11.8043 176.329 11.8454C176.347 11.8865 176.358 11.9308 176.36 11.976L176.36 11.98L176.36 12.0008L176.486 18.8004C176.513 21.0669 176.518 23.3334 176.503 25.6L176.427 32.3994C176.39 34.6659 176.335 36.9324 176.264 39.199L176.264 39.2131C176.261 39.28 176.233 39.3434 176.184 39.3894C176.135 39.4355 176.071 39.4606 176.004 39.4592C174.666 39.4307 173.328 39.3795 171.99 39.3698C170.652 39.3643 169.315 39.3294 167.977 39.348C167.958 39.3482 167.938 39.3447 167.92 39.3376C167.902 39.3304 167.886 39.3198 167.872 39.3064C167.858 39.2929 167.847 39.2769 167.84 39.2591C167.832 39.2414 167.828 39.2224 167.828 39.2031L167.828 39.199C167.821 36.9252 167.729 34.6414 167.668 32.3405C167.594 30.039 167.559 27.7258 167.585 25.4377C167.611 23.151 167.642 20.8658 167.713 18.6208C167.773 16.3701 167.842 14.1375 167.943 11.9671ZM105.367 56.388C108.381 54.4681 111.429 52.6064 114.487 50.7618C114.523 50.7408 114.565 50.7328 114.606 50.7391C117.436 51.1739 120.255 51.6724 123.074 52.1781C125.891 52.6908 128.718 53.1438 131.549 53.569L140.042 54.8498C142.87 55.2967 145.702 55.7214 148.525 56.1952C148.581 56.2043 148.631 56.2353 148.664 56.2812C148.697 56.3272 148.71 56.3843 148.701 56.4402C148.692 56.4944 148.663 56.5431 148.619 56.5763C146.522 58.15 144.411 59.7038 142.285 61.2379L139.107 63.5539L135.909 65.843C135.905 65.8461 135.899 65.8473 135.894 65.8465C135.889 65.8457 135.884 65.8428 135.881 65.8385C135.877 65.8342 135.876 65.8288 135.877 65.8235C135.877 65.8182 135.88 65.8133 135.884 65.81L138.983 63.3886L142.103 60.9943C144.179 59.3934 146.266 57.807 148.363 56.2349L148.457 56.616C145.628 56.1744 142.807 55.6837 139.983 55.2152L131.52 53.7498C128.699 53.2596 125.874 52.7973 123.039 52.3946C120.205 51.9849 117.372 51.568 114.55 51.0874L114.668 51.0647C111.593 52.8816 108.508 54.6816 105.388 56.4232C105.384 56.4258 105.378 56.4265 105.373 56.4251C105.368 56.4238 105.364 56.4204 105.361 56.4158C105.358 56.4112 105.357 56.4057 105.358 56.4005C105.36 56.3953 105.363 56.3909 105.367 56.388ZM109.02 60.1682C110.753 60.6114 112.473 61.0978 114.19 61.5907L119.328 63.1179L124.438 64.736C126.137 65.292 127.833 65.8542 129.516 66.4602C127.783 66.0175 126.063 65.531 124.345 65.0384L119.208 63.5105L114.098 61.8916C112.399 61.3359 110.703 60.7736 109.02 60.1682Z" fill="black"/>
<path d="M162.173 46.5568V50.4394C165.688 51.2544 168.114 52.7523 167.971 54.2221C167.789 56.0939 163.512 57.2108 158.418 56.7166C153.324 56.2223 149.341 54.3044 149.523 52.4326C149.668 50.9409 152.414 49.9298 156.102 49.8303V46.0183L162.173 46.5568Z" fill="#23AC52"/>
<path d="M167.329 52.7885C168.368 52.6474 169.419 52.6168 170.465 52.6974C171.539 52.7489 172.592 53.0194 173.558 53.4922C174.063 53.7547 174.499 54.1337 174.828 54.5978C175.157 55.0823 175.338 55.651 175.352 56.236C175.362 56.7975 175.278 57.3568 175.103 57.8905C174.948 58.4396 174.681 58.9512 174.321 59.3937C173.96 59.8362 173.518 60.2055 173.019 60.4816C172.549 60.7525 172.057 60.9815 171.547 61.1658C170.533 61.5434 169.464 61.7515 168.382 61.7819C167.314 61.804 166.25 61.6654 165.224 61.3708C164.239 61.0673 163.191 61.0355 162.19 61.2785C162.658 61.0244 163.179 60.8846 163.712 60.8706C164.243 60.8361 164.776 60.8546 165.303 60.926C166.306 61.1066 167.327 61.1583 168.343 61.08C169.343 60.9986 170.326 60.7741 171.262 60.4134C171.728 60.2332 172.179 60.0186 172.613 59.7714C173.031 59.5506 173.403 59.2508 173.707 58.8885C174.011 58.5262 174.244 58.1097 174.393 57.6608C174.557 57.2091 174.644 56.7332 174.651 56.2527C174.66 55.7915 174.539 55.337 174.3 54.9422C174.041 54.5435 173.692 54.2109 173.282 53.9711C172.397 53.4781 171.429 53.154 170.426 53.0153C169.402 52.8521 168.366 52.7762 167.329 52.7885Z" fill="black"/>
<path d="M163.091 64.0668C163.091 64.0668 162.914 69.8448 159.841 73.3157C159.964 73.0351 160.024 72.7308 160.016 72.4244C160.008 72.118 159.933 71.8172 159.796 71.5432C160.289 70.3588 159.104 67.9901 159.104 67.9901C159.796 66.4109 158.018 64.8316 158.018 64.8316C158.018 64.8316 159.104 62.5616 156.241 61.772C156.241 61.772 164.066 58.1202 163.091 64.0668Z" fill="black"/>
<path d="M179.887 107.287C179.859 107.287 179.831 107.283 179.805 107.274L126.852 89.7696C126.82 89.7588 126.789 89.7416 126.763 89.7191C126.737 89.6967 126.716 89.6693 126.7 89.6385C126.685 89.6078 126.676 89.5743 126.673 89.54C126.671 89.5057 126.675 89.4712 126.686 89.4385C126.696 89.4058 126.714 89.3756 126.736 89.3495C126.759 89.3235 126.786 89.3021 126.817 89.2866C126.847 89.2711 126.881 89.2619 126.915 89.2593C126.95 89.2568 126.984 89.2611 127.017 89.2719L179.858 106.74L247.896 67.8377V64.7172L121.712 41.7113L101.047 49.6789C100.983 49.7036 100.911 49.7017 100.847 49.6735C100.784 49.6454 100.734 49.5932 100.709 49.5286C100.685 49.4639 100.686 49.392 100.714 49.3285C100.742 49.2651 100.794 49.2154 100.859 49.1902L121.592 41.1957C121.637 41.1795 121.686 41.1749 121.733 41.1823L248.205 64.2406C248.265 64.2517 248.32 64.2835 248.359 64.3306C248.398 64.3777 248.42 64.4371 248.42 64.4984V67.99C248.42 68.0361 248.408 68.0814 248.385 68.1213C248.362 68.1612 248.328 68.1943 248.288 68.2171L180.017 107.252C179.978 107.275 179.933 107.287 179.887 107.287Z" fill="black"/>
<path d="M179.739 103.974C179.718 103.974 179.697 103.97 179.677 103.964L123.401 86.1654C123.376 86.1573 123.352 86.1441 123.331 86.1268C123.311 86.1094 123.294 86.0881 123.281 86.0642C123.256 86.0159 123.251 85.9595 123.268 85.9076C123.284 85.8557 123.321 85.8124 123.369 85.7874C123.417 85.7623 123.474 85.7575 123.526 85.7739L179.715 103.545L248.056 64.32C248.079 64.3065 248.105 64.2979 248.132 64.2944C248.159 64.291 248.186 64.2928 248.212 64.2999C248.238 64.307 248.262 64.3191 248.284 64.3356C248.305 64.3521 248.323 64.3727 248.337 64.3961C248.35 64.4196 248.359 64.4454 248.362 64.4722C248.366 64.499 248.364 64.5262 248.357 64.5523C248.35 64.5784 248.337 64.6028 248.321 64.6242C248.304 64.6456 248.284 64.6635 248.26 64.6769L179.841 103.947C179.81 103.964 179.775 103.974 179.739 103.974Z" fill="black"/>
<path d="M179.887 107.23C179.834 107.23 179.783 107.21 179.745 107.174C179.707 107.137 179.684 107.087 179.682 107.035L179.533 103.778C179.532 103.751 179.536 103.724 179.545 103.699C179.555 103.673 179.569 103.65 179.587 103.63C179.605 103.61 179.627 103.594 179.652 103.582C179.676 103.571 179.703 103.564 179.73 103.563C179.783 103.562 179.836 103.582 179.875 103.619C179.915 103.655 179.94 103.705 179.944 103.759L180.092 107.016C180.094 107.043 180.09 107.069 180.08 107.095C180.071 107.12 180.057 107.144 180.039 107.164C180.021 107.184 179.999 107.2 179.974 107.211C179.95 107.223 179.923 107.229 179.896 107.23H179.887Z" fill="black"/>
<path d="M179.906 106.068L180.317 131.217L180.626 156.365C180.737 164.748 180.966 173.13 180.831 181.513C180.757 185.705 180.683 189.896 180.52 194.088L180.272 200.375C180.149 202.47 180.064 204.566 179.906 206.662C179.904 206.688 179.892 206.712 179.873 206.73C179.854 206.747 179.829 206.757 179.803 206.757C179.777 206.757 179.752 206.747 179.733 206.73C179.714 206.712 179.702 206.688 179.7 206.662C179.542 204.566 179.457 202.47 179.334 200.375L179.086 194.088C178.923 189.896 178.849 185.705 178.774 181.513C178.64 173.13 178.869 164.748 178.98 156.365L179.289 131.217L179.7 106.068C179.701 106.041 179.712 106.015 179.731 105.996C179.75 105.978 179.776 105.967 179.803 105.967C179.83 105.967 179.856 105.978 179.875 105.996C179.894 106.015 179.905 106.041 179.906 106.068ZM242.929 71.5432L243.341 96.6916L243.649 121.84C243.76 130.223 243.99 138.606 243.855 146.988C243.781 151.18 243.707 155.371 243.543 159.563L243.296 165.85C243.172 167.945 243.087 170.041 242.929 172.137C242.927 172.163 242.916 172.187 242.897 172.205C242.878 172.222 242.853 172.232 242.827 172.232C242.801 172.232 242.775 172.222 242.756 172.205C242.737 172.187 242.726 172.163 242.724 172.137C242.566 170.041 242.481 167.945 242.357 165.85L242.11 159.563C241.947 155.371 241.872 151.18 241.798 146.988C241.663 138.606 241.893 130.223 242.004 121.84L242.312 96.6916L242.724 71.5432C242.724 71.5161 242.735 71.4904 242.754 71.4714C242.774 71.4524 242.799 71.4418 242.827 71.4418C242.854 71.4418 242.88 71.4524 242.899 71.4714C242.918 71.4904 242.929 71.5161 242.929 71.5432Z" fill="black"/>
<path d="M158.991 152.118C142.829 141.024 138.124 140.632 138.124 140.632C136.051 143.297 138.717 155.585 138.717 155.585H144.641L144.492 150.848C156.192 159.434 171.89 158.99 171.89 158.99C182.849 156.917 170.557 153.742 170.557 153.742C169.763 154.069 168.927 154.284 168.074 154.378C164.871 154.772 161.636 153.967 158.991 152.118Z" fill="#F79155"/>
<path d="M143.153 122.585C144.062 124.115 144.924 125.67 145.811 127.212L148.392 131.878C149.263 133.426 150.081 135.008 150.925 136.567C151.76 138.106 152.757 139.551 153.901 140.877C154.463 141.547 155.06 142.187 155.689 142.794C156.316 143.398 156.994 143.97 157.664 144.553C159.003 145.717 160.376 146.839 161.734 147.979C163.101 149.108 164.491 150.209 165.93 151.24C166.643 151.765 167.373 152.265 168.13 152.721L168.704 153.053L169.298 153.345C169.695 153.54 170.12 153.674 170.557 153.742C169.664 153.647 168.801 153.364 168.025 152.912C167.229 152.505 166.457 152.051 165.703 151.573C164.205 150.601 162.763 149.55 161.341 148.475C159.913 147.407 158.548 146.262 157.179 145.123C156.5 144.549 155.81 143.984 155.147 143.364C153.159 141.515 151.507 139.334 150.266 136.918C149.45 135.334 148.619 133.767 147.835 132.171L145.456 127.398C144.689 125.793 143.898 124.202 143.153 122.585ZM132.281 133.46C133.469 134.458 134.555 135.573 135.521 136.787C136.517 137.978 137.389 139.266 138.125 140.632C136.935 139.635 135.849 138.521 134.884 137.306C133.89 136.114 133.018 134.826 132.281 133.46Z" fill="black"/>
<path d="M126.554 185.265C109.059 176.422 104.343 176.659 104.343 176.659C102.643 179.576 106.922 191.4 106.922 191.4L112.793 190.612L112.015 185.936C124.754 192.889 140.253 190.36 140.253 190.36C150.838 186.847 138.233 185.335 138.233 185.335C137.49 185.766 136.69 186.09 135.857 186.297C132.735 187.114 129.421 186.746 126.554 185.265Z" fill="#F79155"/>
<path d="M114.27 162.043C114.658 163.49 114.995 164.948 115.359 166.401L115.863 168.588C116.003 169.303 116.226 170 116.527 170.663C116.831 171.313 117.218 171.921 117.679 172.471C118.152 173.022 118.669 173.559 119.198 174.068C120.255 175.094 121.4 176.025 122.62 176.85C125.099 178.492 127.626 180.1 130.174 181.646C131.45 182.418 132.742 183.163 134.068 183.838C134.723 184.191 135.396 184.51 136.084 184.793C136.76 185.106 137.489 185.29 138.233 185.335C137.477 185.379 136.72 185.264 136.011 184.998C135.293 184.77 134.587 184.504 133.896 184.203C132.519 183.594 131.182 182.906 129.859 182.195C127.214 180.765 124.678 179.177 122.158 177.529C120.903 176.669 119.73 175.696 118.653 174.621C118.118 174.078 117.61 173.523 117.123 172.927C116.634 172.318 116.238 171.639 115.949 170.913C115.666 170.198 115.467 169.452 115.356 168.691L114.966 166.481C114.735 165.001 114.477 163.527 114.27 162.043ZM103.944 165.658C104.301 167.466 104.505 169.301 104.554 171.144C104.641 172.985 104.57 174.83 104.343 176.659C103.984 174.851 103.78 173.016 103.733 171.174C103.648 169.332 103.719 167.487 103.944 165.658ZM90.3198 19.2589C89.481 19.3409 88.6356 19.1967 87.8716 18.8412C87.473 18.6652 87.1236 18.3943 86.8539 18.0521C86.5854 17.7084 86.4632 17.2726 86.5139 16.8394C86.6272 17.211 86.8246 17.5515 87.0909 17.8345C87.3572 18.1174 87.6852 18.3351 88.0494 18.4707C88.7846 18.7919 89.5437 19.0554 90.3198 19.2589ZM169.87 15.3416C170.125 15.3328 170.367 15.2254 170.544 15.0421C170.721 14.8588 170.82 14.6139 170.82 14.359C170.82 14.1041 170.721 13.8592 170.544 13.6759C170.367 13.4926 170.125 13.3852 169.87 13.3764C169.616 13.3852 169.374 13.4926 169.197 13.6759C169.02 13.8592 168.921 14.1041 168.921 14.359C168.921 14.6139 169.02 14.8588 169.197 15.0421C169.374 15.2254 169.616 15.3328 169.87 15.3416ZM170.028 20.7655C170.282 20.7567 170.524 20.6493 170.701 20.466C170.878 20.2827 170.977 20.0378 170.977 19.7829C170.977 19.5281 170.878 19.2832 170.701 19.0999C170.524 18.9165 170.282 18.8092 170.028 18.8003C169.773 18.8092 169.531 18.9165 169.354 19.0999C169.177 19.2832 169.078 19.5281 169.078 19.7829C169.078 20.0378 169.177 20.2827 169.354 20.466C169.531 20.6493 169.773 20.7567 170.028 20.7655ZM170.106 26.5825C170.361 26.5737 170.602 26.4663 170.78 26.283C170.957 26.0996 171.056 25.8547 171.056 25.5999C171.056 25.345 170.957 25.1001 170.78 24.9168C170.602 24.7335 170.361 24.6261 170.106 24.6173C169.851 24.6261 169.61 24.7335 169.433 24.9168C169.256 25.1001 169.157 25.345 169.157 25.5999C169.157 25.8547 169.256 26.0996 169.433 26.283C169.61 26.4663 169.851 26.5737 170.106 26.5825ZM170.106 33.0283C170.361 33.0195 170.602 32.9121 170.78 32.7288C170.957 32.5455 171.056 32.3006 171.056 32.0457C171.056 31.7908 170.957 31.5459 170.78 31.3626C170.602 31.1793 170.361 31.0719 170.106 31.0631C169.851 31.0719 169.61 31.1793 169.433 31.3626C169.256 31.5459 169.157 31.7908 169.157 32.0457C169.157 32.3006 169.256 32.5455 169.433 32.7288C169.61 32.9121 169.851 33.0195 170.106 33.0283ZM170.263 38.2164C170.518 38.2076 170.76 38.1002 170.937 37.9169C171.114 37.7336 171.213 37.4887 171.213 37.2338C171.213 36.9789 171.114 36.734 170.937 36.5507C170.76 36.3674 170.518 36.26 170.263 36.2512C170.009 36.26 169.767 36.3674 169.59 36.5507C169.413 36.734 169.314 36.9789 169.314 37.2338C169.314 37.4887 169.413 37.7336 169.59 37.9169C169.767 38.1002 170.009 38.2076 170.263 38.2164ZM142.733 16.5138C142.876 16.513 143.015 16.4722 143.135 16.3959C143.255 16.3196 143.352 16.211 143.413 16.0826C143.513 15.8584 143.582 15.6214 143.616 15.3783C143.647 15.2483 143.651 15.1134 143.627 14.9819C143.603 14.8504 143.552 14.7252 143.478 14.6143C143.387 14.5108 143.27 14.4338 143.139 14.3914C143.008 14.3491 142.867 14.343 142.733 14.3738C142.494 14.4222 142.278 14.5502 142.12 14.7368C141.988 14.9249 141.917 15.1493 141.919 15.379C141.913 15.6192 141.961 15.8577 142.059 16.0769C142.119 16.2057 142.214 16.3151 142.333 16.3923C142.453 16.4696 142.591 16.5117 142.733 16.5138ZM142.733 16.572C142.399 16.5927 142.066 16.5111 141.779 16.338C141.628 16.2278 141.506 16.0833 141.422 15.9165C141.339 15.7497 141.296 15.5654 141.298 15.3788C141.295 15.1898 141.331 15.0023 141.403 14.8277C141.476 14.6532 141.583 14.4953 141.719 14.3639C141.852 14.236 142.013 14.1414 142.189 14.0877C142.365 14.034 142.552 14.0228 142.733 14.0551C143.064 14.1064 143.372 14.2564 143.616 14.4856C143.878 14.7166 144.05 15.033 144.1 15.3786C144.121 15.5603 144.093 15.7444 144.02 15.9118C143.946 16.0793 143.829 16.2241 143.681 16.3314C143.396 16.5052 143.066 16.5891 142.733 16.572Z" fill="black"/>
<path d="M144.617 19.6121C144.009 19.7141 143.396 19.7824 142.78 19.8169C142.45 19.8313 142.117 19.8484 141.779 19.8397C141.442 19.832 141.104 19.7877 140.777 19.7571L140.743 19.7539C140.724 19.7521 140.706 19.7466 140.689 19.7376C140.672 19.7286 140.657 19.7164 140.644 19.7015C140.632 19.6867 140.623 19.6696 140.617 19.6513C140.611 19.6329 140.609 19.6136 140.611 19.5944L140.611 19.5918C140.658 19.2371 140.684 18.88 140.689 18.5223C140.666 18.1489 140.719 17.7747 140.845 17.4224C140.993 17.0428 141.251 16.716 141.586 16.4837C141.921 16.2514 142.318 16.1241 142.725 16.1182C143.133 16.1123 143.533 16.2279 143.875 16.4503C144.216 16.6727 144.484 16.9918 144.643 17.3669C144.797 17.7391 144.842 18.1472 144.773 18.5439C144.734 18.9356 144.668 19.3002 144.617 19.6121ZM144.576 19.5714L144.42 18.5009C144.403 18.1848 144.316 17.8764 144.166 17.5977C144.013 17.3368 143.798 17.1174 143.54 16.9587C143.282 16.8 142.989 16.7068 142.687 16.6873C142.37 16.6793 142.056 16.7539 141.776 16.9038C141.497 17.0536 141.261 17.2736 141.093 17.5421C140.916 17.8369 140.836 18.1798 140.864 18.5223C140.869 18.88 140.895 19.2371 140.942 19.5917L140.777 19.4266C141.086 19.3958 141.385 19.3516 141.685 19.3439C141.984 19.3352 142.287 19.3523 142.593 19.3667C143.209 19.4039 143.852 19.4783 144.576 19.5714ZM148.256 12.6481C148.314 13.8624 148.365 15.0279 148.391 16.1745C148.42 17.3226 148.439 18.4516 148.395 19.5917L148.242 19.4386C149.221 19.4715 150.2 19.5202 151.179 19.5247C152.158 19.5344 153.137 19.5118 154.116 19.4792L154.004 19.5917C153.961 18.432 153.93 17.2723 153.919 16.1127C153.897 14.953 153.895 13.7933 153.907 12.6337L154.116 12.8429C153.163 12.8471 152.206 12.7998 151.238 12.7762L148.256 12.6481ZM148.227 12.619L151.12 12.4908C152.11 12.4674 153.111 12.4201 154.116 12.4242C154.171 12.4247 154.224 12.447 154.264 12.4861C154.303 12.5253 154.325 12.5783 154.326 12.6336C154.337 13.7933 154.336 14.953 154.313 16.1127C154.302 17.2723 154.272 18.432 154.229 19.5917L154.228 19.5996C154.228 19.6138 154.225 19.6279 154.219 19.6408C154.213 19.6538 154.204 19.6655 154.194 19.6753C154.184 19.685 154.171 19.6926 154.158 19.6976C154.145 19.7025 154.13 19.7048 154.116 19.7043C153.137 19.6718 152.158 19.6491 151.179 19.659C150.2 19.6634 149.221 19.7121 148.242 19.7449C148.222 19.7456 148.203 19.7424 148.185 19.7356C148.167 19.7287 148.15 19.7184 148.136 19.7051C148.122 19.6918 148.11 19.6759 148.102 19.6582C148.094 19.6405 148.09 19.6214 148.089 19.602L148.089 19.5917C148.045 18.4123 148.063 17.222 148.092 16.0508C148.119 14.8779 148.17 13.7242 148.227 12.619Z" fill="black"/>
<path d="M151.154 16.5138C151.297 16.513 151.436 16.4721 151.556 16.3959C151.677 16.3196 151.773 16.211 151.834 16.0825C151.935 15.8584 152.003 15.6214 152.037 15.3783C152.068 15.2483 152.072 15.1133 152.048 14.9818C152.024 14.8503 151.974 14.7252 151.899 14.6142C151.808 14.5107 151.691 14.4338 151.56 14.3914C151.429 14.3491 151.289 14.343 151.154 14.3738C150.915 14.4222 150.699 14.5502 150.541 14.7368C150.409 14.9248 150.339 15.1493 150.34 15.379C150.334 15.6192 150.382 15.8576 150.481 16.0769C150.54 16.2057 150.635 16.315 150.755 16.3923C150.874 16.4696 151.012 16.5117 151.154 16.5138ZM151.154 16.572C150.82 16.5927 150.487 16.5111 150.2 16.3379C150.05 16.2278 149.927 16.0833 149.844 15.9165C149.76 15.7497 149.717 15.5654 149.719 15.3788C149.716 15.1898 149.752 15.0023 149.824 14.8277C149.897 14.6532 150.004 14.4953 150.14 14.3639C150.273 14.236 150.434 14.1413 150.61 14.0877C150.786 14.034 150.973 14.0228 151.154 14.0551C151.485 14.1063 151.793 14.2564 152.037 14.4856C152.3 14.7165 152.471 15.033 152.522 15.3785C152.543 15.5603 152.515 15.7443 152.441 15.9118C152.367 16.0792 152.25 16.2241 152.102 16.3314C151.818 16.5052 151.487 16.589 151.154 16.572Z" fill="black"/>
<path d="M153.038 19.6121C152.43 19.7141 151.817 19.7824 151.201 19.8169C150.871 19.8313 150.538 19.8484 150.2 19.8397C149.863 19.832 149.525 19.7877 149.198 19.7571L149.165 19.7539C149.145 19.7521 149.127 19.7466 149.11 19.7376C149.093 19.7286 149.078 19.7164 149.065 19.7015C149.053 19.6867 149.044 19.6696 149.038 19.6513C149.033 19.6329 149.031 19.6136 149.032 19.5944L149.033 19.5918C149.079 19.2371 149.105 18.88 149.11 18.5223C149.087 18.1489 149.14 17.7747 149.266 17.4224C149.415 17.0428 149.673 16.716 150.007 16.4837C150.342 16.2514 150.739 16.1241 151.147 16.1182C151.554 16.1122 151.954 16.2279 152.296 16.4503C152.637 16.6727 152.905 16.9918 153.064 17.3669C153.218 17.7391 153.263 18.1472 153.195 18.5439C153.155 18.9356 153.089 19.3002 153.038 19.6121ZM152.997 19.5714L152.841 18.5009C152.824 18.1848 152.737 17.8764 152.587 17.5977C152.434 17.3368 152.219 17.1174 151.961 16.9587C151.703 16.8 151.41 16.7068 151.108 16.6873C150.791 16.6793 150.477 16.7539 150.198 16.9038C149.918 17.0536 149.682 17.2736 149.514 17.5421C149.337 17.837 149.257 18.1798 149.286 18.5223C149.291 18.88 149.317 19.2371 149.363 19.5917L149.198 19.4266C149.507 19.3958 149.806 19.3516 150.106 19.3439C150.405 19.3352 150.708 19.3523 151.015 19.3667C151.63 19.4039 152.273 19.4783 152.997 19.5714ZM156.834 12.6481C156.892 13.8624 156.943 15.0279 156.969 16.1745C156.998 17.3226 157.016 18.4516 156.973 19.5917L156.82 19.4386C157.799 19.4715 158.778 19.5202 159.757 19.5247C160.736 19.5344 161.715 19.5118 162.694 19.4792L162.581 19.5917C162.539 18.432 162.508 17.2723 162.497 16.1127C162.474 14.953 162.473 13.7933 162.485 12.6337L162.694 12.8429C161.741 12.8471 160.784 12.7998 159.816 12.7762L156.834 12.6481ZM156.805 12.619L159.698 12.4908C160.688 12.4674 161.689 12.4201 162.694 12.4242C162.749 12.4247 162.802 12.447 162.841 12.4861C162.881 12.5253 162.903 12.5783 162.903 12.6336C162.915 13.7933 162.913 14.953 162.891 16.1127C162.88 17.2723 162.849 18.432 162.807 19.5917L162.806 19.5996C162.806 19.6138 162.802 19.6279 162.797 19.6408C162.791 19.6538 162.782 19.6655 162.772 19.6753C162.761 19.685 162.749 19.6926 162.736 19.6976C162.722 19.7025 162.708 19.7048 162.694 19.7043C161.715 19.6718 160.736 19.6491 159.757 19.659C158.778 19.6634 157.799 19.7121 156.82 19.7449C156.8 19.7456 156.781 19.7424 156.763 19.7356C156.744 19.7287 156.728 19.7184 156.714 19.7051C156.699 19.6918 156.688 19.6759 156.68 19.6582C156.672 19.6405 156.667 19.6214 156.667 19.602L156.666 19.5917C156.623 18.4123 156.641 17.222 156.67 16.0508C156.697 14.8779 156.747 13.7242 156.805 12.619Z" fill="black"/>
<path d="M159.732 16.5138C159.875 16.513 160.014 16.4721 160.134 16.3959C160.255 16.3196 160.351 16.211 160.412 16.0825C160.512 15.8585 160.581 15.6214 160.615 15.3783C160.646 15.2483 160.65 15.1133 160.626 14.9818C160.602 14.8503 160.552 14.7252 160.477 14.6142C160.386 14.5107 160.269 14.4338 160.138 14.3914C160.007 14.3491 159.867 14.343 159.732 14.3738C159.493 14.4222 159.277 14.5502 159.119 14.7368C158.987 14.9248 158.917 15.1493 158.918 15.379C158.912 15.6192 158.96 15.8576 159.059 16.0769C159.118 16.2057 159.213 16.315 159.332 16.3923C159.452 16.4696 159.59 16.5117 159.732 16.5138ZM159.732 16.572C159.398 16.5927 159.065 16.5111 158.778 16.3379C158.627 16.2278 158.505 16.0833 158.422 15.9165C158.338 15.7497 158.295 15.5654 158.297 15.3788C158.294 15.1898 158.33 15.0023 158.402 14.8277C158.475 14.6532 158.582 14.4953 158.718 14.3639C158.851 14.236 159.012 14.1413 159.188 14.0877C159.364 14.034 159.551 14.0228 159.732 14.0551C160.063 14.1063 160.371 14.2564 160.615 14.4856C160.877 14.7165 161.049 15.033 161.1 15.3785C161.12 15.5603 161.093 15.7444 161.019 15.9118C160.945 16.0793 160.828 16.2241 160.68 16.3314C160.395 16.5052 160.065 16.5891 159.732 16.572Z" fill="black"/>
<path d="M161.616 19.6121C161.008 19.714 160.394 19.7824 159.779 19.8168C159.449 19.8313 159.115 19.8484 158.778 19.8397C158.44 19.8319 158.103 19.7877 157.776 19.7571L157.742 19.7539C157.723 19.7521 157.704 19.7465 157.687 19.7375C157.67 19.7286 157.655 19.7163 157.643 19.7015C157.631 19.6867 157.622 19.6696 157.616 19.6512C157.61 19.6328 157.608 19.6135 157.61 19.5944L157.61 19.5917C157.657 19.2371 157.683 18.88 157.688 18.5223C157.665 18.1489 157.718 17.7747 157.844 17.4223C157.992 17.0427 158.25 16.7159 158.585 16.4836C158.92 16.2513 159.317 16.1241 159.724 16.1181C160.132 16.1122 160.532 16.2278 160.873 16.4502C161.215 16.6727 161.483 16.9918 161.642 17.3669C161.796 17.739 161.841 18.1471 161.772 18.5439C161.732 18.9355 161.667 19.3002 161.616 19.6121ZM161.575 19.5714L161.419 18.5009C161.402 18.1848 161.315 17.8764 161.165 17.5977C161.011 17.3367 160.796 17.1173 160.538 16.9587C160.281 16.8 159.988 16.7068 159.686 16.6873C159.368 16.6793 159.055 16.7538 158.775 16.9037C158.496 17.0536 158.26 17.2736 158.091 17.5421C157.915 17.8369 157.835 18.1797 157.863 18.5223C157.868 18.88 157.894 19.2371 157.941 19.5917L157.776 19.4265C158.085 19.3958 158.384 19.3516 158.683 19.3438C158.982 19.3351 159.286 19.3522 159.592 19.3667C160.208 19.4039 160.85 19.4783 161.575 19.5714ZM153.032 21.2888C153.09 22.503 153.141 23.6687 153.167 24.8152C153.196 25.9633 153.214 27.0923 153.171 28.2325L153.018 28.0793C153.997 28.1122 154.976 28.1609 155.955 28.1654C156.934 28.1751 157.913 28.1525 158.892 28.1199L158.779 28.2325C158.737 27.0727 158.706 25.913 158.695 24.7534C158.673 23.5937 158.671 22.434 158.683 21.2744L158.892 21.4836C157.939 21.4878 156.982 21.4404 156.014 21.417L153.032 21.2888ZM153.003 21.2597L155.896 21.1315C156.886 21.1081 157.887 21.0608 158.892 21.0649C158.947 21.0654 159 21.0877 159.039 21.1268C159.079 21.166 159.101 21.219 159.101 21.2743C159.113 22.434 159.111 23.5937 159.089 24.7534C159.078 25.913 159.047 27.0727 159.005 28.2324L159.004 28.2403C159.004 28.2546 159.001 28.2686 158.995 28.2816C158.989 28.2946 158.98 28.3062 158.97 28.316C158.959 28.3257 158.947 28.3333 158.934 28.3382C158.92 28.3432 158.906 28.3455 158.892 28.345C157.913 28.3124 156.934 28.2898 155.955 28.2997C154.976 28.304 153.997 28.3527 153.018 28.3856C152.978 28.3869 152.94 28.3726 152.912 28.3458C152.883 28.319 152.866 28.2819 152.865 28.2427L152.864 28.2324C152.821 27.0531 152.839 25.8627 152.868 24.6914C152.895 23.5186 152.945 22.3649 153.003 21.2597Z" fill="black"/>
<path d="M155.93 25.1545C156.073 25.1537 156.212 25.1128 156.332 25.0366C156.453 24.9603 156.549 24.8517 156.61 24.7232C156.711 24.4991 156.779 24.2621 156.813 24.019C156.844 23.889 156.848 23.754 156.824 23.6225C156.801 23.491 156.75 23.3659 156.675 23.2549C156.584 23.1514 156.467 23.0745 156.336 23.0321C156.205 22.9898 156.065 22.9837 155.93 23.0145C155.691 23.0629 155.475 23.1908 155.317 23.3775C155.185 23.5655 155.115 23.79 155.116 24.0197C155.11 24.2599 155.158 24.4983 155.257 24.7175C155.317 24.8464 155.411 24.9557 155.531 25.033C155.65 25.1103 155.788 25.1524 155.93 25.1545ZM155.93 25.2127C155.596 25.2334 155.263 25.1517 154.976 24.9786C154.826 24.8684 154.703 24.724 154.62 24.5572C154.536 24.3904 154.493 24.2061 154.495 24.0195C154.492 23.8305 154.528 23.643 154.6 23.4684C154.673 23.2938 154.78 23.136 154.916 23.0046C155.049 22.8767 155.21 22.782 155.386 22.7283C155.563 22.6747 155.749 22.6635 155.93 22.6957C156.262 22.747 156.569 22.8971 156.813 23.1263C157.076 23.3572 157.247 23.6736 157.298 24.0192C157.319 24.201 157.291 24.385 157.217 24.5525C157.143 24.7199 157.026 24.8647 156.878 24.9721C156.594 25.1459 156.263 25.2297 155.93 25.2127Z" fill="black"/>
<path d="M157.814 28.2529C157.206 28.3548 156.593 28.4232 155.977 28.4576C155.647 28.4722 155.314 28.4892 154.976 28.4805C154.639 28.4727 154.301 28.4285 153.974 28.3979L153.941 28.3947C153.921 28.3929 153.903 28.3874 153.886 28.3784C153.869 28.3694 153.854 28.3571 153.841 28.3423C153.829 28.3275 153.82 28.3104 153.814 28.292C153.809 28.2736 153.807 28.2543 153.808 28.2352L153.809 28.2325C153.855 27.8779 153.881 27.5208 153.886 27.1631C153.863 26.7897 153.916 26.4155 154.042 26.0632C154.19 25.6836 154.449 25.3568 154.783 25.1245C155.118 24.8922 155.515 24.7649 155.923 24.759C156.33 24.753 156.73 24.8686 157.072 25.091C157.413 25.3135 157.681 25.6326 157.84 26.0077C157.994 26.3798 158.039 26.7879 157.971 27.1847C157.931 27.5763 157.865 27.941 157.814 28.2529ZM157.773 28.2122L157.617 27.1416C157.6 26.8256 157.513 26.5172 157.363 26.2385C157.21 25.9775 156.995 25.7582 156.737 25.5995C156.479 25.4408 156.186 25.3476 155.884 25.3281C155.567 25.32 155.253 25.3946 154.974 25.5445C154.694 25.6944 154.458 25.9144 154.29 26.1829C154.113 26.4777 154.033 26.8205 154.062 27.1631C154.067 27.5207 154.092 27.8778 154.139 28.2325L153.974 28.0673C154.283 28.0366 154.582 27.9924 154.882 27.9846C155.181 27.9759 155.484 27.993 155.791 28.0075C156.406 28.0447 157.049 28.119 157.773 28.2122ZM143.873 21.2889C143.93 22.5031 143.981 23.6687 144.008 24.8153C144.037 25.9634 144.055 27.0924 144.011 28.2325L143.858 28.0794C144.837 28.1122 145.816 28.1609 146.795 28.1654C147.774 28.1752 148.754 28.1525 149.733 28.12L149.62 28.2325C149.577 27.0728 149.546 25.9131 149.536 24.7535C149.513 23.5938 149.512 22.434 149.523 21.2744L149.733 21.4837C148.78 21.4879 147.823 21.4405 146.855 21.4171L143.873 21.2889ZM143.844 21.2598L146.736 21.1316C147.726 21.1081 148.727 21.0608 149.733 21.065C149.788 21.0655 149.841 21.0877 149.88 21.1269C149.919 21.1661 149.941 21.219 149.942 21.2744C149.953 22.434 149.952 23.5937 149.93 24.7534C149.919 25.9131 149.888 27.0728 149.845 28.2325L149.845 28.2404C149.844 28.2546 149.841 28.2687 149.835 28.2816C149.829 28.2946 149.821 28.3063 149.81 28.316C149.8 28.3258 149.788 28.3333 149.774 28.3383C149.761 28.3433 149.747 28.3456 149.733 28.3451C148.754 28.3125 147.774 28.2899 146.795 28.2997C145.816 28.3041 144.837 28.3528 143.858 28.3857C143.839 28.3863 143.82 28.3832 143.801 28.3763C143.783 28.3695 143.766 28.3592 143.752 28.3459C143.738 28.3326 143.727 28.3167 143.719 28.299C143.711 28.2813 143.706 28.2622 143.705 28.2428L143.705 28.2325C143.661 27.0532 143.68 25.8627 143.709 24.6915C143.735 23.5186 143.786 22.3649 143.844 21.2598ZM139.835 30.2902C139.893 31.5044 139.944 32.67 139.97 33.8166C139.999 34.9647 140.017 36.0937 139.974 37.2338L139.821 37.0807C140.8 37.1136 141.779 37.1622 142.758 37.1666C143.737 37.1765 144.716 37.1538 145.695 37.1213L145.582 37.2338C145.54 36.0741 145.509 34.9144 145.498 33.7548C145.476 32.5951 145.474 31.4354 145.486 30.2757L145.695 30.485C144.742 30.4892 143.785 30.4418 142.817 30.4183L139.835 30.2902ZM139.806 30.2611L142.699 30.1329C143.689 30.1094 144.69 30.0621 145.695 30.0663C145.75 30.0668 145.803 30.089 145.842 30.1282C145.882 30.1674 145.904 30.2203 145.904 30.2757C145.916 31.4353 145.914 32.595 145.892 33.7547C145.881 34.9144 145.85 36.0741 145.808 37.2338L145.807 37.2416C145.807 37.2559 145.804 37.2699 145.798 37.2829C145.792 37.2959 145.783 37.3076 145.773 37.3173C145.762 37.3271 145.75 37.3346 145.737 37.3396C145.723 37.3446 145.709 37.3469 145.695 37.3464C144.716 37.3138 143.737 37.2912 142.758 37.301C141.779 37.3054 140.8 37.3541 139.821 37.387C139.801 37.3877 139.782 37.3845 139.764 37.3776C139.745 37.3708 139.729 37.3604 139.715 37.3472C139.7 37.3339 139.689 37.318 139.681 37.3003C139.673 37.2826 139.668 37.2635 139.668 37.244L139.667 37.2338C139.624 36.0544 139.642 34.8641 139.671 33.6928C139.698 32.5199 139.748 31.3662 139.806 30.2611Z" fill="black"/>
<path d="M142.733 34.1558C142.876 34.155 143.015 34.1142 143.135 34.0379C143.255 33.9616 143.352 33.853 143.413 33.7245C143.513 33.5004 143.582 33.2634 143.616 33.0203C143.647 32.8903 143.651 32.7553 143.627 32.6238C143.603 32.4923 143.553 32.3672 143.478 32.2562C143.387 32.1527 143.27 32.0758 143.139 32.0334C143.008 31.9911 142.868 31.985 142.733 32.0158C142.494 32.0642 142.278 32.1921 142.12 32.3788C141.988 32.5668 141.918 32.7913 141.919 33.021C141.913 33.2612 141.961 33.4996 142.059 33.7188C142.119 33.8477 142.214 33.957 142.333 34.0343C142.453 34.1116 142.591 34.1537 142.733 34.1558ZM142.733 34.214C142.399 34.2347 142.066 34.1531 141.779 33.98C141.628 33.8698 141.506 33.7253 141.422 33.5585C141.339 33.3917 141.296 33.2074 141.298 33.0208C141.295 32.8318 141.331 32.6443 141.403 32.4697C141.476 32.2952 141.583 32.1373 141.719 32.0059C141.852 31.878 142.013 31.7834 142.189 31.7297C142.365 31.676 142.552 31.6648 142.733 31.6971C143.064 31.7483 143.372 31.8984 143.616 32.1276C143.878 32.3585 144.05 32.6749 144.1 33.0205C144.121 33.2022 144.093 33.3863 144.02 33.5538C143.946 33.7212 143.829 33.8661 143.681 33.9734C143.396 34.1472 143.066 34.2311 142.733 34.214Z" fill="black"/>
<path d="M144.617 37.2541C144.009 37.356 143.396 37.4243 142.78 37.4588C142.45 37.4733 142.117 37.4904 141.779 37.4817C141.442 37.4739 141.104 37.4297 140.777 37.399L140.743 37.3959C140.724 37.3941 140.706 37.3885 140.689 37.3796C140.672 37.3706 140.657 37.3583 140.644 37.3435C140.632 37.3287 140.623 37.3116 140.617 37.2932C140.611 37.2748 140.609 37.2555 140.611 37.2363L140.611 37.2337C140.658 36.8791 140.684 36.522 140.689 36.1643C140.666 35.7909 140.719 35.4167 140.845 35.0643C140.993 34.6847 141.251 34.3579 141.586 34.1256C141.921 33.8933 142.318 33.7661 142.725 33.7601C143.133 33.7542 143.533 33.8698 143.875 34.0922C144.216 34.3147 144.484 34.6338 144.643 35.0089C144.797 35.381 144.842 35.7891 144.773 36.1859C144.734 36.5775 144.668 36.9422 144.617 37.2541ZM144.576 37.2134L144.42 36.1428C144.403 35.8267 144.316 35.5183 144.166 35.2397C144.013 34.9787 143.798 34.7593 143.54 34.6006C143.282 34.442 142.989 34.3488 142.687 34.3293C142.37 34.3213 142.056 34.3958 141.776 34.5457C141.497 34.6956 141.261 34.9156 141.093 35.1841C140.916 35.4789 140.836 35.8217 140.864 36.1643C140.869 36.522 140.895 36.8791 140.942 37.2337L140.777 37.0684C141.086 37.0378 141.385 36.9936 141.685 36.9858C141.984 36.9771 142.287 36.9942 142.593 37.0087C143.209 37.0459 143.852 37.1202 144.576 37.2134ZM148.256 30.2901C148.314 31.5043 148.365 32.67 148.391 33.8165C148.42 34.9646 148.439 36.0936 148.395 37.2337L148.242 37.0806C149.221 37.1135 150.2 37.1622 151.179 37.1666C152.158 37.1764 153.137 37.1538 154.116 37.1212L154.004 37.2337C153.961 36.074 153.93 34.9143 153.919 33.7547C153.897 32.595 153.895 31.4353 153.907 30.2757L154.116 30.4849C153.163 30.4891 152.206 30.4417 151.238 30.4182L148.256 30.2901ZM148.227 30.261L151.12 30.1328C152.11 30.1093 153.111 30.062 154.116 30.0662C154.171 30.0667 154.224 30.089 154.264 30.1281C154.303 30.1673 154.325 30.2202 154.326 30.2756C154.337 31.4352 154.336 32.595 154.313 33.7547C154.302 34.9143 154.272 36.074 154.229 37.2337L154.228 37.2416C154.228 37.2558 154.225 37.2698 154.219 37.2828C154.213 37.2958 154.204 37.3075 154.194 37.3172C154.184 37.327 154.171 37.3345 154.158 37.3395C154.145 37.3445 154.13 37.3468 154.116 37.3463C153.137 37.3138 152.158 37.2911 151.179 37.3009C150.2 37.3054 149.221 37.3541 148.242 37.3869C148.222 37.3876 148.203 37.3844 148.185 37.3776C148.167 37.3707 148.15 37.3604 148.136 37.3471C148.122 37.3338 148.11 37.3179 148.102 37.3002C148.094 37.2825 148.09 37.2634 148.089 37.244L148.089 37.2337C148.045 36.0543 148.063 34.864 148.092 33.6928C148.119 32.5198 148.17 31.3661 148.227 30.261ZM156.763 30.2901C156.821 31.5043 156.871 32.67 156.898 33.8165C156.927 34.9646 156.945 36.0936 156.902 37.2337L156.749 37.0806C157.728 37.1135 158.707 37.1622 159.686 37.1666C160.665 37.1764 161.644 37.1538 162.623 37.1212L162.51 37.2337C162.468 36.074 162.437 34.9143 162.426 33.7547C162.403 32.595 162.402 31.4353 162.413 30.2757L162.623 30.4849C161.67 30.4891 160.713 30.4417 159.745 30.4182L156.763 30.2901ZM156.734 30.261L159.626 30.1328C160.616 30.1093 161.617 30.062 162.623 30.0662C162.678 30.0667 162.731 30.0889 162.77 30.1281C162.809 30.1673 162.832 30.2202 162.832 30.2756C162.844 31.4352 162.842 32.595 162.82 33.7547C162.809 34.9143 162.778 36.074 162.735 37.2337L162.735 37.2416C162.735 37.2558 162.731 37.2698 162.725 37.2828C162.72 37.2958 162.711 37.3075 162.701 37.3172C162.69 37.327 162.678 37.3346 162.665 37.3395C162.651 37.3445 162.637 37.3468 162.623 37.3463C161.644 37.3138 160.665 37.2911 159.686 37.3009C158.707 37.3054 157.728 37.3541 156.749 37.3869C156.729 37.3876 156.71 37.3844 156.692 37.3776C156.673 37.3707 156.657 37.3604 156.642 37.3471C156.628 37.3338 156.617 37.3179 156.609 37.3002C156.601 37.2825 156.596 37.2634 156.596 37.244L156.595 37.2337C156.552 36.0543 156.57 34.864 156.599 33.6928C156.626 32.5198 156.676 31.3661 156.734 30.261Z" fill="black"/>
<path d="M159.661 34.1558C159.804 34.1551 159.943 34.1142 160.063 34.0379C160.183 33.9616 160.28 33.853 160.341 33.7245C160.441 33.5004 160.51 33.2634 160.544 33.0203C160.575 32.8903 160.579 32.7553 160.555 32.6238C160.531 32.4923 160.481 32.3672 160.406 32.2562C160.315 32.1527 160.198 32.0757 160.067 32.0334C159.936 31.9911 159.795 31.985 159.661 32.0158C159.422 32.0642 159.206 32.1921 159.048 32.3788C158.916 32.5668 158.845 32.7913 158.847 33.021C158.841 33.2612 158.889 33.4996 158.987 33.7188C159.047 33.8477 159.142 33.957 159.261 34.0343C159.38 34.1116 159.519 34.1537 159.661 34.1558ZM159.661 34.214C159.327 34.2347 158.994 34.1531 158.707 33.98C158.556 33.8698 158.434 33.7253 158.35 33.5585C158.267 33.3917 158.224 33.2074 158.226 33.0208C158.223 32.8319 158.259 32.6443 158.331 32.4698C158.404 32.2952 158.511 32.1373 158.647 32.0059C158.78 31.878 158.941 31.7834 159.117 31.7297C159.293 31.676 159.48 31.6648 159.661 31.6971C159.992 31.7483 160.3 31.8984 160.544 32.1276C160.806 32.3585 160.978 32.6749 161.028 33.0205C161.049 33.2022 161.021 33.3863 160.948 33.5537C160.874 33.7212 160.757 33.866 160.609 33.9734C160.324 34.1472 159.994 34.2311 159.661 34.214Z" fill="black"/>
<path d="M161.545 37.2542C160.937 37.3561 160.323 37.4244 159.708 37.4589C159.378 37.4734 159.044 37.4905 158.707 37.4818C158.369 37.474 158.032 37.4298 157.705 37.3991L157.671 37.396C157.652 37.3942 157.633 37.3886 157.616 37.3796C157.599 37.3707 157.584 37.3584 157.572 37.3436C157.56 37.3288 157.551 37.3117 157.545 37.2933C157.539 37.2749 157.537 37.2556 157.539 37.2364L157.539 37.2338C157.586 36.8791 157.612 36.5221 157.617 36.1644C157.594 35.7909 157.647 35.4167 157.773 35.0644C157.921 34.6848 158.179 34.358 158.514 34.1257C158.849 33.8934 159.246 33.7662 159.653 33.7602C160.061 33.7543 160.461 33.8699 160.802 34.0923C161.144 34.3147 161.412 34.6339 161.571 35.009C161.725 35.3811 161.77 35.7892 161.701 36.186C161.661 36.5775 161.596 36.9422 161.545 37.2542ZM161.504 37.2135L161.348 36.1428C161.331 35.8268 161.244 35.5184 161.094 35.2397C160.94 34.9788 160.725 34.7594 160.467 34.6007C160.209 34.442 159.917 34.3489 159.614 34.3294C159.297 34.3213 158.984 34.3959 158.704 34.5458C158.425 34.6957 158.189 34.9157 158.02 35.1842C157.844 35.479 157.764 35.8218 157.792 36.1644C157.797 36.522 157.823 36.8791 157.87 37.2338L157.705 37.0685C158.014 37.0379 158.313 36.9937 158.612 36.9859C158.911 36.9772 159.215 36.9943 159.521 37.0088C160.137 37.046 160.779 37.1202 161.504 37.2135Z" fill="black"/>
<path d="M114.847 53.552L114.733 54.1969L115.379 54.3101L115.492 53.6653L114.847 53.552Z" fill="black"/>
<path d="M138.508 58.3546L137.223 58.1301L137.335 57.4853L138.62 57.7098L138.508 58.3546ZM135.937 57.9055L134.652 57.681L134.765 57.0362L136.05 57.2607L135.937 57.9055ZM133.367 57.4565L132.083 57.2319L132.195 56.5871L133.48 56.8116L133.367 57.4565ZM130.797 57.0074L129.512 56.7822L129.626 56.1374L130.911 56.3626L130.797 57.0074ZM128.228 56.5577L126.943 56.3331L127.055 55.6883L128.34 55.9129L128.228 56.5577ZM125.658 56.1086L124.373 55.8841L124.486 55.2392L125.771 55.4638L125.658 56.1086ZM123.088 55.6595L121.803 55.435L121.915 54.7902L123.2 55.0147L123.088 55.6595ZM120.518 55.2098L119.233 54.9853L119.346 54.3404L120.63 54.565L120.518 55.2098ZM117.948 54.7607L116.663 54.5362L116.776 53.8914L118.061 54.1159L117.948 54.7607Z" fill="black"/>
<path d="M139.906 57.9325L139.793 58.5774L140.438 58.6906L140.551 58.0458L139.906 57.9325Z" fill="black"/>
<path d="M112.735 55.8017L112.597 56.4432L113.238 56.5801L113.375 55.9386L112.735 55.8017Z" fill="black"/>
<path d="M135.713 61.3664L134.464 61.1003L134.601 60.4593L135.85 60.7254L135.713 61.3664ZM133.216 60.8348L131.967 60.5687L132.104 59.9277L133.352 60.1938L133.216 60.8348ZM130.719 60.3026L129.47 60.0371L129.607 59.3961L130.855 59.6616L130.719 60.3026ZM128.221 59.771L126.973 59.5049L127.11 58.8639L128.358 59.13L128.221 59.771ZM125.724 59.2387L124.476 58.9733L124.612 58.3323L125.861 58.5977L125.724 59.2387ZM123.227 58.7071L121.979 58.441L122.115 57.8L123.364 58.0662L123.227 58.7071ZM120.73 58.1755L119.481 57.9094L119.618 57.2684L120.867 57.5346L120.73 58.1755ZM118.233 57.6433L116.984 57.3772L117.121 56.7362L118.37 57.0023L118.233 57.6433ZM115.736 57.1117L114.487 56.8456L114.624 56.2046L115.872 56.4707L115.736 57.1117Z" fill="black"/>
<path d="M137.099 60.9899L136.962 61.6315L137.603 61.7684L137.74 61.1268L137.099 60.9899Z" fill="black"/>
<path d="M114.753 59.5779C115.872 59.6417 116.981 59.8286 118.059 60.1353C119.145 60.4141 120.197 60.8131 121.195 61.3249C120.075 61.2624 118.966 61.0754 117.888 60.7674C116.802 60.4872 115.751 60.0883 114.753 59.5779Z" fill="black"/>
</g>
<defs>
<clipPath id="clip0_482_36">
<rect width="249" height="207" fill="white"/>
</clipPath>
</defs>
</svg>
