<svg width="175" height="224" viewBox="0 0 175 224" fill="none" xmlns="http://www.w3.org/2000/svg">
<g clip-path="url(#clip0_482_373)">
<path d="M74.0764 175.793C74.0585 175.831 74.0382 175.867 74.0157 175.902C74.003 175.894 73.9939 175.881 73.9905 175.866C73.9871 175.852 73.9896 175.836 73.9975 175.823C74.0052 175.811 74.0162 175.802 74.0292 175.797C74.0422 175.791 74.0566 175.79 74.0704 175.793H74.0764ZM126.238 177.386C126.228 177.405 126.216 177.423 126.202 177.44L126.171 177.295C126.19 177.293 126.21 177.297 126.226 177.307C126.236 177.317 126.242 177.33 126.244 177.344C126.246 177.358 126.244 177.373 126.238 177.386Z" fill="white"/>
<path d="M36.3862 68.0444L34.1462 72.4345H34.1644C34.657 72.6251 35.174 72.7454 35.7002 72.7917C36.5015 72.8705 37.4424 72.9371 38.4743 72.9795C37.7763 71.3324 37.0721 69.6914 36.3862 68.0444ZM40.9995 68.3713L38.8992 72.9976C40.2893 73.0521 41.8372 73.0824 43.4215 73.0824L40.9995 68.3713ZM48.0471 73.0279L46.0743 68.5167L43.9558 73.0884C45.3216 73.0884 46.7117 73.0764 48.0593 73.0582C48.0593 73.046 48.0532 73.04 48.0471 73.0279ZM50.4145 68.4016L48.5691 73.0218C48.5645 73.0327 48.5583 73.0429 48.5509 73.0521C49.5586 73.034 50.5359 73.0158 51.4525 72.9916L52.8244 73.0339L50.4145 68.4016ZM54.9793 68.0746L53.1947 73.0218C53.1886 73.0279 53.1886 73.04 53.1825 73.046L54.3844 73.0824C54.3844 73.0824 54.3905 73.0218 54.4026 72.9068C56.3816 72.8462 57.6624 72.7917 57.6624 72.7917L54.9793 68.0746ZM59.4106 62.3281C57.6624 53.3905 58.0995 49.9026 58.0995 49.9026C58.1988 48.8865 58.2292 47.8648 58.1905 46.8446C57.9113 46.0453 58.2391 42.7634 58.318 43.2235C58.421 42.671 58.5542 42.0433 58.6897 41.4369C58.8645 40.6532 58.7856 39.8344 58.4643 39.0982C58.143 38.3621 57.5959 37.7467 56.9017 37.3404L44.1136 29.8473C44.1136 29.8473 30.3463 37.259 29.2536 49.6846C28.161 62.1101 27.2869 78.2415 27.2869 78.2415L33.2843 79.2104L34.1462 72.4345L36.2951 67.7294C36.3043 67.7099 36.3189 67.6934 36.3372 67.6818C36.3555 67.6702 36.3767 67.6641 36.3983 67.6641C36.4199 67.6641 36.4411 67.6702 36.4594 67.6818C36.4777 67.6934 36.4923 67.7099 36.5015 67.7294V67.7355C37.242 69.322 37.9644 70.9146 38.6868 72.5071L40.7507 67.6749C40.7787 67.6128 40.8299 67.5641 40.8935 67.5392C40.957 67.5143 41.0278 67.5152 41.0906 67.5417C41.1432 67.565 41.186 67.6056 41.2121 67.6568L41.2181 67.6628L43.6705 72.3496L45.8072 67.6568C45.8233 67.6203 45.8464 67.5874 45.8753 67.56C45.9042 67.5325 45.9383 67.5112 45.9757 67.4971C46.013 67.483 46.0527 67.4764 46.0926 67.4779C46.1325 67.4793 46.1717 67.4886 46.2079 67.5054C46.2754 67.5384 46.3292 67.5942 46.3596 67.6628L48.3021 72.1922L50.1414 67.681H50.1474C50.1725 67.6176 50.2216 67.5667 50.2842 67.5394C50.3468 67.5122 50.4177 67.5108 50.4813 67.5356C50.5393 67.5613 50.5865 67.6063 50.6149 67.6628L52.9883 72.4586L54.8398 67.7355H54.8458C54.851 67.72 54.8592 67.7058 54.8701 67.6937C54.8809 67.6816 54.8942 67.6718 54.909 67.665C54.9238 67.6582 54.9398 67.6545 54.9561 67.6541C54.9724 67.6537 54.9886 67.6567 55.0037 67.6628C55.0295 67.6765 55.0507 67.6976 55.0644 67.7234L57.6624 72.7917C57.6624 72.7917 61.1588 71.2658 59.4106 62.3281ZM36.3861 51.4285C36.2084 52.5924 36.1393 53.7701 36.1797 54.9467C36.1858 55.534 36.2587 56.1093 36.3012 56.7027C36.3619 57.3143 36.4165 57.9319 36.4347 58.5556C36.4896 59.8226 36.3629 61.0909 36.0584 62.3221C35.8865 62.9653 35.6119 63.5766 35.2449 64.1326C35.1443 64.2765 35.0349 64.414 34.9172 64.5444L34.6136 64.8713C34.418 65.0815 34.2336 65.3018 34.0613 65.5314C33.712 65.9842 33.4204 66.4784 33.1932 67.0028C32.9556 67.5352 32.7686 68.0887 32.6347 68.6559C32.4478 69.2111 32.4094 69.8054 32.5233 70.38C32.6372 70.9545 32.8995 71.4895 33.2843 71.9319C32.7568 71.5806 32.37 71.0554 32.1916 70.4483C32.0191 69.8342 31.9696 69.1923 32.0459 68.5591C32.1204 67.9361 32.2545 67.3217 32.4466 66.7243C32.6476 66.1125 32.9293 65.5302 33.2843 64.9925C33.4542 64.726 33.6424 64.4656 33.8367 64.2174L34.1341 63.8601C34.213 63.7633 34.2859 63.6543 34.3587 63.5453C34.6345 63.0751 34.8333 62.5641 34.9475 62.0314C35.1909 60.9021 35.2848 59.7457 35.2267 58.592C35.2146 58.0046 35.1721 57.4112 35.1235 56.8239C35.0932 56.2123 35.0082 55.5825 35.0325 54.9588C35.0369 53.7117 35.1794 52.4688 35.4574 51.2529C35.9711 48.8331 37.0669 46.5742 38.6504 44.6708C37.4966 46.7702 36.7297 49.059 36.3861 51.4285ZM47.4644 39.0575C46.7845 39.2815 46.1228 39.5359 45.4733 39.8083C44.1561 40.3412 42.8995 40.977 41.4912 41.6189C41.8766 40.9415 42.3923 40.3468 43.0088 39.8689C43.6154 39.3835 44.2878 38.9859 45.0059 38.6881C45.7243 38.3833 46.4863 38.1932 47.264 38.1249C48.0422 38.0411 48.8293 38.1174 49.5768 38.349C48.8363 38.6276 48.1381 38.8031 47.4644 39.0575Z" fill="#4087D5"/>
<path d="M70.0096 79.7434C69.7547 78.9501 69.4937 78.1629 69.2326 77.3758C67.9719 73.5185 66.6345 69.6855 65.2202 65.8767C66.1814 69.8228 67.2174 73.7486 68.3281 77.6543C68.5191 78.3446 68.7159 79.0291 68.9126 79.7135L68.923 79.7495H68.9235C69.2815 79.7495 69.6394 79.7495 70.0096 79.7434Z" fill="black"/>
<path d="M75.4424 100.931C76.7091 104.788 78.0466 108.621 79.4549 112.43C78.4978 108.484 77.4639 104.558 76.353 100.652C75.5518 97.7883 74.708 94.9301 73.8521 92.0781C73.4697 92.1265 73.069 92.175 72.6502 92.2234C73.5607 95.13 74.4833 98.0365 75.4424 100.931Z" fill="black"/>
<path d="M28.6424 75.5065C28.8811 77.9973 28.9359 80.4882 28.9458 82.9791C28.9372 85.4699 28.8825 87.9608 28.6424 90.4517C28.4023 87.9608 28.3476 85.4699 28.3391 82.9791C28.3489 80.4882 28.4037 77.9973 28.6424 75.5065ZM73.2035 183.028C71.997 186.281 70.7281 189.508 69.4754 192.741L68.5169 195.163C68.1862 195.984 67.7969 196.781 67.352 197.547C66.4174 198.923 65.8497 200.514 65.7025 202.169C65.6584 202.943 65.8351 203.714 66.2122 204.391C66.6483 205.062 67.204 205.648 67.8517 206.119C69.2096 207.154 70.6337 208.099 72.1149 208.949C75.0893 210.678 78.1826 212.252 81.2937 213.735L80.5835 213.902C81.8613 212.312 83.1581 210.737 84.4564 209.163L84.5839 209.945C82.9186 208.708 81.6433 207.021 80.9091 205.084C80.539 204.136 80.303 203.14 80.2081 202.127C80.0981 201.104 80.1928 200.07 80.4866 199.083C80.7837 198.122 81.2149 197.208 81.7674 196.366L83.268 193.844C84.2671 192.163 85.2655 190.48 86.2904 188.813C85.4165 190.564 84.5163 192.3 83.6167 194.037L82.2692 196.643C82.048 197.084 81.8049 197.505 81.6231 197.934C81.4357 198.365 81.2847 198.81 81.1718 199.266C80.9438 200.17 80.8979 201.11 81.0366 202.032C81.152 202.964 81.3973 203.876 81.7655 204.741C82.1286 205.602 82.6071 206.411 83.188 207.144C83.7501 207.872 84.4162 208.513 85.1652 209.048L85.1719 209.053C85.2306 209.093 85.2807 209.144 85.3195 209.204C85.3582 209.264 85.3849 209.33 85.3978 209.4C85.4108 209.47 85.4098 209.542 85.3949 209.611C85.3801 209.681 85.3517 209.746 85.3113 209.805L85.2926 209.83C84.0385 211.439 82.7827 213.047 81.5079 214.64C81.4253 214.743 81.3105 214.815 81.1817 214.846C81.0529 214.876 80.9177 214.863 80.7976 214.807C77.6223 213.35 74.5234 211.733 71.513 209.961C69.9837 209.079 68.5231 208.084 67.1435 206.983C66.7929 206.694 66.4582 206.386 66.1408 206.062C65.8007 205.719 65.5099 205.332 65.2766 204.91C64.8185 204.056 64.6127 203.089 64.6831 202.122C64.887 200.313 65.5522 198.585 66.6153 197.104C67.4782 195.622 68.2339 194.08 68.8767 192.491C70.3089 189.332 71.7249 186.167 73.2035 183.028Z" fill="#020202"/>
<path d="M60.5041 208.385L63.345 203.589C63.345 203.589 80.3902 211.655 81.0458 214.271C81.0458 214.271 84.4211 208.425 82.7334 206.1C82.7334 206.1 101.369 215.143 103.336 222.119C103.336 222.119 103.336 231.274 60.5041 208.385ZM86.9904 95.7477L87.0802 96.3857C87.0911 96.5967 87.1391 96.8041 87.222 96.9985C87.3862 97.3817 87.6882 97.6897 88.0686 97.8618C88.2533 97.9444 88.4519 97.9914 88.6541 98.0004C88.8436 98.0063 89.1083 97.9883 89.3317 97.9834L90.7307 97.9354C92.5959 97.8648 94.4612 97.812 96.3264 97.777C100.057 97.7063 103.787 97.5887 107.518 97.5564C114.979 97.4627 122.44 97.402 129.901 97.5189L131.27 97.5463C131.49 97.5446 131.705 97.4804 131.89 97.3615C132.076 97.2425 132.223 97.0735 132.316 96.8742C132.385 96.7131 132.429 96.542 132.445 96.3673L132.674 94.9903L133.592 89.4823L134.512 83.9747L135.371 78.4584C136.488 71.0992 137.422 63.7141 138.318 56.3235C138.392 55.913 138.424 55.4958 138.413 55.0787C138.362 54.7513 138.187 54.4561 137.923 54.255C137.67 54.0593 137.353 53.9661 137.034 53.9941C136.715 54.022 136.419 54.1692 136.205 54.4059C136.103 54.521 136.024 54.6542 135.972 54.7985C135.918 54.9698 135.886 55.1475 135.877 55.3269L135.716 56.7135L135.38 59.4846C134.935 63.1798 134.486 66.8745 134.006 70.5651C133.066 77.9487 132.138 85.334 131.109 92.7056L131.01 93.3963C130.99 93.5507 130.961 93.7037 130.922 93.8544C130.877 94.0253 130.815 94.1913 130.737 94.35C130.426 94.9911 129.884 95.4909 129.218 95.7488C128.895 95.8714 128.553 95.9355 128.208 95.9381L127.508 95.9482L126.109 95.9685C124.243 95.9974 122.378 96.0243 120.512 96.0308L109.317 96.1038C105.585 96.1293 101.853 96.0932 98.1223 96.0909C97.1946 96.0827 96.2454 96.0991 95.3353 96.0681L92.6045 95.9646L86.9904 95.7477ZM86.8616 95.6192L92.4392 95.4024L95.3042 95.2988L98.1118 95.1729C101.84 95.0124 105.567 94.8181 109.295 94.6854L120.479 94.2838C122.342 94.2111 124.206 94.159 126.07 94.1087L127.469 94.0697L128.168 94.0502C128.29 94.0501 128.411 94.0269 128.524 93.982C128.736 93.8949 128.908 93.7311 129.004 93.5233C129.028 93.4728 129.047 93.4198 129.06 93.3653C129.077 93.2902 129.089 93.2142 129.097 93.1375L129.186 92.4455C130.162 85.0667 131.239 77.7015 132.305 70.3349C132.828 66.6502 133.382 62.9697 133.94 59.2897L134.355 56.5295L134.571 55.1503C134.603 54.8661 134.672 54.5873 134.777 54.3209C134.898 54.0321 135.073 53.7687 135.292 53.5444C135.73 53.0966 136.322 52.8316 136.949 52.8031C137.567 52.7736 138.174 52.9809 138.645 53.3824C139.112 53.7766 139.41 54.3344 139.478 54.941C139.505 55.2204 139.49 55.5023 139.434 55.7774L139.32 56.466C138.111 63.812 136.94 71.1635 135.951 78.5409L135.231 84.077L134.573 89.6218L133.912 95.1662L133.746 96.5523C133.723 96.842 133.659 97.127 133.555 97.3984C133.435 97.6942 133.261 97.9645 133.04 98.195C132.59 98.6638 131.979 98.9454 131.33 98.983L129.901 99.0176C122.44 99.1346 114.979 99.0738 107.518 98.9801C103.787 98.9478 100.057 98.8302 96.3265 98.7595C94.4612 98.7266 92.5959 98.6738 90.7307 98.6011L89.3317 98.5531C89.089 98.5412 88.8868 98.5458 88.6108 98.5204C88.3473 98.4904 88.0917 98.411 87.8576 98.2864C87.5116 98.1061 87.2251 97.83 87.0326 97.4913C86.84 97.1525 86.7495 96.7656 86.7719 96.3768C86.7931 96.1081 86.832 95.85 86.8616 95.6192ZM76.566 18.4053C76.566 18.4053 65.9673 18.7323 63.345 17.3154C63.345 17.3154 64.2191 13.5005 61.3782 13.8275C58.5373 14.1545 59.6117 19.7133 61.0413 19.7133C61.0413 19.7133 56.8984 23.8551 53.2927 22.6562C53.2927 22.6562 47.6065 7.17875 59.901 3.14591C72.1954 -0.886936 74.927 7.39675 74.927 7.39675C74.927 7.39675 87.1646 13.3915 76.566 18.4053Z" fill="#F79155"/>
<path d="M53.2369 22.632C53.5404 21.9485 54.0301 21.3637 54.6502 20.9441C55.2648 20.5261 55.9417 20.2076 56.6559 20C57.3674 19.7903 58.0951 19.64 58.8316 19.5506C59.572 19.4581 60.3185 19.4221 61.0644 19.4427C61.136 19.445 61.2038 19.4753 61.253 19.5272C61.3023 19.5791 61.3291 19.6482 61.3275 19.7196C61.326 19.7911 61.2962 19.859 61.2447 19.9087C61.1933 19.9584 61.1242 19.9858 61.0526 19.985L61.0411 19.9848C60.8726 19.9752 60.7081 19.9297 60.5585 19.8516C60.409 19.7735 60.2778 19.6645 60.1738 19.5319C59.9895 19.3168 59.8362 19.0772 59.7182 18.8199C59.4893 18.3286 59.3311 17.8075 59.2484 17.272C59.1562 16.7301 59.1459 16.1775 59.2178 15.6325C59.2823 15.0301 59.5285 14.4614 59.9238 14.0015C60.1491 13.7579 60.4248 13.5663 60.7319 13.44C61.028 13.3275 61.3407 13.2647 61.6574 13.2541C61.9858 13.2389 62.314 13.2892 62.6226 13.4022C62.9576 13.5277 63.252 13.7419 63.4743 14.0216C63.8459 14.5311 64.0544 15.1408 64.0725 15.7706C64.1053 16.3345 64.065 16.9003 63.9525 17.4538L63.6418 16.7687C64.0385 16.9457 64.4578 17.0671 64.8879 17.1294C65.3502 17.2109 65.8312 17.2633 66.3152 17.3034C67.2844 17.3876 68.271 17.4271 69.2605 17.4459C71.2449 17.4811 73.2257 17.458 75.2611 17.5206C75.518 17.532 75.7755 17.5462 76.049 17.5762C76.1997 17.5913 76.3493 17.616 76.4968 17.6502C76.6232 17.6786 76.744 17.7278 76.8542 17.7958C76.9242 17.8422 76.9859 17.9 77.0367 17.9669C77.1164 18.0741 77.1613 18.2029 77.1657 18.3363C77.17 18.4697 77.1334 18.6012 77.0608 18.7133L77.0335 18.7561C76.8153 19.1525 76.6339 19.568 76.4915 19.9974C76.1618 20.8897 75.9269 21.8139 75.7906 22.7551C75.7679 22.9199 75.7694 23.087 75.795 23.2514L76.083 23.9337L76.3744 24.6222L76.5221 24.9735C76.6242 25.2214 76.6612 25.4911 76.6295 25.7571C76.5979 26.0232 76.4987 26.2768 76.3413 26.4939C76.135 26.7743 75.8408 26.9779 75.5053 27.0725L74.0709 27.5059L74.3139 27.2823C73.7719 28.4248 73.1355 29.5202 72.4112 30.5573C72.0474 31.08 71.641 31.5717 71.196 32.0275C70.7461 32.5057 70.2045 32.8889 69.6034 33.1544C68.9779 33.368 68.3086 33.4212 67.657 33.3093C67.0283 33.2188 66.4098 33.0682 65.8101 32.8594C64.621 32.45 63.4695 31.9393 62.3683 31.3328L62.6307 31.2828C60.8511 33.6081 59.144 35.99 57.3928 38.3375C57.3399 38.4083 57.2662 38.4608 57.1818 38.4877C57.0975 38.5145 57.0069 38.5144 56.9227 38.4872L56.919 38.4858C55.7327 38.0578 54.5954 37.5054 53.5261 36.8377C52.4582 36.2217 51.432 35.548 50.4058 34.8775C48.37 33.5103 46.3891 32.0706 44.463 30.5586L44.4416 30.5418C44.4046 30.5127 44.3737 30.4767 44.3506 30.4357C44.3275 30.3947 44.3128 30.3496 44.3072 30.3029C44.3016 30.2562 44.3053 30.2089 44.3181 30.1637C44.3308 30.1184 44.3524 30.0761 44.3815 30.0392C44.4051 30.0096 44.433 29.9838 44.4645 29.9627C46.0598 28.9015 47.6336 27.7899 49.1632 26.6276C49.9307 26.0488 50.6653 25.4287 51.3806 24.789C52.1116 24.1742 52.7384 23.4458 53.2369 22.632ZM53.3482 22.6803C52.8511 23.5154 52.2246 24.2669 51.4922 24.9068C50.8062 25.587 50.0755 26.2175 49.357 26.8622C47.9088 28.1409 46.418 29.3642 44.893 30.5595L44.8944 29.9637L51.008 33.9707C52.0197 34.6458 53.0463 35.2963 54.0687 35.9438C54.5808 36.2658 55.0999 36.5745 55.6181 36.8749C56.1155 37.1753 56.6367 37.4347 57.1764 37.6503L56.7028 37.7986C58.5669 35.5393 60.4751 33.3144 62.3108 31.0329C62.3415 30.9948 62.3848 30.9688 62.4329 30.9597C62.481 30.9505 62.5309 30.9588 62.5735 30.9829C63.6355 31.6041 64.7598 32.1127 65.928 32.5005C66.5067 32.6908 67.1024 32.8252 67.7069 32.9017C68.2882 32.9934 68.8833 32.9388 69.438 32.7428C69.9715 32.4905 70.4433 32.1251 70.8206 31.6721C71.2223 31.2184 71.5859 30.7325 71.9075 30.2192C72.5568 29.186 73.1141 28.098 73.5732 26.9678C73.5937 26.9179 73.6245 26.8727 73.6635 26.8352C73.7024 26.7978 73.7488 26.7688 73.7996 26.7502L73.8163 26.7441L75.2246 26.2323C75.369 26.1902 75.4945 26.0996 75.5796 25.9758C75.6647 25.8519 75.7042 25.7025 75.6915 25.5529C75.6847 25.4826 75.6661 25.4138 75.6364 25.3497L75.482 25.0173L75.1657 24.3398L74.8471 23.6557C74.7769 23.4826 74.7382 23.2984 74.7325 23.1118C74.7244 22.966 74.7254 22.8198 74.7355 22.6741C74.8423 21.6359 75.0713 20.6138 75.4178 19.629C75.5778 19.1082 75.7903 18.605 76.0521 18.127C76.0579 18.1169 76.0881 18.0717 76.0741 18.0906C76.0255 18.1654 75.999 18.2524 75.9977 18.3415C75.9944 18.4572 76.0299 18.5706 76.0988 18.6638C76.129 18.7073 76.1677 18.7442 76.2126 18.7723C76.2838 18.8149 76.2482 18.7914 76.2203 18.7888C76.1238 18.77 76.0263 18.7568 75.9283 18.7492C75.7048 18.7293 75.4631 18.7203 75.2209 18.7148C73.2621 18.6838 71.247 18.7846 69.2369 18.7363C68.2294 18.7179 67.2183 18.6861 66.1976 18.5926C65.6872 18.5413 65.175 18.4776 64.6553 18.377C64.0972 18.2848 63.5557 18.1113 63.0481 17.8621C62.9299 17.8004 62.8351 17.7019 62.7783 17.5816C62.7214 17.4612 62.7055 17.3256 62.7331 17.1954L62.7372 17.1768C62.9162 16.3379 62.9315 15.2657 62.5509 14.7399C62.4473 14.61 62.3131 14.5077 62.1603 14.4422C62.0075 14.3767 61.8407 14.3499 61.675 14.3644C61.4915 14.3485 61.3068 14.3706 61.1322 14.4293C60.9577 14.488 60.7973 14.5821 60.661 14.7056C60.3959 15.0547 60.2037 15.4533 60.0956 15.8778C59.9876 16.3023 59.966 16.7441 60.032 17.1771C60.0652 17.6482 60.1645 18.1124 60.3272 18.5559C60.474 18.9786 60.7765 19.4229 61.0411 19.4417L61.0178 19.9838C60.3024 19.9117 59.5826 19.8937 58.8645 19.9297C58.1415 19.9564 57.4232 20.0576 56.7212 20.232C56.0172 20.3969 55.3471 20.6819 54.7403 21.0742C54.1347 21.4691 53.6524 22.0255 53.3482 22.6803Z" fill="#020202"/>
<path d="M52.1096 12.7401C52.1096 12.7401 42.8032 7.0357 50.8888 2.0389C58.9744 -2.95791 59.901 3.14587 59.901 3.14587" fill="#F79155"/>
<path d="M61.2448 23.0784L61.3782 21.3481C61.0979 21.871 60.8955 22.4319 60.7774 23.0131C60.6471 23.5961 60.5905 24.1931 60.6091 24.7901C60.629 25.3962 60.7492 25.9948 60.9649 26.5617C61.1873 27.1262 61.5562 27.6216 62.0338 27.9969C61.7615 27.4988 61.5539 26.9681 61.416 26.4176C61.2994 25.8749 61.2322 25.3228 61.2153 24.768C61.1955 24.2047 61.2053 23.6407 61.2448 23.0784Z" fill="#020202"/>
<path d="M29.7543 46.8035C27.2833 46.5422 24.791 46.5535 22.3225 46.8371C19.8773 47.0944 17.4792 47.6861 15.1957 48.5955L14.3533 48.9466L13.5441 49.3633C13.278 49.5078 12.9973 49.6267 12.7437 49.7915L11.9796 50.278C10.9714 50.9062 10.0611 51.6787 9.27808 52.5709C7.72319 54.3606 6.71201 56.5553 6.36315 58.8979C6.18547 60.0605 6.17003 61.2421 6.31728 62.409C6.46958 63.5386 6.78565 64.7996 7.01451 66.0138C7.50676 68.4602 7.99795 70.9068 8.45475 73.3601C9.38343 78.2702 10.1909 83.1837 11.1676 88.0712C13.0713 97.8639 15.3871 107.572 17.8653 117.237C20.3067 126.705 22.6882 136.187 25.0097 145.683C27.4216 146.061 29.8482 146.412 32.2711 146.75C34.8886 147.125 37.5072 147.493 40.1291 147.833C45.3688 148.545 50.6166 149.179 55.8725 149.735C61.1276 150.287 66.3966 150.689 71.6671 150.866C74.2983 150.957 76.9326 150.906 79.5582 150.713C80.8654 150.621 82.1635 150.427 83.4405 150.134C84.0731 149.983 84.6914 149.778 85.2887 149.521C85.8884 149.281 86.4239 148.904 86.8529 148.422C86.8602 148.412 86.8694 148.404 86.8798 148.398C86.8902 148.392 86.9017 148.389 86.9135 148.387C86.9254 148.386 86.9374 148.387 86.949 148.39C86.9605 148.393 86.9713 148.398 86.9807 148.406C86.9986 148.421 87.0103 148.441 87.0137 148.464C87.0171 148.487 87.0119 148.51 86.9991 148.53C86.5872 149.076 86.0536 149.52 85.4405 149.825C84.8418 150.137 84.2152 150.393 83.5687 150.589C82.2838 150.973 80.9707 151.256 79.6415 151.436C76.9957 151.785 74.3309 151.971 71.6622 151.993C66.3338 152.107 61.0198 151.79 55.7216 151.403C50.4211 151.017 45.1418 150.425 39.8749 149.761C37.2436 149.41 34.6143 149.048 31.99 148.651C29.366 148.242 26.7505 147.819 24.1274 147.359L24.1174 147.358C23.9451 147.327 23.7856 147.247 23.6587 147.127C23.5318 147.007 23.443 146.853 23.4035 146.683C21.1529 136.961 19.0048 127.216 16.9592 117.448C14.9079 107.68 12.6869 97.9512 10.2961 88.2617C9.70434 85.8385 9.1268 83.4022 8.58256 80.9639C8.03924 78.5297 7.46628 76.1017 6.94746 73.663C6.41271 71.2276 5.91235 68.7853 5.41313 66.3428C5.17079 65.1087 4.89967 63.9401 4.72349 62.5971C4.57318 61.2838 4.60593 59.9561 4.8208 58.6518C5.25013 56.0318 6.43718 53.5939 8.23617 51.6375C9.1239 50.6686 10.161 49.8472 11.3084 49.2044L12.1473 48.7207C12.4256 48.5576 12.7283 48.4424 13.0173 48.3015L13.8933 47.8982L14.7962 47.5658C17.1962 46.7042 19.7135 46.2112 22.2619 46.1037C24.7824 45.9658 27.3103 46.1408 29.7875 46.6248C29.8103 46.6296 29.8305 46.6429 29.8437 46.6621C29.857 46.6812 29.8624 46.7047 29.8588 46.7277C29.8552 46.7507 29.8429 46.7715 29.8244 46.7857C29.8059 46.7999 29.7827 46.8064 29.7594 46.804L29.7543 46.8035Z" fill="#020202"/>
<path d="M27.3381 131.58C26.0214 127.42 24.8455 123.228 23.7564 119.015C22.6682 114.802 21.6262 110.577 20.7503 106.315L19.5326 99.8986C19.1393 97.7572 18.7431 95.6167 18.2937 93.4882C17.4101 89.2276 16.3454 85.0091 15.3409 80.7646C14.3056 76.5366 13.3149 72.3012 12.3994 68.051L11.7066 64.8647C11.432 63.7599 11.2525 62.6337 11.1701 61.4984C11.049 59.1583 11.5172 56.8251 12.5317 54.7116C13.5665 52.6039 15.1358 50.8027 17.0838 49.4867C18.989 48.2506 21.0851 47.3357 23.2881 46.7787C27.6095 45.717 32.1182 45.6634 36.4637 46.6221C36.4863 46.6269 36.5062 46.6401 36.5194 46.659C36.5326 46.6779 36.5381 46.7011 36.5348 46.7239C36.5314 46.7467 36.5195 46.7674 36.5014 46.7818C36.4833 46.7961 36.4605 46.8031 36.4374 46.8012L36.4306 46.8007C32.1367 46.4163 27.8089 46.8752 23.692 48.1514C21.6965 48.7916 19.8092 49.7285 18.0939 50.9304C16.455 52.126 15.1444 53.7143 14.2834 55.5486C13.423 57.3842 13.0061 59.3955 13.0663 61.4209C13.1136 62.4571 13.2502 63.4874 13.4746 64.5002L14.0775 67.7083C14.8897 71.9839 15.6267 76.2745 16.3191 80.5724C17.0089 84.8608 17.8591 89.1231 18.8697 93.3591L19.6666 96.523L20.521 99.6737L22.2274 105.975C23.3094 110.189 24.2389 114.437 25.1309 118.695C26.0222 122.953 26.8354 127.23 27.5153 131.538C27.5189 131.561 27.5138 131.584 27.5009 131.603C27.4881 131.622 27.4685 131.635 27.4461 131.641C27.4236 131.646 27.4 131.643 27.38 131.631C27.36 131.62 27.345 131.601 27.3381 131.58Z" fill="#020202"/>
<path d="M18.109 120.325C19.5404 121.961 20.9297 123.577 22.3431 125.16C23.7567 126.74 25.2127 128.263 26.7239 129.708C28.2172 131.153 29.8383 132.46 31.5675 133.614C33.3146 134.784 35.2763 135.599 37.3399 136.012C35.1168 136.3 32.8587 135.895 30.8756 134.852C28.8869 133.861 27.0636 132.57 25.4699 131.024C23.8906 129.508 22.4702 127.836 21.2308 126.033C19.9709 124.258 18.9232 122.342 18.109 120.325ZM24.3631 146.508C22.419 152.507 20.4034 158.476 18.3162 164.416L15.1865 173.327C14.1482 176.298 13.0828 179.26 11.9903 182.212C9.79856 188.113 7.52949 193.991 5.55152 199.968C4.58241 202.961 3.66482 205.973 2.87396 209.015C2.48791 210.537 2.10178 212.062 1.82162 213.601C1.4815 215.096 1.31527 216.626 1.32623 218.16L0.409562 217.99C2.98637 212.106 5.56906 206.223 8.20895 200.369L16.1004 182.795L24.1271 165.287C25.4482 162.363 26.8207 159.458 28.095 156.516C29.4024 153.583 30.6802 150.645 31.8069 147.64L31.8087 147.635C31.8169 147.613 31.8333 147.595 31.8544 147.585C31.8755 147.575 31.8998 147.573 31.9221 147.581C31.9444 147.588 31.963 147.603 31.9741 147.624C31.9852 147.645 31.9878 147.669 31.9816 147.691C31.5495 149.24 31.1114 150.798 30.5699 152.312L29.793 154.6L28.9537 156.863C28.3971 158.373 27.823 159.876 27.2314 161.371C26.6477 162.87 26.0711 164.372 25.4514 165.855C23.0459 171.821 20.4739 177.713 17.8769 183.592C15.2546 189.461 12.5004 195.268 9.75504 201.079C7.01179 206.891 4.17236 212.657 1.28166 218.399L1.26182 218.439C1.2141 218.534 1.13577 218.61 1.03945 218.655C0.943137 218.7 0.834446 218.711 0.730877 218.687C0.627308 218.663 0.53489 218.605 0.468519 218.522C0.402147 218.439 0.365679 218.336 0.36499 218.23C0.41412 216.612 0.656039 215.006 1.08564 213.445C1.45258 211.902 1.86326 210.378 2.29273 208.859C3.15112 205.822 4.0635 202.805 4.98086 199.789C6.79558 193.752 8.58948 187.704 10.5489 181.71C12.5408 175.728 14.7288 169.815 16.9962 163.934C19.2662 158.054 21.6428 152.214 24.1931 146.443C24.2025 146.422 24.2198 146.405 24.2414 146.396C24.263 146.387 24.2873 146.386 24.3091 146.395C24.331 146.403 24.3488 146.42 24.3588 146.441C24.3689 146.462 24.3704 146.486 24.3631 146.508ZM39.391 148.711C39.444 152.532 39.3227 156.338 39.1767 160.143C39.1 162.044 39.0071 163.945 38.8982 165.844C38.8029 167.744 38.6725 169.642 38.5071 171.537C38.1849 175.328 37.6836 179.111 37.4512 182.909C37.3353 184.808 37.2681 186.709 37.2618 188.608C37.2709 189.558 37.2692 190.508 37.3268 191.452C37.354 191.923 37.3867 192.394 37.4365 192.855C37.4618 193.085 37.4913 193.315 37.5323 193.529C37.5503 193.63 37.5741 193.729 37.6036 193.826C37.6124 193.857 37.6246 193.887 37.6401 193.916C37.6455 193.927 37.6436 193.916 37.6279 193.896C37.6 193.861 37.5655 193.833 37.5263 193.812C37.4871 193.791 37.4441 193.778 37.3999 193.774L37.7757 194.065C37.7905 194.088 37.8487 194.172 37.8757 194.18C37.9108 194.199 37.8998 194.191 37.8946 194.179C37.9845 194.117 38.0667 194.045 38.1395 193.964C38.4067 193.615 38.6304 193.236 38.8059 192.834C39.1854 191.955 39.5111 191.054 39.7811 190.136C40.3431 188.282 40.8319 186.388 41.2844 184.485C42.1773 180.673 42.9329 176.818 43.6992 172.964L46.0587 161.398C46.8591 157.541 47.6684 153.682 48.5775 149.835C48.5827 149.813 48.5962 149.793 48.6153 149.78C48.6344 149.768 48.6576 149.762 48.6804 149.766C48.7032 149.769 48.7238 149.781 48.7381 149.799C48.7524 149.817 48.7594 149.84 48.7575 149.863C48.443 153.803 48.0191 157.728 47.4857 161.64C46.9652 165.554 46.3413 169.453 45.614 173.338C44.8599 177.217 43.9834 181.077 42.9315 184.905C42.4015 186.817 41.8414 188.727 41.1173 190.599C40.7638 191.552 40.342 192.478 39.8552 193.37C39.5942 193.853 39.271 194.299 38.8937 194.698C38.6301 194.983 38.2641 195.153 37.8756 195.169C37.6332 195.162 37.4025 195.064 37.229 194.895C37.086 194.76 36.975 194.595 36.9043 194.411L37.2799 194.702C37.1321 194.679 36.9986 194.601 36.9066 194.483C36.865 194.43 36.8304 194.372 36.8039 194.31C36.7694 194.23 36.7424 194.148 36.7233 194.063C36.6932 193.93 36.6709 193.795 36.6564 193.66C36.6272 193.404 36.6145 193.159 36.6054 192.914C36.589 192.427 36.5911 191.946 36.5986 191.466C36.6212 190.506 36.633 189.552 36.6726 188.599L36.8389 182.884C36.9258 179.075 36.8435 175.255 36.9747 171.446C37.0353 169.541 37.1423 167.64 37.2956 165.741C37.4319 163.841 37.5928 161.943 37.7783 160.047C38.1552 156.256 38.579 152.468 39.2095 148.697C39.2132 148.675 39.2253 148.654 39.2433 148.64C39.2612 148.626 39.2838 148.619 39.3066 148.621C39.3294 148.623 39.3507 148.633 39.3663 148.65C39.3819 148.666 39.3908 148.688 39.391 148.711ZM93.817 191.552C94.8259 194.029 95.6518 196.553 96.4419 199.085C97.2179 201.621 97.9673 204.163 98.5471 206.751C99.1149 209.341 99.5418 211.973 100.247 214.527C100.589 215.807 100.977 217.073 101.409 218.325C101.617 218.952 101.865 219.567 102.106 220.179C102.228 220.484 102.353 220.788 102.485 221.081C102.55 221.228 102.618 221.373 102.688 221.505C102.723 221.575 102.759 221.631 102.792 221.685C102.804 221.699 102.828 221.732 102.828 221.732C102.824 221.722 102.818 221.713 102.81 221.707C102.802 221.7 102.817 221.715 102.791 221.691C102.765 221.667 102.736 221.647 102.705 221.632C102.641 221.599 102.569 221.584 102.497 221.588C102.481 221.59 102.465 221.597 102.454 221.61C102.443 221.622 102.437 221.639 102.438 221.655C102.438 221.672 102.446 221.688 102.458 221.699C102.47 221.711 102.487 221.717 102.503 221.717L102.834 221.709C102.847 221.709 102.932 221.72 102.889 221.702C102.852 221.696 102.831 221.707 102.864 221.66C102.951 221.45 103.002 221.226 103.014 220.999C103.056 220.406 103.049 219.811 102.993 219.219C102.896 217.99 102.709 216.742 102.497 215.498C102.051 213.009 101.496 210.525 100.968 208.031C100.456 205.533 99.908 203.037 99.413 200.524C98.9117 198.012 98.4233 195.492 98.0252 192.943C98.0215 192.921 98.0262 192.898 98.0384 192.879C98.0506 192.86 98.0694 192.847 98.0911 192.841C98.1129 192.835 98.1361 192.837 98.1563 192.847C98.1766 192.857 98.1924 192.874 98.2007 192.895C99.1601 195.29 100.023 197.716 100.79 200.172C101.567 202.625 102.255 205.105 102.854 207.612C103.448 210.13 103.905 212.678 104.221 215.246C104.392 216.548 104.485 217.858 104.499 219.171C104.501 219.861 104.434 220.549 104.299 221.225C104.223 221.635 104.058 222.023 103.816 222.362C103.719 222.489 103.596 222.595 103.456 222.673C103.316 222.752 103.162 222.8 103.002 222.817C102.843 222.829 102.682 222.805 102.533 222.747C102.397 222.696 102.271 222.622 102.16 222.529L102.497 222.649C102.359 222.641 102.227 222.591 102.119 222.505C102.105 222.494 102.091 222.481 102.079 222.467C102.045 222.429 102.012 222.388 101.981 222.346C101.936 222.279 101.919 222.237 101.887 222.181C101.845 222.088 101.804 221.997 101.775 221.914C101.708 221.744 101.653 221.581 101.601 221.418C101.496 221.092 101.402 220.77 101.312 220.447L100.791 218.515C100.445 217.231 100.082 215.955 99.69 214.687C98.9269 212.146 97.9363 209.667 97.1044 207.143C96.2859 204.616 95.6572 202.037 95.0687 199.449C94.4947 196.857 93.9679 194.253 93.6408 191.598C93.638 191.576 93.6435 191.554 93.656 191.535C93.6685 191.517 93.6873 191.504 93.7089 191.498C93.7304 191.493 93.7533 191.495 93.7732 191.505C93.7931 191.515 93.8086 191.532 93.817 191.552Z" fill="#020202"/>
<path d="M145.489 135.673C145.359 126.218 145.21 116.762 144.874 107.307C144.873 107.284 144.863 107.261 144.846 107.245C144.829 107.229 144.807 107.219 144.783 107.219C144.759 107.219 144.737 107.229 144.72 107.245C144.703 107.261 144.693 107.284 144.692 107.307C144.356 116.762 144.207 126.218 144.077 135.673C143.977 145.128 143.919 154.584 144.025 164.039L144.276 178.222C144.37 182.95 144.458 187.677 144.488 192.405C144.523 196.939 144.494 201.474 144.466 206.009L144.463 206.588L144.443 210.134L144.418 211.906L144.411 212.35C144.408 212.476 144.395 212.602 144.372 212.726C144.301 213.092 144.13 213.431 143.879 213.707C143.628 213.982 143.306 214.184 142.948 214.289C142.702 214.355 142.447 214.381 142.193 214.365L141.304 214.351L137.75 214.298L134.195 214.237L132.418 214.206L132.198 214.202C132.142 214.201 132.085 214.197 132.03 214.19C131.921 214.178 131.814 214.155 131.71 214.122C131.497 214.052 131.297 213.947 131.119 213.811C130.771 213.541 130.538 213.151 130.463 212.718C130.445 212.609 130.436 212.499 130.437 212.389L130.436 211.946L130.434 211.06L130.408 207.514L130.275 193.33C130.159 183.876 130.057 174.421 129.854 164.967C129.405 146.062 128.837 127.159 127.902 108.262C127.9 108.239 127.89 108.216 127.873 108.2C127.856 108.184 127.833 108.175 127.809 108.176C127.785 108.176 127.763 108.186 127.746 108.203C127.729 108.219 127.72 108.242 127.72 108.266C127.499 127.184 127.646 146.095 127.912 165.004C128.066 174.458 128.321 183.91 128.562 193.362L128.964 207.54L129.07 211.084L129.101 211.97L129.117 212.413C129.123 212.599 129.145 212.784 129.183 212.966C129.337 213.705 129.763 214.361 130.376 214.805C130.676 215.02 131.012 215.181 131.367 215.282C131.547 215.332 131.732 215.364 131.919 215.379C132.011 215.386 132.102 215.389 132.194 215.388L132.418 215.385L134.195 215.354L137.75 215.293L141.304 215.239L142.193 215.226C142.532 215.233 142.87 215.186 143.194 215.087C143.859 214.871 144.421 214.419 144.772 213.817C144.946 213.52 145.062 213.194 145.117 212.855C145.143 212.688 145.156 212.519 145.155 212.35L145.148 211.906L145.123 210.134L145.103 206.588L145.1 205.997C145.072 201.466 145.044 196.936 145.078 192.405C145.108 187.677 145.196 182.95 145.29 178.222L145.541 164.039C145.647 154.584 145.589 145.128 145.489 135.673Z" fill="#4087D5"/>
<path d="M172.367 98.2684H98.5526C97.2116 98.2684 96.1245 99.3528 96.1245 100.691V105.338C96.1245 106.676 97.2116 107.76 98.5526 107.76H172.367C173.708 107.76 174.795 106.676 174.795 105.338V100.691C174.795 99.3528 173.708 98.2684 172.367 98.2684Z" fill="#4087D5"/>
<path d="M71.3038 28.815C71.3026 29.2128 71.1538 29.596 70.8861 29.8909C70.6184 30.1857 70.2508 30.3712 69.8541 30.4117C69.6364 30.4329 69.4168 30.4091 69.2087 30.3419C69.0007 30.2748 68.8087 30.1656 68.6448 30.0213C68.4739 29.8698 68.3371 29.684 68.2434 29.476C68.1497 29.2681 68.1012 29.0427 68.1011 28.8147C68.101 28.5867 68.1494 28.3612 68.2429 28.1532C68.3364 27.9452 68.4731 27.7592 68.6438 27.6077C68.8078 27.463 68.9998 27.3536 69.2081 27.2863C69.4163 27.219 69.6362 27.1953 69.8541 27.2166C70.2509 27.2575 70.6186 27.4433 70.8862 27.7384C71.1539 28.0335 71.3026 28.417 71.3038 28.815ZM71.3038 28.815C71.3026 28.6269 71.2614 28.4412 71.183 28.2701C71.1046 28.099 70.9908 27.9464 70.8491 27.8224C70.7133 27.7059 70.5547 27.6189 70.3834 27.567C70.2121 27.5151 70.0318 27.4994 69.8541 27.521C69.5376 27.5602 69.2464 27.7135 69.0352 27.9519C68.8241 28.1904 68.7076 28.4976 68.7076 28.8157C68.7076 29.1339 68.8241 29.4411 69.0352 29.6795C69.2464 29.9179 69.5376 30.0712 69.8541 30.1105C70.0319 30.1318 70.2123 30.116 70.3837 30.0638C70.5551 30.0117 70.7137 29.9245 70.8494 29.8078C70.991 29.6837 71.1048 29.531 71.1831 29.3599C71.2614 29.1888 71.3026 29.0031 71.3038 28.815ZM72.8842 22.4367C73.0612 22.4306 73.229 22.3562 73.3521 22.2291C73.4751 22.102 73.5439 21.9322 73.5439 21.7555C73.5439 21.5788 73.4751 21.409 73.3521 21.2819C73.229 21.1548 73.0612 21.0804 72.8842 21.0743C72.7072 21.0804 72.5394 21.1548 72.4164 21.2819C72.2933 21.409 72.2245 21.5788 72.2245 21.7555C72.2245 21.9322 72.2933 22.102 72.4164 22.2291C72.5394 22.3562 72.7072 22.4306 72.8842 22.4367ZM72.3414 18.9822C72.6666 18.97 72.9913 19.0182 73.2989 19.1242C73.6065 19.2223 73.8992 19.3616 74.1692 19.5382C74.445 19.7187 74.6882 19.9444 74.8887 20.2057C75.0979 20.4691 75.2223 20.7895 75.2455 21.1248C74.8108 20.7197 74.3381 20.3573 73.8338 20.0425C73.3161 19.7183 72.8177 19.3643 72.3414 18.9822ZM34.7155 90.5122L27.3485 90.602L27.4918 90.498C26.2833 94.6671 25.3706 98.9159 24.7604 103.213C24.0973 107.491 23.8759 111.826 24.0997 116.149C24.2109 118.297 24.5292 120.429 25.0502 122.516C25.5499 124.589 26.342 126.581 27.4026 128.432C28.4585 130.268 29.9109 131.846 31.6543 133.052C33.4126 134.23 35.3781 135.067 37.4476 135.517L37.4925 135.529L37.5081 135.534C39.6585 136.183 41.8478 136.695 44.0629 137.069C46.286 137.466 48.5261 137.777 50.7738 138.027C55.2732 138.539 59.7959 138.822 64.3242 138.875C65.4564 138.911 66.5892 138.907 67.7222 138.893L71.1211 138.866L74.5196 138.761L76.2191 138.706L77.9168 138.605L81.3126 138.404C82.4447 138.336 83.5757 138.214 84.7073 138.122L88.1023 137.827L91.5144 137.641L91.5199 137.641C91.5635 137.638 91.6071 137.645 91.6483 137.659C91.6895 137.673 91.7275 137.696 91.76 137.725C91.7925 137.754 91.819 137.789 91.8378 137.828C91.8567 137.868 91.8677 137.91 91.8701 137.954C91.8727 138.006 91.8632 138.058 91.8423 138.106C90.2023 141.819 88.542 145.521 86.8616 149.214C85.1994 152.915 83.5155 156.607 81.81 160.289C80.0971 163.968 78.3554 167.634 76.5849 171.287C75.6905 173.109 74.78 174.924 73.8196 176.716C73.3381 177.611 72.8458 178.501 72.3183 179.375C72.0525 179.811 71.7792 180.243 71.481 180.665C71.3302 180.879 71.1685 181.085 70.9965 181.282C70.9061 181.386 70.8077 181.484 70.702 181.573C70.5715 181.695 70.4056 181.772 70.2281 181.794L70.3286 181.375C73.5356 182.97 76.8039 184.454 80.0882 185.888C83.3763 187.315 86.696 188.67 90.0569 189.904C93.4002 191.167 96.8201 192.217 100.296 193.05C102.015 193.462 103.769 193.71 105.535 193.788C106.389 193.827 107.244 193.743 108.074 193.537C108.453 193.461 108.811 193.307 109.127 193.086C109.443 192.864 109.71 192.58 109.91 192.251L109.87 192.353L111.365 186.459C111.393 186.349 111.456 186.253 111.545 186.184C111.634 186.115 111.744 186.077 111.857 186.077L111.866 186.078C114.57 186.086 117.288 186.011 119.983 185.842C121.33 185.752 122.677 185.638 123.996 185.438C124.647 185.345 125.292 185.216 125.929 185.049C126.226 184.971 126.517 184.868 126.797 184.742C126.984 184.676 127.15 184.562 127.278 184.412L127.251 184.749L123.38 167.647L119.542 150.537C119.517 150.426 119.523 150.31 119.558 150.202L119.562 150.191C120.875 146.263 121.916 142.25 122.677 138.18C123.057 136.151 123.327 134.104 123.485 132.046C123.66 130.008 123.628 127.957 123.389 125.925C123.262 124.929 123.045 123.947 122.741 122.989C122.437 122.058 121.99 121.18 121.416 120.386C120.82 119.621 120.066 118.992 119.206 118.541C118.772 118.282 118.321 118.052 117.856 117.853L117.164 117.527L116.445 117.244C112.554 115.783 108.574 114.569 104.529 113.611C96.4287 111.612 88.2313 109.961 80.0145 108.438L76.9307 107.877C76.4165 107.784 75.904 107.699 75.3823 107.576L74.6036 107.404L73.8413 107.17C70.8043 106.208 68.1131 104.385 66.095 101.925C64.0768 99.4654 62.8187 96.4735 62.4736 93.3134C62.5954 93.3064 62.5098 93.3252 62.5382 93.3299L62.5424 93.3539L62.551 93.4018L62.5682 93.4977L62.6026 93.6895L62.6712 94.0729C62.71 94.3296 62.7616 94.5841 62.8259 94.8355C62.945 95.3404 63.0897 95.8389 63.2595 96.3291L63.5186 97.062C63.6132 97.303 63.7272 97.5365 63.8303 97.7739C64.0379 98.2482 64.2724 98.7102 64.5329 99.1578C65.5575 100.958 66.9232 102.543 68.5539 103.823C70.1666 105.112 72.0186 106.071 74.0037 106.644L74.7436 106.858L75.4986 107.012C75.9962 107.123 76.5166 107.201 77.0324 107.286L80.1278 107.798C88.3761 109.197 96.614 110.697 104.766 112.647C108.869 113.578 112.909 114.768 116.86 116.21L117.602 116.495L118.332 116.829C118.829 117.037 119.312 117.278 119.778 117.549C120.776 118.068 121.652 118.791 122.35 119.671C123.012 120.563 123.53 121.553 123.886 122.604C124.222 123.633 124.461 124.691 124.598 125.765C124.853 127.879 124.892 130.012 124.714 132.134C124.557 134.236 124.286 136.329 123.902 138.402C123.138 142.538 122.09 146.616 120.763 150.607L120.783 150.261L124.593 167.377L128.371 184.499L128.38 184.539C128.402 184.639 128.389 184.744 128.344 184.837C128.121 185.271 127.742 185.605 127.283 185.773C126.943 185.925 126.59 186.049 126.229 186.142C125.549 186.317 124.858 186.453 124.162 186.548C122.789 186.748 121.421 186.856 120.053 186.941C117.316 187.104 114.589 187.13 111.851 187.094L112.352 186.714L110.788 192.59L110.786 192.597C110.777 192.631 110.764 192.663 110.748 192.693C110.484 193.133 110.131 193.513 109.712 193.81C109.293 194.107 108.817 194.315 108.314 194.419C107.397 194.638 106.453 194.723 105.511 194.67C103.689 194.569 101.881 194.294 100.111 193.848C96.6124 192.967 93.173 191.867 89.8136 190.553C83.0914 187.98 76.5562 184.983 70.1277 181.77C70.0857 181.749 70.0515 181.715 70.0301 181.673C70.0087 181.632 70.0012 181.584 70.0087 181.538C70.0162 181.492 70.0383 181.449 70.0717 181.416C70.1052 181.383 70.1483 181.362 70.1948 181.355L70.2282 181.351C70.3998 181.263 70.5502 181.14 70.6687 180.988C70.8308 180.804 70.9833 180.611 71.1256 180.411C71.4154 180.005 71.6866 179.581 71.9509 179.152C72.4759 178.291 72.97 177.408 73.4533 176.519C74.418 174.739 75.3354 172.931 76.2367 171.116C78.0441 167.486 79.7564 163.809 81.4401 160.12C83.1254 156.431 84.7856 152.73 86.4207 149.018C88.0443 145.302 89.6469 141.577 91.2283 137.842L91.5562 138.307L88.1638 138.544L84.7717 138.891C83.6399 139 82.5124 139.139 81.3771 139.224L77.9706 139.477L76.267 139.604L74.5605 139.685L71.1464 139.841C70.0079 139.883 68.8679 139.882 67.7285 139.899C66.589 139.919 65.4495 139.928 64.3096 139.897C59.7463 139.865 55.1875 139.602 50.651 139.108C48.382 138.853 46.1225 138.519 43.8724 138.104C41.6069 137.709 39.3689 137.17 37.1723 136.49L37.2325 136.507C35.0358 136.016 32.9524 135.114 31.0924 133.849C29.2454 132.554 27.7095 130.867 26.5956 128.909C25.495 126.976 24.684 124.893 24.1883 122.726C23.6856 120.582 23.3909 118.394 23.3084 116.193C23.1446 111.819 23.4313 107.439 24.164 103.122C24.8634 98.8145 25.8799 94.564 27.2052 90.4052C27.2149 90.3749 27.234 90.3484 27.2598 90.3297C27.2856 90.311 27.3168 90.301 27.3487 90.3012L34.7156 90.391C34.7316 90.3912 34.7468 90.3977 34.758 90.409C34.7692 90.4204 34.7755 90.4356 34.7755 90.4515C34.7755 90.4675 34.7692 90.4827 34.758 90.4941C34.7468 90.5054 34.7314 90.5119 34.7155 90.5122ZM62.2667 79.318C62.5358 77.4468 62.7709 75.5987 62.9405 73.7394C63.1171 71.8819 63.2279 70.0218 63.3822 68.1584C63.5529 66.2964 63.7477 64.4221 63.7688 62.5437C63.7721 60.6648 63.656 58.7877 63.4212 56.9234L62.7366 51.3348L62.0202 45.7579L61.6927 42.965L61.5304 41.5674L61.4519 40.8677L61.3583 40.2038C61.2459 39.3409 60.8938 38.5266 60.3419 37.8528C60.0471 37.5388 59.6796 37.3017 59.2715 37.1626C58.8364 37.029 58.3792 36.982 57.9259 37.0242L57.9014 36.9056C58.3808 36.7403 58.8943 36.6987 59.3942 36.7846C59.8941 36.8705 60.3641 37.0811 60.7605 37.3968C61.5209 38.0875 62.0563 38.9897 62.2977 39.987C62.7489 41.8894 63.023 43.7106 63.3074 45.591C63.5649 47.461 63.7287 49.3427 63.8701 51.2248C64.0256 53.1058 64.081 54.9954 64.0788 56.884C64.0864 58.7722 64.0891 60.6553 64.1636 62.538C64.2392 64.4203 64.3934 66.3087 64.3936 68.2041C64.3685 70.1008 64.1943 71.9926 63.8724 73.862C63.5753 75.7394 63.0762 77.5794 62.3838 79.3501L62.2667 79.318Z" fill="#020202"/>
<path d="M54.4458 73.085L54.5407 76.9361H54.2294L54.1514 73.085L54.3775 73.318C51.0013 73.2894 47.6271 73.2007 44.2519 73.1426C40.8767 73.0841 37.5022 73.0069 34.1282 72.911L34.6142 72.5219C34.169 75.1575 33.9062 77.8205 33.8277 80.492C33.7879 81.8217 33.8176 83.1526 33.9166 84.4793C34.0008 85.7919 34.2043 87.0941 34.5246 88.37C34.8099 89.6115 35.3726 90.7728 36.1706 91.7671C36.5663 92.2255 37.0553 92.5945 37.6051 92.8496C38.1933 93.0886 38.8057 93.263 39.4317 93.3698C42.0784 93.7663 44.7544 93.9354 47.4302 93.8751C52.8207 93.8454 58.222 93.4997 63.6016 92.997C68.9856 92.5235 74.3518 91.8394 79.7023 91.0947C79.7256 91.0914 79.7493 91.0917 79.7725 91.0956L79.7776 91.0965C81.8451 91.4493 83.9283 91.747 86.0126 91.9853C88.0896 92.2412 90.1791 92.3828 92.2716 92.4094C92.7911 92.4123 93.3096 92.3951 93.8218 92.3618C94.3161 92.3473 94.8068 92.2727 95.2829 92.1396C95.7293 91.9968 96.141 91.7628 96.4917 91.4525C96.8425 91.1422 97.1245 90.7625 97.3199 90.3374C97.7303 89.4363 97.9561 88.4626 97.9839 87.4733C98.0354 86.4646 97.9759 85.4534 97.8066 84.4577L97.8061 84.4546C97.7876 84.3465 97.8042 84.2353 97.8535 84.1372C97.9027 84.0391 97.982 83.9592 98.0799 83.9091L104.613 80.5772L104.661 80.556L104.688 80.5462C105.341 80.3363 105.932 79.97 106.41 79.4793C106.486 79.4034 106.541 79.309 106.569 79.2054C106.597 79.1019 106.598 78.9928 106.571 78.8889C106.535 78.7755 106.477 78.6706 106.399 78.5806C106.321 78.4906 106.226 78.4173 106.119 78.3654C105.884 78.2501 105.616 78.2207 105.362 78.2822L104.229 78.5819L101.92 79.1744C100.375 79.557 98.8276 79.9257 97.2498 80.2303C96.4396 80.3998 95.6182 80.5112 94.792 80.5639C94.6692 80.5677 94.5463 80.5644 94.4239 80.5542C94.2786 80.5426 94.1352 80.5138 93.9968 80.4684C93.7728 80.4001 93.5548 80.3138 93.3448 80.2104C93.1915 80.1354 93.0519 80.0352 92.9318 79.9141C92.8264 79.807 92.7483 79.6762 92.7042 79.5328C92.6528 79.3601 92.6553 79.1759 92.7113 79.0046C92.7789 78.8143 92.8919 78.6432 93.0406 78.5062C93.1313 78.4186 93.2275 78.3368 93.3285 78.2613C93.9996 77.7804 94.7012 77.3434 95.4289 76.9528C95.7899 76.7584 96.1639 76.5766 96.532 76.4102C96.7108 76.3284 96.9067 76.2434 97.0232 76.1799C97.0494 76.1661 97.0697 76.1512 97.0544 76.1624C96.9845 76.2248 96.9377 76.309 96.9218 76.4013C96.8949 76.5058 96.9102 76.6166 96.9646 76.7099C96.9846 76.7449 96.9933 76.7495 96.989 76.7448C96.8871 76.6701 96.7755 76.6095 96.6572 76.5646C96.497 76.4989 96.3332 76.4423 96.1665 76.3951C95.8121 76.2962 95.4516 76.2204 95.0873 76.1682C92.8364 75.8375 90.5382 76.2158 88.5132 77.2504C87.1327 77.8978 85.8579 78.7493 84.7321 79.7761L84.7244 79.7831C84.6217 79.8763 84.4892 79.93 84.3505 79.9347C80.9533 80.0505 77.5573 80.1335 74.1626 80.1836C70.7624 80.2099 67.3723 80.2824 63.9453 80.0207C63.5043 79.9871 63.0658 79.9265 62.6322 79.8393C62.5074 79.8121 62.3848 79.7756 62.2655 79.7299C62.0899 79.6502 62.0471 79.6156 61.9427 79.561L61.396 79.2595C60.6606 78.873 59.8987 78.5388 59.1161 78.2594C57.5529 77.6938 55.8938 77.4397 54.2325 77.5113C52.5577 77.6135 50.908 77.9673 49.3391 78.5608C47.747 79.1213 46.191 79.8139 44.571 80.336C44.5558 80.341 44.5393 80.3397 44.525 80.3326C44.5108 80.3255 44.4999 80.3131 44.4947 80.298C44.4896 80.283 44.4906 80.2665 44.4975 80.2522C44.5044 80.2378 44.5167 80.2268 44.5317 80.2214C46.1205 79.6386 47.6409 78.8876 49.2249 78.2576C50.8094 77.5861 52.4865 77.1572 54.1995 76.9856C55.9355 76.8558 57.68 77.0719 59.3315 77.6213C60.1544 77.8897 60.9573 78.2158 61.7342 78.5972L62.3093 78.894C62.3931 78.9369 62.5324 79.0118 62.552 79.0155C62.632 79.0418 62.7138 79.0628 62.7967 79.0783C63.1972 79.1458 63.6013 79.1894 64.0071 79.2087C67.3554 79.3538 70.7582 79.2477 74.1398 79.1574C77.5256 79.0518 80.9112 78.9105 84.2966 78.7335L83.9152 78.892C85.1235 77.7711 86.4979 76.8429 87.9899 76.1402C90.2316 74.9944 92.7745 74.5708 95.2677 74.9279C95.6882 74.9866 96.1043 75.0728 96.5135 75.1859C96.7282 75.246 96.9393 75.3184 97.1457 75.4027C97.3981 75.4995 97.6326 75.6374 97.8398 75.8107C97.924 75.8866 97.9968 75.9741 98.0562 76.0706C98.1625 76.241 98.2012 76.4449 98.1648 76.6424C98.1284 76.8398 98.0196 77.0166 97.8595 77.1383C97.7918 77.193 97.7192 77.2415 97.6426 77.283C97.4108 77.4082 97.241 77.477 97.0606 77.5618C96.7077 77.723 96.3697 77.8891 96.0341 78.0713C95.3675 78.433 94.7242 78.836 94.1081 79.2779C94.0505 79.3208 93.9956 79.3672 93.9437 79.4168C93.9044 79.4486 93.8942 79.4946 93.9343 79.3987C93.9581 79.3215 93.9583 79.2389 93.9349 79.1616C93.9207 79.1128 93.8962 79.0675 93.863 79.0289C93.8379 79.0069 93.8801 79.0436 93.9357 79.0694C94.0823 79.1387 94.2339 79.1967 94.3893 79.243L94.4538 79.2633L94.4735 79.2657C94.4961 79.2715 94.5193 79.2747 94.5427 79.2751C94.6176 79.2818 94.6929 79.2842 94.7681 79.2824C95.524 79.2375 96.276 79.1407 97.0186 78.9929C98.5557 78.7116 100.096 78.3609 101.631 77.9963L103.931 77.43L105.099 77.1334C105.624 77.0137 106.174 77.0824 106.654 77.3276C106.902 77.4539 107.121 77.6294 107.298 77.8434C107.476 78.0574 107.607 78.3053 107.685 78.5719C107.769 78.863 107.771 79.1717 107.691 79.464C107.615 79.7303 107.484 79.9781 107.307 80.1919C107.004 80.5467 106.639 80.8438 106.23 81.0688C105.852 81.2862 105.455 81.4674 105.043 81.6098L105.118 81.5789L98.5393 84.8209L98.8125 84.2724C98.9798 85.3517 99.0264 86.4461 98.9514 87.5356C98.8984 88.6514 98.6211 89.7453 98.1361 90.7522C97.8766 91.2776 97.5105 91.7435 97.061 92.1204C96.6114 92.4972 96.0883 92.7768 95.5247 92.9413C95.2479 93.0185 94.9651 93.0731 94.6793 93.1043L93.8676 93.1571C93.3296 93.1784 92.7944 93.1812 92.2619 93.1655C90.1449 93.0823 88.0338 92.8881 85.9373 92.5838C83.8447 92.297 81.7628 91.9527 79.6916 91.5508L79.7667 91.5526C74.4005 92.2641 69.0221 92.8329 63.642 93.4117C58.2571 93.9363 52.8682 94.4592 47.443 94.6386C44.7117 94.773 41.9738 94.6715 39.26 94.3353C38.5493 94.2318 37.854 94.0418 37.1897 93.7695C36.5063 93.4605 35.8966 93.01 35.401 92.4479C34.4862 91.3414 33.8356 90.0418 33.4984 88.6474C32.8534 85.9687 32.6128 83.2089 32.7848 80.4593C32.8932 77.7374 33.19 75.0263 33.673 72.3452C33.6938 72.2329 33.7543 72.1319 33.8436 72.0605C33.9328 71.989 34.0448 71.9519 34.1592 71.956C37.5324 72.0732 40.905 72.2131 44.2768 72.3759C47.6487 72.535 51.0217 72.6634 54.3926 72.8519L54.4029 72.8525C54.462 72.8559 54.5176 72.882 54.5578 72.9254C54.5981 72.9687 54.62 73.026 54.6189 73.085L54.5407 76.9361L54.5407 76.9431C54.5399 76.9842 54.5227 77.0234 54.4929 77.0519C54.4632 77.0804 54.4232 77.096 54.382 77.0952C54.3407 77.0943 54.3014 77.0772 54.2728 77.0475C54.2442 77.0178 54.2286 76.978 54.2295 76.9368L54.2294 76.9361L54.3245 73.085C54.3249 73.0692 54.3314 73.0541 54.3428 73.0431C54.3541 73.032 54.3693 73.0258 54.3852 73.0258C54.401 73.0258 54.4163 73.032 54.4276 73.0431C54.439 73.0541 54.4454 73.0692 54.4458 73.085Z" fill="#020202"/>
<path d="M116.305 186.487L111.858 186.586L111.117 189.439C110.766 196.508 102.566 193.921 102.566 193.921L102.964 198.665C103.097 200.407 103.131 202.154 103.065 203.9C102.999 206.046 103.403 209.441 106.418 210.496C110.94 212.079 123.441 211.484 123.441 211.484L124.718 205.024C123.22 204.945 121.764 204.509 120.47 203.752C119.177 202.995 118.085 201.94 117.285 200.674C116.421 199.295 115.993 197.688 116.057 196.063L116.305 186.487Z" stroke="#020202" stroke-width="0.968" stroke-linecap="round" stroke-linejoin="round"/>
<path d="M120.162 150.397C119.718 153.473 119.154 156.519 118.547 159.552C117.952 162.586 117.284 165.608 116.604 168.629C115.9 171.639 115.178 174.648 114.395 177.646C114.255 178.191 114.11 178.742 113.958 179.287C115.943 179.202 117.946 179.081 119.925 178.893C121.017 178.784 122.11 178.669 123.178 178.469C123.715 178.372 124.246 178.247 124.769 178.094C125.287 177.968 125.759 177.702 126.135 177.325L126.141 177.319C126.149 177.309 126.16 177.301 126.171 177.295L120.162 150.397ZM109.502 183.61C107.777 184.152 105.974 184.406 104.166 184.361C102.402 184.319 100.644 184.133 98.9097 183.804C97.1796 183.495 95.4739 183.138 93.7621 182.775C90.3139 182.157 86.9156 181.289 83.5944 180.177C80.2898 179.022 77.0878 177.594 74.0216 175.908L74.0155 175.902C72.1945 179.347 70.7983 181.57 70.2277 181.57C70.2277 181.57 106.394 199.881 110.328 192.469L111.858 186.583C112.088 184.991 112.355 183.404 112.641 181.824C111.731 182.632 110.662 183.241 109.502 183.61ZM74.0459 181.606C73.81 181.598 73.5866 181.498 73.4227 181.329C73.2588 181.159 73.1672 180.933 73.1672 180.698C73.1672 180.462 73.2588 180.236 73.4227 180.067C73.5866 179.897 73.81 179.798 74.0459 179.789C74.2818 179.798 74.5052 179.897 74.6691 180.067C74.833 180.236 74.9246 180.462 74.9246 180.698C74.9246 180.933 74.833 181.159 74.6691 181.329C74.5052 181.498 74.2818 181.598 74.0459 181.606ZM77.2146 183.132C76.9787 183.124 76.7553 183.024 76.5914 182.855C76.4276 182.685 76.336 182.459 76.336 182.224C76.336 181.988 76.4276 181.762 76.5914 181.593C76.7553 181.423 76.9787 181.324 77.2146 181.315C77.4504 181.324 77.6739 181.423 77.8377 181.593C78.0016 181.762 78.0932 181.988 78.0932 182.224C78.0932 182.459 78.0016 182.685 77.8377 182.855C77.6738 183.024 77.4504 183.124 77.2146 183.132ZM80.7111 184.549C80.4752 184.54 80.2518 184.441 80.0879 184.272C79.924 184.102 79.8323 183.876 79.8323 183.641C79.8323 183.405 79.924 183.179 80.0879 183.009C80.2518 182.84 80.4752 182.741 80.7111 182.732C80.9469 182.741 81.1703 182.84 81.3342 183.009C81.4981 183.179 81.5897 183.405 81.5897 183.641C81.5897 183.876 81.4981 184.102 81.3342 184.272C81.1703 184.441 80.9469 184.54 80.7111 184.549ZM84.426 186.075C84.1902 186.066 83.9667 185.967 83.8028 185.798C83.6389 185.628 83.5473 185.402 83.5473 185.167C83.5473 184.931 83.6389 184.705 83.8028 184.535C83.9667 184.366 84.1902 184.267 84.426 184.258C84.6619 184.267 84.8853 184.366 85.0492 184.535C85.2131 184.705 85.3047 184.931 85.3047 185.167C85.3047 185.402 85.2131 185.628 85.0492 185.798C84.8853 185.967 84.6619 186.066 84.426 186.075ZM88.2503 187.71C88.0144 187.701 87.791 187.602 87.6272 187.433C87.4633 187.263 87.3717 187.037 87.3717 186.801C87.3717 186.566 87.4633 186.34 87.6272 186.17C87.791 186.001 88.0144 185.902 88.2503 185.893C88.4862 185.902 88.7095 186.001 88.8734 186.17C89.0372 186.34 89.1288 186.566 89.1288 186.801C89.1288 187.037 89.0372 187.263 88.8734 187.433C88.7095 187.602 88.4862 187.701 88.2503 187.71ZM92.7301 189.345C92.4943 189.336 92.2709 189.237 92.107 189.068C91.9431 188.898 91.8515 188.672 91.8515 188.436C91.8515 188.201 91.9431 187.975 92.107 187.805C92.2709 187.636 92.4943 187.536 92.7301 187.528C92.966 187.537 93.1894 187.636 93.3532 187.805C93.5171 187.975 93.6087 188.201 93.6087 188.436C93.6087 188.672 93.5171 188.898 93.3532 189.067C93.1893 189.237 92.966 189.336 92.7301 189.345ZM97.3193 190.871C97.0834 190.862 96.86 190.763 96.6961 190.593C96.5322 190.424 96.4406 190.198 96.4406 189.962C96.4406 189.727 96.5322 189.501 96.6961 189.331C96.86 189.162 97.0834 189.062 97.3193 189.054C97.5551 189.062 97.7785 189.162 97.9423 189.331C98.1062 189.501 98.1978 189.727 98.1978 189.962C98.1978 190.198 98.1062 190.424 97.9423 190.593C97.7785 190.763 97.5551 190.862 97.3193 190.871ZM102.018 191.961C101.782 191.952 101.558 191.853 101.394 191.683C101.231 191.514 101.139 191.288 101.139 191.052C101.139 190.817 101.231 190.591 101.394 190.421C101.558 190.252 101.782 190.152 102.018 190.144C102.253 190.152 102.477 190.252 102.641 190.421C102.804 190.591 102.896 190.817 102.896 191.052C102.896 191.288 102.804 191.514 102.641 191.683C102.477 191.853 102.253 191.952 102.018 191.961ZM106.716 192.397C106.48 192.388 106.257 192.289 106.093 192.119C105.929 191.95 105.837 191.724 105.837 191.488C105.837 191.253 105.929 191.027 106.093 190.857C106.257 190.688 106.48 190.588 106.716 190.58C106.952 190.589 107.175 190.688 107.339 190.857C107.502 191.027 107.594 191.253 107.594 191.488C107.594 191.724 107.502 191.95 107.339 192.119C107.175 192.289 106.952 192.388 106.716 192.397ZM126.202 177.44C125.877 177.893 125.428 178.242 124.909 178.445C124.397 178.688 123.867 178.89 123.324 179.051C122.244 179.366 121.151 179.614 120.052 179.82C117.965 180.183 115.86 180.432 113.745 180.564C113.68 180.667 113.609 180.766 113.533 180.861C113.32 181.648 113.102 182.436 112.871 183.217C113.019 183.108 113.198 183.053 113.381 183.059C113.617 183.068 113.84 183.167 114.004 183.336C114.168 183.506 114.26 183.732 114.26 183.968C114.26 184.203 114.168 184.429 114.004 184.599C113.84 184.768 113.617 184.868 113.381 184.876C113.199 184.883 113.02 184.831 112.871 184.727C112.722 184.623 112.611 184.473 112.556 184.301C112.331 185.064 112.1 185.827 111.858 186.583C111.858 186.583 126.936 186.801 127.81 184.622L126.202 177.44ZM117.315 184.331C117.079 184.322 116.855 184.223 116.692 184.054C116.528 183.884 116.436 183.658 116.436 183.423C116.436 183.187 116.528 182.961 116.692 182.791C116.855 182.622 117.079 182.523 117.315 182.514C117.551 182.523 117.774 182.622 117.938 182.792C118.102 182.961 118.193 183.187 118.193 183.423C118.193 183.658 118.102 183.884 117.938 184.054C117.774 184.223 117.551 184.322 117.315 184.331ZM121.139 183.786C120.903 183.778 120.68 183.678 120.516 183.509C120.352 183.339 120.26 183.113 120.26 182.878C120.26 182.642 120.352 182.416 120.516 182.246C120.68 182.077 120.903 181.978 121.139 181.969C121.375 181.978 121.598 182.077 121.762 182.247C121.926 182.416 122.017 182.642 122.017 182.878C122.017 183.113 121.926 183.339 121.762 183.509C121.598 183.678 121.375 183.777 121.139 183.786ZM125.072 183.023C124.837 183.015 124.613 182.915 124.449 182.746C124.285 182.576 124.194 182.35 124.194 182.115C124.194 181.879 124.285 181.653 124.449 181.484C124.613 181.314 124.837 181.215 125.072 181.206C125.308 181.215 125.532 181.314 125.696 181.484C125.86 181.653 125.951 181.879 125.951 182.115C125.951 182.35 125.86 182.576 125.696 182.746C125.532 182.915 125.308 183.015 125.072 183.023ZM120.38 118.57C114.462 114.44 90.7209 109.911 76.0005 107.41C72.5268 106.822 69.3353 105.134 66.8992 102.595C64.4631 100.056 62.912 96.8009 62.476 93.3132L59.6715 93.5615C45.0119 149.446 24.2759 121.095 24.2759 121.095L24.5733 122.5C26.1273 129.009 29.818 134.387 37.3391 136.009C37.3391 136.009 54.1658 141.895 88.0378 138.189L91.5343 137.971C91.5343 137.971 80.3407 163.937 74.0762 175.793L83.9525 179.16C87.2487 180.219 90.4659 181.576 93.847 182.399C95.5332 182.821 97.2505 183.109 98.9825 183.259C100.699 183.421 102.426 183.46 104.148 183.374C105.831 183.315 107.496 183.009 109.089 182.466C110.612 181.941 111.925 180.941 112.835 179.614L112.841 179.602C112.906 179.512 112.991 179.44 113.09 179.39C113.217 178.736 113.345 178.088 113.472 177.434C114.073 174.4 114.741 171.379 115.421 168.357C116.119 165.347 116.841 162.332 117.624 159.341C118.401 156.343 119.227 153.358 120.162 150.397C120.162 150.397 129.121 124.674 120.38 118.57Z" fill="#23AC52"/>
<path d="M102.497 215.728C115.561 215.879 124.806 215.407 131.337 214.632C130.885 214.462 130.495 214.16 130.216 213.766C129.938 213.372 129.785 212.903 129.777 212.421L129.613 203.647C124.915 203.357 121.157 203.46 121.157 203.46C123.725 204.743 123.44 211.483 123.44 211.483C121.649 209.466 102.795 210.163 102.795 210.163L102.497 215.728Z" fill="#F79155"/>
<path d="M144.783 206.687V211.271C147.606 209.63 146.847 208.171 146.847 208.171C146.245 207.566 145.548 207.065 144.783 206.687Z" fill="#F79155"/>
<path d="M26.6253 121.225C26.8613 121.217 27.085 121.117 27.2491 120.948C27.4132 120.779 27.5049 120.552 27.5049 120.317C27.5049 120.081 27.4132 119.855 27.2491 119.685C27.085 119.516 26.8613 119.416 26.6253 119.408C26.3892 119.416 26.1655 119.516 26.0014 119.685C25.8373 119.855 25.7456 120.081 25.7456 120.317C25.7456 120.552 25.8373 120.779 26.0014 120.948C26.1655 121.117 26.3892 121.217 26.6253 121.225ZM30.3402 123.405C30.5763 123.397 30.7999 123.297 30.964 123.128C31.1281 122.958 31.2198 122.732 31.2198 122.496C31.2198 122.261 31.1281 122.034 30.964 121.865C30.7999 121.696 30.5763 121.596 30.3402 121.588C30.1042 121.596 29.8806 121.696 29.7165 121.865C29.5524 122.034 29.4607 122.261 29.4607 122.496C29.4607 122.732 29.5524 122.958 29.7165 123.128C29.8806 123.297 30.1042 123.397 30.3402 123.405ZM34.7108 125.149C34.9469 125.141 35.1705 125.041 35.3346 124.872C35.4987 124.702 35.5905 124.476 35.5905 124.24C35.5905 124.005 35.4987 123.778 35.3346 123.609C35.1705 123.439 34.9469 123.34 34.7108 123.332C34.4748 123.34 34.2511 123.439 34.087 123.609C33.9229 123.778 33.8312 124.005 33.8312 124.24C33.8312 124.476 33.9229 124.702 34.087 124.872C34.2511 125.041 34.4748 125.141 34.7108 125.149ZM39.737 124.495C39.973 124.487 40.1967 124.387 40.3608 124.218C40.5248 124.048 40.6166 123.822 40.6166 123.586C40.6166 123.351 40.5248 123.124 40.3608 122.955C40.1967 122.786 39.973 122.686 39.737 122.678C39.501 122.686 39.2773 122.786 39.1133 122.955C38.9492 123.124 38.8575 123.351 38.8575 123.586C38.8575 123.822 38.9492 124.048 39.1133 124.218C39.2773 124.387 39.501 124.487 39.737 124.495ZM44.5446 121.007C44.7807 120.999 45.0043 120.899 45.1684 120.73C45.3326 120.561 45.4243 120.334 45.4243 120.099C45.4243 119.863 45.3326 119.637 45.1684 119.467C45.0043 119.298 44.7807 119.198 44.5446 119.19C44.3086 119.198 44.0849 119.298 43.9208 119.467C43.7567 119.637 43.665 119.863 43.665 120.099C43.665 120.334 43.7567 120.561 43.9208 120.73C44.0849 120.899 44.3086 120.999 44.5446 121.007ZM48.2596 116.865C48.4957 116.857 48.7193 116.758 48.8834 116.588C49.0475 116.419 49.1392 116.192 49.1392 115.957C49.1392 115.721 49.0475 115.495 48.8834 115.325C48.7193 115.156 48.4957 115.057 48.2596 115.048C48.0236 115.057 47.8 115.156 47.6359 115.325C47.4718 115.495 47.3801 115.721 47.3801 115.957C47.3801 116.192 47.4718 116.419 47.6359 116.588C47.8 116.758 48.0236 116.857 48.2596 116.865ZM50.6634 112.723C50.8995 112.715 51.1231 112.616 51.2872 112.446C51.4513 112.277 51.543 112.05 51.543 111.815C51.543 111.579 51.4513 111.353 51.2872 111.183C51.1231 111.014 50.8995 110.915 50.6634 110.907C50.4274 110.915 50.2038 111.014 50.0397 111.183C49.8756 111.353 49.7839 111.579 49.7839 111.815C49.7839 112.05 49.8756 112.277 50.0397 112.446C50.2038 112.616 50.4274 112.715 50.6634 112.723ZM52.6302 107.927C52.8662 107.919 53.0899 107.82 53.254 107.65C53.4181 107.481 53.5098 107.255 53.5098 107.019C53.5098 106.783 53.4181 106.557 53.254 106.388C53.0899 106.218 52.8662 106.119 52.6302 106.111C52.3942 106.119 52.1705 106.218 52.0065 106.388C51.8424 106.557 51.7507 106.783 51.7507 107.019C51.7507 107.255 51.8424 107.481 52.0065 107.65C52.1705 107.82 52.3942 107.919 52.6302 107.927ZM55.034 103.132C55.2701 103.123 55.4937 103.024 55.6578 102.855C55.8219 102.685 55.9136 102.459 55.9136 102.223C55.9136 101.988 55.8219 101.761 55.6578 101.592C55.4937 101.422 55.2701 101.323 55.034 101.315C54.798 101.323 54.5744 101.422 54.4103 101.592C54.2462 101.761 54.1545 101.988 54.1545 102.223C54.1545 102.459 54.2462 102.685 54.4103 102.855C54.5744 103.024 54.798 103.123 55.034 103.132ZM56.3452 98.5537C56.5813 98.5455 56.8049 98.4463 56.969 98.2768C57.1331 98.1074 57.2248 97.881 57.2248 97.6454C57.2248 97.4098 57.1331 97.1834 56.969 97.0139C56.8049 96.8445 56.5813 96.7452 56.3452 96.7371C56.1092 96.7452 55.8855 96.8445 55.7214 97.0139C55.5573 97.1834 55.4656 97.4098 55.4656 97.6454C55.4656 97.881 55.5573 98.1074 55.7214 98.2768C55.8855 98.4463 56.1092 98.5455 56.3452 98.5537ZM60.0602 44.7097C60.2962 44.7015 60.5199 44.6023 60.684 44.4328C60.8481 44.2634 60.9398 44.037 60.9398 43.8014C60.9398 43.5658 60.8481 43.3394 60.684 43.1699C60.5199 43.0005 60.2962 42.9012 60.0602 42.8931C59.8242 42.9012 59.6005 43.0005 59.4365 43.1699C59.2724 43.3394 59.1807 43.5658 59.1807 43.8014C59.1807 44.037 59.2724 44.2634 59.4365 44.4328C59.6005 44.6023 59.8242 44.7015 60.0602 44.7097ZM60.7158 49.2875C60.9518 49.2794 61.1755 49.1801 61.3396 49.0107C61.5037 48.8412 61.5954 48.6148 61.5954 48.3792C61.5954 48.1436 61.5037 47.9172 61.3396 47.7478C61.1755 47.5783 60.9518 47.4791 60.7158 47.4709C60.4797 47.4791 60.2561 47.5783 60.092 47.7478C59.9279 47.9172 59.8361 48.1436 59.8361 48.3792C59.8361 48.6148 59.9279 48.8412 60.092 49.0107C60.2561 49.1801 60.4797 49.2794 60.7158 49.2875ZM61.3714 54.0833C61.6074 54.0752 61.8311 53.9759 61.9952 53.8065C62.1593 53.637 62.251 53.4106 62.251 53.175C62.251 52.9394 62.1593 52.713 61.9952 52.5436C61.8311 52.3741 61.6074 52.2749 61.3714 52.2667C61.1353 52.2749 60.9117 52.3741 60.7476 52.5436C60.5835 52.713 60.4917 52.9394 60.4917 53.175C60.4917 53.4106 60.5835 53.637 60.7476 53.8065C60.9117 53.9759 61.1353 54.0752 61.3714 54.0833ZM61.8084 59.0971C62.0445 59.089 62.2681 58.9897 62.4322 58.8203C62.5963 58.6508 62.6881 58.4244 62.6881 58.1888C62.6881 57.9532 62.5963 57.7268 62.4322 57.5574C62.2681 57.3879 62.0445 57.2887 61.8084 57.2805C61.5724 57.2887 61.3487 57.3879 61.1846 57.5574C61.0205 57.7268 60.9288 57.9532 60.9288 58.1888C60.9288 58.4244 61.0205 58.6508 61.1846 58.8203C61.3487 58.9897 61.5724 59.089 61.8084 59.0971ZM62.027 63.239C62.263 63.2309 62.4867 63.1316 62.6508 62.9621C62.8149 62.7927 62.9066 62.5663 62.9066 62.3307C62.9066 62.0951 62.8149 61.8687 62.6508 61.6992C62.4867 61.5298 62.263 61.4305 62.027 61.4224C61.7909 61.4305 61.5673 61.5298 61.4032 61.6992C61.239 61.8687 61.1473 62.0951 61.1473 62.3307C61.1473 62.5663 61.239 62.7927 61.4032 62.9621C61.5673 63.1316 61.7909 63.2309 62.027 63.239ZM62.027 68.6888C62.263 68.6806 62.4866 68.5814 62.6507 68.4119C62.8148 68.2425 62.9065 68.0161 62.9065 67.7805C62.9065 67.5449 62.8148 67.3185 62.6507 67.149C62.4866 66.9796 62.263 66.8803 62.027 66.8722C61.7909 66.8803 61.5673 66.9796 61.4032 67.149C61.2391 67.3185 61.1474 67.5449 61.1474 67.7805C61.1474 68.0161 61.2391 68.2425 61.4032 68.4119C61.5673 68.5814 61.7909 68.6806 62.027 68.6888ZM61.1529 74.7925C61.3889 74.7844 61.6126 74.6852 61.7767 74.5157C61.9408 74.3463 62.0325 74.1199 62.0325 73.8843C62.0325 73.6486 61.9408 73.4222 61.7767 73.2528C61.6126 73.0833 61.3889 72.9841 61.1529 72.976C60.9168 72.9841 60.6932 73.0833 60.5291 73.2528C60.365 73.4222 60.2732 73.6486 60.2732 73.8843C60.2732 74.1199 60.365 74.3463 60.5291 74.5157C60.6932 74.6852 60.9168 74.7844 61.1529 74.7925ZM27.3484 90.4516H34.7155C36.0695 93.4162 37.3401 93.2855 37.3401 93.2855C33.6251 98.2994 27.3484 90.4516 27.3484 90.4516Z" fill="#020202"/>
<path d="M61.3781 38.3516C61.3781 38.3516 66.7754 62.2606 62.325 79.334L63.6193 79.752C63.6193 79.752 65.4964 71.2445 66.4042 69.7424C72.2888 60.006 68.808 56.6629 68.808 56.6629C64.656 53.393 61.3781 38.3516 61.3781 38.3516ZM35.7009 72.7943C39.3751 72.7561 43.0192 72.5361 46.6732 72.3817L57.6249 71.8939L57.301 71.9687C57.2603 71.9872 57.3708 71.9188 57.418 71.8809C57.4844 71.8254 57.5477 71.7664 57.6076 71.7041C57.7396 71.5675 57.8605 71.4208 57.9693 71.2653C58.2011 70.9193 58.3878 70.5451 58.5246 70.1519C58.8088 69.2956 58.9713 68.4038 59.0074 67.5026C59.0197 67.0371 59.0573 66.5725 59.0296 66.0984L59.0113 65.3896L58.9485 64.6771C58.9172 64.2015 58.8537 63.7259 58.7787 63.25L58.5716 61.7984C58.2642 59.8338 58.0383 57.8541 57.9145 55.8662C57.7577 53.8784 57.8199 51.8794 58.1001 49.9051C58.2092 51.871 58.4528 53.8272 58.829 55.76C59.1679 57.6938 59.573 59.6146 60.0006 61.5296C60.4998 63.5087 60.7522 65.5417 60.7522 67.5824C60.7235 68.6566 60.5424 69.7213 60.2141 70.7447C60.0327 71.2873 59.782 71.8044 59.4682 72.2831C59.3 72.5366 59.1068 72.7727 58.8914 72.9878C58.7777 73.1012 58.6574 73.208 58.5313 73.3074C58.3741 73.429 58.2045 73.5337 58.0253 73.6198C57.9311 73.6653 57.8283 73.6907 57.7236 73.6941L57.7012 73.6946C55.8615 73.7472 54.0309 73.8162 52.1942 73.815C50.3589 73.8226 48.523 73.8212 46.6866 73.7609C44.8506 73.7223 43.0137 73.6201 41.1789 73.4864C39.3409 73.363 37.5117 73.1319 35.7009 72.7943Z" fill="#4087D5"/>
</g>
<defs>
<clipPath id="clip0_482_373">
<rect width="175" height="224" fill="white"/>
</clipPath>
</defs>
</svg>
