<svg width="249" height="196" viewBox="0 0 249 196" fill="none" xmlns="http://www.w3.org/2000/svg">
<g clip-path="url(#clip0_482_81)">
<path d="M182.995 159.57C184.793 162.001 186.643 164.386 188.648 166.673H188.643C186.032 167.093 180.154 167.393 180.154 167.393L163.835 149.605C165.405 147.543 166.682 145.272 167.627 142.859C167.892 142.266 168.105 141.655 168.324 141.045C168.554 140.44 168.744 139.823 168.946 139.207C169.113 138.694 169.257 138.176 169.396 137.657C170.469 139.995 171.668 142.274 172.986 144.484C173.741 145.791 174.547 147.07 175.337 148.355C176.144 149.633 176.973 150.895 177.792 152.162C179.48 154.668 181.192 157.151 182.995 159.57Z" fill="#FAD82B"/>
<path d="M198.473 166.016C195.225 166.534 191.937 166.754 188.648 166.673C187.236 163.982 185.692 161.385 184.113 158.821C183.335 157.525 182.505 156.269 181.704 154.99L179.232 151.206L176.708 147.462C175.838 146.229 175.008 144.973 174.121 143.752C172.605 141.574 171.044 139.443 169.493 137.277C169.649 136.672 169.822 136.067 169.96 135.457C170.22 134.19 170.496 132.928 170.663 131.643C170.853 130.365 170.998 129.086 171.084 127.795C171.211 126.511 171.193 125.215 171.222 123.93C171.199 122.64 171.136 121.355 171.015 120.071C170.75 121.338 170.588 122.605 170.375 123.867L170.058 125.75C169.954 126.378 169.874 127.006 169.747 127.628C169.626 128.256 169.511 128.878 169.413 129.506C169.315 130.128 169.171 130.745 169.05 131.367C168.819 132.611 168.537 133.844 168.272 135.077C167.989 136.304 167.713 137.542 167.379 138.758C167.085 139.985 166.704 141.188 166.364 142.404C165.642 144.845 164.797 147.248 163.835 149.604C149.958 175.549 136.243 187.134 136.243 187.134C94.6203 214.386 69.4724 168.833 69.4724 168.833V168.827C74.532 166.58 79.6203 163.234 83.5216 158.251L80.1159 140.002C80.1159 140.002 82.4497 139.495 85.9937 138.418C86.23 139.276 86.4778 140.129 86.7313 140.981C87.3364 143.003 87.9818 145.019 88.7021 147.007C90.1076 151.01 91.7707 154.918 93.681 158.706C95.6345 162.473 97.8819 166.172 100.959 169.265C102.497 170.883 104.38 172.133 106.468 172.923C108.65 173.701 111.049 173.608 113.164 172.664C115.168 171.726 116.947 170.369 118.379 168.683C119.793 167.073 121.06 165.34 122.165 163.505C124.396 159.933 126.666 156.379 129.011 152.876C133.719 145.889 138.679 139.076 143.89 132.438C146.495 129.132 149.165 125.881 151.9 122.686C154.638 119.5 157.455 116.378 160.469 113.504C161.932 112.066 163.534 110.777 165.252 109.656C165.989 109.146 166.84 108.826 167.73 108.723C168.168 108.653 168.975 109.425 169.597 110.151C170.887 111.755 172.06 113.449 173.107 115.22C174.196 117 175.221 118.832 176.23 120.67C178.27 124.339 180.166 128.089 182.073 131.839C183.975 135.595 185.832 139.376 187.646 143.181C191.316 150.762 194.895 158.389 198.473 166.016Z" fill="#FAD82B"/>
<path d="M106.249 129.495C107.287 128.844 108.301 128.158 109.28 127.433C111.061 130.641 113.556 135.549 113.556 137.859C112.81 138.115 112.087 138.435 111.395 138.815C111.25 138.062 111.042 137.322 110.773 136.603C110.45 135.724 110.069 134.868 109.632 134.04C109.197 133.211 108.704 132.414 108.157 131.655C107.607 130.863 106.967 130.138 106.249 129.495Z" fill="#020202"/>
<path d="M81.3131 42.6172C82.3277 43.7046 83.2083 44.792 84.1016 45.932C85.0082 47.0568 85.8035 48.2669 86.4764 49.5452C86.5556 49.7109 86.635 49.8771 86.7141 50.0236C86.7848 50.1784 86.873 50.3246 86.977 50.4593C87.1704 50.7341 87.4144 50.9694 87.6961 51.1527C88.3015 51.4848 88.9756 51.6721 89.6656 51.7C89.8557 51.7173 90.0439 51.7507 90.2283 51.7999C90.3411 51.829 90.4474 51.8789 90.5419 51.947C90.5963 51.9943 90.6452 52.0478 90.6875 52.1062C90.7164 52.1748 90.7398 52.2456 90.7573 52.318C90.745 52.7362 90.5856 53.1367 90.3071 53.449C89.8426 54.0224 89.3116 54.5388 88.7253 54.9872L88.7197 54.6117C89.2797 55.1514 89.6703 55.8424 89.844 56.6003C90.0359 57.3154 90.136 58.052 90.142 58.7923C90.1548 59.5222 90.1162 60.2521 90.0266 60.9766C89.9472 61.6905 89.8767 62.4055 89.7831 63.1253C89.7453 63.8877 89.5244 64.6298 89.1391 65.2888C88.8887 65.5981 88.5685 65.8436 88.2048 66.0052C87.8669 66.1743 87.5242 66.293 87.188 66.4249C86.5563 66.7055 85.9863 67.108 85.5106 67.6093C85.0117 68.113 84.5524 68.6542 84.1366 69.2283C83.7155 69.803 83.3312 70.4038 82.9859 71.027C82.8123 71.3376 82.6501 71.6548 82.5066 71.978C82.3541 72.2863 82.2472 72.615 82.1892 72.954C82.1899 74.3798 82.2395 75.8252 82.2633 77.26C82.3128 80.1346 82.4053 83.0089 82.4867 85.8833L82.4878 85.9207L82.4661 85.9488C82.0267 86.5179 81.5381 87.0472 81.0059 87.5307C80.4779 88.0244 79.8885 88.4481 79.2523 88.7913C78.6091 89.1483 77.897 89.3636 77.1638 89.4231C76.4169 89.441 75.6788 89.2593 75.0256 88.8968L74.9218 88.8414L74.9391 88.714C75.2052 86.7434 75.3625 84.7495 75.4607 82.7603C75.5463 80.7697 75.5854 78.7758 75.501 76.7878C75.4374 74.802 75.2356 72.823 74.897 70.8653C74.5657 68.9195 74.0004 67.0208 73.2134 65.2106L73.4787 65.3819C72.2709 65.2833 71.1441 64.7349 70.3214 63.8453C69.5376 62.961 69.0222 61.8718 68.8353 60.7052L68.7145 59.8487C68.6917 59.5618 68.6824 59.2741 68.6693 58.9869C68.6669 58.6978 68.695 58.4038 68.7126 58.1127C68.7527 57.8112 68.8286 57.5154 68.9387 57.2318L69.0267 57.0144L69.1657 56.8104C69.257 56.6684 69.3758 56.5461 69.5151 56.4507C69.6544 56.3513 69.8098 56.2765 69.9744 56.2293C70.1348 56.1927 70.2995 56.1777 70.464 56.1849C71.0724 56.2383 71.6554 56.4538 72.1524 56.8088L71.9396 56.7784C72.6002 56.5075 73.2226 56.1515 73.791 55.7194C74.3754 55.2884 74.9249 54.8122 75.4346 54.295C76.4485 53.2423 77.3321 52.0715 78.0662 50.8078C78.8053 49.5405 79.4427 48.2167 79.9724 46.8486C80.229 46.1604 80.4588 45.4625 80.7007 44.7661L81.3131 42.6172ZM81.3272 42.6732L80.8286 44.8049C80.6109 45.5087 80.4035 46.22 80.169 46.9209C79.6815 48.3215 79.0687 49.6754 78.3382 50.9662C77.6131 52.2681 76.7339 53.4781 75.7196 54.5701C75.2037 55.1129 74.6459 55.6144 74.0515 56.0699C73.4532 56.5425 72.7943 56.9328 72.0922 57.2304L71.9921 57.2712L71.8793 57.2C71.4551 56.9098 70.9626 56.7351 70.4504 56.6929C70.2219 56.6807 69.9962 56.7479 69.8117 56.8832C69.6272 57.0184 69.4951 57.2134 69.438 57.4349C69.3515 57.6749 69.2929 57.924 69.2634 58.1774C69.2539 58.4441 69.232 58.7093 69.2392 58.9788L69.2895 59.7922L69.4055 60.597C69.5754 61.6539 70.0427 62.6408 70.7529 63.442C71.4697 64.2099 72.4446 64.6866 73.4911 64.7809L73.684 64.7955L73.7565 64.9525C74.58 66.8067 75.1593 68.7599 75.48 70.7632C75.8073 72.7496 75.9957 74.7564 76.044 76.769C76.1062 78.7755 76.067 80.7839 75.9264 82.7865C75.792 84.7883 75.5997 86.7817 75.2956 88.7692L75.2091 88.5866C75.7994 88.9262 76.4692 89.1034 77.1502 89.1002C77.8395 89.0551 78.5112 88.8641 79.1211 88.5399C79.7441 88.2184 80.3231 87.8181 80.8438 87.3487C81.3752 86.8874 81.8615 86.3767 82.2962 85.8234L82.2756 85.889C82.2114 83.0129 82.1584 80.1372 82.0622 77.2618L81.9322 72.9434C81.9818 72.5707 82.088 72.2077 82.247 71.867C82.3874 71.5297 82.5455 71.202 82.7152 70.8811C83.0522 70.2379 83.4297 69.6166 83.8452 69.0211C84.26 68.4205 84.7205 67.8528 85.2226 67.323C85.7287 66.7671 86.3409 66.3178 87.0232 66.0016C87.6733 65.8142 88.2672 65.4697 88.7527 64.9986C89.0783 64.4029 89.2616 63.74 89.2884 63.0618C89.3752 62.3549 89.4408 61.6382 89.5152 60.9224C89.5987 60.219 89.6394 59.5111 89.6372 58.8027C89.6383 58.1034 89.5505 57.4067 89.3757 56.7295C89.2876 56.3979 89.167 56.0758 89.0157 55.7678C88.8761 55.4763 88.6838 55.2131 88.4485 54.9915L88.2172 54.7929L88.4429 54.6157C89.0004 54.1968 89.5067 53.7139 89.9516 53.177C90.1561 52.9533 90.2857 52.6714 90.3223 52.3706C90.3585 52.2553 89.9421 52.1599 89.6093 52.1217C88.8616 52.0714 88.1359 51.8483 87.4892 51.47C87.1728 51.255 86.9004 50.9817 86.6866 50.6647C86.5752 50.5127 86.481 50.3489 86.4057 50.1761C86.3192 50.0045 86.2477 49.8459 86.1755 49.6864C85.532 48.4156 84.7805 47.2024 83.9291 46.0603C83.1073 44.9022 82.1856 43.7569 81.3272 42.6732Z" fill="#020202"/>
<path d="M198.641 165.964L198.554 166.004C203.395 165.238 209.129 163.649 213.618 160.376C213.618 160.376 206.109 148.953 203.988 137.692C202.07 127.49 193.558 114.627 184.073 97.7144C175.202 95.8363 166.067 95.5573 157.098 96.8906C149.549 99.8169 118.616 133.613 118.616 133.613L113.556 137.859C112.837 138.788 112.047 139.661 111.194 140.468C110.364 141.269 109.5 142.029 108.618 142.755C107.736 143.487 106.831 144.184 105.892 144.858C104.949 145.55 103.965 146.187 102.947 146.765C103.498 145.71 104.181 144.73 104.982 143.85C105.765 142.979 106.612 142.169 107.517 141.425C108.419 140.686 109.371 140.008 110.364 139.397C110.594 139.259 110.831 139.12 111.061 138.994C110.52 138.449 110.025 137.862 109.58 137.237C108.493 135.709 107.611 134.046 106.958 132.288C106.615 131.388 106.377 130.45 106.249 129.495C99.4668 133.792 91.6989 136.649 86.4088 138.285C86.6912 139.12 86.9908 139.961 87.2905 140.797C88.0108 142.772 88.7772 144.731 89.5494 146.684C91.0996 150.581 92.8736 154.385 94.8625 158.078C95.8497 159.913 96.9346 161.693 98.1126 163.412C99.2591 165.123 100.572 166.717 102.031 168.17C103.421 169.611 105.106 170.734 106.97 171.465C108.801 172.136 110.818 172.09 112.617 171.338C114.467 170.528 116.129 169.344 117.498 167.859C118.924 166.347 120.215 164.715 121.359 162.98L128.551 152.565C133.345 145.624 138.151 138.688 143.136 131.868C145.637 128.464 148.161 125.077 150.846 121.805C153.497 118.487 156.335 115.323 159.346 112.328C160.874 110.789 162.552 109.406 164.353 108.198C164.838 107.89 165.347 107.62 165.875 107.392C166.463 107.128 167.097 106.983 167.742 106.965C167.929 106.963 168.117 106.981 168.301 107.017C168.501 107.06 168.694 107.128 168.877 107.219C169.177 107.362 169.457 107.542 169.713 107.755C170.159 108.126 170.576 108.532 170.957 108.97C172.34 110.628 173.585 112.397 174.68 114.258C175.792 116.079 176.841 117.922 177.849 119.782C181.866 127.242 185.41 134.915 188.873 142.611C192.296 150.324 195.581 158.101 198.641 165.964Z" fill="#F79155"/>
<path d="M76.2598 66.209C77.1727 66.7548 78.1665 67.1522 79.2041 67.3864C79.7146 67.509 80.2349 67.5939 80.763 67.6668C81.0269 67.7067 81.2942 67.7242 81.5631 67.7627C81.8324 67.7914 82.1036 67.8077 82.381 67.8555C81.8485 68.0181 81.296 68.1057 80.7393 68.1157C80.1782 68.1285 79.6177 68.0717 79.0707 67.9464C78.5217 67.814 77.9943 67.6042 77.5043 67.3234C77.0097 67.0519 76.5839 66.6707 76.2598 66.209ZM80.9119 51.4565C81.0381 51.0474 81.2739 50.6805 81.5939 50.3959C81.909 50.1032 82.2741 49.8694 82.6718 49.7056C83.0686 49.5506 83.4875 49.4594 83.9129 49.4353C84.3326 49.4091 84.7536 49.4582 85.156 49.5802C84.7491 49.698 84.3607 49.7748 83.9827 49.8794C83.6113 49.9785 83.2458 50.0986 82.888 50.2392C82.1643 50.5286 81.4959 50.9404 80.9119 51.4565ZM84.5031 53.1155C84.6794 53.1094 84.8464 53.0351 84.969 52.9083C85.0916 52.7815 85.1601 52.612 85.1601 52.4356C85.1601 52.2593 85.0916 52.0898 84.969 51.963C84.8464 51.8361 84.6794 51.7618 84.5031 51.7558C84.3267 51.7618 84.1597 51.8361 84.0371 51.963C83.9145 52.0898 83.846 52.2593 83.846 52.4356C83.846 52.612 83.9145 52.7815 84.0371 52.9083C84.1597 53.0351 84.3267 53.1094 84.5031 53.1155Z" fill="#020202"/>
<path d="M75.1172 88.7417C71.7709 100.98 67.3636 92.3315 67.3636 92.3315C63.2828 73.5666 56.7534 73.7298 56.7534 73.7298C58.5167 69.112 59.4559 64.2209 59.5284 59.2787C59.5284 57.1866 59.5758 55.5857 59.6452 54.3632C59.7133 53.1614 60.0462 51.9895 60.6201 50.9312C61.1939 49.8729 61.9945 48.9544 62.9647 48.2413C72.6149 41.1475 81.3201 42.6452 81.3201 42.6452C78.5451 54.8016 72.0158 57.0045 72.0158 57.0045C72.0158 57.0045 68.5062 54.5569 68.9959 59.7784C69.4856 65 73.4849 65.0816 73.4849 65.0816C77.4841 73.485 75.1172 88.7417 75.1172 88.7417ZM87.7438 65.9566C87.7438 65.9566 87.9359 82.378 90.5452 84.6624C90.5452 84.6624 89.8899 95.1055 82.3811 85.8862C82.3811 85.8862 82.0547 74.0561 82.0547 72.9955C82.0547 71.9349 84.748 67.1212 87.1149 66.2088" fill="#23AC52"/>
<path d="M56.7434 73.7851C54.4337 73.6451 52.123 74.0418 49.9925 74.9442C47.881 75.8681 46.0186 77.2793 44.5584 79.062C43.1352 80.8666 42.046 82.9109 41.3422 85.0984C40.9861 86.1917 40.6961 87.3054 40.4737 88.4335C40.2593 89.5673 39.9939 90.6873 39.8462 91.8377C38.4511 100.988 37.6282 110.231 36.789 119.461C35.9569 128.693 35.2272 137.937 34.5454 147.183C33.8823 156.431 33.2068 165.679 32.593 174.929L32.1434 174.411C35.0064 174.62 37.879 174.664 40.7471 174.543C42.1748 174.493 43.5986 174.362 45.0116 174.152C46.4044 173.982 47.765 173.61 49.0507 173.048L49.1399 173.004L49.2393 173.002C50.9605 172.958 52.6781 172.821 54.3844 172.591C56.0977 172.371 57.7993 172.075 59.4891 171.7C61.1774 171.332 62.8509 170.892 64.4948 170.361C66.1482 169.855 67.7546 169.215 69.3478 168.548L69.1629 168.833L69.1629 168.827L69.164 168.623L69.3481 168.543C72.0489 167.374 74.614 165.915 76.9981 164.19C79.3831 162.465 81.5199 160.42 83.3485 158.114L83.305 158.292L79.2736 136.422L79.244 136.262L79.4031 136.222C81.8944 135.597 84.373 134.9 86.8325 134.151C89.2924 133.402 91.7343 132.595 94.1455 131.706C96.5586 130.83 98.9224 129.824 101.227 128.692C102.372 128.125 103.479 127.483 104.541 126.772C105.603 126.093 106.544 125.239 107.322 124.247L107.541 123.945L107.725 124.259L109.603 127.479C110.207 128.564 110.795 129.658 111.352 130.77C111.907 131.883 112.436 133.012 112.902 134.173C113.13 134.756 113.351 135.343 113.525 135.952C113.723 136.57 113.838 137.211 113.868 137.859L113.36 137.622L118.401 133.355L118.379 133.852L118.373 133.847L118.327 133.801L118.3 133.737C115.843 127.941 113.406 122.133 110.988 116.313C109.782 113.404 108.59 110.487 107.412 107.564C106.824 106.103 106.244 104.636 105.674 103.165L104.84 100.945L104.445 99.8194C104.311 99.4475 104.207 99.0256 104.09 98.6301L103.912 98.0344L104.582 98.0324C111.218 98.0136 117.859 97.9661 124.495 97.8468C131.132 97.7298 137.768 97.5512 144.392 97.2303C147.704 97.0795 151.008 96.8585 154.304 96.5673L156.765 96.3105L159.234 96.0078C160.066 95.91 160.896 95.7994 161.732 95.7443C162.567 95.679 163.401 95.5963 164.237 95.5699C167.581 95.4001 170.931 95.4427 174.269 95.6976C177.616 95.9375 180.941 96.42 184.218 97.1414L183.484 97.7064C183.512 96.425 183.581 95.1657 183.681 93.898C183.782 92.6323 183.917 91.368 184.104 90.1062C184.285 88.8337 184.547 87.5743 184.891 86.3357C185.072 85.7008 185.301 85.0805 185.575 84.4802C185.86 83.8236 186.279 83.2335 186.804 82.7476L187.117 83.7686C170.733 82.1226 154.321 80.6501 137.89 79.5126C129.675 78.9332 121.452 78.4584 113.224 78.1344C104.999 77.798 96.7589 77.5331 88.5288 77.8813L88.5225 77.7662C96.7537 77.2816 105.005 77.4034 113.242 77.6093C121.48 77.8599 129.713 78.2613 137.938 78.7676C146.164 79.2666 154.385 79.8392 162.601 80.4856C170.816 81.1384 179.028 81.8084 187.234 82.6162L188.568 82.7476L187.546 83.6375C187.153 84.0175 186.84 84.4724 186.626 84.9753C186.379 85.5205 186.172 86.0836 186.009 86.6598C185.683 87.8485 185.433 89.057 185.262 90.2778C184.915 92.7452 184.716 95.2311 184.666 97.7222L184.649 98.449L183.932 98.2876C180.718 97.588 177.459 97.1212 174.178 96.8908C170.892 96.6448 167.593 96.6078 164.301 96.78C163.478 96.807 162.659 96.8899 161.838 96.9552C161.017 97.0103 160.201 97.1206 159.384 97.2179L156.91 97.5251L154.416 97.7788C151.092 98.0575 147.769 98.2667 144.447 98.4063C137.802 98.7022 131.157 98.8544 124.513 98.9455C117.868 99.0296 111.225 99.0797 104.578 99.0324L105.071 98.4347C105.179 98.7934 105.256 99.1399 105.385 99.51L105.763 100.615L106.571 102.824C107.128 104.294 107.693 105.761 108.267 107.226C109.417 110.154 110.583 113.078 111.764 115.996C114.122 121.835 116.509 127.663 118.925 133.479L118.851 133.369L118.857 133.375L119.117 133.638L118.835 133.872L113.757 138.096L113.249 138.518L113.249 137.859C113.225 137.268 113.123 136.682 112.947 136.118C112.786 135.534 112.576 134.958 112.358 134.387C111.912 133.244 111.399 132.123 110.858 131.015C110.317 129.907 109.742 128.813 109.15 127.728L107.313 124.511L107.717 124.524C106.897 125.556 105.908 126.442 104.792 127.143C103.707 127.853 102.58 128.497 101.417 129.071C99.0952 130.202 96.7137 131.207 94.2831 132.08C91.8597 132.964 89.4086 133.765 86.9405 134.508C84.4716 135.25 81.9864 135.933 79.4847 136.558L79.6142 136.359L83.7425 158.21L83.7611 158.309L83.699 158.388C81.8531 160.735 79.7043 162.827 77.3089 164.61C74.9112 166.386 72.3267 167.896 69.6012 169.112L69.7863 168.827L69.7864 168.833L69.7875 169.037L69.6013 169.118C67.9953 169.812 66.3739 170.479 64.7057 171.01C63.0465 171.567 61.3571 172.032 59.6517 172.423C57.9478 172.822 56.2277 173.142 54.4913 173.382C52.7525 173.635 51.0012 173.794 49.2452 173.857L49.4336 173.812C48.075 174.429 46.6332 174.844 45.1542 175.043C43.7102 175.275 42.2541 175.424 40.7931 175.491C39.3374 175.562 37.8825 175.586 36.4283 175.563C34.9727 175.541 33.5264 175.49 32.0653 175.387L31.5854 175.353L31.6157 174.868C32.1925 165.609 32.8403 156.356 33.5592 147.109C34.2812 137.861 35.0511 128.617 35.9237 119.381C36.3638 114.763 36.8504 110.149 37.3834 105.539C37.6608 103.236 37.9143 100.93 38.2419 98.6314L38.7128 95.1816L39.2685 91.7408C39.6213 89.4339 40.1606 87.1594 40.8812 84.9396C41.6406 82.7166 42.7915 80.6472 44.2794 78.829C45.8021 77.0355 47.7284 75.6286 49.9004 74.7235C52.0741 73.8468 54.4216 73.4865 56.7583 73.671L56.7434 73.7851Z" fill="#020202"/>
<path d="M51.2207 75.9592C52.2455 76.2814 53.2199 76.7457 54.1156 77.3386C55.0249 77.9236 55.8579 78.6193 56.5954 79.4099C58.0734 81.0216 59.1478 82.9608 59.7306 85.0682C59.8849 85.591 60.0028 86.1237 60.0835 86.6628C60.1266 86.9311 60.1979 87.1975 60.2172 87.4683L60.2805 88.2809C60.3512 89.3571 60.3538 90.4367 60.2882 91.5133C60.2562 92.5866 60.137 93.6375 60.0579 94.6998C59.9844 95.7619 59.8512 96.8147 59.7307 97.8686C59.2384 102.085 58.5687 106.274 58.0176 110.476C57.4793 114.68 57 118.89 56.5516 123.106C56.116 127.323 55.632 131.534 55.0996 135.739C54.5666 139.943 54.039 144.149 53.4377 148.344C52.2095 156.73 50.8849 165.103 49.3015 173.437L49.1875 173.421C50.0471 164.982 51.107 156.574 52.2202 148.174C52.7903 143.976 53.4136 139.785 54.0253 135.593C54.6241 131.399 55.2709 127.211 55.9259 123.024C56.2404 120.929 56.5794 118.837 56.8478 116.735C57.1359 114.637 57.4185 112.537 57.6465 110.431L57.9793 107.271L58.2569 104.105L58.5327 100.94L58.776 97.7749C58.9658 95.6679 59.1183 93.5587 59.2687 91.4635C59.4521 89.3993 59.3166 87.3192 58.8669 85.2963C58.3904 83.2681 57.4483 81.3785 56.1152 79.777C54.7821 78.1756 53.0945 76.9061 51.1859 76.0692L51.2207 75.9592ZM72.9332 94.0079C73.4242 95.7397 73.7937 97.4903 74.1385 99.2446C74.475 101.001 74.7846 102.761 74.9919 104.536C75.184 106.314 75.2917 108.106 75.5234 109.878C75.7537 111.65 76.0986 113.404 76.4713 115.154C76.8555 116.903 77.2167 118.655 77.516 120.416C77.829 122.175 78.1504 123.934 78.4086 125.701C78.9077 129.24 79.3119 132.793 79.4998 136.38L79.3859 136.397C78.4794 132.922 77.7892 129.413 77.1938 125.89C76.9047 124.126 76.679 122.354 76.4447 120.582C76.1968 118.812 76.0108 117.033 75.8478 115.251C75.6734 113.47 75.471 111.693 75.1541 109.935C74.8386 108.176 74.3991 106.436 74.044 104.683C73.7041 102.928 73.4664 101.157 73.2558 99.3813C73.0534 97.6048 72.8756 95.8246 72.8194 94.0253L72.9332 94.0079ZM88.8043 89.2409C89.7802 90.6003 90.6477 92.0179 91.4931 93.4473C92.3312 94.8804 93.1452 96.3264 93.8679 97.8211C94.577 99.3234 95.2109 100.866 95.9554 102.349C96.6986 103.832 97.5441 105.262 98.4146 106.678C99.2951 108.088 100.155 109.51 100.96 110.961C101.777 112.405 102.602 113.845 103.37 115.316C104.891 118.265 106.327 121.26 107.57 124.357L107.468 124.412C105.584 121.657 103.892 118.798 102.286 115.895C101.49 114.439 100.751 112.953 100.004 111.471C99.2449 109.996 98.5412 108.491 97.858 106.975C97.1646 105.464 96.4463 103.967 95.6258 102.525C94.8065 101.082 93.8765 99.6975 93.0218 98.2731C92.1808 96.8414 91.431 95.3611 90.7053 93.8678C89.9869 92.3709 89.2906 90.8619 88.7027 89.2952L88.8043 89.2409Z" fill="#020202"/>
<path d="M76.4067 116.797C77.6326 116.664 78.824 116.518 79.9946 116.318C81.1484 116.132 82.2822 115.839 83.3814 115.442C83.9185 115.254 84.4355 115.013 84.9248 114.723C85.4141 114.446 85.8692 114.113 86.2805 113.73C86.6902 113.333 87.048 112.887 87.3455 112.4C87.646 111.882 87.8966 111.336 88.0942 110.77C88.1251 111.399 88.0467 112.029 87.8623 112.631C87.6576 113.247 87.3479 113.823 86.9468 114.334C86.1081 115.333 85.0158 116.088 83.7845 116.52C82.5961 116.946 81.3472 117.178 80.0852 117.209C78.8451 117.263 77.6042 117.124 76.4067 116.797ZM91.5221 108.812C92.7565 108.542 93.8389 108.348 94.9032 108.03C95.4379 107.88 95.9644 107.703 96.4803 107.497C97.0203 107.311 97.5262 107.048 98.1363 106.826C97.8398 107.394 97.4271 107.893 96.925 108.291C96.4229 108.689 95.8426 108.977 95.2219 109.136C94.6094 109.315 93.9703 109.384 93.3339 109.341C92.6971 109.308 92.0767 109.127 91.5221 108.812ZM50.2363 166.577C51.7274 166.601 53.2173 166.48 54.6851 166.217C56.1471 165.975 57.5947 165.653 59.0212 165.252C61.8645 164.425 64.6334 163.361 67.2989 162.072L69.2994 161.104L71.247 160.029L72.2273 159.501L73.1772 158.919C73.8084 158.528 74.4454 158.145 75.0855 157.764C75.729 157.39 76.3227 156.939 76.9511 156.538L78.821 155.307C80.0333 154.437 81.2414 153.557 82.4901 152.716C81.4068 153.752 80.2879 154.755 79.1639 155.757C77.9792 156.68 76.8139 157.638 75.586 158.512C74.9649 158.938 74.3408 159.361 73.7109 159.776L72.7675 160.402L71.7907 160.974L69.8238 162.1L67.793 163.112C65.0618 164.427 62.1932 165.436 59.2398 166.121C58.4932 166.256 57.7575 166.436 57.0056 166.534C56.2527 166.625 55.506 166.743 54.7481 166.776C53.2419 166.904 51.7254 166.837 50.2363 166.577ZM93.8074 94.1537C93.9837 94.1476 94.1508 94.0733 94.2733 93.9465C94.3959 93.8197 94.4644 93.6502 94.4644 93.4738C94.4644 93.2975 94.3959 93.128 94.2733 93.0012C94.1508 92.8743 93.9837 92.8 93.8074 92.7939C93.6311 92.8 93.464 92.8743 93.3414 93.0012C93.2189 93.128 93.1504 93.2975 93.1504 93.4738C93.1504 93.6502 93.2189 93.8197 93.3414 93.9465C93.464 94.0733 93.6311 94.1476 93.8074 94.1537ZM97.8882 103.291C98.0646 103.285 98.2316 103.211 98.3542 103.084C98.4768 102.957 98.5453 102.788 98.5453 102.612C98.5453 102.435 98.4768 102.266 98.3542 102.139C98.2316 102.012 98.0646 101.938 97.8882 101.932C97.7119 101.938 97.5449 102.012 97.4223 102.139C97.2997 102.266 97.2312 102.435 97.2312 102.612C97.2312 102.788 97.2997 102.957 97.4223 103.084C97.5449 103.211 97.7119 103.285 97.8882 103.291ZM101.643 111.45C101.819 111.444 101.986 111.37 102.109 111.243C102.231 111.116 102.3 110.947 102.3 110.77C102.3 110.594 102.231 110.424 102.109 110.298C101.986 110.171 101.819 110.096 101.643 110.09C101.466 110.096 101.299 110.171 101.177 110.298C101.054 110.424 100.986 110.594 100.986 110.77C100.986 110.947 101.054 111.116 101.177 111.243C101.299 111.37 101.466 111.444 101.643 111.45ZM105.234 117.977C105.41 117.971 105.577 117.897 105.7 117.77C105.822 117.643 105.891 117.474 105.891 117.297C105.891 117.121 105.822 116.951 105.7 116.825C105.577 116.698 105.41 116.623 105.234 116.617C105.057 116.623 104.89 116.698 104.768 116.825C104.645 116.951 104.577 117.121 104.577 117.297C104.577 117.474 104.645 117.643 104.768 117.77C104.89 117.897 105.057 117.971 105.234 117.977ZM108.825 124.341C109.001 124.335 109.168 124.26 109.291 124.134C109.413 124.007 109.482 123.837 109.482 123.661C109.482 123.485 109.413 123.315 109.291 123.188C109.168 123.061 109.001 122.987 108.825 122.981C108.649 122.987 108.482 123.061 108.359 123.188C108.236 123.315 108.168 123.485 108.168 123.661C108.168 123.837 108.236 124.007 108.359 124.134C108.482 124.26 108.649 124.335 108.825 124.341ZM112.416 131.357C112.592 131.351 112.759 131.277 112.882 131.15C113.005 131.023 113.073 130.854 113.073 130.677C113.073 130.501 113.005 130.332 112.882 130.205C112.759 130.078 112.592 130.004 112.416 129.998C112.24 130.004 112.073 130.078 111.95 130.205C111.828 130.332 111.759 130.501 111.759 130.677C111.759 130.854 111.828 131.023 111.95 131.15C112.073 131.277 112.24 131.351 112.416 131.357Z" fill="#020202"/>
<path d="M198.539 166.005L198.485 166.032C198.485 166.027 198.479 166.021 198.474 166.016C198.496 166.015 198.518 166.011 198.539 166.005Z" fill="white"/>
<path d="M199.406 182.589C199.56 182.653 199.714 182.712 199.869 182.766C199.479 182.793 199.089 182.825 198.699 182.861C197.296 182.975 195.904 183.2 194.536 183.537C193.781 183.706 193 183.737 192.233 183.627C191.706 183.542 191.187 183.42 190.678 183.26C190.474 183.197 190.274 183.119 190.075 183.038C188.679 182.502 187.425 181.652 186.411 180.554C185.389 179.448 184.743 178.047 184.565 176.552L184.502 175.999L184.525 175.441C184.538 175.07 184.556 174.707 184.579 174.363L184.615 173.837C184.624 173.665 184.606 173.488 184.602 173.311L184.584 172.785C184.57 172.613 184.538 172.436 184.516 172.264C184.406 171.442 184.199 170.635 183.899 169.862C183.693 169.313 183.446 168.781 183.16 168.271C182.47 167.018 181.58 165.887 180.525 164.921C182.794 166.759 184.339 169.339 184.887 172.205C184.915 172.386 184.955 172.563 184.974 172.744L185.019 173.293C185.028 173.474 185.055 173.655 185.051 173.837L185.037 174.385C185.023 174.757 185.019 175.11 185.019 175.455L185.014 175.972L185.096 176.479C185.318 177.84 185.95 179.101 186.91 180.092C187.873 181.084 189.05 181.844 190.351 182.313C190.496 182.372 190.646 182.422 190.796 182.467C191.3 182.618 191.816 182.732 192.337 182.807C192.992 182.886 193.655 182.848 194.296 182.693C195.554 182.351 196.836 182.104 198.132 181.955C198.377 182.1 198.626 182.231 198.876 182.354H198.88C199.057 182.44 199.229 182.517 199.406 182.589ZM233.916 184.216C233.763 184.29 233.603 184.352 233.44 184.402C233.083 184.518 232.713 184.594 232.339 184.629L232.298 184.67C232.209 184.748 232.114 184.818 232.012 184.878C231.834 184.976 231.647 185.056 231.454 185.118C231.114 185.22 230.762 185.283 230.407 185.304C230.074 185.328 229.739 185.331 229.405 185.313C229.074 185.3 228.788 185.259 228.48 185.232L224.821 184.869L217.502 184.139L204.947 182.843C204.961 182.839 204.974 182.839 204.988 182.834C205.128 182.807 205.273 182.78 205.419 182.752C205.437 182.748 205.45 182.748 205.464 182.743C205.609 182.716 205.759 182.689 205.904 182.666C206.23 182.612 206.561 182.562 206.892 182.517H206.901C206.996 182.503 207.096 182.49 207.191 182.476C207.194 182.3 207.207 182.125 207.228 181.95L210.053 182.208H210.057L217.616 182.897L222.513 183.364L224.92 183.595L228.575 183.94C228.874 183.967 229.196 184.008 229.477 184.022C229.754 184.033 230.031 184.028 230.307 184.008C230.497 183.993 230.687 183.967 230.874 183.931C230.937 183.913 231.005 183.895 231.064 183.877C231.165 183.848 231.262 183.808 231.355 183.759C231.391 183.736 231.423 183.713 231.441 183.7C231.445 183.691 231.454 183.686 231.454 183.682C231.459 183.682 231.459 183.682 231.454 183.691L231.445 183.704C231.433 183.721 231.424 183.739 231.418 183.759L231.908 183.41L231.944 183.383L231.971 183.364C232.03 183.36 232.089 183.355 232.148 183.346C232.176 183.407 232.194 183.471 232.203 183.537C232.213 183.624 232.202 183.714 232.169 183.796C232.137 183.878 232.084 183.951 232.017 184.008L232.003 184.035C232.234 184.058 232.456 184.076 232.679 184.099C232.955 184.126 233.223 184.148 233.486 184.176C233.631 184.189 233.776 184.203 233.916 184.216ZM232.352 181.461C232.307 181.578 232.271 181.696 232.234 181.81C232.189 181.796 232.144 181.782 232.098 181.773C231.917 181.723 231.735 181.678 231.554 181.633C231.187 181.542 230.815 181.456 230.448 181.338C230.833 181.303 231.22 181.305 231.604 181.343C231.856 181.364 232.106 181.404 232.352 181.461Z" fill="black"/>
<path d="M232.017 184.008C232.061 183.917 232.078 183.815 232.064 183.715C232.051 183.615 232.007 183.521 231.939 183.446C231.93 183.433 231.919 183.421 231.908 183.41C231.862 183.36 231.809 183.319 231.749 183.287C231.489 183.137 231.21 183.023 230.919 182.947C230.629 182.857 230.321 182.784 230.012 182.707C229.709 182.621 229.396 182.549 229.087 182.435C229.411 182.395 229.738 182.389 230.062 182.417C230.391 182.437 230.717 182.494 231.033 182.589C231.365 182.676 231.674 182.838 231.935 183.061C231.947 183.07 231.957 183.081 231.967 183.092C231.953 183.189 231.945 183.286 231.944 183.383L231.971 183.364C232.03 183.36 232.089 183.355 232.148 183.346C232.176 183.407 232.194 183.471 232.203 183.537C232.213 183.625 232.202 183.714 232.169 183.796C232.137 183.878 232.084 183.951 232.017 184.008Z" fill="black"/>
<path d="M237.571 184.552V184.556L237.308 187.91C237.233 188.898 236.887 189.846 236.31 190.65C235.733 191.455 234.946 192.086 234.034 192.475C231.893 193.393 229.66 194.081 227.374 194.528C224.868 193.979 222.501 192.924 220.418 191.428C220.418 191.428 212.338 187.82 210.111 191.07C207.309 190 198.808 187.307 200.286 194.786C200.354 195.113 200.435 195.457 200.54 195.824L181.401 193.771C181.401 193.771 183.251 191.55 182.14 189.166C181.141 186.934 180.896 184.438 181.441 182.054C181.623 181.22 181.858 180.282 182.171 179.23C182.656 177.621 182.937 175.956 183.006 174.276C183.055 172.799 182.929 171.298 182.285 170.8L183.899 169.862L184.03 169.784C184.816 171.358 185.08 173.141 184.783 174.875C184.366 179.099 187.631 181.873 190.732 182.866C191.908 183.293 193.182 183.379 194.405 183.115C195.871 182.737 197.367 182.482 198.876 182.353H198.88C199.057 182.439 199.229 182.517 199.406 182.589C199.56 182.652 199.714 182.711 199.869 182.766H199.878C199.991 182.807 200.109 182.847 200.222 182.884C201.099 183.174 202.021 183.301 202.943 183.26C203.245 183.244 203.545 183.196 203.836 183.115C204.008 183.065 204.19 183.02 204.376 182.974C204.512 182.938 204.643 182.906 204.784 182.879C204.838 182.866 204.888 182.856 204.942 182.843H204.947C204.961 182.838 204.974 182.838 204.988 182.834C205.128 182.807 205.273 182.779 205.419 182.752C205.437 182.748 205.45 182.748 205.464 182.743C205.609 182.716 205.759 182.689 205.904 182.666C206.23 182.612 206.561 182.562 206.892 182.516H206.901C206.992 182.53 207.092 182.539 207.187 182.548C207.186 182.524 207.188 182.5 207.191 182.476C207.194 182.3 207.207 182.124 207.228 181.95L210.053 182.208H210.057C210.316 182.19 210.56 182.177 210.783 182.163C210.869 182.158 210.955 182.154 211.036 182.149C211.367 182.131 211.649 182.118 211.866 182.113C211.957 182.109 212.039 182.104 212.107 182.104C212.274 182.095 212.37 182.095 212.37 182.095C212.71 182.136 213.091 182.177 213.508 182.222C213.585 182.231 213.667 182.24 213.748 182.249C214.084 182.285 214.442 182.322 214.823 182.362C214.981 182.381 215.145 182.394 215.312 182.412C215.341 182.418 215.37 182.421 215.399 182.421C215.498 182.43 215.598 182.444 215.698 182.453C215.798 182.462 215.897 182.476 216.002 182.485C216.083 182.494 216.169 182.503 216.256 182.512C216.378 182.521 216.5 182.535 216.623 182.548C216.704 179.004 220.436 177.012 222.762 175.091C222.762 175.091 223.039 172.921 224.966 173.673C226.376 174.217 226.222 173.864 227.065 174.39L227.066 174.391L227.067 174.393L227.068 174.394L227.07 174.394C227.559 174.695 228.03 175.025 228.48 175.382C228.258 175.523 228.04 175.659 227.831 175.804C223.524 178.691 222.667 181.687 222.531 183.137C222.521 183.213 222.515 183.288 222.513 183.364C222.494 183.586 222.499 183.809 222.526 184.03C226.435 184.398 229.305 184.66 229.305 184.66C231.414 184.783 231.912 184.175 232.003 184.035C232.234 184.058 232.457 184.076 232.679 184.098C232.955 184.126 233.223 184.148 233.486 184.175C233.631 184.189 233.776 184.203 233.916 184.216H233.921C234.066 184.23 234.207 184.243 234.347 184.257C234.488 184.266 234.624 184.28 234.755 184.293C234.914 184.307 235.064 184.32 235.213 184.334C235.417 184.352 235.612 184.37 235.798 184.388C235.989 184.407 236.17 184.425 236.342 184.438C236.51 184.456 236.669 184.47 236.819 184.484C237.045 184.502 237.254 184.524 237.444 184.543C237.489 184.547 237.53 184.552 237.571 184.552ZM189.048 167.333C188.77 167.445 188.47 167.495 188.17 167.481C187.87 167.468 187.577 167.39 187.31 167.253C187.031 167.099 186.812 166.856 186.69 166.562C186.576 166.283 186.55 165.975 186.616 165.681C186.693 165.943 186.805 166.193 186.951 166.424C187.088 166.632 187.275 166.803 187.494 166.923C187.724 167.044 187.97 167.134 188.224 167.189C188.486 167.246 188.76 167.298 189.048 167.333Z" fill="#4087D5"/>
<path d="M33.9385 174.995C34.1316 176.156 34.2364 177.331 34.2519 178.508C34.3251 179.72 34.1402 180.934 33.7094 182.069C33.5672 182.379 33.3599 182.654 33.1018 182.876C32.8143 183.109 32.4571 183.239 32.0871 183.245C31.5557 183.277 30.9625 183.377 30.3953 183.466L26.9523 184.073L13.1875 186.705C10.8909 187.134 8.59726 187.58 6.31629 188.077C5.17573 188.324 4.03866 188.59 2.92047 188.91C2.36278 189.059 1.81482 189.243 1.27972 189.459C1.15346 189.512 1.03115 189.573 0.913753 189.643C0.86736 189.67 0.82463 189.702 0.786647 189.739C0.780704 189.745 0.775529 189.762 0.784004 189.719C0.776335 189.692 0.776687 189.713 0.782948 189.735L0.794273 189.791C0.855825 190.095 0.896911 190.367 0.973764 190.637C1.13254 191.165 1.45752 191.629 1.90051 191.958C2.3655 192.278 2.87976 192.519 3.42282 192.672C4.53178 192.989 5.67773 193.159 6.83108 193.177C9.15562 193.219 11.4801 193.091 13.7859 192.793L14.2033 193.138C14.2329 193.2 14.2673 193.26 14.3061 193.317C14.3648 193.399 14.4337 193.475 14.5112 193.54C14.6817 193.688 14.8709 193.813 15.074 193.911C15.5167 194.118 15.9831 194.27 16.4629 194.364C17.4654 194.554 18.4837 194.648 19.5041 194.643C21.5928 194.657 23.6904 194.641 25.783 194.571C27.8763 194.505 29.9657 194.391 32.0513 194.23C34.1361 194.083 36.2126 193.86 38.2692 193.567C39.2954 193.411 40.3156 193.227 41.3148 192.989C42.3017 192.771 43.2646 192.457 44.1894 192.05C44.6155 191.862 45.0065 191.604 45.3452 191.284C45.6116 190.947 45.7743 190.54 45.8136 190.112C45.9827 189.1 46.0763 188.077 46.0937 187.052C46.1688 184.972 46.1352 182.873 46.0579 180.777C45.9871 178.681 45.8822 176.582 45.7595 174.484L45.8741 174.472C46.5067 178.643 46.8735 182.849 46.9724 187.066C46.9877 188.143 46.9221 189.218 46.7762 190.285C46.731 190.569 46.6663 190.849 46.5827 191.124C46.5331 191.275 46.4743 191.422 46.4068 191.566C46.3221 191.721 46.2161 191.864 46.0919 191.99C45.6815 192.411 45.201 192.756 44.6719 193.012C42.6951 193.891 40.6015 194.48 38.4561 194.76C34.2679 195.371 30.0416 195.682 25.8092 195.691C23.699 195.717 21.5913 195.724 19.4773 195.633C18.3946 195.604 17.3172 195.47 16.2602 195.235C15.7102 195.111 15.1792 194.915 14.6816 194.65C14.4178 194.506 14.1745 194.327 13.9583 194.119C13.8414 194.007 13.7386 193.882 13.6523 193.746C13.5423 193.584 13.4706 193.4 13.4427 193.207L13.86 193.553C11.5127 193.743 9.15491 193.772 6.80361 193.638C5.61738 193.579 4.44236 193.38 3.30343 193.043C2.72201 192.869 2.17334 192.6 1.67952 192.247C1.18632 191.862 0.822639 191.335 0.637156 190.737C0.550391 190.446 0.500446 190.139 0.442797 189.871L0.431977 189.82C0.424429 189.79 0.421185 189.759 0.42235 189.727C0.421889 189.648 0.450992 189.571 0.50402 189.512C0.565432 189.442 0.637322 189.383 0.717091 189.335C0.849656 189.254 0.988075 189.182 1.13121 189.121C1.68444 188.884 2.24201 188.699 2.80251 188.519C3.92517 188.169 5.05434 187.853 6.18446 187.541C8.44686 186.925 10.7222 186.366 13.0017 185.826C17.5625 184.75 22.171 183.911 26.7995 183.174C27.9572 182.991 29.1168 182.82 30.2868 182.688C30.8784 182.624 31.4446 182.551 32.0824 182.542C32.3152 182.536 32.5411 182.461 32.7317 182.327C32.9224 182.194 33.0695 182.007 33.1546 181.79C33.3946 181.29 33.5597 180.757 33.6445 180.209C33.7479 179.643 33.8156 179.072 33.8472 178.498C33.9079 177.336 33.9002 176.171 33.8241 175.01L33.9385 174.995Z" fill="#020202"/>
<path d="M30.9626 187.788C28.0202 188.499 25.0962 189.285 22.2171 190.179C20.7801 190.631 19.3523 191.11 17.9697 191.66C17.2815 191.937 16.6017 192.232 15.9687 192.564C15.6623 192.72 15.3673 192.897 15.0861 193.095C14.9649 193.18 14.8502 193.274 14.743 193.376C14.7049 193.421 14.6659 193.464 14.6253 193.505C14.619 193.533 14.6053 193.559 14.5857 193.579L13.0603 192.766C13.1503 192.633 13.2478 192.502 13.3493 192.379L13.6414 192.115C13.8222 191.973 14.0134 191.844 14.2134 191.73C14.5725 191.525 14.9456 191.346 15.3299 191.194C16.0558 190.904 16.7958 190.65 17.5471 190.435C19.0264 190.005 20.5109 189.66 21.9988 189.344C24.9756 188.721 27.9645 188.216 30.9626 187.788ZM201.343 103.83C202.445 106.111 203.49 108.421 204.448 110.779C204.924 111.961 205.378 113.153 205.771 114.384C205.972 115.01 206.142 115.646 206.28 116.289C206.355 116.633 206.405 116.981 206.43 117.332C206.444 117.53 206.443 117.73 206.427 117.929L206.376 118.272C206.334 118.411 206.285 118.548 206.228 118.683L204.709 117.857C204.71 117.844 204.717 117.835 204.733 117.826C204.742 117.785 204.754 117.743 204.767 117.703C204.79 117.588 204.804 117.472 204.809 117.354C204.821 117.073 204.813 116.791 204.784 116.51C204.724 115.905 204.634 115.303 204.514 114.706C204.275 113.489 203.964 112.27 203.63 111.057C202.953 108.63 202.179 106.219 201.343 103.83Z" fill="#020202"/>
<path d="M186.501 83.9412C189.137 84.042 191.758 84.3832 194.332 84.9605C196.884 85.5821 199.53 86.3097 201.667 88.1743C202.17 88.662 202.608 89.2123 202.97 89.8116C203.292 90.4017 203.623 90.9893 203.916 91.5884L204.724 93.4068C204.97 94.0191 205.211 94.6336 205.446 95.2503C206.356 97.7249 207.123 100.24 207.866 102.758L210.023 110.328C210.764 112.844 211.459 115.371 212.164 117.902C212.249 118.22 212.339 118.535 212.416 118.857C212.493 119.185 212.584 119.477 212.644 119.854C212.716 120.529 212.716 121.209 212.646 121.884C212.602 122.587 212.432 123.276 212.145 123.919C211.972 124.301 211.683 124.618 211.32 124.827C211.116 124.921 210.895 124.971 210.67 124.975C210.445 124.978 210.222 124.935 210.016 124.847C209.353 124.542 208.767 124.094 208.298 123.535C207.843 123.033 207.423 122.501 207.04 121.942C206.29 120.843 205.603 119.703 204.981 118.527L205.729 118.756C205.637 118.802 205.539 118.835 205.438 118.853C205.365 118.867 205.291 118.875 205.217 118.879C205.083 118.883 204.949 118.875 204.817 118.854C204.583 118.811 204.356 118.738 204.141 118.636C203.755 118.452 203.395 118.217 203.073 117.935C202.473 117.412 201.93 116.826 201.456 116.186C200.555 114.941 199.752 113.627 199.055 112.257C198.332 110.923 197.664 109.567 197.013 108.204C196.356 106.843 195.723 105.472 195.114 104.091C194.507 102.709 193.905 101.325 193.326 99.9309C192.743 98.5372 192.177 97.139 191.682 95.6992C191.585 95.3639 191.45 95.0403 191.282 94.7344C191.108 94.4552 190.87 94.221 190.589 94.0509C189.968 93.719 189.269 93.5634 188.566 93.6009C187.079 93.682 185.618 94.0229 184.248 94.6084L184.198 94.5049C185.547 93.7767 187.02 93.3077 188.542 93.1224C189.348 93.025 190.165 93.1622 190.895 93.5176C191.273 93.719 191.598 94.0061 191.844 94.3558C192.061 94.6964 192.24 95.0605 192.376 95.441C193.542 98.1904 194.801 100.929 196.106 103.632C197.418 106.335 198.736 109.037 200.14 111.677C200.813 112.989 201.57 114.257 202.406 115.472C202.818 116.051 203.29 116.584 203.815 117.063C204.056 117.283 204.325 117.47 204.616 117.617C204.74 117.68 204.872 117.727 205.008 117.758C205.061 117.766 205.116 117.771 205.17 117.772C205.195 117.774 205.21 117.768 205.229 117.768C205.231 117.77 205.278 117.75 205.208 117.784L205.956 118.012C206.541 119.164 207.185 120.284 207.886 121.369C208.226 121.903 208.603 122.414 209.012 122.898C209.372 123.36 209.825 123.741 210.342 124.017C210.434 124.064 210.535 124.093 210.639 124.099C210.742 124.106 210.846 124.091 210.944 124.055C211.154 123.937 211.323 123.758 211.429 123.541C211.7 122.995 211.873 122.406 211.94 121.8C212.038 121.176 212.069 120.542 212.032 119.911C211.944 119.331 211.79 118.654 211.651 118.028C210.487 112.921 209.028 107.885 207.281 102.946C206.419 100.474 205.48 98.0314 204.521 95.6089C204.267 95.0095 204.019 94.408 203.777 93.8045L202.982 92.0339C202.707 91.4525 202.4 90.893 202.104 90.3288C201.795 89.8026 201.421 89.3177 200.99 88.8859C200.05 88.0548 198.977 87.3864 197.817 86.9082C196.626 86.4075 195.405 85.9799 194.162 85.6279C191.64 84.9454 189.079 84.4205 186.493 84.0561L186.501 83.9412Z" fill="#020202"/>
<path d="M184.264 57.582C179.147 57.6152 174.03 57.613 168.913 57.6751L153.563 57.8861C148.446 57.9758 143.329 57.9876 138.212 58.0236C135.653 58.0498 133.095 58.0377 130.536 58.0276L126.699 58.0146C126.057 58.0085 125.436 58.0276 124.729 57.9677C124.045 57.8852 123.376 57.7057 122.743 57.4347C121.479 56.8745 120.417 55.9406 119.7 54.7586C118.991 53.5896 118.647 52.2353 118.713 50.8695L118.795 43.1969L118.879 35.5244L118.916 27.8516C118.954 22.7367 118.932 17.6215 118.913 12.5065L118.901 8.67026C118.905 8.02502 118.871 7.40453 118.904 6.73905C118.931 6.07479 119.064 5.41916 119.299 4.79714C119.764 3.53861 120.6 2.45054 121.696 1.67643C122.247 1.29614 122.849 0.995143 123.484 0.782273C124.127 0.587651 124.793 0.481108 125.464 0.465559C135.698 0.354741 145.932 0.27917 156.165 0.238851L171.516 0.180349L179.192 0.175537L183.029 0.181165C183.672 0.186228 184.288 0.165131 185.011 0.22532C185.707 0.307774 186.387 0.489053 187.032 0.763677C188.321 1.33036 189.408 2.27375 190.151 3.4698C190.525 4.06162 190.802 4.7098 190.97 5.38948C191.057 5.72784 191.121 6.07169 191.161 6.41866C191.178 6.76293 191.203 7.12915 191.195 7.43602C191.193 9.99334 191.192 12.5509 191.161 15.1085C191.112 20.2235 191.082 25.3387 190.992 30.4536L190.772 45.7987L190.733 49.6352C190.721 50.2771 190.745 50.908 190.704 51.5592C190.669 52.2094 190.529 52.8498 190.291 53.4558C189.822 54.6748 188.994 55.7229 187.917 56.462C187.378 56.8224 186.792 57.1055 186.175 57.3033C185.554 57.4818 184.911 57.5755 184.264 57.582ZM184.264 57.467C184.898 57.4533 185.527 57.3544 186.135 57.1731C186.735 56.973 187.305 56.6901 187.827 56.3326C188.866 55.6028 189.66 54.5751 190.103 53.3852C190.594 52.2044 190.488 50.9128 190.491 49.6353L190.452 45.7987L190.233 30.4536C190.142 25.3387 190.112 20.2235 190.063 15.1086C190.033 12.551 190.032 9.99336 190.029 7.43604C190.036 7.10301 190.009 6.83102 189.998 6.53681C189.963 6.24881 189.909 5.96344 189.836 5.68259C189.696 5.11879 189.464 4.58158 189.151 4.092C188.533 3.10117 187.628 2.32059 186.558 1.85279C186.023 1.6283 185.459 1.48002 184.884 1.41232C184.331 1.36619 183.666 1.38166 183.029 1.38054L179.192 1.38616L171.516 1.3811L156.165 1.32259C145.932 1.28913 135.698 1.21365 125.464 1.09618C124.854 1.10073 124.248 1.18681 123.662 1.35212C123.08 1.53695 122.526 1.80203 122.017 2.1397C120.996 2.83454 120.21 3.8223 119.763 4.97269C119.267 6.11521 119.35 7.38318 119.331 8.67029L119.318 12.5066C119.299 17.6215 119.278 22.7367 119.315 27.8516L119.353 35.5244L119.437 43.197L119.519 50.8695C119.515 51.1986 119.545 51.4847 119.56 51.7859C119.598 52.082 119.657 52.3751 119.735 52.6635C119.885 53.241 120.127 53.7904 120.453 54.2901C121.098 55.2951 122.028 56.0853 123.124 56.5596C123.67 56.7878 124.245 56.9379 124.832 57.0058C125.401 57.0516 126.061 57.0344 126.699 57.0344L130.536 57.0215C133.095 57.0114 135.653 56.9996 138.212 57.0254C143.329 57.0614 148.446 57.0735 153.563 57.163L168.913 57.3739C174.03 57.4361 179.147 57.4338 184.264 57.467Z" fill="#FAD82B"/>
<path d="M149 30.6287C145.432 30.6107 141.864 30.7958 138.296 30.9328C136.512 31.0076 134.728 31.0687 132.944 31.0779L131.606 31.0889C131.146 31.0802 130.752 31.1035 130.215 31.061C129.202 30.9504 128.268 30.4606 127.601 29.69C126.935 28.9194 126.584 27.9252 126.62 26.9069L126.703 24.232C126.762 22.4488 126.818 20.6655 126.837 18.8822L126.846 13.5145C126.928 12.5542 127.362 11.6579 128.064 10.9975C128.766 10.3371 129.687 9.95891 130.651 9.93554C134.219 9.82472 137.787 9.7426 141.355 9.70912L146.706 9.65062L148.044 9.63853C148.508 9.64528 148.891 9.61911 149.446 9.66046C150.493 9.76915 151.461 10.2664 152.16 11.0541C152.858 11.8418 153.236 12.8626 153.218 13.915L153.182 16.5899C153.155 18.3731 153.085 20.1567 153.006 21.94C152.918 23.7297 152.875 25.4919 152.769 27.3044C152.646 28.2268 152.194 29.0737 151.495 29.6882C150.807 30.2973 149.919 30.6321 149 30.6287ZM149 30.5137C149.884 30.5046 150.733 30.1651 151.38 29.5619C152.015 28.9636 152.398 28.1453 152.45 27.2743C152.414 25.522 152.32 23.7162 152.248 21.94C152.169 20.1567 152.099 18.3732 152.072 16.5899L152.036 13.915C152.032 13.1647 151.753 12.4419 151.252 11.8831C150.752 11.3243 150.063 10.9682 149.318 10.882C148.983 10.8528 148.472 10.8682 148.044 10.8632L146.706 10.8511L141.355 10.7926C137.787 10.7591 134.219 10.677 130.651 10.5662C129.811 10.547 128.995 10.8429 128.363 11.3954C127.731 11.9479 127.329 12.7171 127.236 13.5513C127.178 15.2969 127.201 17.1074 127.21 18.8822C127.229 20.6655 127.285 22.4488 127.344 24.232L127.427 26.9069C127.448 27.6911 127.754 28.4407 128.286 29.0169C128.819 29.5931 129.542 29.9568 130.322 30.0406C130.675 30.069 131.175 30.0507 131.606 30.0538L132.944 30.0648C134.728 30.0738 136.512 30.1348 138.296 30.2096C141.864 30.3469 145.432 30.5317 149 30.5137ZM180.014 49.8067C176.446 49.7884 172.878 49.9735 169.31 50.1108C167.526 50.1856 165.742 50.2466 163.959 50.2556L162.621 50.2666C162.16 50.2582 161.766 50.2812 161.23 50.2387C160.217 50.1281 159.283 49.6383 158.616 48.8678C157.949 48.0973 157.599 47.1031 157.635 46.0849L157.717 43.41C157.777 41.6268 157.832 39.8435 157.851 38.0602L157.86 32.6924C157.942 31.7321 158.376 30.8359 159.078 30.1754C159.78 29.5149 160.702 29.1367 161.665 29.1132C165.233 29.0027 168.801 28.9206 172.369 28.8868L177.721 28.8283L179.059 28.8162C179.522 28.823 179.905 28.7968 180.46 28.8382C181.507 28.9468 182.476 29.4442 183.174 30.2319C183.873 31.0197 184.25 32.0406 184.232 33.093L184.196 35.7678C184.17 37.5511 184.099 39.3344 184.021 41.1176C183.933 42.9074 183.889 44.6696 183.783 46.4821C183.661 47.4046 183.208 48.2515 182.509 48.8661C181.821 49.475 180.933 49.8098 180.014 49.8067ZM180.014 49.6914C180.898 49.6825 181.747 49.3431 182.394 48.7398C183.029 48.1415 183.412 47.3231 183.465 46.452C183.428 44.6996 183.335 42.8939 183.262 41.1176C183.183 39.3344 183.113 37.5511 183.087 35.7678L183.051 33.093C183.047 32.3427 182.768 31.6199 182.267 31.0611C181.766 30.5023 181.078 30.1462 180.332 30.06C179.997 30.0305 179.487 30.0462 179.059 30.0412L177.721 30.0291L172.369 29.9706C168.801 29.9368 165.233 29.8547 161.665 29.7441C160.826 29.7249 160.01 30.0206 159.378 30.5731C158.745 31.1256 158.343 31.8948 158.25 32.729C158.192 34.4748 158.216 36.2851 158.225 38.0602C158.244 39.8435 158.299 41.6268 158.359 43.41L158.441 46.0849C158.463 46.869 158.768 47.6187 159.301 48.1949C159.833 48.7711 160.556 49.1348 161.337 49.2186C161.69 49.247 162.19 49.2284 162.621 49.2315L163.959 49.2425C165.742 49.2518 167.526 49.3128 169.31 49.3876C172.878 49.5246 176.446 49.7097 180.014 49.6914Z" fill="#4087D5"/>
<path d="M140.282 25.5062C139.474 25.5639 138.586 25.6505 137.67 25.6905L137.495 25.6984L137.486 25.5062C137.413 23.9955 137.388 22.4845 137.382 20.9738L137.381 20.6838L137.67 20.6858C138.541 20.692 139.411 20.6945 140.282 20.7198L140.541 20.7274L140.536 20.9738C140.504 22.5478 140.384 24.1007 140.282 25.5062ZM140.282 25.5062C140.179 23.8901 140.06 22.4213 140.028 20.9738L140.282 21.2275C139.411 21.2529 138.541 21.2554 137.67 21.2616L137.958 20.9738C137.952 22.4846 137.927 23.9955 137.854 25.5062L137.67 25.322C138.495 25.362 139.349 25.4486 140.282 25.5062Z" fill="#FAD82B"/>
<path d="M142.894 25.5062L141.621 25.5858C141.184 25.6106 140.736 25.6486 140.282 25.6604L140.132 25.6643L140.127 25.5062C140.095 24.438 140.042 23.37 140.027 22.3017C140.002 21.2334 140.001 20.1654 139.994 19.0972L139.992 18.8069L140.282 18.8094C141.152 18.8167 142.023 18.8134 142.893 18.8308L143.163 18.8364L143.16 19.0972C143.148 20.1978 143.101 21.2939 143.056 22.3689C143.018 23.4484 142.948 24.4951 142.894 25.5062ZM142.894 25.5062C142.839 24.3811 142.769 23.2915 142.731 22.2345C142.686 21.1732 142.639 20.1331 142.627 19.0972L142.893 19.3635C142.023 19.3809 141.152 19.3776 140.282 19.3849L140.57 19.0971C140.563 20.1654 140.561 21.2334 140.537 22.3017C140.522 23.37 140.468 24.4379 140.436 25.5062L140.282 25.3521C140.698 25.3639 141.121 25.4019 141.555 25.4266L142.894 25.5062Z" fill="#F79155"/>
<path d="M145.936 25.5061C143.731 25.6355 141.526 25.6878 139.32 25.7407C137.115 25.7817 134.91 25.7981 132.705 25.7896L132.42 25.7882L132.421 25.5061C132.43 23.6612 132.441 21.8166 132.497 19.9718C132.539 18.1269 132.598 16.2824 132.705 14.4375C132.812 16.2824 132.871 18.1269 132.913 19.9718C132.969 21.8167 132.98 23.6612 132.988 25.5061L132.705 25.2229C134.91 25.2136 137.115 25.2298 139.32 25.2715C141.526 25.3244 143.731 25.3767 145.936 25.5061ZM168.086 34.3946C170.092 34.1904 172.109 34.0943 174.126 34.1068C176.142 34.0929 178.159 34.189 180.165 34.3946C178.159 34.6001 176.142 34.6962 174.126 34.6823C172.109 34.6948 170.092 34.5987 168.086 34.3946ZM163.189 37.0053C165.195 36.8012 167.212 36.7051 169.228 36.7176C171.245 36.7037 173.262 36.7998 175.268 37.0053C173.262 37.2109 171.245 37.307 169.228 37.2931C167.212 37.3056 165.195 37.2095 163.189 37.0053ZM163.189 39.728C165.195 39.5239 167.212 39.4278 169.228 39.4403C171.245 39.4266 173.262 39.5226 175.268 39.728C173.262 39.9336 171.245 40.0297 169.228 40.0161C167.212 40.0286 165.195 39.9324 163.189 39.728ZM163.189 42.451C165.195 42.2466 167.212 42.1505 169.228 42.163C171.245 42.1492 173.262 42.2454 175.268 42.451C173.262 42.6565 171.245 42.7525 169.228 42.7388C167.212 42.7513 165.195 42.6552 163.189 42.451ZM168.086 44.708C170.092 44.5036 172.109 44.4074 174.126 44.42C176.142 44.4062 178.159 44.5023 180.165 44.708C178.159 44.9134 176.142 45.0095 174.126 44.9957C172.109 45.0082 170.092 44.9121 168.086 44.708Z" fill="#23AC52"/>
<path d="M189.961 164.921C191.529 166.22 192.772 167.868 193.59 169.732C193.596 169.747 193.6 169.762 193.6 169.778L193.6 169.785L193.6 169.789L193.56 169.691L193.569 169.709L193.6 169.755C194.293 171.366 194.587 173.121 194.457 174.87L194.452 174.905C194.455 174.895 194.456 174.885 194.455 174.875H194.454L194.453 174.9L194.435 175.515C194.432 175.719 194.442 175.924 194.464 176.127L194.464 176.137L194.465 176.148L194.465 176.153L194.464 176.133C194.487 176.322 194.508 176.51 194.545 176.699C194.574 176.892 194.629 177.063 194.672 177.233L194.684 177.282C194.686 177.286 194.687 177.29 194.688 177.294C194.689 177.298 194.689 177.302 194.688 177.306L194.702 177.346C194.777 177.585 194.866 177.819 194.971 178.047L195.117 178.394L195.3 178.723L195.718 179.354C195.863 179.558 196.02 179.753 196.187 179.94L196.238 180.014C196.221 179.971 196.191 179.935 196.151 179.912L196.218 179.971C196.413 180.186 196.622 180.388 196.844 180.574C197.072 180.756 197.28 180.964 197.523 181.125C197.759 181.294 198.019 181.443 198.265 181.603C198.52 181.748 198.784 181.876 199.042 182.015L198.876 181.976H198.88C198.931 181.975 198.982 181.986 199.029 182.006L199.046 182.014C199.358 182.154 199.674 182.286 199.998 182.398L199.869 182.376H199.878C199.919 182.375 199.96 182.382 199.999 182.395L200.018 182.402C200.788 182.676 201.597 182.827 202.414 182.85C202.809 182.861 203.203 182.821 203.587 182.731C203.958 182.627 204.442 182.498 204.833 182.407L204.837 182.407C204.872 182.399 204.907 182.395 204.942 182.394H204.947L204.805 182.417L204.846 182.407L204.902 182.393L205.134 182.346L205.25 182.323C205.289 182.316 205.337 182.303 205.32 182.312L205.38 182.296C205.869 182.2 206.346 182.13 206.828 182.05C206.843 182.047 206.858 182.046 206.873 182.045L206.892 182.045H206.901L206.835 182.05C207.363 181.969 207.905 181.907 208.429 181.85L209.229 181.77L210.057 181.701L210.022 181.702L211.186 181.622L212.369 181.561L212.402 181.562L212.433 181.565L215.398 181.862L215.449 181.865L232.014 183.4L231.958 183.397L232.003 183.401L232.065 183.404L233.978 183.582L233.916 183.579H233.921C233.94 183.579 233.962 183.58 233.981 183.582L237.571 183.907L237.677 183.916L237.759 183.925L237.709 183.919L238.241 183.965L238.506 183.988C238.574 183.992 238.642 183.999 238.709 184.009L238.715 184.133C238.716 184.153 238.723 184.173 238.734 184.19C238.746 184.206 238.762 184.219 238.781 184.227C238.8 184.235 238.821 184.237 238.841 184.234C238.861 184.23 238.88 184.221 238.895 184.207C238.91 184.193 238.92 184.175 238.926 184.156C238.931 184.136 238.93 184.115 238.924 184.096C238.918 184.076 238.906 184.059 238.891 184.046C238.875 184.033 238.856 184.024 238.836 184.022C238.719 184.007 238.794 184.018 238.817 184.016L238.906 184.019L239.084 184.025C239.206 184.032 239.31 184.024 239.424 184.025C239.64 184.02 239.856 184.003 240.07 183.974C240.261 183.945 240.448 183.898 240.629 183.832C240.699 183.805 240.765 183.772 240.827 183.731C240.847 183.719 240.865 183.705 240.882 183.689C240.89 183.683 240.89 183.682 240.89 183.682C240.882 183.698 240.895 183.661 240.849 183.76L241.406 183.361C241.769 183.343 242.129 183.281 242.477 183.175C242.632 183.128 242.782 183.064 242.923 182.984C242.983 182.949 243.041 182.91 243.095 182.867C243.12 182.847 243.14 182.827 243.159 182.81C243.165 182.806 243.206 182.75 243.166 182.811L243.56 182.515C243.817 182.455 244.064 182.357 244.293 182.224C244.375 182.176 244.449 182.115 244.512 182.042C244.53 182.021 244.546 181.997 244.558 181.972C244.563 181.963 244.564 181.957 244.566 181.955C244.565 181.972 244.564 181.923 244.563 182.026L245.013 181.385C245.317 181.293 245.6 181.144 245.848 180.945C245.964 180.849 246.068 180.739 246.158 180.619C246.235 180.518 246.299 180.408 246.349 180.291C246.409 180.122 246.53 179.982 246.688 179.898C246.895 179.805 247.083 179.674 247.243 179.513C247.329 179.379 247.326 179.419 247.283 179.277C247.169 179.082 247.016 178.912 246.833 178.779C246.614 178.608 246.381 178.457 246.134 178.33L246.239 178.37L236.01 175.445C232.6 174.475 229.197 173.475 225.794 172.477L225.826 172.485L224.885 172.257L224.997 172.271H224.984L224.963 172.27C224.932 172.27 224.902 172.265 224.872 172.257C222.581 171.625 220.362 170.754 218.254 169.658C216.158 168.565 214.166 167.283 212.303 165.828C210.448 164.379 208.692 162.808 207.046 161.125C205.398 159.453 203.879 157.658 202.503 155.756C203.976 157.574 205.568 159.292 207.268 160.9C208.96 162.506 210.758 163.997 212.65 165.364C214.531 166.728 216.521 167.935 218.601 168.973C220.676 169.992 222.853 170.79 225.096 171.355L224.984 171.342L224.997 171.341C225.028 171.341 225.058 171.344 225.088 171.35L225.11 171.355L226.018 171.553C226.028 171.555 226.041 171.559 226.051 171.561C229.477 172.479 232.903 173.395 236.321 174.34L246.578 177.163L246.585 177.165C246.619 177.174 246.652 177.187 246.683 177.203C247.013 177.368 247.325 177.567 247.615 177.794C247.954 178.045 248.231 178.369 248.426 178.743C248.551 178.996 248.599 179.28 248.562 179.56C248.552 179.635 248.539 179.71 248.523 179.783L248.439 179.976L248.343 180.163C248.307 180.214 248.268 180.259 248.229 180.306C247.951 180.621 247.609 180.873 247.227 181.047L247.565 180.654C247.477 180.914 247.347 181.158 247.18 181.376C247.031 181.577 246.858 181.761 246.666 181.922C246.29 182.23 245.857 182.463 245.392 182.606L245.841 181.965C245.844 182.071 245.831 182.178 245.803 182.281C245.783 182.355 245.757 182.427 245.726 182.497C245.669 182.622 245.596 182.739 245.509 182.845C245.36 183.028 245.181 183.184 244.979 183.308C244.638 183.514 244.267 183.667 243.88 183.761L244.274 183.465C244.219 183.552 244.155 183.633 244.082 183.707C244.029 183.761 243.973 183.812 243.915 183.86C243.807 183.948 243.693 184.027 243.573 184.097C243.352 184.224 243.118 184.327 242.875 184.403C242.425 184.544 241.96 184.629 241.49 184.655L242.047 184.256C242.011 184.339 241.964 184.416 241.907 184.487C241.871 184.531 241.832 184.574 241.791 184.613C241.721 184.683 241.644 184.745 241.562 184.801C241.422 184.896 241.272 184.975 241.115 185.036C240.84 185.142 240.554 185.217 240.263 185.259C239.994 185.295 239.724 185.316 239.454 185.321C239.324 185.32 239.185 185.327 239.063 185.32L238.877 185.313L238.783 185.309C238.716 185.309 238.649 185.303 238.583 185.29L238.709 185.303L237.597 185.203L237.547 185.197L237.465 185.188L237.571 185.196L237.4 185.186L237.281 185.174L237.056 185.153L236.602 185.109L235.685 185.022L233.862 184.851L233.921 184.854H233.916C233.896 184.854 233.875 184.853 233.855 184.851L231.941 184.666L232.003 184.669L231.958 184.664L231.901 184.661L223.618 183.851L215.348 182.978L215.398 182.98L213.823 182.81L212.306 182.625L212.37 182.629L211.239 182.662L210.093 182.715L210.057 182.716L209.304 182.764L208.525 182.824C207.997 182.87 207.486 182.916 206.968 182.983L206.957 182.985C206.938 182.987 206.92 182.988 206.901 182.988H206.892L206.956 182.984C206.486 183.051 206.007 183.11 205.548 183.19L205.608 183.175C205.511 183.199 205.48 183.202 205.44 183.21L205.318 183.232L205.073 183.275L205.13 183.26L205.089 183.269L205.008 183.286C204.988 183.29 204.967 183.292 204.947 183.292H204.942L205.051 183.278C204.601 183.373 204.25 183.459 203.788 183.576C203.33 183.674 202.86 183.711 202.392 183.689C201.483 183.644 200.587 183.455 199.738 183.13L199.878 183.156H199.869L199.858 183.156C199.817 183.155 199.777 183.147 199.739 183.133C199.391 183.004 199.051 182.853 198.715 182.693L198.88 182.731H198.876L198.853 182.731C198.803 182.73 198.753 182.717 198.709 182.692C198.434 182.538 198.154 182.393 197.885 182.232C197.625 182.055 197.36 181.894 197.105 181.703C196.845 181.521 196.623 181.293 196.381 181.09C196.142 180.879 195.919 180.653 195.711 180.412L195.778 180.471C195.72 180.429 195.673 180.376 195.637 180.314L195.688 180.389C195.508 180.179 195.34 179.959 195.184 179.731L194.754 179.028L194.567 178.659L194.419 178.273C194.314 178.018 194.225 177.756 194.153 177.489L194.167 177.529C194.15 177.474 194.136 177.418 194.126 177.362L194.138 177.411C194.034 177.005 193.97 176.591 193.947 176.173L193.946 176.167L193.946 176.153L193.946 176.148L193.947 176.17C193.931 175.949 193.929 175.728 193.94 175.508L193.985 174.849L193.983 174.874C193.985 174.846 193.989 174.818 193.995 174.79L193.989 174.825C194.176 173.142 193.954 171.438 193.342 169.859L193.372 169.905L193.364 169.887L193.328 169.813C193.325 169.806 193.323 169.797 193.323 169.789L193.323 169.784L193.333 169.837C192.966 168.907 192.495 168.021 191.929 167.196C191.366 166.362 190.706 165.598 189.961 164.921Z" fill="#020202"/>
<path d="M246.958 180.471C246.833 180.24 246.656 180.04 246.443 179.886C246.239 179.736 246.016 179.612 245.78 179.518C245.31 179.307 244.793 179.193 244.26 179.004C244.537 178.95 244.82 178.936 245.101 178.963C245.386 178.99 245.666 179.06 245.93 179.171C246.203 179.283 246.447 179.454 246.645 179.673C246.85 179.887 246.963 180.174 246.958 180.471ZM245.202 181.997C245.228 181.708 244.964 181.568 244.767 181.427C244.543 181.292 244.31 181.172 244.07 181.067C243.567 180.853 243.076 180.611 242.599 180.342C243.163 180.358 243.718 180.488 244.23 180.725C244.494 180.842 244.738 181.002 244.951 181.197C245.063 181.299 245.155 181.422 245.221 181.558C245.258 181.626 245.276 181.703 245.272 181.78C245.269 181.858 245.244 181.933 245.202 181.997ZM243.719 183.14C243.705 182.956 243.624 182.785 243.493 182.656C243.371 182.528 243.231 182.419 243.075 182.334C242.755 182.16 242.416 182.023 242.066 181.926C241.714 181.813 241.351 181.724 240.985 181.634C240.62 181.541 240.249 181.458 239.878 181.34C240.652 181.268 241.433 181.344 242.178 181.565C242.562 181.674 242.922 181.853 243.242 182.091C243.417 182.199 243.556 182.356 243.64 182.543C243.725 182.73 243.753 182.937 243.719 183.14ZM241.447 184.009C241.507 183.878 241.513 183.728 241.463 183.593C241.413 183.458 241.312 183.348 241.181 183.287C240.922 183.136 240.644 183.023 240.354 182.95C240.06 182.858 239.754 182.784 239.447 182.706C239.141 182.623 238.829 182.55 238.518 182.436C239.17 182.356 239.832 182.407 240.464 182.588C240.796 182.675 241.105 182.836 241.366 183.059C241.511 183.18 241.607 183.349 241.636 183.534C241.646 183.623 241.634 183.712 241.601 183.795C241.568 183.878 241.515 183.951 241.447 184.009Z" fill="#020202"/>
<path d="M247.338 180.223L247.334 180.264L246.74 187.91C246.664 188.898 246.319 189.846 245.741 190.65C245.164 191.455 244.377 192.086 243.466 192.475C239.915 193.988 233.713 195.919 227.374 194.528C224.868 193.979 222.501 192.924 220.418 191.428C220.418 191.428 212.338 187.82 210.112 191.07C209.472 192.003 209.318 193.504 209.976 195.824L200.286 194.786L190.832 193.771C190.832 193.771 192.686 191.55 191.576 189.166C190.735 187.318 190.424 185.274 190.678 183.26C190.689 183.128 190.707 182.996 190.732 182.866C190.746 182.732 190.768 182.598 190.796 182.467C190.818 182.326 190.846 182.19 190.873 182.054C191.054 181.22 191.29 180.282 191.603 179.23C192.092 177.622 192.373 175.957 192.437 174.276C192.487 172.799 192.36 171.298 191.72 170.8L193.462 169.784V169.789C193.466 169.794 193.466 169.803 193.471 169.807C194.251 171.365 194.514 173.13 194.223 174.847C194.221 174.856 194.22 174.865 194.219 174.875C194.194 175.12 194.181 175.367 194.183 175.613C194.183 175.74 194.187 175.863 194.192 175.985C194.196 176.039 194.201 176.094 194.205 176.148V176.153C194.214 176.271 194.223 176.388 194.242 176.506C194.255 176.624 194.273 176.742 194.296 176.86C194.305 176.914 194.319 176.973 194.332 177.028C194.35 177.127 194.374 177.226 194.405 177.322C194.408 177.355 194.416 177.387 194.428 177.417C194.455 177.522 194.487 177.626 194.523 177.73C194.61 178.002 194.716 178.267 194.84 178.523C194.899 178.646 194.963 178.764 195.031 178.881C195.168 179.131 195.321 179.372 195.489 179.602C195.557 179.697 195.634 179.797 195.706 179.888C195.783 179.983 195.856 180.073 195.938 180.164C195.944 180.175 195.953 180.185 195.965 180.191C196.051 180.291 196.141 180.391 196.241 180.486C196.3 180.549 196.364 180.613 196.432 180.676C196.661 180.895 196.902 181.103 197.153 181.297C197.257 181.374 197.357 181.451 197.461 181.519C197.679 181.678 197.905 181.818 198.132 181.954C198.377 182.099 198.626 182.231 198.876 182.353H198.88C199.057 182.439 199.229 182.516 199.406 182.589C199.56 182.652 199.714 182.711 199.869 182.766H199.878C199.991 182.807 200.109 182.847 200.222 182.884C201.099 183.174 202.021 183.301 202.943 183.26C203.245 183.244 203.545 183.196 203.836 183.115C204.008 183.065 204.19 183.02 204.376 182.974C204.512 182.938 204.643 182.906 204.784 182.879C204.838 182.865 204.888 182.856 204.943 182.843H204.947C204.961 182.838 204.974 182.838 204.988 182.834C205.128 182.807 205.274 182.779 205.419 182.752C205.437 182.748 205.45 182.748 205.464 182.743C205.609 182.716 205.759 182.689 205.904 182.666C206.23 182.612 206.561 182.562 206.892 182.516H206.901C206.996 182.503 207.096 182.489 207.191 182.476C207.445 182.444 207.695 182.417 207.944 182.39C208.18 182.367 208.407 182.344 208.633 182.322C208.924 182.294 209.205 182.272 209.472 182.249C209.558 182.244 209.645 182.235 209.726 182.231C209.84 182.222 209.948 182.213 210.053 182.208H210.057C210.316 182.19 210.561 182.176 210.783 182.163C210.869 182.158 210.955 182.154 211.037 182.149C211.368 182.131 211.649 182.118 211.866 182.113C211.957 182.108 212.039 182.104 212.107 182.104C212.274 182.095 212.37 182.095 212.37 182.095C212.71 182.136 213.091 182.176 213.508 182.222C213.585 182.231 213.667 182.24 213.748 182.249C214.084 182.285 214.442 182.322 214.823 182.362C214.981 182.38 215.145 182.394 215.312 182.412C215.341 182.418 215.37 182.421 215.399 182.421C215.498 182.43 215.598 182.444 215.698 182.453C215.798 182.462 215.897 182.476 216.002 182.485C216.083 182.494 216.17 182.503 216.256 182.512C216.378 182.521 216.501 182.535 216.623 182.548C216.704 179.004 219.457 175.98 221.783 174.059C222.146 173.755 222.499 173.478 222.83 173.238C223.116 173.021 223.388 172.83 223.633 172.663C224.44 172.105 224.984 171.806 224.984 171.806H224.998C231.894 170.401 237.911 175.382 237.911 175.382C237.206 175.816 236.531 176.296 235.889 176.819C235.51 177.123 235.148 177.448 234.805 177.793C233.726 178.819 232.889 180.072 232.352 181.46C232.307 181.578 232.271 181.696 232.234 181.809C232.103 182.227 232.014 182.657 231.967 183.092C231.953 183.188 231.946 183.285 231.944 183.382C231.941 183.403 231.939 183.424 231.94 183.446C231.929 183.641 231.936 183.836 231.958 184.03C231.971 184.03 231.989 184.035 232.003 184.035C232.234 184.058 232.457 184.076 232.679 184.098C232.955 184.125 233.223 184.153 233.486 184.175C233.631 184.189 233.776 184.203 233.917 184.216H233.921C234.066 184.23 234.207 184.243 234.347 184.257C234.488 184.266 234.624 184.28 234.755 184.293C234.914 184.307 235.064 184.32 235.213 184.334C235.417 184.352 235.612 184.37 235.798 184.388C235.989 184.407 236.17 184.425 236.342 184.438C236.51 184.456 236.669 184.47 236.819 184.484C237.045 184.502 237.254 184.524 237.444 184.543C237.485 184.547 237.53 184.552 237.571 184.556C237.598 184.556 237.626 184.561 237.653 184.561C238.12 184.601 238.455 184.633 238.619 184.647C238.659 184.651 238.687 184.656 238.709 184.656C238.72 184.658 238.73 184.66 238.741 184.66C241.122 184.796 241.448 184.008 241.448 184.008C243.275 183.89 243.72 183.137 243.72 183.137C245.239 182.748 245.202 181.995 245.202 181.995C245.594 181.898 245.958 181.709 246.263 181.444C246.568 181.179 246.806 180.846 246.957 180.472L247.338 180.223ZM198.481 167.333C198.202 167.445 197.903 167.495 197.603 167.481C197.303 167.468 197.01 167.39 196.743 167.253C196.464 167.099 196.245 166.856 196.122 166.562C196.008 166.283 195.982 165.975 196.048 165.681C196.125 165.943 196.238 166.193 196.383 166.424C196.521 166.632 196.708 166.803 196.927 166.923C197.417 167.15 197.943 167.289 198.481 167.333Z" fill="#4087D5"/>
<path d="M85.987 60.4545C85.4643 60.3401 84.9429 60.2073 84.4067 60.0645C84.8115 60.3456 85.2851 60.5775 85.8067 60.7499C86.3324 60.9354 86.9037 61.0547 87.4926 61.1022C88.1016 61.1512 88.7189 61.0872 89.2782 60.9171C89.8132 60.732 89.4271 60.8221 89.6822 60.4545C89.272 60.6967 89.6131 60.495 89.1003 60.6195C88.5984 60.7113 88.0749 60.7365 87.5588 60.6937C87.0238 60.6518 86.4969 60.5716 85.987 60.4545Z" fill="black"/>
</g>
<defs>
<clipPath id="clip0_482_81">
<rect width="249" height="196" fill="white"/>
</clipPath>
</defs>
</svg>
