<svg width="244" height="239" viewBox="0 0 244 239" fill="none" xmlns="http://www.w3.org/2000/svg">
<g clip-path="url(#clip0_1_409)">
<path d="M85.3645 157.111L82.0709 153.535C80.9127 152.401 79.8063 151.219 78.6231 150.115C76.2847 147.883 73.825 145.782 71.255 143.819C68.6907 141.868 65.9972 140.092 63.1926 138.502C60.4444 136.894 57.5206 135.605 54.4782 134.66L54.4685 134.657C54.2741 134.601 54.1087 134.473 54.0065 134.299C53.9043 134.125 53.8731 133.919 53.9194 133.723C54.4684 131.392 55.7678 129.305 57.6192 127.779C59.4714 126.325 61.6388 125.323 63.9487 124.851C66.1897 124.377 68.4802 124.176 70.7699 124.254C71.8865 124.26 73.0808 124.386 74.1268 124.45C75.1216 124.527 76.1225 124.442 77.0894 124.196C78.5393 123.84 79.8799 123.136 80.9945 122.146C82.1091 121.156 82.9639 119.909 83.4845 118.515C83.8176 117.638 84.0264 116.509 84.3071 115.447L87.4668 102.61C87.536 102.33 87.7085 102.086 87.95 101.927C89.2239 101.096 90.5038 100.253 90.6102 99.5232C90.5912 98.3117 90.1893 97.1369 89.4617 96.166C88.7148 94.9836 87.7869 93.9249 86.7115 93.0283C86.0787 92.4825 85.5047 91.8725 84.9989 91.2081C84.4596 90.4778 84.0663 89.651 83.8403 88.7728C83.457 87.1593 83.3719 85.4898 83.5891 83.8459C83.7679 82.4285 83.7945 80.9961 83.6686 79.5731C83.5298 78.1959 83.1817 76.8477 82.6363 75.5746C82.3565 74.9535 82.0248 74.3568 81.6447 73.791C81.2897 73.2608 80.8746 72.7732 80.4074 72.3378L81.1245 72.5996L64.394 72.0671L47.6667 71.4193L48.5761 70.8154C42.431 86.2701 36.1903 101.678 30.1828 117.178C29.4838 119.137 28.4982 120.975 27.6493 122.871L25.0124 128.521L19.8146 139.852L14.6323 151.19C12.8975 154.924 11.8201 158.927 11.4473 163.024C10.5892 171.227 11.1598 179.515 13.1339 187.524C14.119 191.514 15.4244 195.418 17.0374 199.199C17.8312 201.098 18.7277 202.928 19.663 204.78C20.5936 206.643 21.5495 208.494 22.4451 210.374C29.7276 225.362 36.3933 240.621 42.4422 256.151C42.4805 256.249 42.5063 256.351 42.5188 256.455L42.5214 256.481C43.7632 267.255 46.5318 277.8 50.7446 287.8C51.797 290.277 52.8869 292.814 54.1111 295.152C57.7941 302.208 64.0603 307.582 71.6115 310.161C74.0982 311.03 76.6836 311.586 79.3083 311.819C81.8804 312.001 84.7291 311.959 87.4521 312.02C92.952 312.089 98.4516 312.181 103.951 312.296L136.947 312.946L136.963 312.946C137.251 312.952 137.525 313.07 137.725 313.276C137.926 313.481 138.037 313.757 138.036 314.044C137.992 320.072 137.917 326.045 138.211 332.029C138.489 338.011 139.034 343.985 139.816 349.931C140.609 355.876 141.588 361.797 142.753 367.695C143.923 373.589 145.283 379.448 146.717 385.291C146.726 385.326 146.72 385.364 146.702 385.395C146.683 385.426 146.653 385.449 146.617 385.458C146.582 385.467 146.544 385.462 146.513 385.444C146.481 385.426 146.458 385.396 146.448 385.361C143.041 373.795 140.353 362.029 138.4 350.133C137.474 344.169 136.783 338.165 136.361 332.136C135.913 326.11 135.854 320.044 135.831 314.044L136.919 315.141L103.917 314.963C98.4166 314.944 92.9165 314.898 87.4166 314.825C84.6414 314.768 81.9841 314.831 79.0668 314.639C73.3104 314.182 67.7639 312.28 62.9445 309.111C58.1251 305.941 54.1898 301.608 51.5056 296.514C50.1877 293.993 49.0853 291.497 48.0167 288.921C43.7831 278.642 41.0336 267.817 39.8502 256.769L39.9293 257.098C36.9859 249.364 33.8453 241.671 30.625 234.029C27.4139 226.379 24.0495 218.797 20.5319 211.283L17.8647 205.663C16.9656 203.786 16.0735 201.862 15.3063 199.909C13.7394 196.008 12.4898 191.988 11.5695 187.887C9.71898 179.686 9.29689 171.229 10.3217 162.885C10.5965 160.803 11.0017 158.739 11.5349 156.707C11.8033 155.691 12.1085 154.683 12.464 153.689C12.8329 152.706 13.252 151.744 13.7196 150.804L18.9796 139.5C22.4638 131.955 26.0568 124.454 29.2888 116.803C35.2527 101.294 40.9833 85.6929 46.8096 70.1385C46.8769 69.9587 46.9984 69.8042 47.1574 69.6959C47.3163 69.5877 47.505 69.531 47.6976 69.5338L47.7193 69.5345L64.4569 69.8129L81.1914 70.2063L81.2274 70.2071C81.478 70.213 81.7189 70.3053 81.9089 70.4684C82.5674 71.0442 83.1487 71.7021 83.6384 72.4258C84.1069 73.1103 84.5158 73.8334 84.8607 74.5872C85.5197 76.088 85.9449 77.6802 86.1216 79.3089C86.2752 80.8926 86.2607 82.488 86.0783 84.0686C85.9019 85.4232 85.9564 86.7977 86.2397 88.1341C86.6001 89.3733 87.3499 90.4647 88.379 91.2481C89.6136 92.3111 90.6762 93.5576 91.5293 94.9435C91.9582 95.6532 92.3229 96.3994 92.6191 97.1735C92.9927 98.0909 93.0939 99.096 92.9106 100.069C92.6242 101.048 92.0212 101.905 91.1952 102.508C90.5162 103.041 89.8608 103.442 89.2398 103.854L89.7228 103.172L86.4506 115.982C86.1546 117.045 85.972 118.097 85.5236 119.285C84.8671 120.998 83.8008 122.525 82.4174 123.734C81.0339 124.943 79.3752 125.797 77.5851 126.223C76.4013 126.511 75.1766 126.595 73.9641 126.472C72.806 126.374 71.8008 126.243 70.705 126.211C68.5715 126.092 66.4313 126.232 64.3316 126.627C62.2834 126.996 60.3495 127.835 58.6828 129.077C57.0667 130.35 55.9166 132.118 55.4102 134.108L54.8515 133.171C58.0083 134.212 61.0324 135.617 63.8627 137.356C66.6614 139.063 69.3399 140.959 71.8793 143.03C74.4068 145.097 76.8182 147.3 79.1027 149.631C80.2604 150.778 81.3275 152.011 82.4346 153.202L85.5783 156.933C85.6018 156.96 85.6134 156.996 85.6107 157.032C85.6079 157.068 85.5911 157.102 85.5637 157.126C85.5364 157.15 85.5007 157.162 85.4643 157.161C85.4279 157.159 85.3938 157.143 85.3691 157.116L85.3645 157.111Z" fill="black"/>
<path d="M153.805 418.559C153.973 421.005 153.911 423.462 153.62 425.897C153.293 428.331 152.729 430.727 151.935 433.052C151.165 435.381 150.244 437.652 149.323 439.917C148.461 442.185 147.832 444.534 147.448 446.928C146.701 451.74 146.321 456.602 146.311 461.472C146.253 466.341 146.381 471.227 146.715 476.076L146.229 475.628L170.398 475.525L169.809 476.112L169.741 460.369L169.737 459.328L170.687 459.78C179.221 463.955 187.982 467.65 196.931 470.849C201.407 472.378 205.977 473.618 210.613 474.56C215.208 475.511 219.929 475.695 224.585 475.105C226.892 474.771 229.155 474.185 231.335 473.359C232.407 473.006 233.445 472.557 234.435 472.018C234.836 471.817 235.163 471.495 235.369 471.098C235.575 470.701 235.65 470.25 235.583 469.808C235.336 468.786 234.841 467.84 234.141 467.052C233.414 466.169 232.616 465.347 231.755 464.592C229.996 463.055 228.121 461.654 226.147 460.402L202.483 444.36L199.599 442.405L203.058 442.909C207.368 443.536 211.685 444.173 216.018 444.466C220.318 444.868 224.649 444.807 228.935 444.285C233.136 443.726 237.31 442.129 239.796 438.732L240.669 437.433C240.937 436.984 241.171 436.509 241.425 436.048C241.915 435.175 242.268 434.233 242.472 433.254C242.495 432.318 242.174 431.405 241.568 430.689C240.913 429.894 240.158 429.185 239.323 428.58C235.724 426.203 231.821 424.32 227.718 422.982C223.623 421.522 219.434 420.301 215.211 419.225C210.976 418.241 206.725 417.084 202.504 415.968L189.816 412.608L189.336 412.481L189.547 412.035C194.936 400.663 199.948 389.102 204.78 377.478C209.598 365.846 214.163 354.106 218.24 342.198C222.432 330.334 225.921 318.236 228.691 305.965C230.072 299.845 230.945 293.622 231.302 287.359C231.478 284.248 231.31 281.127 230.802 278.053C230.369 275 229.09 272.129 227.108 269.761C225.081 267.412 222.675 265.416 219.989 263.855C217.295 262.272 214.472 260.919 211.549 259.809C205.655 257.63 199.583 255.966 193.4 254.836C180.992 252.616 168.435 251.329 155.834 250.986C152.684 250.87 149.532 250.805 146.38 250.774L141.652 250.759C140.07 250.733 138.536 250.86 136.82 250.686C134.724 250.446 132.711 249.735 130.931 248.607C129.151 247.479 127.651 245.963 126.545 244.174C126.426 244 126.329 243.814 126.228 243.631L126.077 243.355L126.001 243.217L125.963 243.148C125.306 244.217 126.806 241.609 126.688 241.881L127.837 241.763C128.603 241.706 129.364 241.602 130.116 241.45L131.242 241.243C131.611 241.154 131.971 241.039 132.335 240.939C133.774 240.557 135.141 239.946 136.385 239.131C137.582 238.331 138.556 237.242 139.217 235.966C140.562 233.42 140.408 230.266 139.759 227.337C139.013 224.353 137.901 221.473 136.448 218.76C135.022 216.009 133.384 213.373 131.549 210.875L131.349 210.603L131.362 210.281L134.105 142.673L134.138 141.852L134.967 141.752C136.788 141.49 138.569 141.005 140.271 140.308C142.021 139.614 143.726 138.811 145.376 137.904C147.044 137.012 148.671 136.031 150.268 135.003C151.86 133.976 153.446 132.895 154.942 131.771L155.058 131.684L155.17 131.641C158.22 130.493 161.363 129.608 164.565 128.997C164.957 128.924 165.388 128.857 165.748 128.78C166.102 128.717 166.452 128.63 166.795 128.52C167.464 128.322 168.095 128.014 168.663 127.61C169.206 127.235 169.653 126.74 169.969 126.163C170.266 125.68 170.373 125.105 170.27 124.549C170.26 124.466 170.231 124.387 170.186 124.316C170.142 124.246 170.082 124.186 170.012 124.14C169.977 124.079 169.868 124.104 169.795 124.055C169.648 124.051 169.524 124.02 169.359 124.022C168.627 124.041 167.899 124.133 167.186 124.296C165.677 124.607 164.154 125.043 162.631 125.493C161.102 125.942 159.586 126.426 158 126.845C157.08 127.153 156.096 127.221 155.142 127.043C154.812 126.945 154.507 126.78 154.247 126.557C153.981 126.308 153.784 125.995 153.676 125.648C153.511 125.074 153.523 124.464 153.711 123.897L153.826 123.485L154.268 123.321L169.156 117.804L169.071 117.841C169.581 117.612 170.049 117.3 170.456 116.918C170.554 116.832 170.625 116.719 170.658 116.593C170.665 116.569 170.657 116.479 170.512 116.32C170.116 115.946 169.652 115.651 169.145 115.45C168.58 115.202 167.997 114.997 167.401 114.836L164.607 114.085L167.338 113.19C168.567 112.736 169.669 111.996 170.553 111.032C170.787 110.791 171.011 110.54 171.22 110.281L171.519 109.892C171.576 109.815 171.64 109.664 171.706 109.555C171.806 109.355 171.861 109.135 171.866 108.912C171.854 108.745 171.781 108.589 171.66 108.473C171.225 108.105 170.703 107.855 170.143 107.744C169.487 107.583 168.818 107.473 168.144 107.416C166.752 107.301 165.352 107.292 163.958 107.388L163.232 107.435L163.096 106.667C163.061 106.084 162.858 105.524 162.512 105.053C162.126 104.64 161.61 104.37 161.049 104.289C159.675 104.154 158.287 104.294 156.968 104.7C154.153 105.526 151.414 106.594 148.784 107.892C146.108 109.156 143.469 110.521 140.819 111.883C139.492 112.563 138.162 113.242 136.807 113.891C135.431 114.607 133.981 115.17 132.481 115.568C131.719 115.698 130.982 115.804 130.203 115.868C129.394 115.962 128.575 115.931 127.775 115.775C126.923 115.56 126.157 115.091 125.579 114.431C125.072 113.853 124.597 113.247 124.157 112.616C122.471 110.233 120.433 108.117 118.112 106.34C116.992 105.444 115.758 104.7 114.441 104.127C113.833 103.864 113.177 103.728 112.513 103.728C112.23 103.731 111.952 103.804 111.703 103.939C111.455 104.075 111.243 104.269 111.087 104.505C110.582 105.746 110.567 107.132 111.045 108.384C111.442 109.779 111.969 111.134 112.62 112.432C113.247 113.741 113.979 114.999 114.809 116.192L115.173 116.642C115.306 116.84 115.406 117.058 115.472 117.287C115.587 117.683 115.654 118.092 115.671 118.504C115.709 119.276 115.678 120.049 115.58 120.816C115.492 121.573 115.36 122.325 115.185 123.067C114.998 123.805 114.832 124.49 114.698 125.215C114.428 126.653 114.259 128.108 114.192 129.569L114.164 130.662C114.177 131.011 114.21 131.358 114.264 131.702C114.368 132.421 114.505 133.15 114.636 133.881C114.928 135.353 115.144 136.84 115.284 138.334C115.375 139.128 115.326 139.931 115.139 140.708L114.765 141.753L114.456 142.814L113.283 147.101C110.261 158.582 107.408 170.117 104.552 181.646L104.45 182.058L104.251 181.672C103.867 180.97 103.445 180.29 102.988 179.633L101.6 177.642C100.658 176.325 99.6924 175.024 98.7183 173.729L98.8662 173.617C99.8585 174.899 100.842 176.188 101.804 177.495L103.223 179.473C103.702 180.14 104.143 180.832 104.544 181.548L104.243 181.573C106.943 170.003 109.637 158.436 112.507 146.901C112.869 145.459 113.234 144.02 113.636 142.581L113.943 141.501L114.311 140.446C114.456 139.773 114.486 139.081 114.401 138.398C114.253 136.937 114.03 135.484 113.734 134.046C113.597 133.316 113.455 132.587 113.34 131.836C113.277 131.448 113.237 131.056 113.223 130.662L113.243 129.53C113.301 128.023 113.464 126.522 113.732 125.038C113.861 124.302 114.041 123.542 114.213 122.84C114.374 122.135 114.494 121.422 114.572 120.703C114.658 119.996 114.681 119.282 114.643 118.571C114.628 118.241 114.573 117.914 114.481 117.597C114.377 117.261 114.315 117.234 113.975 116.822C113.095 115.582 112.317 114.272 111.651 112.906C110.959 111.55 110.397 110.132 109.971 108.672C109.752 107.918 109.619 107.142 109.575 106.358C109.502 105.497 109.694 104.635 110.126 103.887C110.379 103.499 110.722 103.177 111.126 102.948C111.53 102.72 111.983 102.591 112.447 102.574C113.279 102.558 114.104 102.716 114.871 103.037C116.295 103.639 117.633 104.429 118.847 105.384C121.275 107.215 123.411 109.401 125.185 111.867C126.081 113.058 126.886 114.283 128.07 114.508C129.465 114.657 130.875 114.572 132.242 114.256C133.617 113.865 134.947 113.33 136.21 112.662C137.536 112.015 138.853 111.331 140.172 110.642C142.808 109.264 145.451 107.872 148.152 106.572C150.856 105.214 153.674 104.094 156.574 103.225C158.108 102.746 159.724 102.585 161.322 102.754C162.245 102.894 163.09 103.346 163.717 104.035C164.282 104.75 164.619 105.616 164.687 106.523L163.825 105.802C165.311 105.688 166.802 105.687 168.288 105.8C169.053 105.859 169.812 105.979 170.557 106.159C171.419 106.334 172.217 106.74 172.864 107.334C173.255 107.733 173.491 108.256 173.531 108.812C173.547 109.31 173.443 109.804 173.228 110.253C173.128 110.461 173.015 110.663 172.891 110.858C172.773 111.024 172.656 111.177 172.535 111.328C172.295 111.631 172.041 111.919 171.775 112.197C170.707 113.369 169.372 114.268 167.882 114.818L167.819 113.171C168.513 113.351 169.193 113.584 169.85 113.869C170.587 114.16 171.257 114.598 171.818 115.157C172.013 115.358 172.167 115.595 172.269 115.856C172.372 116.117 172.422 116.395 172.415 116.675C172.373 117.212 172.142 117.718 171.762 118.102C171.214 118.652 170.573 119.101 169.867 119.428L169.834 119.445L169.781 119.465L154.923 125.061L155.48 124.485C155.422 124.681 155.413 124.888 155.456 125.088C155.5 125.196 155.478 125.182 155.66 125.254C156.29 125.322 156.926 125.249 157.525 125.042C159.028 124.644 160.558 124.154 162.095 123.701C163.636 123.245 165.187 122.795 166.809 122.458C167.655 122.265 168.518 122.16 169.385 122.143C169.639 122.152 169.891 122.173 170.143 122.208C170.458 122.268 170.759 122.387 171.031 122.557C171.569 122.901 171.951 123.441 172.095 124.062C172.328 125.079 172.165 126.146 171.64 127.049C171.19 127.877 170.554 128.591 169.781 129.134C169.048 129.66 168.233 130.061 167.369 130.322C166.951 130.456 166.525 130.563 166.093 130.641L164.918 130.857C161.838 131.45 158.814 132.304 155.88 133.41L156.108 133.281C154.535 134.466 152.945 135.551 151.311 136.61C149.679 137.662 148.014 138.669 146.295 139.592C144.577 140.538 142.801 141.376 140.978 142.101C139.119 142.863 137.172 143.392 135.181 143.674L136.044 142.753L133.208 210.357L133.022 209.764C134.913 212.352 136.599 215.083 138.065 217.932C139.579 220.785 140.734 223.813 141.503 226.947C141.87 228.557 142.04 230.205 142.01 231.856C141.974 233.564 141.553 235.242 140.779 236.766C139.981 238.297 138.809 239.602 137.37 240.562C135.971 241.477 134.433 242.163 132.815 242.592C132.418 242.7 132.023 242.822 131.625 242.916L130.421 243.135C129.624 243.293 128.819 243.401 128.008 243.459L126.8 243.578C126.608 243.842 128.099 241.259 127.488 242.383L127.521 242.444L127.588 242.565L127.72 242.807C127.804 242.971 127.896 243.131 127.996 243.285C128.964 244.862 130.279 246.2 131.841 247.197C133.403 248.195 135.172 248.827 137.014 249.046C138.443 249.209 140.077 249.108 141.652 249.141L146.4 249.189C149.566 249.242 152.73 249.328 155.893 249.467C168.563 249.9 181.182 251.282 193.644 253.601C199.888 254.788 206.017 256.514 211.961 258.759C214.936 259.913 217.808 261.315 220.547 262.95C223.318 264.591 225.797 266.677 227.884 269.125C229.96 271.633 231.297 274.665 231.746 277.885C232.252 281.029 232.409 284.219 232.214 287.397C231.825 293.708 230.915 299.975 229.494 306.137C226.658 318.423 223.101 330.533 218.842 342.404C210.449 366.171 200.826 389.481 190.293 412.386L190.024 411.813L202.73 415.054C206.976 416.135 211.174 417.238 215.468 418.196C219.729 419.24 223.957 420.428 228.113 421.87C230.19 422.593 232.248 423.382 234.264 424.289C236.312 425.174 238.266 426.262 240.095 427.538C241.036 428.207 241.886 428.996 242.623 429.883C243.436 430.852 243.864 432.084 243.828 433.346C243.819 433.668 243.761 433.987 243.654 434.291C243.584 434.58 243.483 434.86 243.353 435.128C243.124 435.638 242.93 436.159 242.67 436.659C242.403 437.156 242.157 437.662 241.872 438.15L240.932 439.576C239.559 441.431 237.743 442.916 235.648 443.896C233.6 444.858 231.413 445.498 229.168 445.793C224.768 446.346 220.32 446.423 215.904 446.024C211.504 445.738 207.156 445.109 202.81 444.489L203.386 443.038L227.042 459.012C229.087 460.318 231.027 461.779 232.847 463.382C233.773 464.2 234.631 465.092 235.411 466.049C236.288 467.057 236.895 468.269 237.174 469.573C237.302 470.331 237.173 471.11 236.809 471.788C236.629 472.118 236.406 472.423 236.144 472.693C235.888 472.933 235.612 473.15 235.318 473.342C234.223 473.952 233.071 474.453 231.878 474.841C229.595 475.696 227.225 476.3 224.81 476.642C222.396 476.972 219.957 477.072 217.525 476.943C216.32 476.83 215.112 476.738 213.911 476.602L210.336 476.038C205.631 475.066 200.995 473.792 196.456 472.223C187.458 468.99 178.661 465.228 170.11 460.957L171.056 460.369L170.989 476.112L170.986 476.703L170.398 476.7L146.229 476.597L145.77 476.595L145.744 476.148C145.455 471.247 145.347 466.355 145.488 461.455C145.57 456.55 146.024 451.658 146.847 446.821C147.273 444.393 147.947 442.016 148.857 439.724C149.81 437.476 150.76 435.226 151.558 432.925C152.378 430.632 152.971 428.266 153.33 425.858C153.654 423.443 153.751 421.003 153.62 418.569L153.805 418.559ZM33.2836 137.619C34.7657 136.46 36.3932 135.498 38.125 134.758C39.8513 133.992 41.6501 133.4 43.4945 132.99C45.3598 132.597 47.2665 132.434 49.1718 132.505C51.0803 132.594 52.9499 133.074 54.664 133.915C52.8429 133.795 51.0154 133.807 49.1959 133.951C47.412 134.143 45.6391 134.427 43.8843 134.8C42.1211 135.163 40.3769 135.64 38.6158 136.112L33.2836 137.619Z" fill="black"/>
<path d="M146.229 116.782L154.773 111.199L159.076 108.445C160.524 107.537 161.953 106.632 163.475 105.766L164.307 107.423C162.802 108.106 161.278 108.885 159.768 109.651L155.243 111.998L146.229 116.782ZM151.806 121.413C154.149 119.632 156.604 118.004 159.156 116.537C160.445 115.793 161.772 115.12 163.134 114.519C164.528 113.894 165.984 113.414 167.478 113.087L167.741 114.921C166.342 115.079 164.963 115.38 163.626 115.819C162.249 116.261 160.896 116.776 159.575 117.364C156.901 118.546 154.306 119.899 151.806 121.413ZM136.933 115.856C138.328 116.007 139.691 116.371 140.975 116.936C142.277 117.469 143.505 118.165 144.629 119.008C145.787 119.849 146.794 120.878 147.609 122.052C148.449 123.222 148.938 124.607 149.017 126.043C148.287 124.934 147.44 123.905 146.492 122.974C145.55 122.087 144.555 121.257 143.513 120.489C141.43 118.907 139.184 117.524 136.933 115.856ZM130.426 119.56C130.773 120.446 130.967 121.383 131 122.333C131.055 123.268 130.994 124.206 130.817 125.126C130.646 126.073 130.317 126.985 129.845 127.825C129.63 128.28 129.324 128.686 128.943 129.017C128.563 129.348 128.118 129.597 127.637 129.748C128.06 128.981 128.351 128.149 128.498 127.286L128.993 124.774C129.157 123.924 129.33 123.066 129.561 122.2C129.773 121.297 130.062 120.414 130.426 119.56Z" fill="black"/>
<path d="M57.9177 89.9249C65.3544 86.2204 83.0166 69.5504 83.0166 69.5504C83.0166 69.5504 63.4953 53.8066 43.0443 57.511C22.5934 61.2155 15.1567 114.93 15.1567 121.413C15.1567 127.895 9.57915 135.304 6.79038 138.083C4.00161 140.861 -0.646332 151.048 0.283262 158.457C1.21286 165.866 13.2976 164.94 22.5934 161.235C31.8892 157.531 28.1709 147.344 28.1709 139.009C28.1709 130.674 37.4667 123.265 42.1147 118.634C46.7626 114.004 51.8754 101.501 51.8754 101.501C51.8754 101.501 49.9883 99.8759 49.5514 92.7031C48.8664 81.4573 57.9177 89.9249 57.9177 89.9249Z" fill="#23AC52"/>
<path d="M51.8754 101.501C52.2024 101.904 52.5089 102.323 52.7937 102.756C52.9901 103.047 53.2121 103.319 53.4571 103.571C53.6421 103.765 53.8767 103.906 54.1358 103.978C54.3424 104.042 54.5532 104.093 54.7667 104.129C55.0452 104.162 55.3214 104.212 55.5937 104.28C55.4609 104.557 55.2695 104.802 55.0328 104.999C54.7961 105.196 54.5196 105.34 54.222 105.421C53.8662 105.527 53.488 105.536 53.1275 105.446C52.767 105.356 52.4376 105.171 52.174 104.91C51.7373 104.464 51.4691 103.88 51.4147 103.259C51.3603 102.638 51.523 102.017 51.8754 101.501Z" fill="black"/>
<path d="M54.2369 100.918C55.5937 101.818 56.8898 102.787 58.1887 103.754C59.4779 104.731 60.751 105.726 62.0079 106.739L62.5569 107.182L62.0752 107.793C61.5542 108.455 61.0058 109.092 60.4699 109.74C59.9274 110.382 59.4016 111.039 58.845 111.669C57.7385 112.935 56.6563 114.222 55.5196 115.461L54.9005 116.136L54.2276 115.543C51.8073 113.41 49.4579 111.197 47.147 108.94L46.6771 108.481L47.0914 108.068C48.7456 106.417 50.4193 104.784 52.1891 103.235C50.8707 105.18 49.4562 107.041 48.0223 108.884L47.9666 108.012C50.5062 110.011 53.0071 112.052 55.4374 114.174L54.1456 114.256C55.2356 112.976 56.3802 111.743 57.5004 110.489C58.0571 109.86 58.6447 109.257 59.2156 108.639C59.793 108.028 60.358 107.405 60.9502 106.807L61.0175 107.86C59.8488 106.747 58.6967 105.615 57.561 104.464C56.4345 103.303 55.3054 102.144 54.2369 100.918ZM79.0194 94.0261C82.0682 94.0261 82.0733 89.3056 79.0194 89.3056C75.9705 89.3056 75.9655 94.0261 79.0194 94.0261ZM70.9319 86.2204C71.3774 85.3203 72.0652 84.5612 72.9186 84.028C73.7772 83.457 74.7621 83.1021 75.7886 82.9935C76.8261 82.8647 77.8792 83.0204 78.8344 83.4438C79.7702 83.827 80.5763 84.4691 81.1574 85.2942C80.1533 85.1383 79.305 84.9057 78.4492 84.8373C77.6325 84.7409 76.8074 84.7399 75.9905 84.8341C74.2516 85.0779 72.5514 85.5438 70.9319 86.2204ZM82.0312 99.1674C82.1977 99.7629 82.2808 100.247 82.3651 100.672C82.4281 101.003 82.5266 101.327 82.6588 101.637C82.7625 101.885 82.9302 102.1 83.1448 102.262C83.2746 102.395 83.4841 102.49 83.6755 102.645C83.9191 102.783 84.1525 102.938 84.3738 103.109C84.1388 103.296 83.8754 103.445 83.5935 103.551C83.2973 103.635 82.9877 103.663 82.6812 103.632C82.3143 103.599 81.9626 103.47 81.6626 103.257C81.3626 103.044 81.1251 102.755 80.9745 102.42C80.7299 101.842 80.702 101.195 80.896 100.598C81.09 100.001 81.4929 99.4932 82.0312 99.1674ZM11.999 156.925L30.4124 157.52C36.5443 157.766 42.6769 157.946 48.8062 158.12L57.999 158.391C61.0632 158.494 64.1279 158.55 67.1929 158.559C70.2574 158.576 73.3244 158.519 76.3756 158.277C79.4195 158.156 82.4341 157.636 85.3411 156.728L85.4227 156.699L85.4953 156.711C87.5945 157.023 89.6303 157.667 91.5257 158.618C92.5019 159.108 93.3773 159.775 94.1066 160.586C94.7589 161.347 95.5033 162.024 96.3227 162.603C97.1416 163.202 98.0161 163.743 98.8904 164.324C99.8356 164.9 100.687 165.616 101.415 166.448C101.824 166.962 102.067 167.587 102.113 168.241L102.191 169.795C102.23 170.399 102.156 171.006 101.972 171.583C101.753 172.183 101.388 172.718 100.909 173.142C100.057 173.875 99.0926 174.467 98.0529 174.896L95.1897 176.106C93.3592 176.937 91.6324 177.978 90.0443 179.208C88.4596 180.4 87.0604 181.818 85.8921 183.417C85.6226 183.796 85.3853 184.197 85.1828 184.616C84.9782 185.048 84.78 185.529 84.5791 186.003C84.1785 186.992 83.7266 187.959 83.2251 188.901C82.6975 189.916 82.0077 190.838 81.1827 191.632C80.2886 192.483 79.1634 193.054 77.9466 193.275C76.9686 193.407 75.9984 193.591 75.0405 193.828C74.7064 193.927 74.4086 194.121 74.1833 194.386C73.9023 194.741 73.6576 195.122 73.4528 195.525C73.218 195.95 72.9961 196.413 72.6999 196.923C72.3843 197.537 71.8996 198.048 71.3025 198.398C70.7627 198.623 70.2005 198.79 69.6252 198.897C69.1741 199.018 68.7358 199.182 68.3164 199.386C67.4267 199.84 66.5695 200.355 65.7506 200.926C64.8745 201.494 63.9958 202.067 63.0327 202.584C62.0207 203.198 60.8524 203.508 59.6681 203.476C59.3744 203.455 59.0826 203.412 58.7948 203.35C58.491 203.296 58.1949 203.206 57.9128 203.082C57.2933 202.79 56.805 202.28 56.5434 201.649C56.1166 200.639 55.8264 199.578 55.6806 198.492C55.5274 197.488 55.3229 196.493 55.068 195.51C54.9479 195.055 54.7631 194.62 54.519 194.217C54.3055 193.888 53.9019 193.429 53.5997 193.04L51.6692 190.588L47.8246 185.687L47.9688 185.57L52.1539 190.164L54.2383 192.459C54.5921 192.871 54.901 193.17 55.2941 193.681C55.6156 194.147 55.8673 194.657 56.0413 195.196C56.3598 196.202 56.6258 197.223 56.8383 198.256C57.0155 199.217 57.3161 200.15 57.7327 201.034C57.8744 201.367 58.1351 201.637 58.4645 201.79C58.6601 201.868 58.8648 201.922 59.0739 201.949C59.2949 201.99 59.5186 202.016 59.7432 202.025C60.6492 202.01 61.5313 201.733 62.2821 201.227C63.1333 200.736 63.9791 200.15 64.8246 199.563C65.6889 198.921 66.5969 198.34 67.5422 197.824C68.0486 197.558 68.5791 197.341 69.1267 197.176C69.5687 197.078 70.0022 196.946 70.4233 196.78C70.7083 196.574 70.935 196.298 71.0813 195.979C71.3007 195.591 71.5233 195.117 71.7801 194.631C72.0396 194.108 72.353 193.612 72.7154 193.153C73.1614 192.621 73.7462 192.222 74.4054 191.999C75.456 191.71 76.5233 191.485 77.6015 191.325C78.4649 191.096 79.2642 190.673 79.938 190.088C80.6119 189.503 81.1426 188.773 81.4893 187.952C81.9605 187.099 82.3587 186.176 82.7796 185.232C82.9911 184.757 83.1947 184.283 83.4406 183.784C83.6969 183.274 83.9955 182.786 84.3333 182.326C85.6393 180.592 87.1972 179.062 88.9558 177.785C90.6733 176.502 92.5354 175.423 94.5043 174.57C94.9892 174.341 95.501 174.173 95.9995 173.976C96.4703 173.793 96.9561 173.637 97.4086 173.434C98.3025 173.099 99.1386 172.628 99.8868 172.037C100.21 171.77 100.461 171.427 100.617 171.039C100.772 170.65 100.828 170.229 100.778 169.814L100.76 168.266C100.742 167.882 100.609 167.511 100.38 167.201C99.7658 166.45 99.0438 165.793 98.2372 165.252C97.4103 164.647 96.5479 164.051 95.7172 163.391C94.8659 162.736 94.0988 161.979 93.4331 161.137C92.8002 160.379 92.0309 159.745 91.1646 159.268C89.371 158.299 87.4247 157.642 85.4092 157.324L85.5631 157.307C84.0829 157.788 82.5628 158.137 81.0207 158.351C79.4959 158.598 77.9643 158.776 76.4307 158.927C74.8967 159.065 73.3614 159.178 71.8248 159.267C70.2894 159.371 68.7526 159.469 67.2154 159.536C61.0662 159.831 54.9148 159.904 48.7612 159.753C45.6859 159.716 42.6162 159.524 39.546 159.383C36.4765 159.22 33.4069 159.07 30.3419 158.842L21.1529 158.095C18.0945 157.787 15.0352 157.502 11.9845 157.11L11.999 156.925Z" fill="black"/>
<path d="M56.7397 174.516C57.9754 174.947 59.151 175.534 60.2383 176.261C60.7943 176.623 61.323 177.024 61.8201 177.463C62.2547 177.881 62.7264 178.26 63.2294 178.594C63.5397 178.795 63.8275 179.029 64.0882 179.292C64.3716 179.616 64.5673 180.007 64.6566 180.428C64.7603 181.082 64.8173 181.743 64.8273 182.405C64.8694 183.639 65.2652 184.835 65.9678 185.851C65.3849 185.507 64.8884 185.035 64.5161 184.471C64.1598 183.885 63.902 183.245 63.7528 182.577C63.5765 181.912 63.5516 181.255 63.3803 180.765C63.3269 180.561 63.2265 180.372 63.087 180.213C62.8839 180.034 62.6655 179.874 62.4344 179.734C61.8801 179.344 61.3673 178.899 60.9038 178.405C60.4929 177.957 60.0251 177.547 59.5713 177.112C58.6427 176.264 57.6794 175.427 56.7397 174.516ZM69.6796 168.848C70.9153 169.28 72.0909 169.866 73.1782 170.593C73.7342 170.955 74.2629 171.357 74.76 171.795C75.1946 172.214 75.6663 172.592 76.1692 172.926C76.4795 173.128 76.7674 173.362 77.028 173.624C77.3115 173.948 77.5071 174.34 77.5964 174.76C77.7001 175.415 77.7572 176.075 77.7672 176.737C77.8093 177.971 78.2051 179.167 78.9078 180.183C78.3248 179.839 77.8283 179.367 77.4559 178.803C77.0997 178.217 76.842 177.578 76.6927 176.909C76.5164 176.244 76.4916 175.588 76.3201 175.098C76.2668 174.893 76.1664 174.704 76.0269 174.545C75.8238 174.367 75.6054 174.206 75.3743 174.066C74.8201 173.676 74.3072 173.231 73.8438 172.737C73.433 172.289 72.965 171.879 72.5112 171.444C71.5826 170.596 70.6193 169.759 69.6796 168.848ZM83.0165 161.846C84.2523 162.278 85.4279 162.865 86.5152 163.592C87.0712 163.953 87.5999 164.355 88.097 164.794C88.5316 165.212 89.0033 165.59 89.5062 165.924C89.8164 166.126 90.1043 166.36 90.365 166.623C90.6484 166.947 90.8441 167.338 90.9334 167.759C91.0371 168.413 91.0942 169.074 91.1041 169.736C91.1462 170.97 91.542 172.165 92.2447 173.182C91.6618 172.838 91.1653 172.366 90.7929 171.802C90.4367 171.216 90.1789 170.576 90.0297 169.908C89.8534 169.243 89.8285 168.586 89.6571 168.096C89.6038 167.892 89.5034 167.702 89.3638 167.543C89.1608 167.365 88.9424 167.205 88.7113 167.065C88.157 166.675 87.6441 166.23 87.1807 165.736C86.7699 165.288 86.302 164.878 85.8481 164.443C84.9196 163.595 83.9563 162.758 83.0165 161.846ZM104.397 181.61C106.998 183.736 109.466 185.989 111.888 188.286C114.319 190.576 116.671 192.941 119.009 195.321C121.321 197.724 123.616 200.144 125.834 202.639C128.06 205.126 130.239 207.658 132.285 210.319C129.683 208.195 127.213 205.942 124.792 203.644C122.361 201.354 120.009 198.989 117.673 196.608C115.363 194.203 113.067 191.783 110.85 189.288C108.624 186.801 106.445 184.269 104.397 181.61ZM63.4469 201.445C68.2417 205.707 73.1034 209.872 77.9957 213.989C82.9077 218.082 87.8702 222.107 92.988 225.916C98.0575 229.773 103.36 233.316 108.865 236.525C111.611 238.123 114.474 239.51 117.431 240.677C120.373 241.912 123.516 242.609 126.707 242.733C123.468 242.966 120.214 242.559 117.133 241.535C114.04 240.559 111.042 239.308 108.174 237.796C105.292 236.327 102.519 234.664 99.7994 232.929C97.1 231.164 94.4617 229.312 91.8732 227.397C86.7301 223.523 81.7866 219.414 77.0428 215.071C72.2835 210.76 67.7458 206.212 63.4469 201.445ZM202.878 443.826C200.422 442.893 198.065 441.722 195.84 440.328C193.597 438.939 191.476 437.363 189.5 435.616C185.469 432.111 182.156 427.864 179.741 423.108L179.68 422.996L179.641 422.813C177.394 412.471 176.31 401.905 174.291 391.524C173.327 386.322 172.183 381.16 171.128 375.961C170.873 374.657 170.6 373.361 170.381 372.034C170.253 371.391 170.166 370.69 170.094 369.971C169.998 369.26 169.976 368.808 169.832 368.123C169.355 365.584 168.774 362.961 168.36 360.332C166.523 349.778 166.262 339.011 167.586 328.38C168.902 317.794 171.674 307.439 175.825 297.606L176.089 297.696C173.278 307.837 171.362 318.203 170.362 328.676C169.862 333.878 169.656 339.104 169.743 344.329C169.767 349.56 170.13 354.784 170.832 359.969C171.146 362.577 171.592 365.144 171.913 367.831C172.015 368.447 172.011 369.323 172.048 369.926C172.067 370.526 172.09 371.142 172.17 371.805C172.284 373.101 172.452 374.411 172.613 375.718C173.291 380.951 174.112 386.179 175.119 391.367C177.068 401.759 180.12 411.934 182.089 422.316L181.989 422.022C183.092 424.28 184.394 426.435 185.88 428.462C186.578 429.514 187.432 430.452 188.219 431.441C189.08 432.37 189.899 433.341 190.816 434.222C194.449 437.853 198.541 440.995 202.989 443.571L202.878 443.826Z" fill="black"/>
<path d="M19.2163 206.369C17.725 207.104 16.3103 207.983 14.9928 208.995C14.3573 209.476 13.7701 210.016 13.2394 210.61C12.7219 211.163 12.294 211.793 11.9713 212.478C10.6701 215.158 12.3793 218.07 14.651 220.234C17.0081 222.485 19.5952 224.485 22.3701 226.199C25.16 228.001 28.0382 229.682 30.8832 231.505L19.2163 206.369ZM163.465 285.645C150.971 267.419 153.838 255.543 79.128 242.755C79.128 242.755 38.6355 233.483 30.8832 231.505C27.6478 230.51 24.5073 229.231 21.4989 227.682C18.4088 226.145 15.5687 224.152 13.0741 221.772C11.7563 220.51 10.7193 218.987 10.0305 217.301C9.67655 216.393 9.53049 215.418 9.60299 214.446C9.67549 213.475 9.96471 212.532 10.4495 211.687C11.4182 210.158 12.7818 208.917 14.3973 208.094C15.9081 207.283 17.5325 206.701 19.2163 206.369L17.5401 202.766C17.5401 202.766 -0.291136 203.008 2.3885 222.101C3.17631 223.505 4.15199 224.794 5.28871 225.936C5.82904 226.529 6.4245 227.056 6.99795 227.595C7.62651 228.089 8.18891 228.649 8.83945 229.111C11.3565 231.048 14.0691 232.72 16.9336 234.098C19.8056 235.521 22.7503 236.793 25.7554 237.91C27.2882 238.427 28.799 239.009 30.3428 239.536C31.8867 240.042 33.4305 240.536 34.9743 241.14C34.9743 241.14 124.307 260.531 132.28 265.2C140.264 269.869 155.404 279.976 162.682 313.879H82.4582C75.8042 313.871 69.3025 311.895 63.7779 308.2C58.2532 304.505 53.9546 299.259 51.4272 293.127C47.0494 282.525 42.5832 269.243 41.1828 256.62L34.9743 241.14C33.3423 241.02 31.7103 240.8 30.0672 240.58C28.4572 240.294 26.8472 239.921 25.2372 239.547C23.6492 239.108 22.0724 238.602 20.5065 238.053C18.9737 237.416 17.4188 236.845 15.9411 236.054C14.4533 235.302 13.0101 234.466 11.6184 233.549C10.24 232.601 8.93507 231.55 7.71469 230.407C7.09716 229.847 6.53482 229.21 5.97242 228.594C5.45409 227.935 4.90273 227.309 4.45063 226.606C3.47941 225.25 2.77928 223.721 2.3885 222.101C5.05711 241.195 46.112 320.767 47.8984 321.207C49.6849 321.657 164.987 321.405 164.987 321.405C164.987 321.405 190.085 451.535 189.92 476.242H198.786C198.786 476.242 175.959 303.871 163.465 285.645Z" fill="#F79155"/>
<path d="M96.1746 321.475L82.3187 426.821L92.4464 425.882L104.979 321.476C102.029 321.476 99.0844 321.476 96.1746 321.475ZM223.614 414.597L209.446 366.754C207.494 371.702 205.562 376.449 203.711 380.89L213.463 415.243L223.614 414.597ZM78.127 107.888C79.4725 108.546 80.8643 109.106 82.2913 109.563C82.9677 109.768 83.6548 109.937 84.3496 110.069C85.0715 110.223 85.8214 110.294 86.686 110.495C86.015 111.043 85.2049 111.396 84.3453 111.515C83.4768 111.661 82.5859 111.599 81.7464 111.333C80.9039 111.085 80.1311 110.645 79.4894 110.047C78.8302 109.478 78.3558 108.727 78.127 107.888ZM56.922 112.494C57.4841 113.152 58.0621 113.637 58.6073 114.178C59.1716 114.696 59.7027 115.229 60.2418 115.773C60.7735 116.323 61.3015 116.885 61.7944 117.508C62.3341 118.136 62.7988 118.825 63.1792 119.56C62.3513 119.376 61.5614 119.051 60.8439 118.6C60.1328 118.174 59.4812 117.657 58.906 117.061C58.3127 116.461 57.8167 115.773 57.4358 115.021C56.9918 114.258 56.8113 113.37 56.922 112.494ZM232.21 0.0178223H134.64C134.087 0.0177726 133.539 0.126291 133.028 0.337181C132.517 0.548072 132.052 0.8572 131.661 1.24692C131.27 1.63663 130.96 2.0993 130.748 2.6085C130.536 3.1177 130.427 3.66345 130.427 4.21459V61.3532C130.427 61.9043 130.536 62.4501 130.748 62.9593C130.96 63.4685 131.27 63.9311 131.661 64.3208C132.052 64.7105 132.517 65.0197 133.028 65.2306C133.539 65.4414 134.087 65.55 134.64 65.5499H232.21C232.763 65.55 233.311 65.4414 233.822 65.2306C234.333 65.0197 234.798 64.7105 235.189 64.3208C235.58 63.9311 235.89 63.4685 236.102 62.9593C236.314 62.4501 236.422 61.9043 236.422 61.3532V4.21459C236.422 3.66345 236.314 3.1177 236.102 2.6085C235.89 2.0993 235.58 1.63663 235.189 1.24692C234.798 0.8572 234.333 0.548072 233.822 0.337181C233.311 0.126291 232.763 0.0177726 232.21 0.0178223ZM163.796 37.3157C162.897 37.3146 162.018 37.048 161.271 36.5496C160.524 36.0513 159.942 35.3434 159.598 34.5156C159.254 33.6878 159.165 32.777 159.341 31.8984C159.516 31.0199 159.949 30.2129 160.585 29.5795C161.221 28.946 162.031 28.5145 162.913 28.3395C163.795 28.1644 164.709 28.2537 165.54 28.596C166.371 28.9384 167.081 29.5184 167.582 30.2628C168.082 31.0072 168.349 31.8826 168.35 32.7784C168.352 33.3746 168.234 33.965 168.006 34.516C167.777 35.067 167.442 35.5676 167.019 35.9891C166.596 36.4106 166.093 36.7448 165.54 36.9724C164.987 37.2001 164.395 37.3167 163.796 37.3157ZM183.425 37.3157C182.525 37.3167 181.645 37.052 180.897 36.555C180.148 36.0579 179.564 35.3508 179.219 34.5232C178.874 33.6955 178.782 32.7845 178.957 31.9052C179.131 31.0259 179.564 30.2179 180.199 29.5833C180.834 28.9488 181.644 28.5162 182.527 28.3403C183.409 28.1644 184.323 28.253 185.155 28.595C185.987 28.937 186.698 29.517 187.198 30.2616C187.699 31.0063 187.967 31.8821 187.968 32.7784C187.968 33.9798 187.489 35.132 186.638 35.9825C185.786 36.833 184.631 37.3124 183.425 37.3157ZM203.054 37.3157C202.154 37.3167 201.274 37.052 200.525 36.555C199.777 36.0579 199.193 35.3509 198.848 34.5232C198.502 33.6955 198.411 32.7845 198.586 31.9052C198.76 31.0259 199.192 30.2179 199.828 29.5833C200.463 28.9488 201.273 28.5162 202.155 28.3403C203.037 28.1644 203.952 28.253 204.784 28.595C205.615 28.937 206.326 29.517 206.827 30.2616C207.328 31.0063 207.596 31.8821 207.597 32.7784C207.596 33.9798 207.118 35.132 206.266 35.9825C205.415 36.833 204.259 37.3124 203.054 37.3157Z" fill="black"/>
<path d="M140.473 226.475C139.663 223.507 138.513 220.642 137.046 217.936C141.388 217.988 168.861 219.473 170.875 251.152C168.028 250.906 165.227 250.707 162.507 250.548C158.844 231.371 145.286 227.312 140.473 226.475Z" fill="#F79155"/>
<path d="M139.571 62.9238L129.031 78.0296L159.707 63.715L139.571 62.9238Z" fill="black"/>
</g>
<defs>
<clipPath id="clip0_1_409">
<rect width="244" height="477" fill="white"/>
</clipPath>
</defs>
</svg>
